<svg width="12" height="11" viewBox="0 0 12 11" fill="none" xmlns="http://www.w3.org/2000/svg">
<path d="M11.2157 5.28571C11.2157 5.05804 11.1219 4.83705 10.9679 4.67634L10.4657 4.17411C10.305 4.02009 10.084 3.92634 9.85631 3.92634C9.62863 3.92634 9.40765 4.02009 9.25363 4.17411L7.28488 6.14286V1.42857C7.28488 0.959821 6.89648 0.571428 6.42773 0.571428H5.57059C5.10184 0.571428 4.71345 0.959821 4.71345 1.42857V6.14286L2.7447 4.17411C2.59068 4.02009 2.3697 3.92634 2.14202 3.92634C1.91434 3.92634 1.69336 4.02009 1.53265 4.17411L1.03711 4.67634C0.876395 4.83705 0.782645 5.05804 0.782645 5.28571C0.782645 5.51339 0.876395 5.73437 1.03711 5.88839L5.39648 10.2545C5.5505 10.4085 5.77148 10.5022 5.99916 10.5022C6.22684 10.5022 6.44782 10.4085 6.60854 10.2545L10.9679 5.88839C11.1219 5.73437 11.2157 5.51339 11.2157 5.28571Z" fill="#56CCF2"/>
</svg>
