<svg width="8" height="5" viewBox="0 0 8 5" fill="none" xmlns="http://www.w3.org/2000/svg">
<path d="M4.1875 4.65625H4.21094C4.16406 4.70312 4.09375 4.72656 4 4.72656C3.92969 4.72656 3.85938 4.70312 3.78906 4.65625L0.320312 1.21094C0.273438 1.16406 0.25 1.09375 0.25 1.02344C0.25 0.953125 0.273438 0.882812 0.320312 0.8125L0.789062 0.34375C0.859375 0.296875 0.929688 0.273438 1 0.273438C1.09375 0.273438 1.14062 0.296875 1.1875 0.34375L4 3.13281L6.8125 0.34375C6.85938 0.296875 6.92969 0.273438 7 0.273438C7.09375 0.273438 7.16406 0.296875 7.21094 0.34375L7.67969 0.8125C7.72656 0.882812 7.75 0.953125 7.75 1.02344C7.75 1.09375 7.72656 1.16406 7.65625 1.21094L4.1875 4.65625Z" fill="#F2C94C"/>
</svg>
