<svg width="10" height="6" viewBox="0 0 10 6" fill="none" xmlns="http://www.w3.org/2000/svg">
<path d="M4.75 0.125H4.71875C4.78125 0.0625 4.875 0.03125 5 0.03125C5.09375 0.03125 5.1875 0.0625 5.28125 0.125L9.90625 4.71875C9.96875 4.78125 10 4.875 10 4.96875C10 5.0625 9.96875 5.15625 9.90625 5.25L9.28125 5.875C9.1875 5.9375 9.09375 5.96875 9 5.96875C8.875 5.96875 8.8125 5.9375 8.75 5.875L5 2.15625L1.25 5.875C1.1875 5.9375 1.09375 5.96875 1 5.96875C0.875 5.96875 0.78125 5.9375 0.71875 5.875L0.09375 5.25C0.03125 5.15625 0 5.0625 0 4.96875C0 4.875 0.03125 4.78125 0.125 4.71875L4.75 0.125Z" fill="#F2C94C"/>
</svg>
