<svg width="243" height="152" viewBox="0 0 243 152" fill="none" xmlns="http://www.w3.org/2000/svg">
<g filter="url(#filter0_d)">
<rect x="16" y="12" width="211" height="120" rx="12" fill="#56CCF2"/>
</g>
<g clip-path="url(#clip0)">
<path d="M165.513 100.632C165.487 100.632 165.459 100.657 165.459 100.685V101.173C165.459 101.202 165.487 101.227 165.513 101.227H166.424V104.314C166.424 104.342 166.448 104.367 166.478 104.367H166.989C167.017 104.367 167.047 104.342 167.047 104.314V101.227H167.954C167.982 101.227 168.008 101.202 168.008 101.173V100.685C168.008 100.657 167.982 100.632 167.954 100.632" fill="white"/>
<path d="M127.785 95.9982C127.785 96.9987 128.573 97.7773 129.579 97.7773C130.581 97.7773 131.373 96.9987 131.373 95.9982C131.373 95.0063 130.581 94.219 129.579 94.219C128.573 94.219 127.785 95.0022 127.785 95.9982Z" fill="white"/>
<path d="M137.18 101.842L137.069 101.907L136.838 101.267C136.76 101.05 136.554 100.906 136.327 100.906H135.172C134.875 100.906 134.631 101.148 134.631 101.448V116.163C134.631 116.459 134.875 116.705 135.172 116.705H137.242C137.543 116.705 137.787 116.459 137.787 116.163V104.252L137.844 104.228C138.698 103.785 139.56 103.514 141.238 103.514C143.255 103.514 143.66 104.265 143.66 105.482V116.164C143.66 116.459 143.904 116.701 144.2 116.701H146.275C146.572 116.701 146.815 116.459 146.815 116.164V105.568C146.815 102.325 144.889 100.611 141.238 100.611C139.886 100.611 138.521 101.025 137.18 101.842" fill="white"/>
<path d="M131.125 101.448C131.125 101.147 130.882 100.906 130.585 100.906H128.568C128.271 100.906 128.028 101.147 128.028 101.448V116.163C128.028 116.459 128.271 116.701 128.568 116.701H130.581C130.882 116.701 131.125 116.459 131.125 116.163" fill="white"/>
<path d="M124.238 94.0878C124.238 93.7886 123.994 93.5462 123.693 93.5462H121.689C121.383 93.5462 121.14 93.7886 121.14 94.0878V116.163C121.14 116.459 121.383 116.701 121.684 116.701H123.693C123.994 116.701 124.238 116.459 124.238 116.163" fill="white"/>
<path d="M93.2047 107.413C93.3578 105.387 93.8932 103.514 96.7597 103.514C99.2221 103.514 99.7005 104.83 99.7587 107.418L99.7628 107.532H93.1961L93.2047 107.413ZM90 108.807C90 110.833 90 117 96.7597 117C98.7853 117 100.122 116.877 101.866 116.32C102.072 116.258 102.188 116.041 102.188 115.832V114.176C102.188 113.991 102.097 113.823 101.944 113.724C101.792 113.621 101.615 113.642 101.433 113.679C99.9191 113.995 98.7111 114.097 96.7597 114.097C93.9472 114.097 93.3949 112.322 93.2175 110.407L93.2047 110.287H102.386C102.688 110.287 102.93 110.046 102.93 109.751V108.808C102.93 104.843 102.456 100.616 96.7597 100.616C90 100.612 90 106.783 90 108.808" fill="white"/>
<path d="M108.569 107.413C108.721 105.387 109.258 103.514 112.128 103.514C114.586 103.514 115.065 104.83 115.118 107.418L115.123 107.532H108.56L108.569 107.413ZM105.364 108.807C105.364 110.833 105.364 117 112.128 117C114.153 117 115.486 116.877 117.234 116.32C117.436 116.258 117.556 116.041 117.556 115.832V114.176C117.556 113.991 117.462 113.823 117.309 113.724C117.156 113.621 116.975 113.642 116.802 113.679C115.283 113.995 114.08 114.097 112.128 114.097C109.311 114.097 108.759 112.322 108.581 110.407L108.569 110.287H117.754C118.051 110.287 118.295 110.046 118.295 109.751V108.808C118.295 104.843 117.816 100.616 112.128 100.616C105.364 100.612 105.364 106.783 105.364 108.808" fill="white"/>
<path d="M152.751 107.413C152.904 105.387 153.44 103.514 156.307 103.514C158.769 103.514 159.247 104.83 159.301 107.418L159.305 107.532H152.743L152.751 107.413ZM149.55 108.807C149.55 110.833 149.55 117 156.307 117C158.332 117 159.663 116.877 161.417 116.32C161.615 116.258 161.734 116.041 161.734 115.832V114.176C161.734 113.991 161.643 113.823 161.491 113.724C161.338 113.621 161.157 113.642 160.98 113.679C159.462 113.995 158.261 114.097 156.307 114.097C153.49 114.097 152.94 112.322 152.763 110.407L152.747 110.287H161.932C162.229 110.287 162.473 110.046 162.473 109.751V108.808C162.473 104.843 161.998 100.616 156.307 100.616C149.542 100.612 149.55 106.783 149.55 108.808" fill="white"/>
<path d="M79.9856 106.224C83.1862 106.224 84.3201 107.192 84.3201 109.915C84.3201 111.739 83.7963 113.605 79.9274 113.605H75.2712V106.22H79.9855L79.9856 106.224ZM79.7459 96.5678C83.1154 96.5678 83.5776 98.1592 83.5776 99.8735C83.5776 102.059 82.4027 103.124 79.9856 103.124H75.2713V96.5678H79.7459ZM72.582 93.4681C72.2598 93.4681 72 93.7264 72 94.0466V116.122C72 116.442 72.2598 116.705 72.582 116.705H79.8115C84.9801 116.705 87.8255 114.29 87.8255 109.915C87.8255 107.532 86.6714 105.499 84.737 104.477C84.737 104.477 84.6875 104.453 84.6421 104.424C84.6834 104.399 84.7288 104.367 84.7288 104.367C86.2259 103.285 87.0835 101.649 87.0835 99.8736C87.0835 97.4823 86.1142 93.4681 79.6011 93.4681" fill="white"/>
<path d="M171.328 100.632C171.303 100.632 171.286 100.648 171.278 100.664C171.278 100.664 170.347 102.821 170.256 103.034C170.165 102.821 169.237 100.664 169.237 100.664C169.229 100.648 169.208 100.632 169.187 100.632H168.573C168.54 100.632 168.515 100.657 168.515 100.685V104.314C168.515 104.342 168.536 104.367 168.573 104.367H169.072C169.08 104.367 169.101 104.363 169.109 104.351C169.118 104.342 169.125 104.331 169.125 104.31C169.125 104.31 169.109 102.206 169.101 101.763C169.274 102.157 170.016 103.851 170.016 103.851C170.02 103.871 170.042 103.884 170.066 103.884H170.454C170.475 103.884 170.494 103.871 170.499 103.851C170.499 103.851 171.241 102.157 171.407 101.763C171.407 102.206 171.39 104.31 171.39 104.31C171.39 104.331 171.394 104.342 171.403 104.351C171.414 104.363 171.427 104.367 171.444 104.367H171.942C171.972 104.367 172 104.342 172 104.314V100.685C172 100.657 171.976 100.632 171.942 100.632" fill="white"/>
<path fill-rule="evenodd" clip-rule="evenodd" d="M93.0814 63.8237C92.6322 61.7832 92.3955 59.6636 92.3955 57.489C92.3955 55.3304 92.6287 53.226 93.0714 51.1994H151.06C151.469 53.0681 151.699 55.003 151.732 56.9855V57.9924C151.698 59.9909 151.465 61.941 151.05 63.8237H93.0814ZM99.3331 76.4439H144.798C139.488 82.7289 131.59 86.7797 122.736 86.9741H121.4C112.542 86.7797 104.643 82.7289 99.3331 76.4439ZM144.836 38.5782H99.2951C104.637 32.2293 112.616 28.1486 121.561 27.9996H122.575C131.515 28.1486 139.494 32.2293 144.836 38.5782Z" fill="white"/>
</g>
<defs>
<filter id="filter0_d" x="0" y="0" width="243" height="152" filterUnits="userSpaceOnUse" color-interpolation-filters="sRGB">
<feFlood flood-opacity="0" result="BackgroundImageFix"/>
<feColorMatrix in="SourceAlpha" type="matrix" values="0 0 0 0 0 0 0 0 0 0 0 0 0 0 0 0 0 0 127 0"/>
<feOffset dy="4"/>
<feGaussianBlur stdDeviation="8"/>
<feColorMatrix type="matrix" values="0 0 0 0 0 0 0 0 0 0 0 0 0 0 0 0 0 0 0.1 0"/>
<feBlend mode="normal" in2="BackgroundImageFix" result="effect1_dropShadow"/>
<feBlend mode="normal" in="SourceGraphic" in2="effect1_dropShadow" result="shape"/>
</filter>
<clipPath id="clip0">
<rect width="100" height="89" fill="white" transform="translate(72 28)"/>
</clipPath>
</defs>
</svg>
