<svg width="40" height="34" viewBox="0 0 40 34" fill="none" xmlns="http://www.w3.org/2000/svg">
<path fill-rule="evenodd" clip-rule="evenodd" d="M10.388 0C4.0815 6.61272 0.620107 13.5356 0 20.7656C0 21.3857 0 21.9548 0 22.4704C0 28.2576 2.11722 31.8219 6.35658 33.1634C7.38845 33.4734 8.42289 33.6282 9.45733 33.6282C13.0744 33.6282 15.659 31.9237 17.2096 28.5142C17.7253 27.1729 17.985 25.8796 17.985 24.6399C17.985 20.7151 16.0708 18.0805 12.2479 16.7367C11.7298 16.5308 11.265 16.3758 10.8528 16.2717C8.47422 15.6518 7.23358 14.6203 7.13198 13.1723C7.23358 10.2812 9.40406 6.66349 13.6436 2.3244L10.388 0ZM32.4034 0C26.0978 6.61272 22.6359 13.5356 22.0158 20.7656C22.0158 21.3857 22.0158 21.9548 22.0158 22.4704C22.0158 28.2576 24.133 31.8219 28.3722 33.1634C29.4043 33.4734 30.4387 33.6282 31.4727 33.6282C35.0898 33.6282 37.6751 31.9237 39.225 28.5142C39.7414 27.1729 40 25.8796 40 24.6399C40 20.7151 38.0862 18.0805 34.2642 16.7367C33.7457 16.5308 33.28 16.3758 32.8687 16.2717C30.5936 15.6518 29.4043 14.6203 29.3027 13.1723C29.4043 10.1771 31.5243 6.56175 35.6593 2.3244L32.4034 0Z" fill="#56CCF2"/>
</svg>
