<svg width="16" height="14" viewBox="0 0 16 14" fill="none" xmlns="http://www.w3.org/2000/svg">
<path d="M3 2C3 1.59375 2.84375 1.25 2.5625 0.9375C2.25 0.65625 1.90625 0.5 1.5 0.5C1.0625 0.5 0.71875 0.65625 0.4375 0.9375C0.125 1.25 0 1.59375 0 2C0 2.4375 0.125 2.78125 0.4375 3.0625C0.71875 3.375 1.0625 3.5 1.5 3.5C1.90625 3.5 2.25 3.375 2.5625 3.0625C2.84375 2.78125 3 2.4375 3 2ZM1.5 5.5C1.90625 5.5 2.25 5.65625 2.5625 5.9375C2.84375 6.25 3 6.59375 3 7C3 7.4375 2.84375 7.78125 2.5625 8.0625C2.25 8.375 1.90625 8.5 1.5 8.5C1.0625 8.5 0.71875 8.375 0.4375 8.0625C0.125 7.78125 0 7.4375 0 7C0 6.59375 0.125 6.25 0.4375 5.9375C0.71875 5.65625 1.0625 5.5 1.5 5.5ZM1.5 10.5C1.90625 10.5 2.25 10.6562 2.5625 10.9375C2.84375 11.25 3 11.5938 3 12C3 12.4375 2.84375 12.7812 2.5625 13.0625C2.25 13.375 1.90625 13.5 1.5 13.5C1.0625 13.5 0.71875 13.375 0.4375 13.0625C0.125 12.7812 0 12.4375 0 12C0 11.5938 0.125 11.25 0.4375 10.9375C0.71875 10.6562 1.0625 10.5 1.5 10.5ZM16 2.5C16 2.625 15.9375 2.71875 15.875 2.78125C15.8125 2.84375 15.7188 2.875 15.625 2.875H4.375C4.25 2.875 4.15625 2.84375 4.09375 2.78125C4.03125 2.71875 4 2.625 4 2.5V1.5C4 1.40625 4.03125 1.3125 4.09375 1.25C4.15625 1.1875 4.25 1.125 4.375 1.125H15.625C15.7188 1.125 15.8125 1.1875 15.875 1.25C15.9375 1.3125 16 1.40625 16 1.5V2.5ZM16 7.5C16 7.625 15.9375 7.71875 15.875 7.78125C15.8125 7.84375 15.7188 7.875 15.625 7.875H4.375C4.25 7.875 4.15625 7.84375 4.09375 7.78125C4.03125 7.71875 4 7.625 4 7.5V6.5C4 6.40625 4.03125 6.3125 4.09375 6.25C4.15625 6.1875 4.25 6.125 4.375 6.125H15.625C15.7188 6.125 15.8125 6.1875 15.875 6.25C15.9375 6.3125 16 6.40625 16 6.5V7.5ZM16 12.5C16 12.625 15.9375 12.7188 15.875 12.7812C15.8125 12.8438 15.7188 12.875 15.625 12.875H4.375C4.25 12.875 4.15625 12.8438 4.09375 12.7812C4.03125 12.7188 4 12.625 4 12.5V11.5C4 11.4062 4.03125 11.3125 4.09375 11.25C4.15625 11.1875 4.25 11.125 4.375 11.125H15.625C15.7188 11.125 15.8125 11.1875 15.875 11.25C15.9375 11.3125 16 11.4062 16 11.5V12.5Z" fill="white"/>
</svg>
