<svg width="18" height="19" viewBox="0 0 18 19" fill="none" xmlns="http://www.w3.org/2000/svg">
<path d="M2.39062 16.7031C3.02344 17.4062 3.79688 17.8633 4.71094 18.0742C5.625 18.3203 6.50391 18.3203 7.41797 18.0742C8.29688 17.8633 9.07031 17.4062 9.77344 16.7031L16.6289 9.8125C16.6992 9.74219 16.7695 9.67188 16.7695 9.53125C16.7695 9.42578 16.6992 9.32031 16.6289 9.21484L16.0312 8.61719C15.9609 8.54688 15.8555 8.51172 15.75 8.51172C15.6094 8.51172 15.5039 8.54688 15.4336 8.61719L8.57812 15.5078C7.875 16.2109 7.03125 16.5625 6.04688 16.5625C5.0625 16.5625 4.25391 16.2461 3.55078 15.543C2.84766 14.8398 2.53125 14.0312 2.53125 13.0469C2.53125 12.0625 2.84766 11.2188 3.55078 10.5156L11.4609 2.60547C11.918 2.18359 12.4805 1.9375 13.1133 1.9375C13.7461 1.9375 14.3086 2.18359 14.7656 2.64062C15.2227 3.09766 15.4688 3.66016 15.4688 4.29297C15.4688 4.92578 15.2227 5.48828 14.8008 5.91016L8.12109 12.5898C7.91016 12.8008 7.62891 12.9062 7.3125 12.9062C6.99609 12.9062 6.71484 12.8008 6.50391 12.5898C6.25781 12.3789 6.15234 12.0977 6.15234 11.7812C6.15234 11.4648 6.25781 11.1836 6.50391 10.9727L12.1289 5.3125C12.1992 5.24219 12.2695 5.17188 12.2695 5.03125C12.2695 4.92578 12.1992 4.82031 12.1289 4.71484L11.5312 4.11719C11.4609 4.04688 11.3555 4.01172 11.25 4.01172C11.1094 4.01172 11.0391 4.04688 10.9688 4.11719L5.30859 9.77734C4.74609 10.3398 4.46484 11.0078 4.46484 11.7812C4.46484 12.5547 4.74609 13.2227 5.30859 13.7852C5.87109 14.3477 6.53906 14.5938 7.3125 14.5938C8.08594 14.5938 8.75391 14.3477 9.31641 13.7852L15.9609 7.10547C16.4531 6.61328 16.8047 6.01562 17.0156 5.3125C17.1914 4.60938 17.1914 3.94141 17.0156 3.23828C16.8047 2.53516 16.4531 1.9375 15.9609 1.44531C15.4336 0.953125 14.8359 0.601562 14.1328 0.390625C13.4297 0.214844 12.7617 0.214844 12.0586 0.390625C11.3555 0.601562 10.793 0.917969 10.3008 1.41016L2.39062 9.35547C1.6875 10.0234 1.23047 10.7969 1.01953 11.6758C0.773438 12.5898 0.773438 13.4688 1.01953 14.3828C1.23047 15.2969 1.6875 16.0703 2.39062 16.7031Z" fill="white"/>
</svg>
