<svg width="60" height="60" viewBox="0 0 60 60" fill="none" xmlns="http://www.w3.org/2000/svg">
<path d="M21 39.3C19.8 38.2 18.3 37.6 16.7 37.6C15 37.6 13.3 38.3 12.2 39.6C11.1 40.8 10.5 42.4 10.5 44.1C10.6 45.8 11.3 47.3 12.5 48.4C13.7 49.5 15.2 50.1 16.8 50.1C18.5 50.1 20.2 49.4 21.3 48.1C22.4 46.9 23 45.3 23 43.6C23 42 22.3 40.5 21 39.3ZM19.7 46.6C18.9 47.4 17.9 47.9 16.7 47.9C15.7 47.9 14.7 47.5 13.9 46.8C13.1 46.1 12.7 45.1 12.6 44C12.6 42.9 13 41.9 13.7 41.1C14.5 40.3 15.5 39.8 16.7 39.8C17.7 39.8 18.7 40.2 19.5 40.9C20.3 41.6 20.7 42.6 20.8 43.7C20.9 44.8 20.5 45.8 19.7 46.6Z" fill="#56CCF2"/>
<path d="M27.7004 41.3L25.2004 40.6C25.1004 40.3 24.9004 40 24.8004 39.6L25.9004 37.3C26.1004 36.9 26.0004 36.4 25.7004 36.1C25.4004 35.8 25.1004 35.4 24.8004 35.2C24.5004 34.9 24.2004 34.6 23.8004 34.4C23.5004 34.1 23.0004 34.1 22.6004 34.3L20.4004 35.6C20.1004 35.5 19.8004 35.3 19.4004 35.2L18.6004 32.8C18.5004 32.4 18.1004 32.1 17.7004 32.1C16.8004 32 16.0004 32.1 15.1004 32.2C14.7004 32.3 14.3004 32.6 14.2004 33L13.5004 35.5C13.2004 35.6 12.9004 35.8 12.6004 35.9L10.3004 34.8C9.90041 34.6 9.40041 34.7 9.10041 35C8.70041 35.3 8.40041 35.6 8.20041 35.9C7.90041 36.2 7.60041 36.5 7.40041 36.9C7.10041 37.1 7.00041 37.6 7.30041 38L8.60041 40.2C8.50041 40.5 8.30041 40.8 8.20041 41.2L5.70041 42C5.30041 42.1 5.00041 42.5 5.00041 42.9C4.90041 43.8 5.00041 44.6 5.10041 45.5C5.20041 45.9 5.50041 46.3 5.90041 46.4L8.40041 47.1C8.50041 47.4 8.70041 47.7 8.80041 48L7.70041 50.3C7.50041 50.7 7.60041 51.2 7.90041 51.5C8.20041 51.9 8.50041 52.2 8.80041 52.4C9.10041 52.7 9.40041 53 9.80041 53.2C10.1004 53.5 10.6004 53.5 11.0004 53.3L13.2004 52C13.5004 52.1 13.8004 52.3 14.2004 52.4L15.0004 54.8C15.1004 55.2 15.5004 55.5 15.9004 55.5C16.2004 55.5 16.5004 55.5 16.8004 55.5C17.4004 55.5 17.9004 55.5 18.5004 55.4C18.9004 55.3 19.3004 55 19.4004 54.6L20.1004 52.1C20.4004 52 20.7004 51.8 21.1004 51.7L23.4004 52.8C23.8004 53 24.3004 52.9 24.6004 52.6C24.9004 52.3 25.2004 52 25.5004 51.7C25.8004 51.4 26.0004 51.1 26.3004 50.7C26.6004 50.4 26.6004 49.9 26.4004 49.5L25.1004 47.3C25.2004 47 25.4004 46.7 25.5004 46.3L27.9004 45.5C28.3004 45.4 28.6004 45 28.6004 44.6C28.7004 43.7 28.6004 42.9 28.5004 42C28.4004 41.7 28.1004 41.4 27.7004 41.3ZM24.2004 44.7C23.9004 44.8 23.6004 45.1 23.5004 45.5C23.4004 46.1 23.2004 46.6 22.9004 47.1C22.7004 47.4 22.7004 47.8 22.9004 48.1L24.1004 50.2C24.0004 50.3 23.9004 50.4 23.9004 50.5C23.8004 50.6 23.7004 50.7 23.6004 50.8L21.5004 49.8C21.2004 49.6 20.8004 49.7 20.5004 49.9C20.0004 50.2 19.5004 50.4 18.9004 50.6C18.5004 50.7 18.3004 51 18.2004 51.4L17.6004 53.7C17.4004 53.7 17.1004 53.7 16.9004 53.7L16.0004 51.2C15.9004 50.8 15.6004 50.6 15.2004 50.5C14.6004 50.4 14.1004 50.2 13.6004 49.9C13.3004 49.7 12.9004 49.7 12.6004 49.9L10.5004 51.1C10.4004 51 10.3004 50.9 10.2004 50.9C10.1004 50.8 10.0004 50.7 9.90041 50.7L10.9004 48.6C11.1004 48.3 11.0004 47.9 10.8004 47.6C10.5004 47.1 10.3004 46.6 10.1004 46C10.0004 45.6 9.70041 45.4 9.40041 45.3L7.10041 44.7C7.10041 44.5 7.10041 44.2 7.10041 44L9.40041 43C9.80041 42.9 10.0004 42.6 10.1004 42.2C10.2004 41.6 10.4004 41.1 10.7004 40.6C10.9004 40.3 10.9004 39.9 10.7004 39.6L9.50041 37.5C9.60041 37.4 9.70041 37.3 9.70041 37.2C9.80041 37.1 9.90041 37 10.0004 36.9L12.1004 37.9C12.4004 38.1 12.8004 38 13.1004 37.8C13.6004 37.5 14.1004 37.3 14.7004 37.1C15.1004 37 15.3004 36.7 15.4004 36.3L16.0004 34C16.2004 34 16.5004 34 16.7004 34L17.5004 36.2C17.6004 36.6 17.9004 36.8 18.3004 36.9C18.8004 37 19.4004 37.2 19.9004 37.5C20.2004 37.7 20.6004 37.7 20.9004 37.5L23.0004 36.3C23.1004 36.4 23.2004 36.5 23.3004 36.5C23.4004 36.6 23.5004 36.7 23.6004 36.8L22.6004 38.9C22.4004 39.2 22.5004 39.6 22.7004 39.9C23.0004 40.4 23.2004 40.9 23.4004 41.5C23.5004 41.9 23.8004 42.1 24.1004 42.2L26.4004 42.8C26.4004 43 26.4004 43.3 26.4004 43.5L24.2004 44.7Z" fill="#56CCF2"/>
<path d="M43.6014 15.2C41.5014 13.2 38.8014 12.2 35.9014 12.2C32.8014 12.2 29.8014 13.5 27.7014 15.8C23.5014 20.3 23.7014 27.5 28.2014 31.7C30.3014 33.7 33.0014 34.7 35.9014 34.7C39.0014 34.7 42.0014 33.4 44.1014 31.1C46.2014 28.9 47.2014 26 47.1014 23C47.1014 20.1 45.8014 17.3 43.6014 15.2ZM42.5014 29.6C40.8014 31.5 38.4014 32.5 35.9014 32.5C33.6014 32.5 31.4014 31.6 29.7014 30.1C26.1014 26.7 25.9014 20.9 29.3014 17.3C31.0014 15.4 33.4014 14.4 35.9014 14.4C38.2014 14.4 40.4014 15.3 42.1014 16.9C43.9014 18.6 44.9014 20.8 45.0014 23.2C45.1014 25.6 44.2014 27.9 42.5014 29.6Z" fill="#56CCF2"/>
<path d="M54.5 18.8C54.4 18.4 54 18 53.5 18L50.2 17.7C49.9 16.8 49.5 16.1 49 15.3L50.7 12.5C50.9 12.1 50.9 11.6 50.6 11.3C50 10.5 49.5 10 49 9.50001C48.5 9.00001 47.9 8.50001 47.1 8.00001C46.7 7.70001 46.2 7.70001 45.8 8.00001L43.1 9.80001C42.4 9.40001 41.6 9.10001 40.7 8.80001L40.1 5.50001C40 5.00001 39.7 4.70001 39.2 4.60001C37.6 4.30001 36 4.20001 34.4 4.40001C33.9 4.40001 33.6 4.70001 33.4 5.20001L32.5 8.40001C31.6 8.60001 30.8 8.80001 30 9.10001L27.7 7.00001C27.4 6.70001 26.9 6.70001 26.5 6.90001C25.2 7.70001 23.9 8.60001 22.7 9.80001C22.4 10.1 22.3 10.6 22.5 11L23.9 14C23.4 14.7 22.9 15.4 22.5 16.1H19.1C18.6 16.1 18.2 16.4 18.1 16.8C17.6 18.3 17.2 19.8 17 21.5C17 22 17.2 22.4 17.6 22.6L20.6 24C20.6 24.9 20.7 25.7 20.9 26.5L18.4 28.6C18 28.9 17.9 29.4 18.1 29.8C18.6 31.3 19.4 32.8 20.3 34.1C20.6 34.5 21 34.7 21.5 34.5L24.7 33.7C25 34 25.2 34.3 25.6 34.6C25.9 34.9 26.3 35.2 26.6 35.4L26 38.7C25.9 39.2 26.1 39.6 26.5 39.8C27.9 40.6 29.4 41.2 30.9 41.7C31.3 41.8 31.8 41.7 32.1 41.3L34 38.6C34.8 38.7 35.7 38.8 36.6 38.7L38.2 41.6C38.4 41.9 38.8 42.2 39.1 42.2C39.2 42.2 39.2 42.2 39.3 42.2C40.9 41.9 42.5 41.5 43.9 40.8C44.3 40.6 44.6 40.2 44.5 39.7L44.3 36.4C45 35.9 45.7 35.4 46.3 34.9L49.4 36.1C49.8 36.3 50.3 36.1 50.6 35.8C51.7 34.5 52.6 33.2 53.2 31.8C53.4 31.4 53.3 30.9 53 30.6L50.7 28.2C51 27.4 51.1 26.6 51.3 25.6L54.4 24.5C54.8 24.3 55.1 23.9 55.1 23.5C55 22 54.8 20.4 54.5 18.8ZM49.8 23.9C49.4 24 49.1 24.4 49.1 24.8C49 26.1 48.7 27.2 48.4 28.1C48.3 28.5 48.3 28.9 48.6 29.2L50.8 31.5C50.4 32.3 49.9 33 49.3 33.8L46.3 32.7C45.9 32.6 45.5 32.6 45.2 32.9C44.4 33.7 43.5 34.3 42.5 34.9C42.1 35.1 41.9 35.5 41.9 35.9L42.1 39.1C41.3 39.4 40.4 39.7 39.5 39.9L37.9 37.1C37.7 36.8 37.3 36.5 37 36.5H36.9C35.7 36.6 34.6 36.5 33.5 36.3C33.1 36.2 32.7 36.4 32.4 36.7L30.5 39.3C29.6 39 28.8 38.6 28 38.2L28.6 35C28.7 34.6 28.5 34.2 28.2 33.9C28.1 33.8 28 33.7 27.8 33.6C27.4 33.3 27.1 33.1 26.8 32.8C26.5 32.5 26.2 32.2 25.9 31.8C25.8 31.7 25.7 31.6 25.7 31.5C25.4 31.2 25 31 24.6 31.1L21.5 31.9C21 31.1 20.6 30.3 20.3 29.5L22.8 27.5C23.1 27.2 23.3 26.8 23.2 26.4C22.9 25.3 22.8 24.2 22.8 23C22.8 22.6 22.6 22.2 22.2 22L19.2 21C19.3 20.1 19.5 19.2 19.8 18.3H23C23.4 18.3 23.8 18.1 24 17.7C24.5 16.6 25.1 15.7 25.8 14.9C26.1 14.6 26.1 14.1 26 13.7L24.7 10.8C25.4 10.2 26.1 9.60001 26.9 9.10001L29.3 11.2C29.6 11.5 30.1 11.5 30.5 11.4C31.5 11 32.5 10.7 33.8 10.4C34.2 10.3 34.6 10 34.7 9.60001L35.6 6.50001C36.5 6.50001 37.4 6.50001 38.3 6.60001L38.8 9.80001C38.9 10.2 39.2 10.6 39.6 10.7C40.8 11 41.9 11.5 42.8 12C43.2 12.2 43.6 12.2 44 12L46.6 10.2C47 10.5 47.3 10.8 47.6 11.1C47.9 11.4 48.2 11.7 48.6 12.1L47 14.8C46.8 15.2 46.8 15.6 47 16C47.6 16.9 48.1 17.9 48.5 19.1C48.6 19.5 49 19.8 49.4 19.8L52.6 20.1C52.8 21 52.9 21.9 52.9 22.8L49.8 23.9Z" fill="#56CCF2"/>
</svg>
