<svg width="15" height="16" viewBox="0 0 15 16" fill="none" xmlns="http://www.w3.org/2000/svg">
<path d="M9.09375 8L14.9062 13.8125C14.9531 13.9062 15 14 15 14.0938C15 14.1875 14.9531 14.2812 14.9062 14.3281L13.8281 15.4062C13.7344 15.5 13.6406 15.5 13.5469 15.5C13.4531 15.5 13.3594 15.5 13.3125 15.4062L7.5 9.59375L1.6875 15.4062C1.59375 15.5 1.5 15.5 1.40625 15.5C1.3125 15.5 1.21875 15.5 1.17188 15.4062L0.09375 14.3281C0 14.2812 0 14.1875 0 14.0938C0 14 0 13.9062 0.09375 13.8125L5.90625 8L0.09375 2.1875C0 2.14062 0 2.04688 0 1.95312C0 1.85938 0 1.76562 0.09375 1.67188L1.17188 0.59375C1.21875 0.546875 1.3125 0.5 1.40625 0.5C1.5 0.5 1.59375 0.546875 1.6875 0.59375L7.5 6.40625L13.3125 0.59375C13.3594 0.546875 13.4531 0.5 13.5469 0.5C13.6406 0.5 13.7344 0.546875 13.8281 0.59375L14.9062 1.67188C14.9531 1.76562 15 1.85938 15 1.95312C15 2.04688 14.9531 2.14062 14.9062 2.1875L13.9219 3.17188L9.09375 8Z" fill="white"/>
</svg>
