<svg width="197" height="151" viewBox="0 0 197 151" fill="none" xmlns="http://www.w3.org/2000/svg">
<g clip-path="url(#clip0)">
<path opacity="0.1" d="M17.1059 69.7909C14.3799 70.6818 11.8356 72.8382 11.1487 75.8291C10.369 79.2654 12.1646 82.7382 12.4208 86.2618C13.2586 97.8273 -1.95981 105.987 0.210093 117.353C1.07333 121.864 4.559 125.189 7.99559 127.925C13.4967 132.309 19.5993 136.18 26.3508 137.275C36.6078 138.935 47.3265 134.051 57.2983 137.138C65.34 139.627 71.4936 146.925 79.4808 149.618C85.5616 151.669 92.1095 150.86 98.432 150.031C101.832 149.585 105.405 149.069 108.155 146.86C113.274 142.747 113.583 134.627 117.007 128.807C122.29 119.824 133.874 118.069 143.588 119.815C153.301 121.56 162.728 125.864 172.569 125.5C174.671 125.425 176.829 125.115 178.66 124C180.89 122.644 182.399 120.256 183.731 117.893C192.032 103.165 196.658 86.0345 196.987 68.7891C197.043 65.8091 196.947 62.7 195.651 60.0618C194.015 56.7327 190.744 54.7454 187.473 53.4036C179.644 50.2 170.995 49.6818 163.32 46.0454C155.918 42.5418 149.921 36.3945 143.477 31.1363C130.695 20.6909 115.671 13.4618 99.9477 10.18C96.2458 9.40726 92.4039 8.85453 88.7256 9.74726C84.4876 10.7763 80.8347 13.6327 77.5508 16.7054C68.8112 24.8873 61.8089 34.9745 53.7581 43.9382C48.2423 50.0752 42.1915 55.7089 35.6774 60.7727C32.6915 63.0945 29.5293 65.8509 26.209 67.5673C23.1722 69.1363 20.3172 68.7418 17.1059 69.7909Z" fill="#56CCF2"/>
<path d="M184.379 75.6818C180.381 74.8454 172.811 73.2763 164.244 71.5382C151.561 68.9654 148.252 78.7036 148.252 78.7036C148.252 83.6636 131.714 104.238 131.714 104.238L126.782 93.1836C127.54 93.3006 128.314 93.2485 129.05 93.0309C131.874 92.1872 133.27 89 133.722 86.0891C134.397 81.7048 133.78 77.2188 131.946 73.18C131.105 71.3363 130.015 69.6018 129.339 67.6927C126.487 59.6818 131.427 50.4091 128.439 42.4291C127.205 39.1363 124.744 36.4654 123.043 33.3891C119.227 26.4709 119.39 17.8163 115.229 11.0963C111.325 4.79634 103.632 1.06179 96.263 1.89452C91.9177 2.38543 88.8118 3.93816 84.7628 2.07634C81.3444 0.509066 77.2408 -1.24366 73.7206 1.22543C70.7184 3.33088 70.2077 7.47816 68.5685 10.7563C65.6898 16.5145 58.8602 20.2727 58.0569 26.66C57.8589 28.2345 58.0569 29.8673 57.5972 31.3872C56.285 35.6836 50.5713 36.9527 48.2306 40.7872C45.9389 44.54 48.2542 50.2145 52.5177 51.2963C54.335 51.7582 56.2905 51.4782 58.106 51.9673C59.8089 52.4218 61.4608 54.0145 61.1664 55.6782L57.39 56.3654L46.5241 57.5727L44.843 57.6782C44.843 57.6782 44.843 57.7073 44.843 57.76L44.7522 57.7709L44.8412 57.8436C44.8412 57.9727 44.8412 58.1745 44.8412 58.44C41.7826 59.6382 36.8267 62.8363 34.9549 71.2254C34.526 73.1401 33.6595 74.9294 32.4233 76.4527C29.6373 79.8891 25.014 86.6 25.2721 93.0418C25.6355 102.227 25.6355 105.902 37.7718 103.329C40.8376 102.68 44.1725 101.349 47.4455 99.7236C47.6363 103.553 48.1324 107.307 49.1683 110.125C52.4777 119.127 45.4918 150.909 45.4918 150.909H112.957C112.957 150.909 107.258 132.171 101.744 122.618C97.8386 115.851 99.2816 111.758 100.456 109.945C101.474 108.405 102.234 106.709 102.707 104.924C102.907 104.14 103.102 103.251 103.269 102.265C104.51 103.282 105.835 104.195 107.334 104.74C108.723 105.244 110.302 105.382 111.707 104.993C114.582 108.509 117.793 112.365 121.23 116.373C134.465 131.804 138.142 122.251 138.142 122.251C138.142 122.251 151.561 96.7163 153.408 89C155.254 81.2836 159.29 81.6509 159.29 81.6509C170.354 84.4491 180.161 80.3873 184.717 77.9436C184.938 77.826 185.118 77.6426 185.231 77.4186C185.344 77.1947 185.384 76.9412 185.347 76.6931C185.31 76.445 185.197 76.2145 185.024 76.0334C184.85 75.8523 184.625 75.7295 184.379 75.6818ZM47.8744 80.2982C48.7975 79.2456 49.5907 78.0857 50.2369 76.8436H50.2715C49.9364 78.1278 49.5045 79.3848 48.9793 80.6036C47.9489 80.8018 47.3274 80.9054 47.3274 80.9054L47.8744 80.2982Z" fill="url(#paint0_linear)"/>
<path d="M73.2385 2.85992C70.2707 4.94356 69.7655 9.04174 68.1499 12.2926C65.3039 17.9908 58.5525 21.7126 57.7583 28.0326C57.5621 29.5908 57.7583 31.2072 57.304 32.709C56.0082 36.9617 50.3581 38.2181 48.0356 42.0126C45.7693 45.7254 48.0592 51.3417 52.2736 52.4126C54.0746 52.8708 56.0028 52.5945 57.7983 53.0763C59.5939 53.5581 61.3331 55.3181 60.7388 57.0763C60.2972 58.3854 58.7397 59.1308 58.4562 60.4836C58.209 61.6472 59.0014 62.7563 59.7683 63.6617C60.7424 64.8072 61.7819 65.9345 63.085 66.6854C66.6688 68.7508 71.1394 67.5108 75.2721 67.3745C80.2718 67.226 85.1731 68.7848 89.1693 71.7945C90.3124 72.6617 91.3883 73.6636 92.097 74.9126C94.4069 78.9817 92.2224 84.089 92.7131 88.7417C93.2692 94.029 97.2165 98.2726 101.202 101.787C102.794 103.191 104.473 104.574 106.472 105.3C108.471 106.025 110.861 105.985 112.542 104.691C114.309 103.331 114.923 100.922 114.934 98.6908C114.945 96.4599 114.476 94.2399 114.588 92.0126C114.643 90.9217 115.041 89.6254 116.104 89.4108C116.637 89.3036 117.176 89.5199 117.662 89.7636C121.053 91.469 124.306 94.809 127.94 93.7254C130.734 92.8908 132.12 89.7363 132.56 86.8545C133.227 82.5173 132.617 78.0797 130.805 74.0836C129.972 72.2654 128.895 70.5436 128.226 68.6526C125.416 60.709 130.296 51.529 127.344 43.6363C126.125 40.3781 123.692 37.7345 122.01 34.689C118.23 27.8417 118.399 19.2763 114.283 12.6254C110.425 6.38901 102.818 2.69447 95.5336 3.5181C91.2374 4.00356 88.1679 5.54174 84.1643 3.69992C80.7841 2.15265 76.7278 0.409012 73.2385 2.85992Z" fill="#40243E"/>
<path d="M102.043 60.4547C102.043 60.4547 113.856 56.8183 118.581 77.9092L130.576 104.818C130.576 104.818 146.932 84.4547 146.932 79.5456C146.932 79.5456 150.203 69.9092 162.743 72.4547C171.213 74.1747 178.688 75.7274 182.648 76.5547C182.889 76.6048 183.108 76.7278 183.277 76.9069C183.446 77.0861 183.555 77.3128 183.591 77.5563C183.626 77.7998 183.586 78.0483 183.476 78.2682C183.365 78.4881 183.19 78.6687 182.973 78.7856C178.47 81.2038 168.774 85.2238 157.836 82.4547C157.836 82.4547 153.838 82.091 152.02 89.7274C150.203 97.3638 136.936 122.636 136.936 122.636C136.936 122.636 133.302 132.091 120.217 116.818C107.132 101.546 97.3184 88.4547 97.3184 88.4547L102.043 60.4547Z" fill="#FFBCC8"/>
<path d="M102.043 63L100.477 68.1618L98.9282 73.2673L95.8642 83.3636L81.3254 86.0909L76.5876 83.0672L70.7849 79.3636L65.7817 75.9091L58.4269 70.8182L52.4297 58.2727C52.4297 58.2727 54.0835 57.98 59.2393 57.0418L66.4232 55.7272C71.3846 54.8182 73.2601 51.1236 73.8325 47.3636C74.5177 42.8618 73.3291 38.2727 73.3291 38.2727H91.6843C91.6843 38.2727 93.7379 41.3636 93.4162 46.7018C93.3152 48.2814 93.0391 49.845 92.593 51.3636C90.9792 56.9527 94.6229 58.8182 97.0945 59.4236C97.7629 59.5933 98.4466 59.695 99.1354 59.7272L102.043 63Z" fill="#FFBCC8"/>
<path opacity="0.1" d="M93.4113 46.7018C90.5984 48.7839 87.2199 49.9623 83.7229 50.0811C80.2259 50.1999 76.7752 49.2536 73.8276 47.3673C74.5128 42.8655 73.3242 38.2764 73.3242 38.2764H91.6794C91.6794 38.2764 93.7384 41.3545 93.4113 46.7018Z" fill="black"/>
<path d="M83.1437 49.5455C92.6787 49.5455 100.408 41.8122 100.408 32.2727C100.408 22.7333 92.6787 15 83.1437 15C73.6086 15 65.8789 22.7333 65.8789 32.2727C65.8789 41.8122 73.6086 49.5455 83.1437 49.5455Z" fill="#FFBCC8"/>
<path opacity="0.1" d="M102.043 62.9999L100.477 68.1617L98.9282 73.2672L95.8642 83.3635L81.3254 86.0908L76.5876 83.0672L70.7849 79.3635L65.7817 75.909L58.4269 70.8181L52.4297 58.2727C52.4297 58.2727 54.0835 57.9799 59.2393 57.0417C62.874 67.1599 67.4718 70.9272 71.6208 72.149C74.1015 72.8763 76.4204 72.6945 78.2687 72.4217C80.6443 72.0414 83.0734 72.1653 85.3981 72.7854C90.9773 74.3381 93.9142 71.3654 95.4571 67.5926C96.5984 64.8017 96.9764 61.5708 97.0927 59.4108C97.7611 59.5805 98.4448 59.6822 99.1336 59.7145L102.043 62.9999Z" fill="black"/>
<path d="M45.3419 151C45.3419 151 52.2478 119.545 48.9766 110.636C48.0407 108.091 47.55 104.76 47.3301 101.313C46.7849 92.7182 47.8862 83.3636 47.8862 83.3636C48.0425 83.06 48.1897 82.7582 48.3314 82.4546C48.6949 81.6788 49.0147 80.92 49.291 80.1782C53.1855 69.6946 48.3405 62.7146 45.8835 60.0455C45.4894 59.6075 45.0643 59.1985 44.6113 58.8218L58.514 57.2764C62.1687 67.7691 66.8556 71.64 71.0718 72.88C73.5525 73.6073 75.8714 73.4255 77.7197 73.1527C80.0953 72.7724 82.5244 72.8963 84.8491 73.5164C90.4283 75.0691 93.3652 72.0964 94.9081 68.3236C96.8236 63.64 96.5873 57.7255 96.5873 57.7255L104.584 60.0891C104.584 60.0891 103.878 64.4709 103.241 70.2291C103.09 71.58 102.943 73.0055 102.81 74.4691C102.265 80.5745 101.941 87.3255 102.585 91.9073C103.238 96.435 103.006 101.047 101.899 105.485C101.432 107.252 100.681 108.931 99.675 110.456C98.5137 112.249 97.0871 116.302 100.947 123.002C106.399 132.456 112.033 151.002 112.033 151.002L45.3419 151Z" fill="#FF808E"/>
<path d="M104.496 60.1819C104.496 60.1819 111.099 70.5455 102.435 79.4546C93.7722 88.3637 97.227 75.8182 97.227 75.8182L99.4078 61.2728L104.496 60.1819Z" fill="#FF808E"/>
<path opacity="0.1" d="M45.8848 60.0455C46.3775 59.8895 46.8828 59.7764 47.395 59.7073C49.7575 60.8345 51.066 63.9636 51.7766 67.2309C52.2509 69.4469 52.2754 71.7357 51.8486 73.9613C51.4219 76.187 50.5525 78.3042 49.2923 80.1873C53.1868 69.6945 48.3418 62.7145 45.8848 60.0455Z" fill="black"/>
<path opacity="0.1" d="M102.815 74.4709C98.9347 74.7273 93.8661 74.2727 93.8661 74.2727C94.5494 77.4 93.1392 79.8437 91.6853 81.4364C91.1294 82.0524 90.4277 82.5189 89.6447 82.7931C88.8616 83.0672 88.0223 83.1403 87.2037 83.0055C78.8185 81.5509 66.068 89.1873 66.068 89.1873C66.068 89.1873 56.9486 96.5564 47.3312 101.318C46.786 92.7236 47.8873 83.3691 47.8873 83.3691C48.0436 83.0655 48.1908 82.7637 48.3326 82.46C52.2181 81.7327 66.3352 78.86 69.1502 74.6418C69.5682 74.0146 70.2407 73.4273 71.0766 72.8818C73.481 71.3255 77.3283 70.1055 80.9866 69.2146C85.5398 68.0972 90.2551 67.798 94.9129 68.3309C96.9125 68.5601 98.891 68.9461 100.83 69.4855C101.677 69.72 102.495 69.9727 103.245 70.2364C105.303 70.9637 106.862 71.7764 107.133 72.6418C107.498 73.8055 105.424 74.3 102.815 74.4709Z" fill="black"/>
<path opacity="0.1" d="M98.9278 73.2673C96.1309 73.22 93.6829 73 93.6829 73C94.3662 76.1273 92.956 78.5709 91.5021 80.1636C90.9461 80.7796 90.2445 81.2461 89.4614 81.5203C88.6784 81.7945 87.8391 81.8675 87.0205 81.7327C83.8602 81.1873 80.0783 81.9309 76.5944 83.0673L70.7844 79.3636L65.7812 75.9091C67.2351 75.1291 68.3601 74.2727 68.9671 73.3636C70.5809 70.9418 75.873 69.14 80.8034 67.9363C87.2739 66.3402 94.0439 66.4178 100.476 68.1618L100.647 68.2073C103.807 69.0891 106.581 70.1818 106.95 71.3636C107.48 73.0636 102.86 73.3363 98.9278 73.2673Z" fill="black"/>
<path d="M47.2128 58.7944C47.2128 58.7944 37.7063 59.7617 34.9349 72.0908C34.5064 74.0073 33.642 75.7992 32.4088 77.3272C29.6537 80.7326 25.0976 87.3635 25.352 93.729C25.7155 102.82 25.7155 106.456 37.7099 103.911C49.7044 101.365 65.8788 88.2744 65.8788 88.2744C65.8788 88.2744 78.6292 80.6508 87.0145 82.0926C87.833 82.2271 88.6722 82.1539 89.4552 81.8797C90.2382 81.6056 90.9399 81.1393 91.496 80.5235C92.9499 78.9308 94.3693 76.4872 93.6768 73.3599C93.6768 73.3599 107.852 74.6326 106.943 71.7235C106.58 70.5417 103.801 69.449 100.641 68.569C94.1587 66.781 87.3262 66.6871 80.7973 68.2963C75.8578 69.5017 70.5748 71.3035 68.961 73.7235C65.6898 78.6326 47.1529 81.7235 47.1529 81.7235L47.6981 81.1108C49.4586 79.1217 50.7281 76.7472 51.4049 74.1781C52.0816 71.609 52.1465 68.9169 51.5944 66.3181C50.8857 63.0508 49.5827 59.9217 47.2128 58.7944Z" fill="#FFBCC8"/>
<path d="M44.7068 58.7272C44.7068 58.7272 44.1616 80.7272 52.3396 77.4544C60.5176 74.1817 54.1569 58.7272 54.1569 58.7272L50.5223 58.3635L44.7068 58.7272Z" fill="#FF808E"/>
<path opacity="0.1" d="M69.1814 32.5691C74.5732 31.9702 79.8906 30.8268 85.0523 29.1563C86.3789 28.7273 87.8201 28.1563 88.4398 26.9091C88.5997 26.5873 88.7196 26.2054 89.034 26.0291C89.3012 25.8782 89.6319 25.9254 89.9318 25.9945C91.7037 26.4145 93.2248 27.5254 94.9132 28.2073C96.6015 28.8891 98.7514 29.0491 100.049 27.7691C101.581 26.2563 101.074 23.6563 100.065 21.7563C96.3198 14.6873 87.5456 11.46 79.5639 12.0454C78.4426 12.1273 77.3031 12.2782 76.2927 12.7727C74.1555 13.8 72.9851 16.0854 71.8275 18.1563C69.5758 22.1727 57.6704 33.8436 69.1814 32.5691Z" fill="black"/>
<path d="M69.1814 32.0237C74.5732 31.4248 79.8906 30.2814 85.0523 28.6109C86.3789 28.1818 87.8201 27.6109 88.4398 26.3637C88.5997 26.0418 88.7196 25.66 89.034 25.4837C89.3012 25.3328 89.6319 25.38 89.9318 25.4491C91.7037 25.8691 93.2248 26.98 94.9132 27.6618C96.6015 28.3437 98.7514 28.5037 100.049 27.2237C101.581 25.7109 101.074 23.1109 100.065 21.2109C96.3198 14.1418 87.5456 10.9146 79.5639 11.5C78.4426 11.5818 77.3031 11.7328 76.2927 12.2273C74.1555 13.2546 72.9851 15.54 71.8275 17.6109C69.5758 21.6273 57.6704 33.2982 69.1814 32.0237Z" fill="#40243E"/>
<path d="M186.321 51.2727H149.429C148.983 51.2727 148.556 51.4499 148.24 51.7653C147.925 52.0807 147.748 52.5085 147.748 52.9545V74.5909C147.748 75.0369 147.925 75.4647 148.24 75.7801C148.556 76.0955 148.983 76.2727 149.429 76.2727H186.321C186.767 76.2727 187.195 76.0955 187.51 75.7801C187.825 75.4647 188.002 75.0369 188.002 74.5909V52.9545C188.002 52.5085 187.825 52.0807 187.51 51.7653C187.195 51.4499 186.767 51.2727 186.321 51.2727Z" fill="url(#paint1_linear)"/>
<path d="M185.365 51.5671H150.379C149.184 51.5671 148.215 52.5366 148.215 53.7326V73.8144C148.215 75.0104 149.184 75.9799 150.379 75.9799H185.365C186.56 75.9799 187.529 75.0104 187.529 73.8144V53.7326C187.529 52.5366 186.56 51.5671 185.365 51.5671Z" fill="#56CCF2"/>
<path d="M187.529 55.8398H148.215V60.3162H187.529V55.8398Z" fill="#56CCF2"/>
<path opacity="0.3" d="M187.529 55.8398H148.215V60.3162H187.529V55.8398Z" fill="black"/>
<path d="M183.801 63.6382H151.943V65.8091H183.801V63.6382Z" fill="#D6D6E3"/>
<path d="M154.585 74.3525C156.308 74.3525 157.704 72.9557 157.704 71.2325C157.704 69.5094 156.308 68.1125 154.585 68.1125C152.863 68.1125 151.467 69.5094 151.467 71.2325C151.467 72.9557 152.863 74.3525 154.585 74.3525Z" fill="#56CCF2"/>
<path opacity="0.3" d="M154.585 74.3525C156.308 74.3525 157.704 72.9557 157.704 71.2325C157.704 69.5094 156.308 68.1125 154.585 68.1125C152.863 68.1125 151.467 69.5094 151.467 71.2325C151.467 72.9557 152.863 74.3525 154.585 74.3525Z" fill="black"/>
<path opacity="0.05" d="M45.9793 81.8181C45.9793 81.8181 42.5263 83.6527 41.9539 85.8945C41.3814 88.1363 40.709 88.5454 40.709 88.5454" fill="black"/>
<path opacity="0.05" d="M130.666 104.727C130.666 104.727 129.031 110.364 130.666 111.091V104.727Z" fill="black"/>
<path opacity="0.05" d="M49.0684 111.091C49.0684 111.091 63.2436 114.182 73.7842 107.818H78.3276C78.3276 107.818 91.9577 114.727 98.5001 112.727" fill="black"/>
<path d="M149.694 100.158L146.945 106.459L159.217 111.818L161.966 105.517L149.694 100.158Z" fill="#8ED16F"/>
<path d="M157.002 107.197C157.314 106.483 156.41 105.399 154.983 104.776C153.556 104.153 152.147 104.227 151.836 104.941C151.524 105.655 152.428 106.739 153.855 107.362C155.282 107.985 156.691 107.911 157.002 107.197Z" fill="#8ED16F"/>
<path opacity="0.1" d="M157.002 107.197C157.314 106.483 156.41 105.399 154.983 104.776C153.556 104.153 152.147 104.227 151.836 104.941C151.524 105.655 152.428 106.739 153.855 107.362C155.282 107.985 156.691 107.911 157.002 107.197Z" fill="black"/>
<path d="M167.692 77.7109L164.943 84.0115L177.215 89.3704L179.964 83.0699L167.692 77.7109Z" fill="#8ED16F"/>
<path d="M175 84.7497C175.312 84.0355 174.408 82.9515 172.981 82.3285C171.554 81.7055 170.145 81.7794 169.834 82.4935C169.522 83.2077 170.426 84.2917 171.853 84.9147C173.28 85.5377 174.689 85.4638 175 84.7497Z" fill="#8ED16F"/>
<path opacity="0.1" d="M175 84.7497C175.312 84.0355 174.408 82.9515 172.981 82.3285C171.554 81.7055 170.145 81.7794 169.834 82.4935C169.522 83.2077 170.426 84.2917 171.853 84.9147C173.28 85.5377 174.689 85.4638 175 84.7497Z" fill="black"/>
<path d="M189.489 100.514L182.746 101.836L185.322 114.983L192.065 113.66L189.489 100.514Z" fill="#8ED16F"/>
<path d="M187.863 110.532C188.627 110.382 189.004 109.022 188.705 107.493C188.405 105.965 187.543 104.848 186.778 104.997C186.014 105.147 185.637 106.508 185.937 108.036C186.236 109.565 187.099 110.682 187.863 110.532Z" fill="#8ED16F"/>
<path opacity="0.1" d="M187.863 110.532C188.627 110.382 189.004 109.022 188.705 107.493C188.405 105.965 187.543 104.848 186.778 104.997C186.014 105.147 185.637 106.508 185.937 108.036C186.236 109.565 187.099 110.682 187.863 110.532Z" fill="black"/>
<path d="M165.231 131L162.482 137.3L174.755 142.659L177.503 136.359L165.231 131Z" fill="#8ED16F"/>
<path d="M172.543 138.039C172.855 137.325 171.951 136.241 170.524 135.618C169.097 134.995 167.688 135.069 167.377 135.783C167.065 136.497 167.969 137.581 169.396 138.204C170.823 138.827 172.232 138.753 172.543 138.039Z" fill="#8ED16F"/>
<path opacity="0.1" d="M172.543 138.039C172.855 137.325 171.951 136.241 170.524 135.618C169.097 134.995 167.688 135.069 167.377 135.783C167.065 136.497 167.969 137.581 169.396 138.204C170.823 138.827 172.232 138.753 172.543 138.039Z" fill="black"/>
<path d="M134.909 125.045L132.16 131.346L144.432 136.705L147.181 130.404L134.909 125.045Z" fill="#8ED16F"/>
<path d="M142.217 132.085C142.529 131.37 141.625 130.286 140.198 129.663C138.771 129.04 137.362 129.114 137.05 129.828C136.739 130.543 137.643 131.627 139.07 132.25C140.496 132.873 141.906 132.799 142.217 132.085Z" fill="#8ED16F"/>
<path opacity="0.1" d="M142.217 132.085C142.529 131.37 141.625 130.286 140.198 129.663C138.771 129.04 137.362 129.114 137.05 129.828C136.739 130.543 137.643 131.627 139.07 132.25C140.496 132.873 141.906 132.799 142.217 132.085Z" fill="black"/>
</g>
<defs>
<linearGradient id="paint0_linear" x1="105.302" y1="150.909" x2="105.302" y2="-2.8133e-05" gradientUnits="userSpaceOnUse">
<stop stop-color="#808080" stop-opacity="0.25"/>
<stop offset="0.54" stop-color="#808080" stop-opacity="0.12"/>
<stop offset="1" stop-color="#808080" stop-opacity="0.1"/>
</linearGradient>
<linearGradient id="paint1_linear" x1="39666.1" y1="11407.8" x2="39666.1" y2="7970.02" gradientUnits="userSpaceOnUse">
<stop stop-color="#808080" stop-opacity="0.25"/>
<stop offset="0.54" stop-color="#808080" stop-opacity="0.12"/>
<stop offset="1" stop-color="#808080" stop-opacity="0.1"/>
</linearGradient>
<clipPath id="clip0">
<rect width="197" height="151" fill="white"/>
</clipPath>
</defs>
</svg>
