<svg width="6" height="10" viewBox="0 0 6 10" fill="none" xmlns="http://www.w3.org/2000/svg">
<path opacity="0.5" d="M0.125 5.25V5.28125C0.0625 5.21875 0.03125 5.125 0.03125 5C0.03125 4.90625 0.0625 4.8125 0.125 4.71875L4.71875 0.09375C4.8125 0.03125 4.90625 0 5 0C5.09375 0 5.1875 0.03125 5.25 0.09375L5.875 0.71875C5.9375 0.8125 5.96875 0.90625 5.96875 1C5.96875 1.125 5.9375 1.1875 5.875 1.25L2.15625 5L5.875 8.75C5.9375 8.8125 5.96875 8.90625 5.96875 9C5.96875 9.125 5.9375 9.21875 5.875 9.28125L5.25 9.90625C5.1875 9.96875 5.09375 10 5 10C4.90625 10 4.8125 9.96875 4.71875 9.875L0.125 5.25Z" fill="#F2C94C"/>
</svg>
