<svg width="423" height="660" viewBox="0 0 423 660" fill="none" xmlns="http://www.w3.org/2000/svg">
<g clip-path="url(#clip0)">
<path d="M365.191 644.011C347.52 644.011 339.661 652.015 337.687 660.019H389.672C389.29 648.709 376.011 643.991 365.191 644.011Z" fill="#373230"/>
<path opacity="0.4" d="M378.046 649.918C378.046 652.499 371.618 654.576 363.679 654.576C355.74 654.576 351.771 652.499 351.771 649.918C351.771 647.337 355.74 645.261 363.679 645.261C371.618 645.261 378.046 647.337 378.046 649.918Z" fill="#373230"/>
<path d="M261.279 641.31C257.552 642.842 252.837 643.81 246.409 645.544C239.598 647.398 231.861 649.979 233.05 660H303.855C303.976 659.516 302.989 654.637 303.009 653.951C298.254 654.576 266.982 644.777 261.279 641.31Z" fill="#373230"/>
<path opacity="0.4" d="M261.038 646.089C261.038 644.698 260.151 643.407 258.62 642.278C258.599 642.278 258.579 642.278 258.579 642.278C255.315 643.307 251.386 644.214 246.409 645.565C241.472 646.916 236.072 648.65 233.916 653.307C236.294 653.73 238.913 653.972 241.694 653.972C252.373 653.972 261.038 650.444 261.038 646.089Z" fill="#373230"/>
<path d="M286.346 408.803C278.346 406.807 272.563 443.34 272.563 443.34C277.117 446.122 296.884 447.614 308.168 444.671C308.873 431.061 301.659 412.613 286.346 408.803Z" fill="#1E1E1E"/>
<path d="M352.879 361.039C352.879 354.366 217.817 355.071 217.212 360.535C217.212 360.535 260.594 613.527 258.62 626.572C258.196 629.414 261.4 630.14 261.461 632.802C261.541 635.745 258.337 640.705 258.599 642.278C282.658 657.5 303.694 657.601 303.714 657.601C303.714 656.31 303.734 629.838 303.734 629.838C294.808 567.376 285.277 425.275 287.091 420.759C299.443 414.952 330.574 626.249 335.913 654.879C335.732 653.871 337.666 660 337.666 660C340.064 656.552 346.089 647.58 357.252 644.939C368.173 642.358 378.409 646.411 378.409 646.411C361.402 561.65 352.899 373.197 352.879 361.039Z" fill="url(#paint0_linear)"/>
<path opacity="0.5" d="M255.396 408.803C259.264 410.134 272.281 422.654 272.281 422.654C275.303 447.393 289.992 618.084 292.189 629.072L286.95 654.798C297.065 657.54 303.714 657.581 303.734 657.581C303.734 656.29 303.754 629.818 303.754 629.818C294.828 567.356 285.297 425.255 287.111 420.739C280.401 414.529 264.946 408.581 255.396 408.803Z" fill="url(#paint1_linear)"/>
<path opacity="0.2" d="M378.429 646.41C361.402 561.649 352.899 373.216 352.899 361.059C352.899 359.042 340.588 357.712 323.4 356.966L362.108 644.212C371.014 643.487 378.429 646.41 378.429 646.41Z" fill="#464646"/>
<path opacity="0.4" d="M352.879 361.039C352.879 354.366 217.817 355.071 217.212 360.535C217.212 360.535 224.123 400.859 232.304 450.115C237.926 450.8 247.336 451.203 248.988 450.074L244.192 387.834L255.799 391L266.941 384.488L280.2 391.746L306.152 382.955C307.724 404.528 311.432 450.175 314.152 452.211C317.154 454.449 345.202 451.526 357.312 447.816C354.37 401.807 352.899 366.12 352.879 361.039Z" fill="#262626"/>
<path d="M334.342 157.625C330.554 161.919 252.555 160.165 252.555 160.165C252.555 160.165 233.755 190.65 231.901 202.727C228.617 223.978 268.352 276.298 272.12 274.907C275.223 273.778 341.999 233.514 344.84 167.867C341.213 164.843 334.342 157.625 334.342 157.625Z" fill="white"/>
<path opacity="0.5" d="M342.865 183.654C332.105 189.38 319.109 197.566 318.162 199.139L295.211 215.026L287.655 188.896C281.228 184.824 275.042 184.884 266.639 188.493L254.791 213.01L234.743 193.755C233.312 197.223 232.264 200.348 231.901 202.748C228.617 223.998 268.352 276.318 272.12 274.927C274.961 273.879 331.34 239.906 342.865 183.654Z" fill="#989898"/>
<path d="M269.359 191.034C269.359 191.034 261.32 219.523 261.824 235.471L273.833 254.383L287.272 237.648C282.86 220.007 286.607 191.034 286.607 191.034H269.359Z" fill="url(#paint2_linear)"/>
<path d="M277.701 223.716C272.241 225.592 265.914 227.769 262.005 229.1C261.944 229.846 261.904 230.551 261.884 231.277C264.524 230.39 269.339 228.737 278.366 225.632C280.744 224.805 283.142 223.979 285.338 223.233C285.298 222.527 285.278 221.841 285.237 221.136C283.081 221.862 280.563 222.729 277.701 223.716Z" fill="#FF7F00"/>
<path d="M263.798 238.576L264.906 240.33C267.808 239.342 272.039 237.89 278.346 235.713C281.086 234.765 283.867 233.818 286.325 232.971C286.225 232.306 286.124 231.62 286.023 230.935C283.706 231.741 280.925 232.689 277.701 233.798C273.027 235.411 267.687 237.245 263.798 238.576Z" fill="#FF7F00"/>
<path d="M277.702 213.635C272.805 215.329 267.204 217.244 263.274 218.595C263.154 219.341 263.033 220.087 262.932 220.833C265.733 219.886 270.428 218.273 278.346 215.531C280.663 214.744 282.981 213.938 285.137 213.192C285.137 212.466 285.157 211.76 285.177 211.055C283.041 211.801 280.543 212.647 277.702 213.635Z" fill="#FF7F00"/>
<path d="M284.774 191.034C282.719 191.74 280.361 192.546 277.701 193.474C274.477 194.583 270.971 195.792 267.828 196.881C267.647 197.607 267.445 198.393 267.244 199.2C269.984 198.272 273.571 197.022 278.346 195.389C281.127 194.421 283.948 193.454 286.406 192.607C286.527 191.619 286.587 191.034 286.587 191.034H284.774Z" fill="#FF7F00"/>
<path d="M277.701 203.555C273.591 204.966 268.977 206.559 265.289 207.829C265.128 208.575 264.967 209.341 264.806 210.127C267.707 209.139 271.959 207.668 278.346 205.47C280.804 204.623 283.283 203.776 285.519 202.99C285.56 202.244 285.62 201.518 285.66 200.812C283.444 201.579 280.764 202.506 277.701 203.555Z" fill="#FF7F00"/>
<path opacity="0.5" d="M286.607 191.034H269.359C269.359 191.034 261.32 219.523 261.824 235.471L265.33 240.995C266.277 231.338 267.365 211.579 270.024 209.583C271.596 208.394 281.308 207.789 282.195 210.148C282.537 211.095 282.819 227.87 283.343 242.548L287.272 237.648C282.88 220.007 286.607 191.034 286.607 191.034Z" fill="#C0272D"/>
<path d="M267.264 186.76C265.954 188.917 262.892 198.756 265.37 203.696C266.297 205.531 282.155 207.466 286.144 205.168C288.058 204.059 288.723 189.845 287.293 187.99C281.349 187.687 267.264 186.76 267.264 186.76Z" fill="#C40C0C"/>
<path d="M277.702 203.554C275.747 204.22 273.692 204.946 271.657 205.631C273.148 205.853 274.78 206.034 276.412 206.135C277.057 205.913 277.661 205.712 278.346 205.47C281.47 204.401 284.613 203.313 287.293 202.385C287.434 201.72 287.555 200.933 287.656 200.127C285.076 201.014 281.732 202.163 277.702 203.554Z" fill="#FF7F00"/>
<path d="M277.702 193.473C273.269 195.006 268.272 196.719 264.443 198.03C264.423 198.756 264.423 199.461 264.483 200.147C267.385 199.159 271.737 197.667 278.346 195.389C281.752 194.219 285.177 193.03 287.998 192.062C287.958 191.296 287.917 190.59 287.837 189.985C285.238 190.872 281.812 192.062 277.702 193.473Z" fill="#FF7F00"/>
<path opacity="0.5" d="M267.264 186.76C265.954 188.917 262.892 198.756 265.37 203.696C265.753 204.482 268.896 205.289 272.644 205.752C267.365 204.744 269.319 195.45 270.649 192.889C272.06 190.167 283.746 191.74 284.754 192.889C285.661 193.554 286.688 203.131 284.23 205.813C284.996 205.651 285.661 205.45 286.124 205.168C288.038 204.059 288.703 189.845 287.273 187.99C281.349 187.687 267.264 186.76 267.264 186.76Z" fill="#C0272D"/>
<path d="M234.319 195.025L228.819 201.518C227.569 206.719 218.945 367.107 220.718 371.24C222.351 375.051 251.185 387.108 256.101 386.765C261.481 386.382 273.631 376.099 273.631 376.099L288.985 259.342C258.962 229.623 236.052 201.719 234.319 195.025Z" fill="#616161"/>
<g opacity="0.7">
<path opacity="0.7" d="M248.485 215.469C247.8 214.622 247.114 213.796 246.47 212.989V384.224C247.155 384.466 247.84 384.708 248.485 384.93V215.469Z" fill="#989898"/>
<path opacity="0.7" d="M234.38 379.326C235.045 379.628 235.71 379.911 236.395 380.213V199.26C235.347 197.546 234.662 196.195 234.38 195.228V379.326Z" fill="#989898"/>
<path opacity="0.7" d="M254.53 222.647C253.845 221.861 253.18 221.074 252.515 220.288V386.16C253.28 386.362 253.945 386.503 254.53 386.624V222.647Z" fill="#989898"/>
<path opacity="0.7" d="M242.44 207.869C241.735 206.942 241.05 206.034 240.425 205.188V381.927C241.11 382.209 241.775 382.471 242.44 382.733V207.869Z" fill="#989898"/>
<path opacity="0.7" d="M222.29 372.853C222.854 373.276 223.519 373.72 224.305 374.204V273.556C223.58 287.145 222.895 301.177 222.29 314.242V372.853Z" fill="#989898"/>
<path opacity="0.7" d="M230.35 199.703L228.799 201.518C228.698 201.961 228.537 203.574 228.335 206.115V376.442C228.98 376.785 229.645 377.108 230.35 377.45V199.703Z" fill="#989898"/>
<path opacity="0.7" d="M284.754 255.109C284.069 254.423 283.404 253.758 282.739 253.072V306.864L284.754 291.541V255.109Z" fill="#989898"/>
<path opacity="0.7" d="M276.694 352.814L278.709 337.511V248.96C278.024 248.254 277.359 247.568 276.694 246.883V352.814Z" fill="#989898"/>
<path opacity="0.7" d="M288.784 260.935L288.985 259.342C288.905 259.282 288.844 259.201 288.784 259.141V260.935Z" fill="#989898"/>
<path opacity="0.7" d="M258.56 386.12C259.204 385.878 259.869 385.555 260.574 385.193V229.502C259.889 228.736 259.224 227.99 258.56 227.244V386.12Z" fill="#989898"/>
<path opacity="0.7" d="M272.664 242.648C271.979 241.922 271.314 241.216 270.649 240.511V378.479C271.476 377.833 272.161 377.289 272.664 376.886V242.648Z" fill="#989898"/>
<path opacity="0.7" d="M266.62 236.176C265.934 235.43 265.269 234.704 264.604 233.979V382.834C265.29 382.39 265.955 381.927 266.62 381.463V236.176Z" fill="#989898"/>
</g>
<path d="M255.879 387.774C250.54 387.774 221.726 376.14 219.792 371.644C218.643 368.983 221.061 317.288 222.613 286.722C224.587 247.87 227.146 204.159 227.831 201.276L227.892 201.034L234.803 192.889L235.287 194.764C236.959 201.155 259.708 228.958 289.69 258.616L290.053 258.959L289.993 259.463L274.578 376.604L274.276 376.866C273.772 377.289 261.803 387.37 256.162 387.774C256.081 387.774 255.98 387.774 255.879 387.774ZM229.745 201.962C227.952 211.599 220.497 366.926 221.666 370.878C222.975 373.902 250.177 385.757 255.9 385.757H256.061C260.091 385.475 269.158 378.539 272.725 375.576L287.978 259.705C259.587 231.579 238.269 205.833 234.037 196.961L229.745 201.962Z" fill="#979797"/>
<path d="M326.725 187.727L340.729 200.59C341.979 205.792 323.864 366.563 322.071 370.696C320.439 374.506 284.008 387.108 279.072 386.765C273.692 386.382 250.681 372.531 250.681 372.531L249.653 254.281C293.741 233.192 324.993 194.42 326.725 187.727Z" fill="#707070"/>
<g opacity="0.7">
<path opacity="0.7" d="M290.799 227.527C290.134 228.072 289.469 228.636 288.784 229.181V384.589C289.428 384.387 290.114 384.185 290.799 383.984V227.527Z" fill="#989898"/>
<path opacity="0.7" d="M296.843 222.325C296.179 222.91 295.514 223.515 294.829 224.099V382.693C295.494 382.471 296.158 382.249 296.843 382.028V222.325Z" fill="#989898"/>
<path opacity="0.7" d="M278.709 236.901C278.044 237.385 277.379 237.869 276.694 238.353V386.18C277.48 386.442 278.165 386.644 278.709 386.725V236.901Z" fill="#989898"/>
<path opacity="0.7" d="M260.574 248.556C259.909 248.939 259.224 249.322 258.559 249.685V377.108C259.204 377.471 259.889 377.854 260.574 378.237V248.556Z" fill="#989898"/>
<path opacity="0.7" d="M252.514 373.62C253.079 373.942 253.764 374.346 254.529 374.789V251.842C253.864 252.185 253.179 252.527 252.514 252.87V373.62Z" fill="#989898"/>
<path opacity="0.7" d="M272.664 241.096C271.999 241.539 271.314 241.983 270.649 242.426V383.56C271.334 383.902 272.019 384.225 272.664 384.507V241.096Z" fill="#989898"/>
<path opacity="0.7" d="M266.619 244.986C265.954 245.39 265.269 245.813 264.604 246.216V380.454C265.269 380.817 265.954 381.18 266.619 381.523V244.986Z" fill="#989898"/>
<path opacity="0.7" d="M282.739 386.22C283.363 386.079 284.028 385.918 284.754 385.736V232.385C284.089 232.909 283.424 233.413 282.739 233.937V386.22Z" fill="#989898"/>
<path opacity="0.7" d="M302.888 216.74C302.224 217.365 301.559 218.01 300.874 218.656V380.616C301.538 380.374 302.224 380.132 302.888 379.89V216.74Z" fill="#989898"/>
<path opacity="0.7" d="M325.053 191.114V350.111C325.657 345.232 326.343 339.687 327.068 333.659V188.049L326.725 187.747C326.544 188.473 325.96 189.642 325.053 191.114Z" fill="#989898"/>
<path opacity="0.7" d="M339.158 199.139L337.143 197.284V243.233C337.908 235.773 338.593 228.898 339.158 222.95V199.139Z" fill="#989898"/>
<path opacity="0.7" d="M333.113 193.594L331.098 191.739V298.94C331.763 292.972 332.448 286.924 333.113 280.915V193.594Z" fill="#989898"/>
<path opacity="0.7" d="M314.978 204.18C314.333 204.906 313.648 205.672 312.963 206.438V375.939C313.668 375.637 314.333 375.334 314.978 375.052V204.18Z" fill="#989898"/>
<path opacity="0.7" d="M306.918 378.379C307.603 378.117 308.268 377.855 308.933 377.592V210.732C308.288 211.418 307.603 212.103 306.918 212.789V378.379Z" fill="#989898"/>
<path opacity="0.7" d="M321.023 196.859C320.398 197.666 319.733 198.533 319.008 199.42V373.054C319.834 372.591 320.499 372.167 321.023 371.784V196.859Z" fill="#989898"/>
</g>
<path d="M279.293 387.773H279.011C273.551 387.39 252.535 374.829 250.157 373.398L249.673 373.116L248.646 253.656L249.23 253.374C294.285 231.801 324.287 193.13 325.758 187.485L326.181 185.872L341.636 200.066L341.717 200.368C342.805 204.965 325.154 366.14 322.998 371.1C320.963 375.838 284.109 387.773 279.293 387.773ZM251.688 371.966C258.398 375.979 275.042 385.475 279.152 385.757H279.293C285.721 385.757 319.754 373.176 321.144 370.293C323.401 364.406 340.367 209.905 339.782 201.094L327.128 189.481C322.292 199.502 291.665 235.107 250.681 254.927L251.688 371.966Z" fill="#979797"/>
<path opacity="0.4" d="M262.287 263.778C262.287 265.31 261.078 266.52 259.547 266.479C258.035 266.439 256.786 265.189 256.766 263.657C256.766 262.124 257.995 260.915 259.506 260.955C261.038 260.995 262.287 262.266 262.287 263.778Z" fill="#919191"/>
<path d="M261.743 263.394C261.743 264.725 260.715 265.753 259.446 265.733C258.156 265.713 257.129 264.624 257.108 263.293C257.108 261.983 258.136 260.934 259.405 260.954C260.675 260.995 261.723 262.083 261.743 263.394Z" fill="#C6C6C6"/>
<path d="M261.078 262.064C260.594 261.359 259.486 261.016 259.405 262.024C259.365 262.629 260.292 263.133 260.272 263.919C261.34 264.363 261.582 262.79 261.078 262.064Z" fill="white"/>
<path opacity="0.4" d="M282.114 263.778C282.114 265.31 280.885 266.52 279.374 266.479C277.863 266.439 276.613 265.189 276.593 263.657C276.593 262.124 277.822 260.915 279.334 260.955C280.865 260.995 282.114 262.266 282.114 263.778Z" fill="#919191"/>
<path d="M281.57 263.394C281.57 264.725 280.563 265.753 279.273 265.733C277.984 265.713 276.956 264.624 276.936 263.293C276.936 261.983 277.963 260.934 279.233 260.954C280.522 260.995 281.55 262.083 281.57 263.394Z" fill="#C6C6C6"/>
<path d="M280.905 262.064C280.422 261.359 279.313 261.016 279.233 262.024C279.192 262.629 280.119 263.133 280.079 263.919C281.187 264.363 281.409 262.79 280.905 262.064Z" fill="white"/>
<path opacity="0.4" d="M262.287 283.658C262.287 285.19 261.078 286.379 259.547 286.359C258.035 286.319 256.786 285.069 256.766 283.537C256.766 282.004 257.995 280.795 259.506 280.835C261.038 280.875 262.287 282.146 262.287 283.658Z" fill="#919191"/>
<path d="M261.743 283.274C261.743 284.605 260.715 285.633 259.446 285.613C258.156 285.592 257.129 284.504 257.108 283.173C257.108 281.863 258.136 280.814 259.405 280.834C260.675 280.875 261.723 281.963 261.743 283.274Z" fill="#C6C6C6"/>
<path d="M261.078 281.944C260.594 281.238 259.486 280.896 259.405 281.904C259.365 282.509 260.292 283.013 260.272 283.799C261.34 284.263 261.582 282.67 261.078 281.944Z" fill="white"/>
<path opacity="0.4" d="M282.114 283.658C282.114 285.19 280.885 286.379 279.374 286.359C277.863 286.319 276.613 285.069 276.593 283.537C276.593 282.004 277.822 280.795 279.334 280.835C280.865 280.875 282.114 282.146 282.114 283.658Z" fill="#919191"/>
<path d="M281.57 283.274C281.57 284.605 280.563 285.633 279.273 285.613C277.984 285.592 276.956 284.504 276.936 283.173C276.936 281.863 277.963 280.814 279.233 280.834C280.522 280.875 281.55 281.963 281.57 283.274Z" fill="#C6C6C6"/>
<path d="M280.905 281.944C280.422 281.238 279.313 280.896 279.233 281.904C279.192 282.509 280.119 283.013 280.079 283.799C281.187 284.263 281.409 282.67 280.905 281.944Z" fill="white"/>
<path opacity="0.4" d="M262.287 303.558C262.287 305.07 261.078 306.28 259.547 306.26C258.035 306.219 256.786 304.969 256.766 303.437C256.766 301.905 257.995 300.695 259.506 300.735C261.038 300.756 262.287 302.026 262.287 303.558Z" fill="#919191"/>
<path d="M261.743 303.155C261.743 304.465 260.715 305.514 259.446 305.493C258.156 305.473 257.129 304.385 257.108 303.054C257.108 301.743 258.136 300.695 259.405 300.715C260.675 300.755 261.723 301.844 261.743 303.155Z" fill="#C6C6C6"/>
<path d="M261.078 301.824C260.594 301.118 259.486 300.776 259.405 301.784C259.365 302.389 260.292 302.893 260.272 303.679C261.34 304.143 261.582 302.55 261.078 301.824Z" fill="white"/>
<path opacity="0.4" d="M282.114 303.558C282.114 305.07 280.885 306.28 279.374 306.26C277.863 306.219 276.613 304.969 276.593 303.437C276.593 301.905 277.822 300.695 279.334 300.735C280.865 300.756 282.114 302.026 282.114 303.558Z" fill="#919191"/>
<path d="M281.57 303.155C281.57 304.465 280.563 305.514 279.273 305.493C277.984 305.473 276.956 304.385 276.936 303.054C276.936 301.743 277.963 300.695 279.233 300.715C280.522 300.755 281.55 301.844 281.57 303.155Z" fill="#C6C6C6"/>
<path d="M280.905 301.824C280.422 301.118 279.313 300.776 279.233 301.784C279.192 302.389 280.119 302.893 280.079 303.679C281.187 304.143 281.409 302.55 280.905 301.824Z" fill="white"/>
<path opacity="0.4" d="M262.287 323.436C262.287 324.948 261.078 326.158 259.547 326.138C258.035 326.098 256.786 324.848 256.766 323.335C256.766 321.803 257.995 320.593 259.506 320.634C261.038 320.654 262.287 321.904 262.287 323.436Z" fill="#919191"/>
<path d="M261.743 323.034C261.743 324.364 260.715 325.393 259.446 325.372C258.156 325.352 257.129 324.243 257.108 322.933C257.108 321.622 258.136 320.574 259.405 320.594C260.675 320.634 261.723 321.723 261.743 323.034Z" fill="#C6C6C6"/>
<path d="M261.078 321.703C260.594 320.997 259.486 320.654 259.405 321.663C259.365 322.267 260.292 322.771 260.272 323.558C261.34 324.022 261.582 322.429 261.078 321.703Z" fill="white"/>
<path opacity="0.4" d="M282.114 323.436C282.114 324.948 280.885 326.158 279.374 326.138C277.863 326.098 276.613 324.848 276.593 323.335C276.593 321.803 277.822 320.593 279.334 320.634C280.865 320.654 282.114 321.904 282.114 323.436Z" fill="#919191"/>
<path d="M281.57 323.034C281.57 324.364 280.563 325.393 279.273 325.372C277.984 325.352 276.956 324.243 276.936 322.933C276.936 321.622 277.963 320.574 279.233 320.594C280.522 320.634 281.55 321.723 281.57 323.034Z" fill="#C6C6C6"/>
<path d="M280.905 321.703C280.422 320.997 279.313 320.654 279.233 321.663C279.192 322.267 280.119 322.771 280.079 323.558C281.187 324.022 281.409 322.429 280.905 321.703Z" fill="white"/>
<path opacity="0.4" d="M262.287 345.514C262.287 347.027 261.078 348.236 259.547 348.216C258.035 348.176 256.786 346.926 256.766 345.414C256.766 343.881 257.995 342.672 259.506 342.712C261.038 342.732 262.287 344.002 262.287 345.514Z" fill="#919191"/>
<path d="M261.743 345.13C261.743 346.461 260.715 347.509 259.446 347.469C258.156 347.449 257.129 346.36 257.108 345.029C257.108 343.719 258.136 342.671 259.405 342.691C260.675 342.731 261.723 343.82 261.743 345.13Z" fill="#C6C6C6"/>
<path d="M261.078 343.8C260.594 343.094 259.486 342.751 259.405 343.759C259.365 344.364 260.292 344.868 260.272 345.654C261.34 346.098 261.582 344.525 261.078 343.8Z" fill="white"/>
<path opacity="0.4" d="M282.114 345.514C282.114 347.027 280.885 348.236 279.374 348.216C277.863 348.176 276.613 346.926 276.593 345.414C276.593 343.881 277.822 342.672 279.334 342.712C280.865 342.732 282.114 344.002 282.114 345.514Z" fill="#919191"/>
<path d="M281.57 345.13C281.57 346.461 280.563 347.509 279.273 347.469C277.984 347.449 276.956 346.36 276.936 345.029C276.936 343.719 277.963 342.671 279.233 342.691C280.522 342.731 281.55 343.82 281.57 345.13Z" fill="#C6C6C6"/>
<path d="M280.905 343.8C280.422 343.094 279.313 342.751 279.233 343.759C279.192 344.364 280.119 344.868 280.079 345.654C281.187 346.098 281.409 344.525 280.905 343.8Z" fill="white"/>
<path opacity="0.4" d="M262.287 365.212C262.287 366.745 261.078 367.954 259.547 367.914C258.035 367.874 256.786 366.624 256.766 365.091C256.766 363.559 257.995 362.349 259.506 362.39C261.038 362.43 262.287 363.68 262.287 365.212Z" fill="#919191"/>
<path d="M261.743 364.829C261.743 366.159 260.715 367.208 259.446 367.167C258.156 367.147 257.129 366.058 257.108 364.728C257.108 363.397 258.136 362.369 259.405 362.389C260.675 362.409 261.723 363.498 261.743 364.829Z" fill="#C6C6C6"/>
<path d="M261.078 363.478C260.594 362.773 259.486 362.43 259.405 363.438C259.365 364.043 260.292 364.547 260.272 365.333C261.34 365.797 261.582 364.204 261.078 363.478Z" fill="white"/>
<path opacity="0.4" d="M282.114 365.212C282.114 366.745 280.885 367.954 279.374 367.914C277.863 367.874 276.613 366.624 276.593 365.091C276.593 363.559 277.822 362.349 279.334 362.39C280.865 362.43 282.114 363.68 282.114 365.212Z" fill="#919191"/>
<path d="M281.57 364.829C281.57 366.159 280.563 367.208 279.273 367.167C277.984 367.147 276.956 366.058 276.936 364.728C276.936 363.397 277.963 362.369 279.233 362.389C280.522 362.409 281.55 363.498 281.57 364.829Z" fill="#C6C6C6"/>
<path d="M280.905 363.478C280.422 362.773 279.313 362.43 279.233 363.438C279.192 364.043 280.119 364.547 280.079 365.333C281.187 365.797 281.409 364.204 280.905 363.478Z" fill="white"/>
<path d="M121.844 205.853C120.011 203.636 103.387 188.877 102.319 189.784C101.151 190.772 86.6832 195.47 86.6228 201.196C86.5624 206.922 90.2699 209.301 92.7684 211.418C96.1938 214.281 103.669 215.612 107.095 215.551C109.291 215.491 121.703 229.281 121.703 229.281C128.332 225.854 132.503 220.672 133.39 217.063C132 216.277 123.517 207.849 121.844 205.853Z" fill="#EFAB78"/>
<path opacity="0.3" d="M86.8849 199.966C86.9655 199.744 87.0662 199.542 87.1871 199.321C87.2274 199.22 87.2879 199.119 87.3483 199.018C87.5095 198.756 87.6909 198.514 87.8924 198.252C86.9252 213.192 107.538 219.281 114.51 209.785C112.918 212.748 111.266 214.341 108.868 215.39C108.485 215.551 115.014 221.882 119.829 219.704C122.57 218.474 125.713 215.006 127.909 212.103C130.348 214.482 132.705 216.68 133.37 217.063C132.504 220.692 128.312 225.854 121.683 229.281C121.683 229.281 109.271 215.49 107.075 215.551C103.649 215.611 96.1738 214.281 92.7484 211.418C90.2297 209.301 86.5423 206.922 86.6028 201.196C86.6028 200.873 86.6632 200.571 86.764 200.268C86.8244 200.167 86.8647 200.067 86.8849 199.966Z" fill="#F7822B"/>
<path d="M112.435 205.874C112.858 206.479 112.193 207.749 110.923 208.676C110.923 208.676 108.284 209.846 107.84 209.241L0.0603344 42.8647C-0.362807 42.2397 1.41036 40.909 1.85365 41.5341L112.435 205.874Z" fill="#7F6654"/>
<path d="M119.95 191.136C117.21 187.91 111.608 174.784 109.351 174.663C101.614 174.28 90.0885 169.462 88.6981 168.474C86.3205 174.321 97.6848 181.498 101.271 181.337C102.339 190.632 102.339 193.293 106.188 197.769C113.442 206.156 120.958 204.906 120.958 204.906C115.9 202.164 121.139 192.547 119.95 191.136Z" fill="#EFAB78"/>
<path d="M100.445 184.341C96.2744 181.115 87.8116 174.825 85.2325 174.28C79.7719 177.869 82.9757 182.123 85.2123 184.139C82.0287 184.059 80.2152 190.329 84.3257 192.93C80.2555 196.761 83.6608 200.753 84.5877 200.995C82.5324 203.192 83.7616 206.68 86.522 207.689C89.7057 208.838 95.8916 210.753 96.9797 209.322C98.4909 207.346 96.6976 205.37 95.4282 205.33C97.0401 205.632 99.4984 205.733 100.264 203.999C101.03 202.265 100.909 201.136 99.4984 199.684C100.526 200.35 103.186 199.967 103.851 197.708C104.516 195.491 100.506 192.587 99.6797 191.599C105.624 191.176 101.816 185.41 100.445 184.341Z" fill="#EFAB78"/>
<path opacity="0.3" d="M99.7 191.599C105.624 191.176 101.816 185.41 100.446 184.341C100.264 184.2 100.063 184.059 99.8814 183.898C103.488 188.515 101.231 190.45 99.5187 190.571C97.8664 190.672 85.4543 184.18 82.9557 181.397C83.5602 182.506 84.4468 183.454 85.2125 184.16C84.7088 184.139 84.2252 184.301 83.802 184.583C88.5372 185.752 106.067 194.059 101.211 198.212C99.4381 199.725 94.2999 196.761 92.5268 196.035C90.9753 195.39 83.9431 192.567 82.5125 190.954C82.8953 191.72 83.4796 192.406 84.3259 192.95C83.8826 193.374 83.5401 193.797 83.258 194.22C84.7893 193.112 97.0201 198.555 99.4985 200.713C100.405 201.499 99.0149 204.261 98.2896 204.805C97.2821 205.551 94.0179 204.543 91.479 203.656C90.1491 203.193 85.8976 201.378 83.7013 200.33C84.0438 200.733 84.3864 200.975 84.5879 201.035C84.2252 201.438 83.9431 201.882 83.7819 202.346C85.9782 201.338 96.6977 205.793 96.0731 208.535C95.7507 209.927 92.3454 209.261 89.8066 208.737C89.8066 208.757 89.8066 208.777 89.7864 208.798C92.8089 209.685 96.1739 210.37 96.9597 209.342C98.4709 207.366 96.6776 205.39 95.4082 205.35C97.0201 205.652 99.4784 205.753 100.244 204.019C101.01 202.285 100.889 201.156 99.4784 199.704C100.506 200.37 103.166 199.987 103.831 197.729C104.536 195.491 100.526 192.587 99.7 191.599Z" fill="#FE9C53"/>
<path d="M129.038 205.993C121.764 207.848 105.442 226.699 105.986 229.482L115.739 238.655L137.682 216.175L129.038 205.993Z" fill="white"/>
<path d="M213.504 187.727C209.454 195.025 176.49 255.934 176.49 255.934C173.709 253.112 136.473 212.989 136.473 212.989C130.267 212.989 106.248 240.43 110.016 242.547C113.059 244.24 172.742 310.513 178.626 310.513C184.509 310.513 205.807 280.955 212.779 271.358L213.504 187.727Z" fill="url(#paint3_linear)"/>
<path opacity="0.4" d="M213.504 187.727C205.445 200.791 204.034 274.927 204.034 274.927C201.495 280.834 184.57 306.117 179.311 306.863C174.031 307.609 122.166 250.712 109.996 242.547C113.039 244.24 172.722 310.513 178.605 310.513C184.489 310.513 205.787 280.955 212.759 271.358L213.504 187.727Z" fill="#1A1A1A"/>
<path d="M384.433 187.728L334.362 157.626C334.362 157.626 284.411 244.463 315.925 449.792C319.814 451.627 377.522 444.832 375.89 438.038C375.89 438.038 370.51 344.043 367.729 320.05L384.433 187.728Z" fill="#353535"/>
<path d="M253.602 161.759L213.505 187.727C205.525 219.946 207.178 258.435 205.364 315.03C203.813 363.68 203.47 418.561 205.122 438.037C212.014 442.937 247.698 452.816 246.953 445.88C225.252 241.136 253.602 161.759 253.602 161.759Z" fill="#353535"/>
<path opacity="0.4" d="M341.757 226.136L335.208 220.249L344.94 217.809C345.343 216.58 360.254 173.252 360.254 173.231C346.693 174.723 334.926 177.385 324.73 180.953C315.159 209.523 302.404 265.23 306.132 352.814C314.393 319.546 341.757 226.136 341.757 226.136Z" fill="#1A1A1A"/>
<path d="M334.342 155.952L361.543 172.707L342.986 215.43L328.176 217.789L339.48 226.216C332.085 240.511 312.157 331.26 306.132 352.793C304.198 326.139 301.316 218.837 334.342 155.952Z" fill="#464646"/>
<path opacity="0.5" d="M249.29 178.433L230.188 176.941C230.188 176.982 225.876 197.527 224.647 208.434L232.264 213.777L222.29 219.14C223.297 249.403 229.342 318.297 239.86 352.491C235.85 258.779 243.89 203.656 249.29 178.433Z" fill="#1A1A1A"/>
<path d="M254.207 160.207L230.35 175.409L226.904 207.708L236.213 213.979L224.647 219.987C224.768 232.528 229.604 315.676 239.88 352.471C238.188 290.211 241.432 209.604 254.207 160.207Z" fill="#464646"/>
<path d="M351.549 350.574L344.94 357.369C348.144 363.498 359.206 369.567 367.851 374.849L374.48 369.022C374.5 369.022 356.869 356.502 351.549 350.574Z" fill="white"/>
<path d="M384.434 187.727C384.434 187.727 370.994 241.357 374.52 267.83C374.52 267.83 384.675 292.246 384.434 296.298C384.313 298.375 350.22 349.102 350.22 349.102C350.22 349.102 366.561 367.551 379.678 371.18C387.799 358.901 423 310.513 423 298.94C423 287.004 384.434 187.727 384.434 187.727Z" fill="url(#paint4_linear)"/>
<path opacity="0.4" d="M384.434 187.727C384.434 187.727 370.994 241.357 374.52 267.83C374.52 267.83 384.675 292.246 384.434 296.299C384.313 298.375 350.22 349.103 350.22 349.103C350.22 349.103 386.61 302.791 386.61 296.621C386.61 291.661 378.832 272.77 376.233 263.979C375.608 234.059 384.434 187.727 384.434 187.727Z" fill="#1A1A1A"/>
<path d="M337.344 362.793C337.344 384.225 365.936 384.81 370.551 384.608C370.611 383.338 369.946 374.346 369.865 373.076C361.463 373.277 337.344 362.793 337.344 362.793Z" fill="#666666"/>
<path d="M201.576 362.934C201.576 362.934 201.415 377.552 201.596 381.826C208.931 381.443 220.537 373.197 221.806 362.39C216.104 362.188 201.576 362.934 201.576 362.934Z" fill="#666666"/>
<path d="M363.317 372.109C356.809 368.197 349.978 363.943 346.472 359.608L342.019 364.75C347.399 366.947 356.446 370.415 363.317 372.109Z" fill="#EFAB78"/>
<path d="M372.767 84.1756C368.657 82.24 357.292 82.1795 354.189 86.5748C350.401 91.9379 348.023 119.681 348.023 119.681C347.278 127.705 360.415 126.919 364.989 124.036C383.728 112.12 379.114 87.1595 372.767 84.1756Z" fill="#EFAB78"/>
<path opacity="0.4" d="M371.639 89.4786C369.442 87.4019 363.397 90.4665 361.967 92.4222C361.967 92.4222 360.476 98.4708 360.576 104.983C361.624 101.273 363.538 97.3417 364.747 96.6159C367.629 106.394 366.561 115.044 362.209 119.54C370.027 114.379 369.825 102.422 368.233 95.5271C373.19 94.0351 373.533 105.83 371.477 110.064C375.749 106.656 374.5 92.1802 371.639 89.4786Z" fill="#CC6329"/>
<path d="M217.293 77.4815C214.935 81.4534 207.964 104.156 221.222 116.737C223.962 119.338 228.315 120.285 232.284 116.717C231.821 109.398 235.548 87.8246 235.79 81.2719C235.79 81.2719 224.668 65.1021 217.293 77.4815Z" fill="#EFAB78"/>
<path opacity="0.4" d="M218.885 82.2001C220.718 80.6678 224.809 84.3574 225.635 86.3333C225.635 86.3333 226.038 92.0189 225.232 97.8659C224.869 94.3577 223.922 90.5068 223.136 89.6801C219.912 98.0675 219.731 106.031 222.391 110.749C217.253 104.902 218.744 94.1359 220.698 88.168C217.233 86.0711 215.641 96.6561 216.668 100.769C213.928 97.0594 216.487 84.1961 218.885 82.2001Z" fill="#CC6329"/>
<path d="M296.057 7.68081C269.803 6.85417 241.009 29.8589 233.09 53.0048C228.718 65.7269 223.559 100.688 230.128 130.709C235.528 155.306 261.622 172.847 275.989 172.787C317.436 172.605 339.56 153.855 345.384 141.818C350.159 129.58 352.658 115.89 354.854 103.087C369.341 18.2053 322.312 8.50745 296.057 7.68081Z" fill="#EFAB78"/>
<path opacity="0.2" d="M296.057 7.68081C269.803 6.85417 241.009 29.8589 233.09 53.0048C228.718 65.7269 223.559 100.688 230.128 130.709C235.528 155.306 261.622 172.847 275.989 172.787C317.436 172.605 339.56 153.855 345.384 141.818C350.159 129.58 352.658 115.89 354.854 103.087C369.341 18.2053 322.312 8.50745 296.057 7.68081ZM345.968 78.9733C346.552 86.4534 340.87 132.483 305.326 133.249C304.843 133.249 279.233 128.35 273.873 124.378C269.279 120.991 263.798 117.724 264.664 113.168C265.934 106.555 273.873 81.9169 273.873 75.0417C273.873 67.6625 276.694 28.0645 284.109 25.5644C284.874 24.637 306.092 26.2096 329.244 20.6046C354.29 31.2702 333.294 54.6782 345.968 78.9733Z" fill="#F8AD7A"/>
<g style="mix-blend-mode:multiply" opacity="0.15">
<path d="M289.146 101.011L288.602 113.532C297.005 114.177 298.113 125.064 313.104 127.121C323.542 128.552 332.649 120.326 333.435 111.395C333.737 108.169 328.357 86.3335 289.146 101.011Z" fill="url(#paint5_linear)"/>
</g>
<g style="mix-blend-mode:multiply" opacity="0.15">
<path d="M265.148 99.2778C260.655 98.2495 243.89 97.6245 238.369 100.548C234.259 102.725 232.707 113.855 235.79 117.887C239.336 122.524 245.401 123.21 249.653 121.153C253.925 119.077 253.985 113.552 259.405 112.323L265.148 99.2778Z" fill="url(#paint6_linear)"/>
</g>
<path d="M367.589 39.6381C352.899 19.3552 346.613 19.8189 342.341 18.7302C327.632 8.30649 305.407 -0.141343 293.962 -0.000210121C282.537 0.161085 265.672 5.08059 256.645 16.3914C220.577 29.1942 223.438 60.2839 224.889 72.8649C226.985 73.7319 228.617 74.2763 228.617 74.2763C228.597 77.4417 226.521 95.8697 226.28 118.209C226.562 152.827 246.57 186.639 273.873 190.147C302.062 190.51 338.009 171.557 350.159 128.996C350.159 128.996 352.96 113.128 359.065 83.9943C363.639 81.8975 371.236 83.591 371.236 83.591C373.835 71.5141 377.502 53.2877 367.589 39.6381ZM303.896 133.29C291.363 133.613 279.293 130.75 273.873 130.205C268.815 129.701 239.457 136.778 233.674 118.35C230.309 107.644 236.717 48.2674 238.651 44.3157C240.928 39.6583 258.398 19.0528 266.397 19.3552C269.843 19.4964 274.115 22.5811 287.675 23.5691C307.059 24.9804 326.08 17.7019 330.755 18.7504C337.828 20.323 342.825 29.658 343.611 37.1783C344.537 45.9488 343.913 67.6027 345.525 72.4617C346.109 74.1956 347.923 77.0989 348.91 79.6796C339.661 131.274 317.134 132.947 303.896 133.29Z" fill="url(#paint7_linear)"/>
<path opacity="0.25" d="M342.341 18.7302C327.632 8.30649 305.407 -0.141343 293.962 -0.000210121C282.537 0.161085 265.672 5.08059 256.645 16.3914C220.577 29.1942 223.438 60.2839 224.889 72.8649C226.985 73.7319 228.617 74.2763 228.617 74.2763C228.597 77.4417 226.521 95.8697 226.28 118.209C226.562 152.827 246.57 186.639 273.873 190.147C302.062 190.51 338.009 171.557 350.159 128.996C350.159 128.996 352.96 113.128 359.065 83.9943C363.639 81.8975 371.236 83.591 371.236 83.591C373.815 71.4737 377.482 53.2474 367.568 39.5978C352.899 19.3552 346.613 19.8189 342.341 18.7302ZM354.753 79.7603C352.033 95.9301 348.023 111.939 342.966 127.443C337.062 145.468 306.495 180.852 270.891 175.066C242.097 170.388 232.586 141.456 230.733 115.346C230.027 105.507 230.189 95.1035 231.398 85.3048C233.05 71.8367 232.103 46.977 238.994 37.1179C251.487 19.2141 273.853 5.48383 303.029 9.21378C321.083 11.5122 338.795 16.593 349.454 34.2347C354.451 42.4809 356.285 51.9167 356.385 61.4734C356.426 67.6027 355.761 73.7924 354.753 79.7603Z" fill="url(#paint8_linear)"/>
<path opacity="0.7" d="M272.704 128.693C272.704 128.693 249.432 128.713 245.22 119.862C245.18 141.637 266.942 140.629 273.53 135.831C289.005 146.456 310.182 136.657 310.827 121.012C302.687 132.302 277.177 128.693 272.704 128.693Z" fill="#919191"/>
<path d="M287.333 118.33C287.212 118.37 287.434 118.31 287.333 118.33C285.197 120.81 278.991 123.774 274.518 123.754C274.175 123.754 274.115 123.754 274.095 123.754C273.611 123.774 273.893 123.814 273.389 123.754C271.979 123.572 269.42 123.028 265.471 118.572C254.65 115.548 251.426 126.758 245.22 119.882C245.724 143.19 270.186 136.677 273.772 133.633C284.834 143.049 310.243 138.069 310.847 120.286C303.775 128.048 296.219 115.568 287.333 118.33Z" fill="#E5E5E5"/>
<path opacity="0.25" d="M273.752 133.632C284.814 143.048 310.223 138.068 310.827 120.285C310.646 122.261 307.543 131.596 296.32 133.693C279.394 136.838 273.812 129.176 272.886 129.822C270.246 131.677 264.564 133.41 260.272 133.33C253.925 133.209 247.759 128.209 245.22 119.882C245.724 143.189 270.186 136.677 273.752 133.632Z" fill="url(#paint9_linear)"/>
<path opacity="0.3" d="M286.366 115.951C285.499 118.027 279.515 121.475 274.336 121.475C271.495 121.475 268.815 119.358 267.284 117.382C265.853 115.548 265.35 113.874 265.491 113.007C265.571 112.483 265.994 111.132 266.498 109.559C268.191 104.136 271.576 93.3493 274.256 76.1915C274.236 73.5301 273.913 69.5381 273.913 69.5381C268.815 95.7889 260.755 107.745 259.426 112.322C257.149 120.084 267.929 125.366 273.873 125.387C281.449 125.427 287.01 119.983 288.3 116.858C289.59 112.785 286.869 114.781 286.366 115.951Z" fill="#FFA161"/>
<path opacity="0.4" d="M286.366 115.951C285.499 118.027 279.515 121.475 274.336 121.475C271.495 121.475 268.815 119.358 267.284 117.382C265.853 115.548 265.35 113.874 265.491 113.007C265.571 112.483 265.995 111.132 266.498 109.559C268.191 104.136 271.576 93.3493 274.256 76.1915L273.913 69.5381C270.347 95.6478 263.899 109.68 263.415 112.624C262.75 116.717 268.412 123.753 274.357 123.753C280.16 123.753 287.011 119.983 288.32 116.878C289.59 112.785 286.87 114.781 286.366 115.951Z" fill="#C67758"/>
<path opacity="0.2" d="M282.819 109.801C281.066 106.938 280.018 89.7401 279.394 83.1068C278.447 79.8607 276.19 80.0825 275.243 82.4415C273.853 98.1677 267.425 111.253 268.755 113.733C273.873 123.229 286.043 114.075 282.819 109.801Z" fill="#EFAB78"/>
<path opacity="0.2" d="M323.763 65.4874C321.144 64.2172 292.37 63.6123 292.37 63.6123C289.328 71.798 291.141 87.0405 294.889 89.6615C294.889 89.6615 307.543 87.1211 316.892 90.4075C319.27 91.2341 322.03 91.0325 323.3 88.7744C326.766 82.6653 325.859 66.4955 323.763 65.4874Z" fill="#F8AD7A"/>
<path d="M306.898 76.6959C301.538 77.0588 296.521 79.0952 295.292 87.6841C295.111 88.9947 296.239 89.1963 296.239 89.1963C301.317 88.4906 301.317 88.4906 306.697 88.6116C310.827 88.7124 316.53 90.4665 317.376 89.2568C319.31 86.5551 315.462 76.1314 306.898 76.6959Z" fill="white"/>
<path d="M306.898 76.6964C306.132 76.7569 305.347 76.8376 304.601 76.9787C302.647 78.2287 301.297 80.4062 301.196 82.9063C301.115 85.1443 302.082 87.1403 303.614 88.5516C304.44 88.5516 310.666 89.2371 312.5 89.2976C314.434 88.0476 315.764 85.8903 315.845 83.4104C315.885 82.5232 315.724 81.6764 315.462 80.87C313.608 78.39 310.727 76.4343 306.898 76.6964Z" fill="#8DAEB7"/>
<path d="M313.104 83.3091C313.024 85.8293 310.908 87.8253 308.369 87.7245C305.85 87.6439 303.876 85.5269 303.956 82.9865C304.037 80.4663 306.173 78.4702 308.691 78.571C311.21 78.6718 313.185 80.7888 313.104 83.3091Z" fill="#4C3322"/>
<path d="M314.374 81.4349C314.333 82.5035 313.447 83.3302 312.379 83.2898C311.331 83.2495 310.485 82.3624 310.525 81.2938C310.565 80.2252 311.452 79.3986 312.52 79.4389C313.588 79.4792 314.414 80.3664 314.374 81.4349Z" fill="white"/>
<path d="M307.362 75.7286C299.685 75.4665 296.239 80.4868 295.433 82.9668C294.95 83.491 295.232 85.608 295.514 85.7491C297.771 81.1723 304.682 79.761 307.18 79.7812C311.351 79.7812 316.167 82.2812 317.819 86.5152L318.202 85.8499C318.484 83.4103 316.449 76.0311 307.362 75.7286Z" fill="#4C3322"/>
<path d="M296.158 57.946C291.282 60.2646 290.577 64.3172 294.405 66.656C298.214 68.9947 305.044 65.3656 310.344 65.4462C316.993 65.5471 322.232 70.2045 324.166 67.7649C328.257 62.6236 307.341 52.6233 296.158 57.946Z" fill="#E5E5E5"/>
<path d="M252.212 75.4667C257.552 76.011 262.488 78.2087 263.435 86.838C263.576 88.1485 262.428 88.3098 262.428 88.3098C257.37 87.4227 257.37 87.4227 252.01 87.3622C247.88 87.3219 242.117 88.8743 241.311 87.6445C239.478 84.9024 243.669 74.5997 252.212 75.4667Z" fill="white"/>
<path d="M259.849 81.8782C259.849 80.0838 259.184 78.4507 258.096 77.1805C256.343 76.1724 254.308 75.6885 252.212 75.4869C250.782 75.3457 249.472 75.5272 248.283 75.9304C246.429 77.2611 245.2 79.4184 245.2 81.8782C245.2 84.2371 246.329 86.3138 248.061 87.6647C249.411 87.5034 256.041 87.6647 257.109 87.5437C258.761 86.1928 259.849 84.1565 259.849 81.8782Z" fill="#8DAEB7"/>
<path d="M257.109 81.8787C257.109 84.4191 255.053 86.4554 252.535 86.4554C249.996 86.4554 247.961 84.3989 247.961 81.8787C247.961 79.3584 250.016 77.3019 252.535 77.3019C255.053 77.2817 257.109 79.3383 257.109 81.8787Z" fill="#4C3322"/>
<path d="M258.318 79.9427C258.318 81.0113 257.451 81.8581 256.383 81.8581C255.335 81.8581 254.469 80.9911 254.469 79.9427C254.469 78.8741 255.335 78.0273 256.383 78.0273C257.451 78.0273 258.318 78.8943 258.318 79.9427Z" fill="white"/>
<path d="M251.769 74.4785C259.446 74.4785 262.73 79.6198 263.435 82.1199C263.899 82.6642 263.556 84.7611 263.254 84.9022C261.158 80.2448 254.287 78.6117 251.789 78.5311C247.618 78.3899 242.701 80.7287 240.948 84.9022L240.586 84.2167C240.404 81.7771 242.681 74.4785 251.769 74.4785Z" fill="#4C3322"/>
<path d="M263.153 57.4621C267.405 59.9421 267.929 64.0148 264.463 66.2326C260.997 68.4302 255.033 64.5793 250.318 64.4785C244.414 64.3575 239.598 68.8335 237.946 66.3334C234.44 61.051 253.361 51.7563 263.153 57.4621Z" fill="#E5E5E5"/>
<path opacity="0.5" d="M339.963 82.0983C335.51 83.8121 330.916 85.5662 325.536 84.8C323.965 75.8683 316.167 69.0536 306.797 69.0536C297.81 69.0536 290.295 75.3038 288.28 83.6911C278.225 76.1304 271.374 80.062 268.634 82.4007C266.458 74.4368 259.446 68.5898 251.144 68.5898C241.11 68.5898 232.949 77.1385 232.949 87.663C232.949 98.1875 241.11 106.736 251.144 106.736C261.179 106.736 269.359 98.1875 269.359 87.663C269.359 87.1388 269.319 86.6347 269.279 86.1307C269.702 85.4654 271.717 83.1266 275.182 82.4814C279.011 81.7757 283.242 83.3685 287.796 87.1791C287.776 87.5017 287.756 87.8041 287.756 88.1267C287.756 98.6311 296.299 107.2 306.817 107.2C317.315 107.2 325.879 98.6512 325.879 88.1267C325.879 88.0461 325.859 87.9856 325.859 87.9251C326.624 88.0058 327.39 88.0662 328.136 88.0662C333.012 88.0662 337.243 86.4331 341.092 84.9411C347.217 82.562 352.94 81.0297 359.105 84.1548L359.75 83.5096C351.731 78.2272 346.29 79.6587 339.963 82.0983ZM251.144 103.692C242.782 103.692 235.971 96.4939 235.971 87.6428C235.971 78.7918 242.782 71.594 251.144 71.594C259.506 71.594 266.337 78.7918 266.337 87.6428C266.337 96.4939 259.506 103.692 251.144 103.692ZM306.777 104.155C297.931 104.155 290.738 96.9576 290.738 88.1066C290.738 79.2555 297.931 72.0577 306.777 72.0577C315.623 72.0577 322.816 79.2555 322.816 88.1066C322.816 96.9576 315.623 104.155 306.777 104.155Z" fill="#F8AD7A"/>
<path d="M339.419 80.2438C334.926 81.1713 330.271 82.0987 325.456 81.3729C323.884 72.4412 316.086 65.6063 306.716 65.6063C297.73 65.6063 290.214 71.8565 288.199 80.2438C278.084 72.6428 271.233 76.7558 268.593 79.0946C266.458 71.0702 259.425 65.1426 251.083 65.1426C241.049 65.1426 232.888 73.6912 232.888 84.2157C232.888 94.7402 241.049 103.289 251.083 103.289C261.118 103.289 269.299 94.7402 269.299 84.2157C269.299 83.7722 269.258 83.3286 269.238 82.9052C269.52 82.381 271.616 79.7801 275.182 79.0946C278.971 78.3688 283.182 79.9414 287.715 83.752C287.695 84.0746 287.675 84.377 287.675 84.6996C287.675 95.204 296.219 103.773 306.737 103.773C317.235 103.773 325.798 95.2241 325.798 84.6996C325.798 84.6391 325.778 84.5585 325.778 84.498C330.835 85.1029 335.51 84.1552 340.044 83.2278C346.713 81.8568 352.637 80.6471 359.065 84.1351C361.483 83.3891 362.047 83.3286 363.055 83.0665C354.632 77.1389 346.915 78.7115 339.419 80.2438ZM251.083 100.265C242.721 100.265 235.911 93.0668 235.911 84.2157C235.911 75.3647 242.721 68.1669 251.083 68.1669C259.446 68.1669 266.276 75.3647 266.276 84.2157C266.276 93.0668 259.446 100.265 251.083 100.265ZM306.716 100.728C297.871 100.728 290.677 93.5305 290.677 84.6795C290.677 75.8284 297.871 68.6306 306.716 68.6306C315.562 68.6306 322.756 75.8284 322.756 84.6795C322.756 93.5305 315.562 100.728 306.716 100.728Z" fill="#7F6654"/>
</g>
<defs>
<linearGradient id="paint0_linear" x1="297.822" y1="660.008" x2="297.822" y2="356.241" gradientUnits="userSpaceOnUse">
<stop offset="0.4596" stop-color="#464646"/>
<stop offset="1" stop-color="#373737"/>
</linearGradient>
<linearGradient id="paint1_linear" x1="255.391" y1="533.205" x2="303.752" y2="533.205" gradientUnits="userSpaceOnUse">
<stop offset="0.4596" stop-color="#808080"/>
<stop offset="1" stop-color="#666666"/>
</linearGradient>
<linearGradient id="paint2_linear" x1="274.552" y1="254.379" x2="274.526" y2="191.035" gradientUnits="userSpaceOnUse">
<stop offset="0.3382" stop-color="#C40C0C"/>
<stop offset="0.4396" stop-color="#B50909"/>
<stop offset="0.6489" stop-color="#9D0404"/>
<stop offset="0.8414" stop-color="#8E0101"/>
<stop offset="1" stop-color="#890000"/>
</linearGradient>
<linearGradient id="paint3_linear" x1="109.613" y1="249.126" x2="213.514" y2="249.126" gradientUnits="userSpaceOnUse">
<stop offset="0.4596" stop-color="#353535"/>
<stop offset="1" stop-color="#232323"/>
</linearGradient>
<linearGradient id="paint4_linear" x1="371.112" y1="279.464" x2="439.019" y2="279.464" gradientUnits="userSpaceOnUse">
<stop stop-color="#232323"/>
<stop offset="0.5404" stop-color="#353535"/>
</linearGradient>
<linearGradient id="paint5_linear" x1="310.631" y1="100.706" x2="311.53" y2="126.631" gradientUnits="userSpaceOnUse">
<stop stop-color="white"/>
<stop offset="0.0778" stop-color="#FBECEA"/>
<stop offset="0.4176" stop-color="#E89F93"/>
<stop offset="0.6949" stop-color="#DB6653"/>
<stop offset="0.8958" stop-color="#D2432B"/>
<stop offset="1" stop-color="#CF361C"/>
</linearGradient>
<linearGradient id="paint6_linear" x1="249.293" y1="101.251" x2="251.107" y2="123.466" gradientUnits="userSpaceOnUse">
<stop stop-color="white"/>
<stop offset="0.0778" stop-color="#FBECEA"/>
<stop offset="0.4176" stop-color="#E89F93"/>
<stop offset="0.6949" stop-color="#DB6653"/>
<stop offset="0.8958" stop-color="#D2432B"/>
<stop offset="1" stop-color="#CF361C"/>
</linearGradient>
<linearGradient id="paint7_linear" x1="299.13" y1="190.177" x2="299.13" y2="-0.000207467" gradientUnits="userSpaceOnUse">
<stop stop-color="#D6D6D6"/>
<stop offset="0.3015" stop-color="#E5E5E5"/>
<stop offset="1" stop-color="#F1F1F1"/>
</linearGradient>
<linearGradient id="paint8_linear" x1="299.13" y1="190.177" x2="299.13" y2="-0.000207467" gradientUnits="userSpaceOnUse">
<stop stop-color="#CBCBCB"/>
<stop offset="0.636" stop-color="#E5E5E5"/>
</linearGradient>
<linearGradient id="paint9_linear" x1="245.217" y1="129.091" x2="310.827" y2="129.091" gradientUnits="userSpaceOnUse">
<stop stop-color="#CBCBCB"/>
<stop offset="0.636" stop-color="#E5E5E5"/>
</linearGradient>
<clipPath id="clip0">
<rect width="423" height="660" fill="white"/>
</clipPath>
</defs>
</svg>
