<svg width="419" height="365" viewBox="0 0 419 365" fill="none" xmlns="http://www.w3.org/2000/svg">
<path d="M352.303 343.076C352.303 336.734 223.799 337.405 223.224 342.597C223.224 342.597 264.5 582.999 262.621 595.395C262.218 598.096 265.266 598.786 265.324 601.315C265.401 604.112 262.352 608.825 262.602 610.319C285.492 624.784 305.507 624.88 305.526 624.88C305.526 623.654 305.545 598.499 305.545 598.499C297.052 539.145 287.984 404.115 289.71 399.823C301.462 394.306 331.081 595.088 336.161 622.294C335.989 621.336 337.81 627.16 337.81 627.16C340.091 623.884 345.824 615.358 356.444 612.848C366.835 610.396 376.574 614.247 376.574 614.247C360.413 533.704 352.323 354.628 352.303 343.076Z" fill="url(#paint0_linear)"/>
<path opacity="0.2" d="M376.612 614.248C360.413 533.705 352.322 354.648 352.322 343.096C352.322 341.18 340.609 339.915 324.256 339.207L361.084 612.16C369.557 611.47 376.612 614.248 376.612 614.248Z" fill="#464646"/>
<path opacity="0.4" d="M352.303 343.076C352.303 336.734 223.799 337.405 223.224 342.597C223.224 342.597 229.8 380.914 237.583 427.718C242.932 428.37 251.885 428.753 253.457 427.68L248.894 368.537L259.937 371.545L270.539 365.357L283.153 372.254L307.846 363.901C309.341 384.401 312.868 427.776 315.456 429.711C318.313 431.837 344.999 429.059 356.521 425.534C353.722 381.814 352.303 347.904 352.303 343.076Z" fill="#262626"/>
<path d="M334.666 149.784C331.062 153.865 256.831 152.198 256.831 152.198C256.831 152.198 238.964 181.166 237.181 192.642C234.056 212.835 271.861 262.552 275.446 261.23C278.399 260.157 341.932 221.897 344.635 159.517C341.203 156.643 334.666 149.784 334.666 149.784Z" fill="white"/>
<path opacity="0.5" d="M342.775 174.517C332.537 179.958 320.172 187.736 319.271 189.23L297.435 204.327L290.246 179.498C284.13 175.628 278.244 175.685 270.25 179.115L258.978 202.412L239.921 184.115C238.56 187.41 237.563 190.38 237.218 192.66C234.093 212.853 271.899 262.57 275.484 261.248C278.168 260.251 331.809 227.969 342.775 174.517Z" fill="#989898"/>
<path d="M272.839 181.534C272.839 181.534 265.19 208.605 265.669 223.76L277.095 241.731L289.882 225.829C285.684 209.065 289.25 181.534 289.25 181.534H272.839Z" fill="url(#paint1_linear)"/>
<path d="M280.777 212.586C275.581 214.368 269.562 216.437 265.842 217.701C265.785 218.41 265.746 219.081 265.727 219.771C268.239 218.928 272.821 217.357 281.409 214.406C283.671 213.621 285.953 212.835 288.042 212.126C288.004 211.456 287.966 210.804 287.947 210.134C285.895 210.824 283.499 211.647 280.777 212.586Z" fill="#FF7F00"/>
<path d="M267.549 226.705L268.603 228.372C271.364 227.433 275.39 226.054 281.39 223.985C283.997 223.084 286.643 222.184 288.982 221.379C288.886 220.747 288.79 220.096 288.694 219.444C286.49 220.211 283.844 221.111 280.777 222.165C276.31 223.698 271.249 225.441 267.549 226.705Z" fill="#FF7F00"/>
<path d="M280.777 203.007C276.118 204.617 270.788 206.437 267.05 207.721C266.935 208.429 266.82 209.138 266.724 209.847C269.389 208.947 273.856 207.414 281.39 204.808C283.595 204.061 285.799 203.295 287.851 202.586C287.851 201.896 287.87 201.226 287.889 200.555C285.857 201.264 283.48 202.069 280.777 203.007Z" fill="#FF7F00"/>
<path d="M287.506 181.53C285.551 182.2 283.308 182.967 280.777 183.848C277.71 184.902 274.374 186.051 271.383 187.086C271.211 187.775 271.019 188.523 270.827 189.289C273.415 188.408 276.847 187.22 281.39 185.668C284.036 184.748 286.72 183.829 289.059 183.024C289.174 182.085 289.231 181.53 289.231 181.53H287.506Z" fill="#FF7F00"/>
<path d="M280.777 193.426C276.866 194.767 272.476 196.281 268.968 197.488C268.814 198.197 268.661 198.925 268.508 199.672C271.268 198.733 275.313 197.335 281.391 195.246C283.729 194.442 286.088 193.637 288.216 192.89C288.254 192.181 288.311 191.491 288.35 190.821C286.241 191.549 283.691 192.43 280.777 193.426Z" fill="#FF7F00"/>
<path opacity="0.5" d="M289.25 181.534H272.839C272.839 181.534 265.19 208.605 265.669 223.76L269.005 229.009C269.906 219.832 270.941 201.057 273.472 199.16C274.967 198.03 284.208 197.455 285.051 199.697C285.377 200.597 285.646 216.537 286.144 230.484L289.882 225.829C285.703 209.065 289.25 181.534 289.25 181.534Z" fill="#C0272D"/>
<path d="M270.827 177.469C269.58 179.519 266.666 188.868 269.025 193.562C269.906 195.305 284.994 197.145 288.79 194.961C290.611 193.907 291.244 180.4 289.883 178.637C284.246 178.35 270.827 177.469 270.827 177.469Z" fill="#C40C0C"/>
<path d="M280.777 193.427C278.917 194.059 276.962 194.749 275.025 195.4C276.444 195.611 277.997 195.783 279.55 195.879C280.163 195.668 280.738 195.477 281.39 195.247C284.362 194.232 287.352 193.197 289.902 192.316C290.036 191.683 290.151 190.936 290.247 190.17C287.793 191.013 284.611 192.105 280.777 193.427Z" fill="#FF7F00"/>
<path d="M280.777 183.85C276.56 185.306 271.805 186.935 268.163 188.18C268.143 188.87 268.143 189.54 268.201 190.192C270.962 189.253 275.103 187.835 281.391 185.67C284.631 184.559 287.89 183.429 290.574 182.509C290.535 181.781 290.478 181.11 290.42 180.536C287.928 181.379 284.688 182.509 280.777 183.85Z" fill="#FF7F00"/>
<path opacity="0.5" d="M270.827 177.469C269.58 179.519 266.666 188.868 269.025 193.562C269.408 194.309 272.379 195.076 275.945 195.516C270.922 194.558 272.782 185.726 274.047 183.293C275.389 180.707 286.509 182.201 287.467 183.293C288.33 183.925 289.308 193.026 286.969 195.574C287.697 195.42 288.33 195.229 288.771 194.961C290.592 193.907 291.225 180.4 289.864 178.637C284.246 178.35 270.827 177.469 270.827 177.469Z" fill="#C0272D"/>
<path d="M239.5 185.323L234.266 191.492C233.077 196.435 224.853 348.842 226.559 352.77C228.131 356.391 255.546 367.848 260.224 367.522C265.342 367.158 276.903 357.387 276.903 357.387L291.53 246.439C262.946 218.199 241.148 191.684 239.5 185.323Z" fill="#616161"/>
<g opacity="0.7">
<path opacity="0.7" d="M252.977 204.753C252.326 203.949 251.674 203.163 251.06 202.397V365.111C251.712 365.341 252.364 365.571 252.977 365.782V204.753Z" fill="#989898"/>
<path opacity="0.7" d="M239.558 360.455C240.191 360.742 240.823 361.01 241.475 361.298V189.349C240.478 187.72 239.827 186.437 239.558 185.517V360.455Z" fill="#989898"/>
<path opacity="0.7" d="M258.729 211.572C258.077 210.824 257.445 210.077 256.812 209.33V366.948C257.541 367.14 258.173 367.274 258.729 367.389V211.572Z" fill="#989898"/>
<path opacity="0.7" d="M247.226 197.529C246.555 196.648 245.903 195.786 245.309 194.981V362.926C245.961 363.194 246.593 363.443 247.226 363.692V197.529Z" fill="#989898"/>
<path opacity="0.7" d="M228.055 354.305C228.592 354.708 229.224 355.129 229.972 355.589V259.949C229.301 272.862 228.63 286.197 228.055 298.611V354.305Z" fill="#989898"/>
<path opacity="0.7" d="M235.724 189.77L234.267 191.494C234.171 191.916 234.017 193.448 233.806 195.862V357.715C234.42 358.04 235.072 358.347 235.724 358.673V189.77Z" fill="#989898"/>
<path opacity="0.7" d="M287.485 242.418C286.853 241.767 286.201 241.134 285.568 240.483V291.598L287.485 277.038V242.418Z" fill="#989898"/>
<path opacity="0.7" d="M279.817 335.261L281.734 320.719V236.574C281.082 235.904 280.449 235.252 279.817 234.601V335.261Z" fill="#989898"/>
<path opacity="0.7" d="M291.32 247.955L291.511 246.442C291.435 246.384 291.377 246.307 291.32 246.25V247.955Z" fill="#989898"/>
<path opacity="0.7" d="M262.563 366.911C263.176 366.681 263.809 366.375 264.48 366.03V218.087C263.828 217.359 263.195 216.65 262.563 215.941V366.911Z" fill="#989898"/>
<path opacity="0.7" d="M275.983 230.577C275.331 229.887 274.698 229.216 274.066 228.546V359.648C274.852 359.035 275.504 358.518 275.983 358.135V230.577Z" fill="#989898"/>
<path opacity="0.7" d="M270.231 224.429C269.58 223.72 268.947 223.031 268.314 222.341V363.789C268.966 363.368 269.599 362.927 270.231 362.486V224.429Z" fill="#989898"/>
</g>
<path d="M260.013 368.48C254.933 368.48 227.518 357.426 225.678 353.153C224.585 350.624 226.886 301.502 228.362 272.457C230.241 235.539 232.675 194.003 233.327 191.263L233.385 191.033L239.98 183.293L240.44 185.075C242.031 191.148 263.675 217.568 292.202 245.75L292.547 246.076L292.489 246.555L277.823 357.866L277.536 358.115C277.057 358.518 265.669 368.097 260.301 368.48C260.205 368.48 260.109 368.48 260.013 368.48ZM235.148 191.914C233.442 201.072 226.349 348.67 227.461 352.425C228.707 355.299 254.588 366.564 260.033 366.564H260.186C264.02 366.296 272.647 359.706 276.021 356.889L290.534 246.785C263.522 220.058 243.239 195.593 239.213 187.163L235.148 191.914Z" fill="#979797"/>
<path d="M327.419 178.387L340.743 190.61C341.931 195.553 324.697 348.324 322.99 352.251C321.437 355.872 286.776 367.847 282.079 367.521C276.96 367.157 255.048 353.995 255.048 353.995L254.07 241.629C296.036 221.589 325.77 184.747 327.419 178.387Z" fill="#707070"/>
<g opacity="0.7">
<path opacity="0.7" d="M293.237 216.203C292.604 216.72 291.972 217.256 291.32 217.774V365.448C291.952 365.257 292.585 365.065 293.237 364.874V216.203Z" fill="#989898"/>
<path opacity="0.7" d="M298.988 211.262C298.356 211.817 297.723 212.392 297.071 212.948V363.649C297.704 363.439 298.337 363.228 298.988 363.017V211.262Z" fill="#989898"/>
<path opacity="0.7" d="M281.734 225.113C281.102 225.573 280.469 226.032 279.817 226.492V366.963C280.565 367.212 281.217 367.404 281.734 367.481V225.113Z" fill="#989898"/>
<path opacity="0.7" d="M264.481 236.188C263.848 236.552 263.196 236.916 262.563 237.26V358.343C263.177 358.688 263.829 359.052 264.481 359.416V236.188Z" fill="#989898"/>
<path opacity="0.7" d="M256.812 355.028C257.349 355.334 258.001 355.717 258.729 356.139V239.31C258.096 239.635 257.445 239.961 256.812 240.287V355.028Z" fill="#989898"/>
<path opacity="0.7" d="M275.983 229.099C275.35 229.521 274.699 229.942 274.066 230.364V364.474C274.718 364.8 275.37 365.106 275.983 365.375V229.099Z" fill="#989898"/>
<path opacity="0.7" d="M270.231 232.796C269.599 233.179 268.947 233.581 268.314 233.965V361.523C268.947 361.868 269.599 362.212 270.231 362.538V232.796Z" fill="#989898"/>
<path opacity="0.7" d="M285.568 367.002C286.163 366.868 286.795 366.715 287.485 366.542V220.822C286.853 221.32 286.22 221.799 285.568 222.297V367.002Z" fill="#989898"/>
<path opacity="0.7" d="M304.739 205.956C304.107 206.549 303.474 207.163 302.822 207.776V361.677C303.455 361.447 304.107 361.217 304.739 360.987V205.956Z" fill="#989898"/>
<path opacity="0.7" d="M325.828 181.604V332.689C326.403 328.053 327.055 322.784 327.745 317.056V178.692L327.419 178.405C327.227 179.094 326.69 180.206 325.828 181.604Z" fill="#989898"/>
<path opacity="0.7" d="M339.248 189.23L337.331 187.467V231.13C338.06 224.041 338.711 217.508 339.248 211.856V189.23Z" fill="#989898"/>
<path opacity="0.7" d="M333.496 183.96L331.579 182.198V284.064C332.212 278.393 332.864 272.646 333.496 266.936V183.96Z" fill="#989898"/>
<path opacity="0.7" d="M316.242 194.02C315.629 194.71 314.977 195.438 314.325 196.166V357.232C314.996 356.945 315.629 356.658 316.242 356.389V194.02Z" fill="#989898"/>
<path opacity="0.7" d="M308.574 359.55C309.226 359.301 309.858 359.052 310.491 358.802V200.246C309.877 200.897 309.226 201.548 308.574 202.2V359.55Z" fill="#989898"/>
<path opacity="0.7" d="M321.994 187.066C321.399 187.832 320.767 188.656 320.076 189.499V354.493C320.862 354.053 321.495 353.65 321.994 353.286V187.066Z" fill="#989898"/>
</g>
<path d="M282.29 368.48H282.022C276.826 368.116 256.831 356.18 254.569 354.819L254.109 354.551L253.131 241.036L253.687 240.768C296.554 220.268 325.099 183.522 326.499 178.158L326.901 176.625L341.606 190.113L341.682 190.4C342.737 194.768 325.924 347.922 323.872 352.635C321.917 357.138 286.872 368.48 282.29 368.48ZM256.026 353.459C262.41 357.272 278.245 366.295 282.156 366.564H282.29C288.406 366.564 320.786 354.609 322.109 351.869C324.256 346.275 340.398 199.462 339.842 191.09L327.802 180.054C323.201 189.576 294.061 223.41 255.067 242.243L256.026 353.459Z" fill="#979797"/>
<path opacity="0.4" d="M266.111 250.654C266.111 252.11 264.961 253.259 263.504 253.221C262.066 253.183 260.878 251.995 260.858 250.539C260.858 249.083 262.028 247.933 263.466 247.972C264.923 248.01 266.092 249.217 266.111 250.654Z" fill="#919191"/>
<path d="M265.592 250.289C265.592 251.553 264.614 252.53 263.406 252.511C262.18 252.492 261.202 251.457 261.183 250.193C261.183 248.948 262.16 247.951 263.368 247.97C264.576 248.009 265.573 249.043 265.592 250.289Z" fill="#C6C6C6"/>
<path d="M264.959 249.025C264.499 248.355 263.445 248.029 263.368 248.987C263.33 249.562 264.212 250.041 264.173 250.788C265.209 251.21 265.419 249.715 264.959 249.025Z" fill="white"/>
<path opacity="0.4" d="M284.975 250.653C284.975 252.109 283.824 253.259 282.367 253.221C280.929 253.182 279.741 251.995 279.722 250.538C279.722 249.082 280.891 247.933 282.329 247.971C283.786 248.009 284.975 249.216 284.975 250.653Z" fill="#919191"/>
<path d="M284.457 250.288C284.457 251.553 283.498 252.53 282.271 252.511C281.044 252.491 280.067 251.457 280.047 250.192C280.047 248.947 281.025 247.951 282.233 247.97C283.46 248.008 284.438 249.043 284.457 250.288Z" fill="#C6C6C6"/>
<path d="M283.824 249.025C283.364 248.354 282.31 248.029 282.233 248.987C282.195 249.561 283.076 250.04 283.038 250.788C284.092 251.209 284.303 249.715 283.824 249.025Z" fill="white"/>
<path opacity="0.4" d="M266.11 269.546C266.11 271.002 264.959 272.132 263.502 272.113C262.064 272.075 260.876 270.887 260.857 269.431C260.857 267.975 262.026 266.825 263.464 266.864C264.921 266.902 266.09 268.109 266.11 269.546Z" fill="#919191"/>
<path d="M265.592 269.179C265.592 270.443 264.614 271.42 263.406 271.401C262.179 271.382 261.202 270.348 261.182 269.083C261.182 267.838 262.16 266.841 263.368 266.861C264.576 266.899 265.573 267.934 265.592 269.179Z" fill="#C6C6C6"/>
<path d="M264.959 267.915C264.499 267.244 263.445 266.918 263.368 267.876C263.33 268.451 264.211 268.93 264.173 269.677C265.208 270.118 265.419 268.604 264.959 267.915Z" fill="white"/>
<path opacity="0.4" d="M284.974 269.548C284.974 271.004 283.824 272.134 282.367 272.115C280.929 272.077 279.74 270.889 279.721 269.433C279.721 267.977 280.89 266.827 282.328 266.866C283.785 266.904 284.974 268.111 284.974 269.548Z" fill="#919191"/>
<path d="M284.456 269.179C284.456 270.443 283.497 271.42 282.27 271.401C281.044 271.382 280.066 270.348 280.047 269.083C280.047 267.838 281.024 266.841 282.232 266.861C283.459 266.899 284.437 267.934 284.456 269.179Z" fill="#C6C6C6"/>
<path d="M283.823 267.915C283.363 267.244 282.309 266.918 282.232 267.876C282.194 268.451 283.076 268.93 283.037 269.677C284.092 270.118 284.303 268.604 283.823 267.915Z" fill="white"/>
<path opacity="0.4" d="M266.11 288.457C266.11 289.894 264.959 291.043 263.502 291.024C262.064 290.986 260.876 289.798 260.857 288.342C260.857 286.886 262.026 285.737 263.464 285.775C264.921 285.794 266.09 287.001 266.11 288.457Z" fill="#919191"/>
<path d="M265.592 288.072C265.592 289.318 264.614 290.314 263.406 290.295C262.179 290.276 261.202 289.241 261.182 287.977C261.182 286.731 262.16 285.735 263.368 285.754C264.576 285.792 265.573 286.827 265.592 288.072Z" fill="#C6C6C6"/>
<path d="M264.959 286.808C264.499 286.138 263.445 285.812 263.368 286.77C263.33 287.345 264.211 287.824 264.173 288.571C265.208 289.011 265.419 287.498 264.959 286.808Z" fill="white"/>
<path opacity="0.4" d="M284.974 288.455C284.974 289.892 283.824 291.041 282.367 291.022C280.929 290.984 279.741 289.796 279.721 288.34C279.721 286.884 280.891 285.734 282.329 285.772C283.786 285.792 284.974 286.999 284.974 288.455Z" fill="#919191"/>
<path d="M284.456 288.069C284.456 289.315 283.498 290.311 282.271 290.292C281.044 290.273 280.066 289.238 280.047 287.974C280.047 286.728 281.025 285.732 282.233 285.751C283.46 285.79 284.437 286.824 284.456 288.069Z" fill="#C6C6C6"/>
<path d="M283.824 286.805C283.364 286.135 282.309 285.809 282.233 286.767C282.194 287.342 283.076 287.821 283.038 288.568C284.092 289.009 284.303 287.495 283.824 286.805Z" fill="white"/>
<path opacity="0.4" d="M266.11 307.35C266.11 308.786 264.959 309.936 263.502 309.917C262.064 309.878 260.876 308.691 260.857 307.254C260.857 305.798 262.026 304.648 263.464 304.686C264.921 304.706 266.09 305.893 266.11 307.35Z" fill="#919191"/>
<path d="M265.592 306.963C265.592 308.228 264.614 309.205 263.406 309.186C262.179 309.167 261.202 308.113 261.182 306.868C261.182 305.622 262.16 304.626 263.368 304.645C264.576 304.684 265.573 305.718 265.592 306.963Z" fill="#C6C6C6"/>
<path d="M264.959 305.698C264.499 305.028 263.445 304.702 263.368 305.66C263.33 306.235 264.211 306.714 264.173 307.461C265.208 307.902 265.419 306.388 264.959 305.698Z" fill="white"/>
<path opacity="0.4" d="M284.974 307.346C284.974 308.783 283.824 309.933 282.367 309.913C280.929 309.875 279.74 308.687 279.721 307.25C279.721 305.794 280.891 304.645 282.328 304.683C283.785 304.702 284.974 305.89 284.974 307.346Z" fill="#919191"/>
<path d="M284.456 306.964C284.456 308.228 283.498 309.206 282.271 309.186C281.044 309.167 280.066 308.113 280.047 306.868C280.047 305.623 281.025 304.627 282.233 304.646C283.46 304.684 284.437 305.719 284.456 306.964Z" fill="#C6C6C6"/>
<path d="M283.823 305.699C283.363 305.028 282.308 304.703 282.232 305.661C282.193 306.235 283.075 306.714 283.037 307.461C284.091 307.902 284.302 306.389 283.823 305.699Z" fill="white"/>
<path opacity="0.4" d="M266.11 328.328C266.11 329.764 264.959 330.914 263.502 330.895C262.064 330.857 260.876 329.669 260.857 328.232C260.857 326.776 262.026 325.626 263.464 325.665C264.921 325.684 266.09 326.891 266.11 328.328Z" fill="#919191"/>
<path d="M265.592 327.962C265.592 329.226 264.614 330.222 263.406 330.184C262.18 330.165 261.202 329.13 261.183 327.866C261.183 326.62 262.16 325.624 263.368 325.643C264.576 325.682 265.573 326.716 265.592 327.962Z" fill="#C6C6C6"/>
<path d="M264.959 326.697C264.499 326.027 263.445 325.701 263.368 326.659C263.33 327.234 264.211 327.713 264.173 328.46C265.208 328.881 265.419 327.387 264.959 326.697Z" fill="white"/>
<path opacity="0.4" d="M284.974 328.325C284.974 329.762 283.824 330.912 282.367 330.892C280.929 330.854 279.74 329.666 279.721 328.229C279.721 326.773 280.891 325.624 282.328 325.662C283.785 325.681 284.974 326.888 284.974 328.325Z" fill="#919191"/>
<path d="M284.456 327.959C284.456 329.224 283.498 330.22 282.271 330.181C281.044 330.162 280.066 329.128 280.047 327.863C280.047 326.618 281.025 325.622 282.233 325.641C283.46 325.679 284.437 326.714 284.456 327.959Z" fill="#C6C6C6"/>
<path d="M283.824 326.695C283.364 326.024 282.309 325.699 282.232 326.657C282.194 327.231 283.076 327.71 283.038 328.457C284.092 328.879 284.303 327.385 283.824 326.695Z" fill="white"/>
<path opacity="0.4" d="M266.11 347.042C266.11 348.498 264.959 349.648 263.502 349.609C262.064 349.571 260.876 348.383 260.857 346.927C260.857 345.471 262.026 344.321 263.464 344.36C264.921 344.398 266.09 345.586 266.11 347.042Z" fill="#919191"/>
<path d="M265.592 346.677C265.592 347.942 264.614 348.938 263.406 348.9C262.179 348.881 261.202 347.846 261.182 346.582C261.182 345.317 262.16 344.34 263.368 344.359C264.576 344.378 265.573 345.413 265.592 346.677Z" fill="#C6C6C6"/>
<path d="M264.959 345.397C264.499 344.726 263.445 344.4 263.368 345.358C263.33 345.933 264.211 346.412 264.173 347.159C265.208 347.6 265.419 346.086 264.959 345.397Z" fill="white"/>
<path opacity="0.4" d="M284.974 347.041C284.974 348.497 283.824 349.646 282.367 349.608C280.929 349.57 279.741 348.382 279.721 346.926C279.721 345.47 280.891 344.32 282.329 344.358C283.786 344.397 284.974 345.585 284.974 347.041Z" fill="#919191"/>
<path d="M284.456 346.676C284.456 347.94 283.498 348.937 282.271 348.898C281.044 348.879 280.066 347.845 280.047 346.58C280.047 345.316 281.025 344.339 282.233 344.358C283.46 344.377 284.437 345.411 284.456 346.676Z" fill="#C6C6C6"/>
<path d="M283.824 345.395C283.364 344.725 282.309 344.399 282.233 345.357C282.194 345.932 283.076 346.411 283.038 347.158C284.092 347.598 284.303 346.085 283.824 345.395Z" fill="white"/>
<path d="M75.6713 240.908C72.0372 247.071 73.7684 272.702 75.996 274.21L87.5112 275.543L86.6729 242.29L75.6713 240.908Z" fill="white"/>
<path d="M31.9297 215.025C21.0816 212.012 13.4062 209.178 13.2023 210.123C12.4769 213.501 16.7716 216.717 25.5441 219.574C28.9154 220.658 33.4723 222.02 36.8099 224.707C36.3768 225.072 33.7375 225.857 33.7375 225.857C32.8047 225.98 32.1802 233.84 33.9364 234.565C33.9364 234.565 32.9199 234.86 32.5912 235.361C31.5204 236.951 30.6986 240.132 32.9616 241.744C31.7967 243.352 32.1111 246.211 33.7925 247.924C35.0836 249.212 41.6045 254.598 43.2178 255.573C45.1418 256.743 56.4565 259.321 58.748 258.857C61.0652 258.385 61.4091 256.932 62.8116 256.676C63.4957 256.539 69.8116 258.095 73.6099 259.046C73.4146 253.004 73.713 246.648 74.8458 242.914C71.0256 241.527 66.6522 238.165 64.0229 229.768C59.9718 226.094 54.7525 223.728 51.5384 221.357C49.6111 219.887 40.4876 217.841 31.9297 215.025Z" fill="#EFAB78"/>
<g style="mix-blend-mode:multiply" opacity="0.8">
<path d="M34.9529 235.851C37.6363 236.729 45.6604 241.651 46.85 240.737C48.0141 239.832 49.0781 239.177 48.5148 237.838C47.9166 236.439 44.6883 235.104 44.3777 234.911C44.3777 234.911 40.389 236.894 37.8973 235.534C42.2557 235.99 46.2623 232.523 47.5766 230.476C49.1647 231.503 51.7068 233.549 53.6371 233.741C51.7384 238.743 53.8973 244.119 56.9392 247.196L58.1786 248.459C56.3702 247.666 48.0123 251.32 42.9319 252.219C42.1365 252.366 36.4058 249.474 34.9965 248.342C36.8477 249.135 40.3832 249.574 41.4287 249.57C42.483 249.592 43.028 247.726 42.2478 246.92C41.8491 246.513 35.9227 242.973 34.6159 242.593C36.5696 243.351 42.998 246.56 44.1747 246.024C45.8408 245.576 47.1081 243.932 46.3172 242.93C44.2841 240.407 37.3128 237.701 34.9529 235.851Z" fill="url(#paint2_linear)"/>
</g>
<g style="mix-blend-mode:multiply" opacity="0.5">
<path d="M25.567 213.173C27.5188 213.759 29.6508 214.369 31.9374 215.011C40.4952 217.827 49.6188 219.873 51.5628 221.308C52.3923 221.924 53.3503 222.539 54.3856 223.17C55.0335 223.634 55.5793 224.176 55.742 224.938L45.5281 224.258C45.5281 224.258 39.4364 232.147 35.8392 233.106C35.8392 233.106 40.5415 229.786 40.4181 227.146C40.3807 226.084 38.191 225.681 36.6471 224.781C36.7067 224.746 36.7579 224.728 36.8003 224.685C33.4628 221.997 28.9058 220.635 25.5346 219.551C24.408 219.196 23.3755 218.822 22.3859 218.448C23.4301 216.781 24.6001 214.856 25.567 213.173Z" fill="url(#paint3_linear)"/>
</g>
<path d="M219.698 178.388C215.845 185.324 173.222 256.755 173.222 256.755C151.998 256.755 84.2151 240.323 84.2151 240.323C80.7918 245.8 83.5304 279.349 85.5845 282.772C85.757 283.749 179.266 292.574 184.749 293.666C192.744 295.237 215.711 259.506 215.711 259.506L219.698 178.388Z" fill="url(#paint4_linear)"/>
<path opacity="0.4" d="M219.696 178.388C210.686 200.861 211.357 256.747 209.114 262.341C206.832 268.031 189.521 291.003 185.035 291.003C182.236 291.003 106.809 277.98 96.5391 284.142C96.7116 285.119 179.245 292.535 184.728 293.627C192.722 295.198 215.689 259.468 215.689 259.468L219.696 178.388Z" fill="#1A1A1A"/>
<path d="M382.306 178.385L334.665 149.781C334.665 149.781 287.14 232.297 317.124 427.409C320.824 429.152 375.73 422.696 374.177 416.239C374.177 416.239 369.039 326.922 366.413 304.123L382.306 178.385Z" fill="#353535"/>
<path d="M257.847 153.708L219.696 178.385C212.105 209 213.677 245.574 211.951 299.352C210.475 345.582 210.149 397.732 211.721 416.239C218.278 420.895 252.23 430.283 251.52 423.692C230.854 229.136 257.847 153.708 257.847 153.708Z" fill="#353535"/>
<path opacity="0.4" d="M341.721 214.883L335.49 209.288L344.75 206.97C345.133 205.801 359.32 164.63 359.32 164.61C346.418 166.028 335.241 168.557 325.521 171.948C316.415 199.096 304.28 252.031 307.826 335.256C315.687 303.645 341.721 214.883 341.721 214.883Z" fill="#1A1A1A"/>
<path d="M334.666 148.191L360.547 164.112L342.91 204.709L328.819 206.951L339.574 214.959C332.538 228.543 313.578 314.776 307.846 335.237C305.986 309.909 303.245 207.947 334.666 148.191Z" fill="#464646"/>
<path opacity="0.5" d="M253.745 169.55L235.571 168.132C235.571 168.17 231.468 187.693 230.299 198.058L237.564 203.135L228.075 208.231C229.033 236.988 234.785 302.453 244.792 334.946C240.958 245.897 248.607 193.517 253.745 169.55Z" fill="#1A1A1A"/>
<path d="M258.423 152.232L235.724 166.678L232.446 197.37L241.303 203.328L230.299 209.038C230.414 220.954 235.015 299.965 244.792 334.929C246.268 271.399 246.268 199.171 258.423 152.232Z" fill="#464646"/>
<path d="M351.039 333.132L344.75 339.588C347.799 345.413 358.324 351.179 366.548 356.199L372.875 350.662C372.875 350.662 356.081 338.764 351.039 333.132Z" fill="white"/>
<path d="M382.306 178.388C382.306 178.388 369.519 229.35 372.874 254.505C372.874 254.505 382.537 277.707 382.306 281.557C382.191 283.531 349.754 331.734 349.754 331.734C349.754 331.734 365.302 349.264 377.782 352.713C385.508 341.045 419 295.064 419 284.067C419.019 272.725 382.306 178.388 382.306 178.388Z" fill="url(#paint5_linear)"/>
<path opacity="0.4" d="M382.306 178.388C382.306 178.388 369.519 229.35 372.874 254.505C372.874 254.505 382.537 277.707 382.306 281.557C382.191 283.531 349.754 331.734 349.754 331.734C349.754 331.734 384.377 287.727 384.377 281.864C384.377 277.151 376.977 259.199 374.504 250.846C373.929 222.415 382.306 178.388 382.306 178.388Z" fill="#1A1A1A"/>
<path d="M337.522 344.74C337.522 365.105 364.726 365.661 369.116 365.469C369.173 364.262 368.521 355.718 368.464 354.511C360.47 354.702 337.522 344.74 337.522 344.74Z" fill="#666666"/>
<path d="M208.347 344.875C208.347 344.875 208.194 358.765 208.367 362.827C215.345 362.463 226.388 354.627 227.595 344.358C222.17 344.166 208.347 344.875 208.347 344.875Z" fill="#666666"/>
<path d="M362.234 353.595C356.042 349.878 349.562 345.836 346.207 341.717L341.97 346.602C347.089 348.691 355.678 351.986 362.234 353.595Z" fill="#EFAB78"/>
<path d="M371.225 79.989C367.315 78.1497 356.502 78.0922 353.55 82.2688C349.945 87.365 347.683 113.727 347.683 113.727C346.974 121.352 359.474 120.605 363.825 117.866C381.655 106.543 377.264 82.8244 371.225 79.989Z" fill="#EFAB78"/>
<path opacity="0.4" d="M370.132 85.028C368.043 83.0547 362.291 85.9668 360.93 87.8252C360.93 87.8252 359.512 93.5728 359.607 99.761C360.604 96.2358 362.426 92.4999 363.576 91.8102C366.317 101.102 365.301 109.321 361.16 113.594C368.599 108.689 368.407 97.3279 366.892 90.7756C371.609 89.3579 371.934 100.566 369.979 104.589C374.062 101.351 372.855 87.5953 370.132 85.028Z" fill="#CC6329"/>
<path d="M223.301 73.6282C221.058 77.4025 214.424 98.9751 227.039 110.93C229.646 113.402 233.787 114.302 237.564 110.911C237.123 103.956 240.67 83.4566 240.9 77.2301C240.9 77.2301 230.317 61.8648 223.301 73.6282Z" fill="#EFAB78"/>
<path opacity="0.4" d="M224.816 78.1122C226.56 76.6561 230.452 80.1621 231.238 82.0397C231.238 82.0397 231.621 87.4424 230.855 92.9984C230.509 89.6648 229.608 86.0055 228.861 85.22C225.813 93.19 225.621 100.758 228.171 105.241C223.282 99.6848 224.701 89.4541 226.56 83.7831C223.263 81.7906 221.748 91.8489 222.726 95.7573C220.1 92.2321 222.534 80.0089 224.816 78.1122Z" fill="#CC6329"/>
<path d="M298.241 7.3018C273.261 6.5163 245.884 28.3763 238.331 50.3704C234.171 62.4595 229.263 95.6806 235.513 124.208C240.631 147.581 265.477 164.249 279.146 164.192C318.581 164.019 339.631 146.202 345.172 134.764C349.715 123.135 352.092 110.126 354.182 97.9605C367.966 17.3026 323.221 8.08731 298.241 7.3018Z" fill="#EFAB78"/>
<path opacity="0.2" d="M298.241 7.3018C273.261 6.5163 245.884 28.3763 238.331 50.3704C234.171 62.4595 229.263 95.6806 235.513 124.208C240.631 147.581 265.477 164.249 279.146 164.192C318.581 164.019 339.631 146.202 345.172 134.764C349.715 123.135 352.092 110.126 354.182 97.9605C367.966 17.3026 323.221 8.08731 298.241 7.3018ZM345.728 75.0467C346.284 82.1546 340.877 125.894 307.059 126.622C306.618 126.622 282.233 121.966 277.133 118.192C272.762 114.973 267.548 111.87 268.372 107.54C269.58 101.256 277.133 77.8439 277.133 71.3108C277.133 64.2987 279.817 26.6712 286.872 24.2955C287.62 23.4142 307.788 24.9086 329.816 19.5825C353.645 29.7174 333.669 51.9606 345.728 75.0467Z" fill="#F8AD7A"/>
<path opacity="0.15" d="M291.665 95.986L291.147 107.883C299.142 108.497 300.196 118.842 314.46 120.796C324.39 122.157 333.056 114.34 333.803 105.853C334.072 102.787 328.972 82.0385 291.665 95.986Z" fill="url(#paint6_linear)"/>
<path opacity="0.15" d="M268.832 94.3392C264.557 93.3621 248.606 92.7682 243.354 95.5462C239.443 97.6153 237.966 108.191 240.9 112.023C244.274 116.429 250.044 117.08 254.089 115.126C258.173 113.153 258.211 107.903 263.368 106.735L268.832 94.3392Z" fill="url(#paint7_linear)"/>
<path d="M366.298 37.6675C352.322 18.3939 346.341 18.8346 342.277 17.8C328.282 7.89501 307.136 -0.132454 296.247 0.00165627C285.377 0.154925 269.331 4.82963 260.742 15.5776C226.425 27.7434 229.148 57.286 230.528 69.2601C232.522 70.0839 234.075 70.6012 234.075 70.6012C234.056 73.6091 232.081 91.1201 231.851 112.348C232.119 145.243 251.156 177.372 277.133 180.706C303.954 181.051 338.155 163.042 349.715 122.598C349.715 122.598 352.38 107.52 358.189 79.8357C362.521 77.8432 369.787 79.4525 369.787 79.4525C372.222 67.9573 375.711 50.6379 366.298 37.6675ZM305.698 126.659C293.774 126.966 282.29 124.245 277.133 123.728C272.321 123.249 244.389 129.974 238.887 112.463C235.685 102.29 241.782 45.8674 243.622 42.1123C245.788 37.6867 262.41 18.1066 270.021 18.3939C273.299 18.5281 277.344 21.4593 290.265 22.3981C308.708 23.7392 326.806 16.8229 331.272 17.8192C338.002 19.3136 342.756 28.184 343.504 35.3302C344.386 43.6642 343.791 64.2406 345.325 68.8578C345.881 70.5054 347.606 73.2643 348.546 75.7166C339.727 124.744 318.294 126.334 305.698 126.659Z" fill="url(#paint8_linear)"/>
<path opacity="0.25" d="M342.277 17.8C328.282 7.89501 307.136 -0.132454 296.247 0.00165627C285.377 0.154925 269.331 4.82963 260.742 15.5776C226.425 27.7434 229.148 57.286 230.528 69.2601C232.522 70.0839 234.075 70.6012 234.075 70.6012C234.056 73.6091 232.081 91.1201 231.851 112.348C232.119 145.243 251.156 177.372 277.133 180.706C303.954 181.051 338.155 163.042 349.715 122.598C349.715 122.598 352.38 107.52 358.189 79.8357C362.521 77.8432 369.787 79.4525 369.787 79.4525C372.241 67.9382 375.73 50.6188 366.298 37.6484C352.322 18.3939 346.341 18.8346 342.277 17.8ZM354.086 75.7932C351.498 91.1584 347.683 106.37 342.871 121.103C337.254 138.231 308.171 171.855 274.296 166.356C246.919 161.911 237.851 134.419 236.088 109.608C235.417 100.259 235.57 90.3729 236.72 81.0618C238.292 68.2639 237.391 44.6413 243.948 35.2727C255.834 18.2598 277.114 5.2128 304.874 8.75715C322.051 10.9412 338.903 15.7692 349.044 32.533C353.799 40.3689 355.543 49.3351 355.639 58.4163C355.677 64.2405 355.045 70.1223 354.086 75.7932Z" fill="url(#paint9_linear)"/>
<path opacity="0.7" d="M276.021 122.291C276.021 122.291 253.878 122.311 249.872 113.9C249.833 134.591 270.557 133.633 276.807 129.074C291.531 139.17 311.679 129.859 312.312 114.992C304.548 125.721 280.277 122.291 276.021 122.291Z" fill="#919191"/>
<path d="M289.921 112.444C289.825 112.482 290.036 112.424 289.921 112.444C287.869 114.8 281.984 117.616 277.728 117.597C277.402 117.597 277.344 117.597 277.325 117.597C276.884 117.616 277.134 117.655 276.654 117.597C275.312 117.425 272.878 116.908 269.12 112.673C258.844 109.8 255.758 120.452 249.853 113.919C250.332 136.066 273.606 129.878 277.019 126.985C287.543 135.932 311.718 131.2 312.293 114.302C305.584 121.678 298.394 109.819 289.921 112.444Z" fill="#E5E5E5"/>
<path opacity="0.25" d="M277.018 126.985C287.543 135.932 311.718 131.2 312.293 114.302C312.12 116.179 309.168 125.05 298.49 127.042C282.386 130.031 277.075 122.751 276.194 123.364C273.682 125.126 268.276 126.774 264.192 126.697C258.154 126.582 252.287 121.831 249.872 113.918C250.332 136.066 273.625 129.878 277.018 126.985Z" fill="url(#paint10_linear)"/>
<path opacity="0.3" d="M289 110.183C288.176 112.157 282.482 115.433 277.555 115.433C274.852 115.433 272.302 113.421 270.845 111.544C269.484 109.8 269.005 108.21 269.139 107.386C269.215 106.888 269.618 105.604 270.097 104.11C271.708 98.9563 274.928 88.7064 277.478 72.4024C277.459 69.8735 277.152 66.0801 277.152 66.0801C272.302 91.0246 264.634 102.386 263.368 106.735C261.202 114.111 271.459 119.13 277.114 119.149C284.322 119.188 289.614 114.015 290.841 111.045C292.087 107.175 289.479 109.072 289 110.183Z" fill="#FFA161"/>
<path opacity="0.4" d="M289 110.183C288.176 112.156 282.482 115.432 277.555 115.432C274.852 115.432 272.302 113.421 270.845 111.543C269.484 109.8 269.005 108.209 269.139 107.386C269.216 106.887 269.618 105.604 270.098 104.109C271.708 98.9558 274.929 88.7059 277.479 72.4019L277.153 66.0796C273.759 90.89 267.605 104.224 267.165 107.022C266.532 110.911 271.919 117.597 277.574 117.597C283.096 117.597 289.614 114.014 290.86 111.064C292.087 107.175 289.48 109.072 289 110.183Z" fill="#C67758"/>
<path opacity="0.2" d="M285.645 104.338C283.977 101.617 282.98 85.275 282.386 78.9718C281.485 75.8873 279.337 76.098 278.436 78.3396C277.114 93.2833 270.998 105.717 272.263 108.074C277.133 117.097 288.693 108.399 285.645 104.338Z" fill="#EFAB78"/>
<path opacity="0.2" d="M324.602 62.228C322.11 61.021 294.734 60.4463 294.734 60.4463C291.839 68.2247 293.564 82.7086 297.13 85.1993C297.13 85.1993 309.169 82.7853 318.065 85.9081C320.327 86.6936 322.953 86.502 324.161 84.3563C327.459 78.5512 326.596 63.186 324.602 62.228Z" fill="#F8AD7A"/>
<path d="M308.555 72.8784C303.456 73.2233 298.682 75.1583 297.513 83.3199C297.34 84.5652 298.414 84.7568 298.414 84.7568C303.245 84.0862 303.245 84.0862 308.364 84.2012C312.294 84.2969 317.719 85.9637 318.524 84.8142C320.365 82.247 316.703 72.342 308.555 72.8784Z" fill="white"/>
<path d="M308.555 72.8798C307.827 72.9373 307.079 73.014 306.37 73.1481C304.51 74.3359 303.226 76.405 303.13 78.7807C303.053 80.9073 303.973 82.804 305.43 84.1451C306.216 84.1451 312.14 84.7965 313.885 84.854C315.725 83.6662 316.971 81.6162 317.067 79.2597C317.105 78.4167 316.952 77.612 316.703 76.8457C314.939 74.4892 312.198 72.6308 308.555 72.8798Z" fill="#8DAEB7"/>
<path d="M314.46 79.162C314.383 81.5568 312.37 83.4535 309.955 83.3577C307.558 83.2811 305.661 81.2695 305.756 78.8555C305.833 76.4606 307.865 74.5639 310.262 74.6597C312.658 74.7555 314.537 76.7672 314.46 79.162Z" fill="#4C3322"/>
<path d="M315.667 77.3814C315.629 78.3969 314.786 79.1824 313.769 79.144C312.773 79.1057 311.967 78.2627 312.006 77.2473C312.044 76.2319 312.888 75.4464 313.904 75.4847C314.92 75.5231 315.706 76.366 315.667 77.3814Z" fill="white"/>
<path d="M308.997 71.9591C301.692 71.71 298.414 76.4805 297.647 78.837C297.187 79.3352 297.456 81.3468 297.724 81.4809C299.871 77.1319 306.447 75.7908 308.824 75.81C312.793 75.81 317.374 78.1857 318.946 82.209L319.311 81.5767C319.579 79.2585 317.643 72.2465 308.997 71.9591Z" fill="#4C3322"/>
<path d="M298.338 55.061C293.698 57.2642 293.027 61.1151 296.67 63.3375C300.293 65.5599 306.792 62.1114 311.834 62.188C318.161 62.2838 323.145 66.7095 324.986 64.3913C328.877 59.5058 308.978 50.0031 298.338 55.061Z" fill="#E5E5E5"/>
<path d="M256.525 71.7131C261.605 72.2304 266.302 74.3187 267.203 82.5186C267.337 83.7639 266.245 83.9172 266.245 83.9172C261.433 83.0742 261.433 83.0742 256.333 83.0167C252.403 82.9784 246.92 84.4536 246.153 83.2849C244.39 80.6794 248.396 70.8893 256.525 71.7131Z" fill="white"/>
<path d="M263.772 77.8059C263.772 76.1007 263.139 74.5489 262.104 73.3419C260.436 72.384 258.5 71.9241 256.506 71.7326C255.145 71.5985 253.899 71.7709 252.767 72.1541C251.004 73.4185 249.834 75.4685 249.834 77.8059C249.834 80.0474 250.908 82.0207 252.557 83.3044C253.841 83.1511 260.148 83.3044 261.164 83.1894C262.756 81.9058 263.772 79.9708 263.772 77.8059Z" fill="#8DAEB7"/>
<path d="M261.164 77.8062C261.164 80.2202 259.209 82.1552 256.813 82.1552C254.397 82.1552 252.461 80.201 252.461 77.8062C252.461 75.4114 254.416 73.4572 256.813 73.4572C259.228 73.438 261.164 75.3922 261.164 77.8062Z" fill="#4C3322"/>
<path d="M262.315 75.9675C262.315 76.9829 261.49 77.7876 260.493 77.7876C259.496 77.7876 258.672 76.9638 258.672 75.9675C258.672 74.9521 259.496 74.1475 260.493 74.1475C261.509 74.1475 262.315 74.9713 262.315 75.9675Z" fill="white"/>
<path d="M256.104 70.7739C263.408 70.7739 266.533 75.6594 267.204 78.035C267.645 78.5523 267.319 80.5448 267.031 80.6789C265.037 76.2533 258.5 74.7014 256.142 74.6248C252.174 74.4907 247.496 76.7131 245.828 80.6789L245.483 80.0275C245.291 77.7094 247.457 70.7739 256.104 70.7739Z" fill="#4C3322"/>
<path d="M266.935 54.6035C270.98 56.96 271.478 60.8301 268.181 62.9375C264.883 65.0258 259.209 61.3665 254.723 61.2707C249.106 61.1558 244.524 65.409 242.952 63.0333C239.616 58.0138 257.618 49.1816 266.935 54.6035Z" fill="#E5E5E5"/>
<path opacity="0.5" d="M340.015 78.0121C335.778 79.6406 331.407 81.3074 326.288 80.5793C324.793 72.0921 317.374 65.6164 308.459 65.6164C299.909 65.6164 292.758 71.5556 290.841 79.5256C281.275 72.3411 274.756 76.077 272.149 78.2994C270.079 70.7318 263.407 65.1758 255.509 65.1758C245.961 65.1758 238.197 73.299 238.197 83.2998C238.197 93.3007 245.961 101.424 255.509 101.424C265.056 101.424 272.839 93.3007 272.839 83.2998C272.839 82.8017 272.801 82.3228 272.763 81.8438C273.165 81.2116 275.082 78.9892 278.38 78.3761C282.022 77.7055 286.048 79.2191 290.381 82.84C290.362 83.1466 290.343 83.434 290.343 83.7405C290.343 93.7221 298.471 101.865 308.478 101.865C318.467 101.865 326.614 93.7413 326.614 83.7405C326.614 83.6639 326.614 83.6064 326.614 83.5489C327.343 83.6255 328.071 83.683 328.781 83.683C333.42 83.683 337.446 82.1312 341.108 80.7134C346.955 78.4527 352.38 76.9967 358.247 79.9662L358.879 79.3532C351.211 74.3336 346.035 75.6939 340.015 78.0121ZM255.509 98.531C247.553 98.531 241.073 91.6913 241.073 83.2807C241.073 74.8701 247.553 68.0304 255.509 68.0304C263.484 68.0304 269.964 74.8701 269.964 83.2807C269.964 91.6913 263.465 98.531 255.509 98.531ZM308.44 98.9716C300.024 98.9716 293.18 92.132 293.18 83.7213C293.18 75.3107 300.024 68.4711 308.44 68.4711C316.856 68.4711 323.7 75.3107 323.7 83.7213C323.7 92.132 316.856 98.9716 308.44 98.9716Z" fill="#F8AD7A"/>
<path d="M339.497 76.2526C335.222 77.1339 330.794 78.0152 326.212 77.3255C324.716 68.8383 317.297 62.3435 308.382 62.3435C299.832 62.3435 292.681 68.2827 290.764 76.2526C281.14 69.0298 274.622 72.9382 272.111 75.1606C270.079 67.5355 263.388 61.9028 255.451 61.9028C245.904 61.9028 238.139 70.0261 238.139 80.0269C238.139 90.0277 245.904 98.151 255.451 98.151C264.998 98.151 272.762 90.0277 272.762 80.0269C272.762 79.6054 272.724 79.1839 272.705 78.7816C272.973 78.2835 274.967 75.812 278.36 75.1606C281.965 74.4709 285.991 75.9653 290.285 79.5863C290.266 79.8928 290.247 80.1802 290.247 80.4867C290.247 90.4683 298.375 98.6108 308.382 98.6108C318.371 98.6108 326.499 90.4875 326.499 80.4867C326.499 80.4292 326.499 80.3526 326.499 80.2951C331.311 80.8699 335.759 79.9694 340.072 79.0881C346.418 77.7853 352.054 76.6358 358.17 79.9503C360.451 79.2414 361.007 79.1839 361.966 78.9349C353.971 73.3022 346.629 74.7966 339.497 76.2526ZM255.451 95.2772C247.495 95.2772 241.015 88.4375 241.015 80.0269C241.015 71.6163 247.495 64.7766 255.451 64.7766C263.407 64.7766 269.887 71.6163 269.887 80.0269C269.887 88.4375 263.407 95.2772 255.451 95.2772ZM308.382 95.7178C299.966 95.7178 293.122 88.8782 293.122 80.4675C293.122 72.0569 299.966 65.2173 308.382 65.2173C316.799 65.2173 323.623 72.0569 323.623 80.4675C323.623 88.8782 316.799 95.7178 308.382 95.7178Z" fill="#7F6654"/>
<defs>
<linearGradient id="paint0_linear" x1="299.918" y1="627.168" x2="299.918" y2="338.516" gradientUnits="userSpaceOnUse">
<stop offset="0.4596" stop-color="#464646"/>
<stop offset="1" stop-color="#373737"/>
</linearGradient>
<linearGradient id="paint1_linear" x1="277.776" y1="241.726" x2="277.752" y2="181.535" gradientUnits="userSpaceOnUse">
<stop offset="0.3382" stop-color="#C40C0C"/>
<stop offset="0.4396" stop-color="#B50909"/>
<stop offset="0.6489" stop-color="#9D0404"/>
<stop offset="0.8414" stop-color="#8E0101"/>
<stop offset="1" stop-color="#890000"/>
</linearGradient>
<linearGradient id="paint2_linear" x1="36.353" y1="234.131" x2="58.5699" y2="253.401" gradientUnits="userSpaceOnUse">
<stop stop-color="#ED7D26"/>
<stop offset="1" stop-color="white"/>
</linearGradient>
<linearGradient id="paint3_linear" x1="21.9236" y1="218.392" x2="50.8398" y2="230.014" gradientUnits="userSpaceOnUse">
<stop offset="0.067" stop-color="white"/>
<stop offset="1" stop-color="#ED7D26"/>
</linearGradient>
<linearGradient id="paint4_linear" x1="137.323" y1="236.045" x2="219.706" y2="236.045" gradientUnits="userSpaceOnUse">
<stop offset="0.4596" stop-color="#353535"/>
<stop offset="1" stop-color="#232323"/>
</linearGradient>
<linearGradient id="paint5_linear" x1="369.648" y1="265.56" x2="434.259" y2="265.56" gradientUnits="userSpaceOnUse">
<stop stop-color="#232323"/>
<stop offset="0.5404" stop-color="#353535"/>
</linearGradient>
<linearGradient id="paint6_linear" x1="312.103" y1="95.6961" x2="312.956" y2="120.33" gradientUnits="userSpaceOnUse">
<stop stop-color="white"/>
<stop offset="0.0778" stop-color="#FBECEA"/>
<stop offset="0.4176" stop-color="#E89F93"/>
<stop offset="0.6949" stop-color="#DB6653"/>
<stop offset="0.8958" stop-color="#D2432B"/>
<stop offset="1" stop-color="#CF361C"/>
</linearGradient>
<linearGradient id="paint7_linear" x1="253.744" y1="96.2142" x2="255.465" y2="117.324" gradientUnits="userSpaceOnUse">
<stop stop-color="white"/>
<stop offset="0.0778" stop-color="#FBECEA"/>
<stop offset="0.4176" stop-color="#E89F93"/>
<stop offset="0.6949" stop-color="#DB6653"/>
<stop offset="0.8958" stop-color="#D2432B"/>
<stop offset="1" stop-color="#CF361C"/>
</linearGradient>
<linearGradient id="paint8_linear" x1="301.161" y1="180.715" x2="301.161" y2="0.00165879" gradientUnits="userSpaceOnUse">
<stop stop-color="#D6D6D6"/>
<stop offset="0.3015" stop-color="#E5E5E5"/>
<stop offset="1" stop-color="#F1F1F1"/>
</linearGradient>
<linearGradient id="paint9_linear" x1="301.161" y1="180.715" x2="301.161" y2="0.00165879" gradientUnits="userSpaceOnUse">
<stop stop-color="#CBCBCB"/>
<stop offset="0.636" stop-color="#E5E5E5"/>
</linearGradient>
<linearGradient id="paint10_linear" x1="249.864" y1="122.669" x2="312.291" y2="122.669" gradientUnits="userSpaceOnUse">
<stop stop-color="#CBCBCB"/>
<stop offset="0.636" stop-color="#E5E5E5"/>
</linearGradient>
</defs>
</svg>
