<svg width="52" height="52" viewBox="0 0 52 52" fill="none" xmlns="http://www.w3.org/2000/svg">
<path d="M50.5999 11.1C50.1999 10.9 49.8 11 49.4 11.3L39.7 20.3L39.5 20.5C39.3 20.7 39.2 21 39.2 21.3V50.6C39.2 51.2 39.6999 51.7 40.2999 51.7H50.2C50.8 51.7 51.2999 51.2 51.2999 50.6V12.1C51.2999 11.6 50.9999 11.2 50.5999 11.1ZM49.0999 49.5H41.4V21.7L49.0999 14.5V49.5Z" fill="#56CCF2"/>
<path d="M37.7999 22.7C37.4 22.7 37.1 22.8 36.9 23L32.2 27.4H27.7999C27.4999 27.4 27.2 27.5 27 27.7C26.8 27.9 26.7 28.2 26.7 28.5V50.7C26.7 51.3 27.1999 51.8 27.7999 51.8H37.7C38.3 51.8 38.7999 51.3 38.7999 50.7V23.8C38.6999 23.2 38.2999 22.8 37.7999 22.7ZM36.5 49.5H28.7999V29.5H32.5C32.8 29.5 33 29.4 33.2 29.2L36.5 26.1V49.5Z" fill="#56CCF2"/>
<path d="M25.0001 27.4H20.1001C19.9001 27.4 19.7001 27.4 19.6001 27.5L14.7001 30.2C14.4001 30.4 14.1001 30.7 14.1001 31.1V50.6C14.1001 51.2 14.6001 51.7 15.2001 51.7H25.0001C25.6001 51.7 26.1001 51.2 26.1001 50.6V28.4C26.1001 27.8 25.6001 27.4 25.0001 27.4ZM24.0001 49.5H16.3001V31.8L20.4001 29.5H24.0001V49.5Z" fill="#56CCF2"/>
<path d="M50.4 0.299999H43.7C43.1 0.299999 42.6 0.799999 42.6 1.4C42.6 2 43.1 2.5 43.7 2.5H47.6L32.1 16.9L20.1 16.8C19.9 16.8 19.7 16.8 19.6 16.9L1.10004 27.2C0.600036 27.5 0.400036 28.1 0.700036 28.7C0.900036 29.1 1.30004 29.3 1.60004 29.3C1.80004 29.3 2.00004 29.3 2.10004 29.2L20.4 19.1L32.5 19C32.8 19 33 18.9 33.2 18.7L49.3 3.7V7.8C49.3 8.4 49.8 8.9 50.4 8.9C51 8.9 51.5 8.4 51.5 7.8V1.4C51.5 0.799999 51 0.299999 50.4 0.299999Z" fill="#56CCF2"/>
<path d="M13.0001 31.7C12.7001 31.5 12.3001 31.5 11.9001 31.7L2.00015 37.1C1.70015 37.3 1.40015 37.6 1.40015 38V50.5C1.40015 51.1 1.90015 51.6 2.50015 51.6H12.4001C13.0001 51.6 13.5001 51.1 13.5001 50.5V32.5C13.5001 32.2 13.3001 31.9 13.0001 31.7ZM11.4001 49.5H3.60015V38.7L11.3001 34.4V49.5H11.4001Z" fill="#56CCF2"/>
</svg>
