<svg xmlns="http://www.w3.org/2000/svg" width="109" height="18" fill="none" style=""><rect id="backgroundrect" width="100%" height="100%" x="0" y="0" fill="none" stroke="none"/>

<defs>
<clipPath id="clip0">
<rect width="108" height="18" fill="white" y="0" x="0.14819300174713135" id="svg_1"/>
</clipPath>
</defs>
<g class="currentLayer" style=""><title>Layer 1</title><g clip-path="url(#clip0)" id="svg_2" class="selected" fill="#ffffff" fill-opacity="1">
<path d="M7.15929 0.970896C8.96129 0.970896 9.84462 1.56178 9.84462 2.70879C9.84462 3.8558 8.96129 4.44668 7.15929 4.44668H4.04995V7.36634H6.69995C8.50195 7.36634 9.38528 7.92246 9.38528 9.06947C9.38528 10.2165 8.50195 10.7726 6.69995 10.7726H4.04995V13.9008H7.26528C9.06728 13.9008 9.95062 14.4569 9.95062 15.6039C9.95062 16.751 9.06728 17.3071 7.26528 17.3071H2.84862C1.89462 17.3071 1.22329 17.1333 0.83462 16.8205C0.445953 16.5076 0.269287 15.882 0.269287 14.9435V3.57773C0.269287 2.60451 0.445953 1.90936 0.83462 1.52702C1.22329 1.14468 1.89462 0.936137 2.88395 0.936137H7.15929V0.970896ZM14.6853 17.3418C13.7313 17.3418 13.06 17.168 12.6713 16.8552C12.2826 16.5424 12.106 15.9168 12.106 14.9783V3.57773C12.106 2.60451 12.2826 1.90936 12.6713 1.52702C13.06 1.14468 13.7313 0.936137 14.7206 0.936137H17.83C19.3493 0.936137 20.6213 1.24896 21.646 1.83984C22.918 2.56976 23.554 3.61249 23.554 5.0028C23.554 6.77545 22.8826 7.99198 21.6106 8.61762V8.68713C22.6 8.99995 23.2713 9.41705 23.6953 10.0079C24.1193 10.5988 24.3313 11.3635 24.3313 12.3715C24.3313 14.0398 23.7306 15.2911 22.5646 16.1601C21.54 16.9247 20.1266 17.3071 18.3953 17.3071H14.6853V17.3418ZM15.8866 4.16862V7.36634H17.5119C18.254 7.36634 18.784 7.26206 19.1019 7.08827C19.5259 6.84497 19.738 6.39312 19.738 5.73272C19.738 4.65523 18.996 4.13386 17.5119 4.13386H15.8866V4.16862ZM15.8866 10.286V14.1441H17.7946C18.6073 14.1441 19.208 14.0398 19.5966 13.8313C20.1266 13.5532 20.374 13.0319 20.374 12.3019C20.374 11.433 20.1266 10.8769 19.632 10.5988C19.2786 10.3903 18.6426 10.286 17.724 10.286H15.8866ZM28.3946 17.5156C27.1226 17.5156 26.4866 16.6467 26.4866 14.874V3.57773C26.4866 2.60451 26.6633 1.94411 27.0519 1.52702C27.4406 1.14468 28.1119 0.936137 29.1013 0.936137H32.5286C34.3659 0.936137 35.8146 1.42275 36.91 2.36121C38.0406 3.33443 38.6059 4.72474 38.6059 6.49739C38.6059 8.27004 38.076 9.6256 37.0513 10.5988C36.0266 11.572 34.6133 12.0586 32.8113 12.0586H30.2673V14.8393C30.3026 16.6467 29.6666 17.5156 28.3946 17.5156ZM30.3026 8.72189H31.9279C33.6593 8.72189 34.5426 7.99198 34.5426 6.53215C34.5426 5.10708 33.6593 4.41192 31.9279 4.41192H30.3026V8.72189ZM39.8779 9.17374C39.8779 6.7407 40.5846 4.72474 41.9626 3.1954C43.4113 1.59654 45.3546 0.762348 47.8279 0.762348C50.3013 0.762348 52.28 1.56178 53.6933 3.16064C55.1066 4.68998 55.778 6.70594 55.778 9.17374C55.778 11.6068 55.0713 13.6227 53.6933 15.1521C52.28 16.7162 50.3013 17.5156 47.8279 17.5156C45.3546 17.5156 43.4113 16.7162 41.9626 15.1173C40.5846 13.588 39.8779 11.6068 39.8779 9.17374ZM43.9059 9.2085C43.9059 10.5641 44.2239 11.6763 44.8246 12.5453C45.5313 13.588 46.5206 14.0746 47.8279 14.0746C49.1353 14.0746 50.16 13.5532 50.8666 12.5453C51.5026 11.6415 51.7853 10.5293 51.7853 9.17374C51.7853 7.78343 51.5026 6.63642 50.9019 5.73272C50.1953 4.68998 49.1706 4.13386 47.8279 4.13386C46.4853 4.13386 45.4606 4.65523 44.7893 5.73272C44.1886 6.67118 43.9059 7.81819 43.9059 9.2085ZM65.2826 17.7589C62.7739 17.7589 60.7599 16.9247 59.2759 15.2911C57.8626 13.727 57.1206 11.6763 57.1206 9.17374C57.1206 6.7407 57.8626 4.68998 59.3466 3.05637C60.866 1.35323 62.8446 0.519043 65.3179 0.519043C66.2013 0.519043 67.0493 0.623316 67.8266 0.866621C68.8159 1.17944 69.5226 1.59654 69.9466 2.15266C70.1939 2.46548 70.2999 2.7783 70.2999 3.12588C70.2999 3.54297 70.1233 3.96007 69.8053 4.27289C69.4873 4.58571 69.0986 4.79426 68.6746 4.79426C68.2506 4.79426 67.7559 4.68998 67.1906 4.44668C66.6253 4.23813 65.9893 4.0991 65.3179 4.0991C63.9399 4.0991 62.9153 4.62047 62.1733 5.69796C61.5373 6.63642 61.2193 7.78343 61.2193 9.2085C61.2193 10.5988 61.5726 11.7458 62.2439 12.6148C62.9859 13.588 64.0459 14.1094 65.4239 14.1094C66.0246 14.1094 66.6959 13.9703 67.438 13.6923C68.1799 13.4142 68.6746 13.2752 68.9573 13.2752C69.3813 13.2752 69.7346 13.449 70.0526 13.7965C70.3706 14.1441 70.5119 14.5265 70.5119 14.9435C70.5119 15.2911 70.4059 15.6387 70.1586 15.9863C69.3106 17.168 67.6853 17.7589 65.2826 17.7589ZM79.3806 0.970896C81.1826 0.970896 82.0659 1.56178 82.0659 2.70879C82.0659 3.8558 81.1826 4.44668 79.3806 4.44668H76.2713V7.36634H78.9213C80.7233 7.36634 81.6066 7.92246 81.6066 9.06947C81.6066 10.2165 80.7233 10.7726 78.9213 10.7726H76.2713V13.9008H79.4866C81.2886 13.9008 82.172 14.4569 82.172 15.6039C82.172 16.751 81.2886 17.3071 79.4866 17.3071H75.0699C74.116 17.3071 73.4446 17.1333 73.0559 16.8205C72.6673 16.5076 72.4906 15.882 72.4906 14.9435V3.57773C72.4906 2.60451 72.6673 1.90936 73.0559 1.52702C73.4446 1.14468 74.116 0.936137 75.1053 0.936137H79.3806V0.970896ZM86.6239 4.44668C85.2459 4.44668 84.3979 4.41192 84.0799 4.3424C83.0553 4.13386 82.5606 3.57773 82.5606 2.74354C82.5606 1.56178 83.4439 1.00565 85.2459 1.00565H91.8179C93.6199 1.00565 94.5033 1.59654 94.5033 2.74354C94.5033 3.61249 94.0086 4.13386 92.9839 4.3424C92.6659 4.41192 91.7826 4.44668 90.4399 4.44668V14.874C90.4399 16.6467 89.8039 17.5156 88.532 17.5156C87.2599 17.5156 86.6239 16.6467 86.6239 14.874V4.44668ZM99.5206 6.21933H102.065C103.867 6.21933 105.28 6.70594 106.305 7.67916C107.329 8.65238 107.859 10.0079 107.859 11.7806C107.859 13.5532 107.294 14.9435 106.163 15.9168C105.068 16.8552 103.619 17.3418 101.782 17.3418H98.3546C97.3653 17.3418 96.6939 17.1333 96.3053 16.751C95.9166 16.3686 95.7399 15.6735 95.7399 14.7002V3.40394C95.7399 1.63129 96.3759 0.762348 97.6479 0.762348C98.9199 0.762348 99.5559 1.63129 99.5559 3.40394V6.21933H99.5206ZM99.5206 9.59084V13.9008H101.146C102.877 13.9008 103.761 13.2057 103.761 11.7806C103.761 10.3208 102.877 9.59084 101.146 9.59084H99.5206Z" fill="#ffffff" id="svg_3" fill-opacity="1"/>
</g></g></svg>