<svg width="182" height="144" viewBox="0 0 182 144" fill="none" xmlns="http://www.w3.org/2000/svg">
<g opacity="0.5">
<path opacity="0.5" d="M73.8326 0H10.9768C10.4967 0 10.1074 0.3889 10.1074 0.868633V96.6846C10.1074 97.1643 10.4967 97.5532 10.9768 97.5532H73.8326C74.3127 97.5532 74.702 97.1643 74.702 96.6846V0.868633C74.702 0.3889 74.3127 0 73.8326 0Z" fill="url(#paint0_linear)"/>
</g>
<path d="M73.0049 0.716064H11.805C11.3248 0.716064 10.9355 1.10496 10.9355 1.5847V95.4279C10.9355 95.9076 11.3248 96.2965 11.805 96.2965H73.0049C73.485 96.2965 73.8743 95.9076 73.8743 95.4279V1.5847C73.8743 1.10496 73.485 0.716064 73.0049 0.716064Z" fill="#F2F2F2"/>
<g opacity="0.5">
<path opacity="0.5" d="M28.9484 18.3242H18.0999C17.6197 18.3242 17.2305 18.7131 17.2305 19.1929V28.7748C17.2305 29.2546 17.6197 29.6435 18.0999 29.6435H28.9484C29.4286 29.6435 29.8178 29.2546 29.8178 28.7748V19.1929C29.8178 18.7131 29.4286 18.3242 28.9484 18.3242Z" fill="#56CCF2"/>
</g>
<path d="M67.0358 18.3242H34.1386C33.8377 18.3242 33.5938 18.5679 33.5938 18.8686V19.0384C33.5938 19.3391 33.8377 19.5828 34.1386 19.5828H67.0358C67.3367 19.5828 67.5806 19.3391 67.5806 19.0384V18.8686C67.5806 18.5679 67.3367 18.3242 67.0358 18.3242Z" fill="#E0E0E0"/>
<path d="M61.3014 22.0959H34.1386C33.8377 22.0959 33.5938 22.3397 33.5938 22.6403V22.8102C33.5938 23.1108 33.8377 23.3545 34.1386 23.3545H61.3014C61.6023 23.3545 61.8462 23.1108 61.8462 22.8102V22.6403C61.8462 22.3397 61.6023 22.0959 61.3014 22.0959Z" fill="#E0E0E0"/>
<g opacity="0.5">
<path opacity="0.5" d="M28.9484 35.9304H18.0999C17.6197 35.9304 17.2305 36.3193 17.2305 36.7991V46.381C17.2305 46.8608 17.6197 47.2497 18.0999 47.2497H28.9484C29.4286 47.2497 29.8178 46.8608 29.8178 46.381V36.7991C29.8178 36.3193 29.4286 35.9304 28.9484 35.9304Z" fill="#56CCF2"/>
</g>
<path d="M67.0358 35.9304H34.1386C33.8377 35.9304 33.5938 36.1741 33.5938 36.4748V36.6446C33.5938 36.9453 33.8377 37.189 34.1386 37.189H67.0358C67.3367 37.189 67.5806 36.9453 67.5806 36.6446V36.4748C67.5806 36.1741 67.3367 35.9304 67.0358 35.9304Z" fill="#E0E0E0"/>
<path d="M67.0358 39.7024H34.1386C33.8377 39.7024 33.5938 39.9461 33.5938 40.2467V40.4166C33.5938 40.7172 33.8377 40.9609 34.1386 40.9609H67.0358C67.3367 40.9609 67.5806 40.7172 67.5806 40.4166V40.2467C67.5806 39.9461 67.3367 39.7024 67.0358 39.7024Z" fill="#E0E0E0"/>
<g opacity="0.5">
<path opacity="0.5" d="M28.9484 53.5366H18.0999C17.6197 53.5366 17.2305 53.9255 17.2305 54.4053V63.9872C17.2305 64.467 17.6197 64.8559 18.0999 64.8559H28.9484C29.4286 64.8559 29.8178 64.467 29.8178 63.9872V54.4053C29.8178 53.9255 29.4286 53.5366 28.9484 53.5366Z" fill="#56CCF2"/>
</g>
<path d="M67.0358 53.5366H34.1386C33.8377 53.5366 33.5938 53.7803 33.5938 54.081V54.2508C33.5938 54.5515 33.8377 54.7952 34.1386 54.7952H67.0358C67.3367 54.7952 67.5806 54.5515 67.5806 54.2508V54.081C67.5806 53.7803 67.3367 53.5366 67.0358 53.5366Z" fill="#E0E0E0"/>
<path d="M36.8261 57.3105H34.1386C33.8377 57.3105 33.5938 57.5543 33.5938 57.8549V58.0248C33.5938 58.3254 33.8377 58.5691 34.1386 58.5691H36.8261C37.127 58.5691 37.3709 58.3254 37.3709 58.0248V57.8549C37.3709 57.5543 37.127 57.3105 36.8261 57.3105Z" fill="#E0E0E0"/>
<g opacity="0.5">
<path opacity="0.5" d="M113.06 31.4097H51.1722C50.692 31.4097 50.3027 31.7986 50.3027 32.2783V87.8824C50.3027 88.3621 50.692 88.751 51.1722 88.751H113.06C113.54 88.751 113.929 88.3621 113.929 87.8824V32.2783C113.929 31.7986 113.54 31.4097 113.06 31.4097Z" fill="url(#paint1_linear)"/>
</g>
<path d="M112.186 31.9851H52.1565C51.6764 31.9851 51.2871 32.374 51.2871 32.8537V86.6569C51.2871 87.1366 51.6764 87.5255 52.1565 87.5255H112.186C112.666 87.5255 113.055 87.1366 113.055 86.6569V32.8537C113.055 32.374 112.666 31.9851 112.186 31.9851Z" fill="white"/>
<g opacity="0.5">
<path opacity="0.5" d="M69.7534 43.918H58.221C57.7408 43.918 57.3516 44.3069 57.3516 44.7866V54.9824C57.3516 55.4621 57.7408 55.851 58.221 55.851H69.7534C70.2336 55.851 70.6229 55.4621 70.6229 54.9824V44.7866C70.6229 44.3069 70.2336 43.918 69.7534 43.918Z" fill="#56CCF2"/>
</g>
<path d="M109.862 43.918H75.1812C74.8632 43.918 74.6055 44.1755 74.6055 44.4932V44.6688C74.6055 44.9865 74.8632 45.2441 75.1812 45.2441H109.862C110.18 45.2441 110.437 44.9865 110.437 44.6688V44.4932C110.437 44.1755 110.18 43.918 109.862 43.918Z" fill="#E0E0E0"/>
<path d="M109.862 47.8965H75.1812C74.8632 47.8965 74.6055 48.154 74.6055 48.4717V48.6474C74.6055 48.9651 74.8632 49.2226 75.1812 49.2226H109.862C110.18 49.2226 110.437 48.9651 110.437 48.6474V48.4717C110.437 48.154 110.18 47.8965 109.862 47.8965Z" fill="#E0E0E0"/>
<path d="M109.86 62.333H56.5992C56.2812 62.333 56.0234 62.5905 56.0234 62.9082V63.0839C56.0234 63.4016 56.2812 63.6591 56.5992 63.6591H109.86C110.178 63.6591 110.436 63.4016 110.436 63.0839V62.9082C110.436 62.5905 110.178 62.333 109.86 62.333Z" fill="#E0E0E0"/>
<path d="M109.86 66.3115H56.5992C56.2812 66.3115 56.0234 66.5691 56.0234 66.8868V67.0624C56.0234 67.3801 56.2812 67.6376 56.5992 67.6376H109.86C110.178 67.6376 110.436 67.3801 110.436 67.0624V66.8868C110.436 66.5691 110.178 66.3115 109.86 66.3115Z" fill="#E0E0E0"/>
<path d="M109.86 71.614H56.5992C56.2812 71.614 56.0234 71.8716 56.0234 72.1892V72.3649C56.0234 72.6826 56.2812 72.9401 56.5992 72.9401H109.86C110.178 72.9401 110.436 72.6826 110.436 72.3649V72.1892C110.436 71.8716 110.178 71.614 109.86 71.614Z" fill="#E0E0E0"/>
<path d="M96.589 75.5923H56.5992C56.2812 75.5923 56.0234 75.8498 56.0234 76.1675V76.3432C56.0234 76.6609 56.2812 76.9184 56.5992 76.9184H96.589C96.9069 76.9184 97.1647 76.6609 97.1647 76.3432V76.1675C97.1647 75.8498 96.9069 75.5923 96.589 75.5923Z" fill="#E0E0E0"/>
<g opacity="0.5">
<path opacity="0.5" d="M115.468 52.867L115.694 51.8594L115.377 52.8439C107.136 50.6202 98.6413 49.4756 90.1055 49.4388C28.6041 49.0759 0 103.381 0 103.381L58.2825 134.103C58.2825 134.103 65.4311 111.955 90.8203 112.677C92.5667 112.725 94.3087 112.877 96.0369 113.133L88.3125 137.171C87.9824 137.64 87.75 138.171 87.629 138.732C87.5081 139.293 87.5011 139.872 87.6085 140.436C87.7159 140.999 87.9354 141.535 88.2541 142.013C88.5728 142.49 88.9842 142.898 89.4638 143.214C89.9435 143.529 90.4816 143.745 91.0464 143.849C91.6111 143.953 92.191 143.942 92.7515 143.818C93.3121 143.693 93.842 143.458 94.3097 143.125C94.7775 142.792 95.1736 142.369 95.4746 141.881V141.869C95.8755 141.218 96.0938 140.471 96.1064 139.707C96.1064 139.578 96.1064 139.448 96.0929 139.321L101.677 114.393C118.312 119.505 123.352 134.102 123.352 134.102L182 104.809C182 104.809 159.975 64.943 115.468 52.867Z" fill="url(#paint2_linear)"/>
</g>
<path d="M90.118 50.041C29.4011 49.6878 1.16016 103.296 1.16016 103.296L58.7008 133.623C58.7008 133.623 65.7605 111.756 90.8251 112.461C92.5906 112.509 94.3514 112.665 96.0977 112.928L115.152 53.4268C106.99 51.216 98.5744 50.0778 90.118 50.041Z" fill="#56CCF2"/>
<path d="M115.152 53.4268L96.0977 112.934C116.89 116.09 122.947 133.623 122.947 133.623L180.842 104.707C180.842 104.707 159.089 65.3483 115.152 53.4268Z" fill="#E0E0E0"/>
<path d="M96.0353 138.779L115.379 52.4307L88.3457 136.655C88.0145 137.118 87.7803 137.644 87.657 138.199C87.5337 138.755 87.5239 139.33 87.6282 139.889C87.7325 140.449 87.9488 140.982 88.264 141.456C88.5792 141.93 88.987 142.336 89.4629 142.649C89.9387 142.962 90.4729 143.176 91.0335 143.278C91.594 143.38 92.1693 143.368 92.7251 143.242C93.2808 143.117 93.8055 142.88 94.2677 142.548C94.7299 142.215 95.1202 141.792 95.4151 141.305V141.294C95.8108 140.651 96.0263 139.915 96.0392 139.161C96.0508 139.028 96.045 138.904 96.0353 138.779Z" fill="#535461"/>
<g opacity="0.7">
<path opacity="0.7" d="M103.026 49.9387L102.52 49.8441L103.519 46.1765C105.092 34.4017 99.1505 33.2069 96.9229 33.1663C96.6667 33.0727 96.4054 32.9934 96.1404 32.9289V31.5391C97.542 31.1936 98.8115 30.4452 99.7918 29.3865C100.772 28.3277 101.42 27.0051 101.656 25.5822H101.676C102.029 25.5822 102.317 25.0437 102.317 24.3796C102.331 24.0277 102.233 23.6803 102.037 23.3875C102.063 23.1301 102.076 22.8727 102.076 22.6154C102.076 21.5761 101.865 20.5475 101.456 19.5922C101.046 18.6369 100.447 17.7747 99.6935 17.058C99.5906 16.5446 99.4067 16.0507 99.1486 15.5949C98.6018 14.6297 97.6918 13.6298 98.0628 12.5855L95.6612 12.8326L95.6381 11.2517C94.8884 11.3868 94.5735 12.2535 94.1291 12.8712C93.0588 14.3576 90.9122 14.5641 89.4922 15.7223C89.0092 16.1083 87.9234 17.3128 88.1301 18.0985C87.1763 19.4094 86.6635 20.9889 86.6656 22.6096C86.6656 22.8669 86.6785 23.1243 86.7042 23.3817C86.5083 23.6745 86.4102 24.0219 86.4241 24.3739C86.4241 25.0379 86.712 25.5764 87.0655 25.5764H87.0848C87.3208 26.9993 87.9691 28.3219 88.9494 29.3807C89.9298 30.4394 91.1993 31.1878 92.6009 31.5333V32.9231C92.3358 32.9876 92.0746 33.0669 91.8184 33.1606C89.5907 33.2011 83.6496 34.3882 85.2223 46.1707L86.2212 49.8383L85.9836 49.8827C85.6301 49.9486 85.2931 50.0834 84.9918 50.2794C84.6906 50.4754 84.4309 50.7288 84.2276 51.0251C84.0243 51.3214 83.8814 51.6548 83.8071 52.0063C83.7328 52.3577 83.7286 52.7204 83.7945 53.0735L87.7417 74.1504C87.7821 74.3661 87.9065 74.557 88.0876 74.6811C88.2688 74.8053 88.4918 74.8525 88.7078 74.8125L89.4014 74.6831V75.0923C89.0165 75.2823 88.6924 75.5761 88.4657 75.9403C88.239 76.3046 88.1187 76.725 88.1185 77.1539V77.4145H92.7709V77.1539C92.7707 76.7559 92.6672 76.3647 92.4705 76.0186C92.2737 75.6724 91.9904 75.3832 91.6484 75.1792V74.2623L92.2821 74.1446C92.498 74.1043 92.6891 73.98 92.8133 73.799C92.9376 73.618 92.9849 73.3952 92.9448 73.1794L89.2468 53.3785H99.5002L95.8062 73.1814C95.7661 73.3971 95.8133 73.62 95.9376 73.8009C96.0618 73.9819 96.2529 74.1062 96.4688 74.1465L97.1026 74.2643V75.1811C96.7605 75.3852 96.4772 75.6744 96.2805 76.0205C96.0837 76.3666 95.9802 76.7578 95.98 77.1558V77.4164H100.632V77.1558C100.632 76.7269 100.512 76.3066 100.285 75.9423C100.059 75.578 99.7345 75.2843 99.3495 75.0943V74.6851L100.043 74.8144C100.259 74.8544 100.482 74.8072 100.663 74.6831C100.844 74.5589 100.969 74.368 101.009 74.1523L104.997 52.811C105.056 52.4931 105.053 52.1666 104.986 51.8501C104.919 51.5337 104.79 51.2335 104.607 50.9668C104.424 50.7 104.191 50.4719 103.919 50.2955C103.648 50.1191 103.344 49.9978 103.026 49.9387Z" fill="url(#paint3_linear)"/>
</g>
<path d="M91.7538 72H89.5938V74.9302H91.7538V72Z" fill="#FDB797"/>
<path d="M99.162 72H97.002V74.9302H99.162V72Z" fill="#FDB797"/>
<path d="M101.478 47.9485H87.2793V53.0367H101.478V47.9485Z" fill="#4D8AF0"/>
<g opacity="0.05">
<path opacity="0.05" d="M101.478 47.9485H87.2793V53.0367H101.478V47.9485Z" fill="black"/>
</g>
<path opacity="0.1" d="M87.2793 48.8732C87.2793 48.8732 92.577 50.1067 94.3777 50.1067C96.1784 50.1067 101.476 48.8732 101.476 48.8732V48.1011H87.2793V48.8732Z" fill="black"/>
<path d="M101.476 48.7187C101.476 48.7187 96.1784 49.9521 94.3777 49.9521C92.577 49.9521 87.2793 48.7187 87.2793 48.7187V40.2389C87.2793 38.358 88.0272 36.5541 89.3584 35.2241C90.6896 33.8942 92.4951 33.147 94.3777 33.147C96.2603 33.147 98.0658 33.8942 99.397 35.2241C100.728 36.5541 101.476 38.358 101.476 40.2389V48.7187Z" fill="#F55F44"/>
<path d="M92.6797 29.5991H96.0743V33.6798C96.0743 34.0694 95.9194 34.443 95.6437 34.7185C95.3679 34.994 94.994 35.1487 94.604 35.1487H94.1519C93.762 35.1487 93.388 34.994 93.1123 34.7185C92.8365 34.443 92.6816 34.0694 92.6816 33.6798V29.5991H92.6797Z" fill="#FDB797"/>
<path d="M92.1604 73.0539L89.1174 73.6214C88.858 73.6682 88.5905 73.6107 88.3734 73.4614C88.1562 73.312 88.007 73.083 87.9581 72.8242L84.3297 53.3977C84.25 52.9724 84.255 52.5357 84.3443 52.1124C84.4337 51.689 84.6056 51.2874 84.8504 50.9305C85.0951 50.5736 85.4078 50.2684 85.7707 50.0323C86.1335 49.7962 86.5394 49.6338 86.9651 49.5545L87.7495 49.4078C88.0089 49.3609 88.2763 49.4184 88.4935 49.5678C88.7106 49.7171 88.8599 49.9461 88.9087 50.205L92.966 71.888C92.9903 72.0174 92.9887 72.1504 92.9612 72.2792C92.9338 72.408 92.8811 72.5302 92.8062 72.6385C92.7313 72.7469 92.6357 72.8394 92.5248 72.9107C92.414 72.982 92.2901 73.0306 92.1604 73.0539Z" fill="#4D8AF0"/>
<path d="M96.588 73.0539L99.631 73.6214C99.8904 73.6682 100.158 73.6107 100.375 73.4614C100.592 73.3121 100.741 73.083 100.79 72.8242L104.48 53.0734C104.624 52.3007 104.455 51.5024 104.01 50.8541C103.566 50.2058 102.881 49.7606 102.108 49.6162L100.999 49.4097C100.739 49.3629 100.472 49.4204 100.255 49.5697C100.038 49.7191 99.8885 49.9481 99.8396 50.2069L95.7823 71.8899C95.7584 72.0192 95.7602 72.152 95.7878 72.2806C95.8153 72.4092 95.8681 72.5311 95.9429 72.6393C96.0178 72.7474 96.1133 72.8398 96.224 72.9109C96.3347 72.9821 96.4584 73.0307 96.588 73.0539Z" fill="#4D8AF0"/>
<path opacity="0.1" d="M92.6797 32.1704C93.7946 32.4445 94.9594 32.4445 96.0743 32.1704V29.7537H92.6797V32.1704Z" fill="black"/>
<path d="M94.3782 30.8328C98.4693 30.8328 101.786 27.5193 101.786 23.432C101.786 19.3447 98.4693 16.0312 94.3782 16.0312C90.2872 16.0312 86.9707 19.3447 86.9707 23.432C86.9707 27.5193 90.2872 30.8328 94.3782 30.8328Z" fill="#333333"/>
<path d="M94.3777 32.2204C98.298 32.2204 101.476 29.0453 101.476 25.1285C101.476 21.2118 98.298 18.0366 94.3777 18.0366C90.4574 18.0366 87.2793 21.2118 87.2793 25.1285C87.2793 29.0453 90.4574 32.2204 94.3777 32.2204Z" fill="#FDB797"/>
<path d="M89.6908 16.8051C91.0568 15.6913 93.1222 15.4925 94.15 14.0621C94.577 13.4676 94.8804 12.6318 95.601 12.5024L95.6223 14.0235L97.9407 13.7861C97.5833 14.7898 98.4585 15.755 98.986 16.6815C99.3736 17.3662 99.5854 18.1362 99.6023 18.9226C98.8005 19.4032 97.8055 18.8782 96.9129 18.5983C96.0203 18.3184 95.1219 18.2972 94.208 18.2721C93.7416 18.2397 93.273 18.2656 92.8131 18.3493C92.415 18.456 92.0271 18.5975 91.6538 18.772C91.0394 19.0288 89.0977 19.9997 88.5278 19.3743C87.8863 18.6659 89.1634 17.2355 89.6908 16.8051Z" fill="#333333"/>
<path opacity="0.1" d="M90.0767 21.571C90.4647 21.7836 90.892 21.915 91.3325 21.9571C93.151 22.2055 95.0028 21.9979 96.721 21.3529C97.0031 22.0652 97.687 22.5555 98.4193 22.7871C99.1515 23.0187 99.9282 23.0303 100.695 23.0419C100.864 23.0609 101.034 23.0286 101.184 22.9492C101.526 22.7195 101.36 22.1906 101.161 21.8316L100.172 20.0403C99.8799 19.5114 99.5785 18.9709 99.1264 18.5713C98.5584 18.0695 97.8049 17.834 97.063 17.6853C95.3071 17.336 93.4942 17.3961 91.7653 17.861C89.9163 18.3493 87.5418 20.0384 90.0767 21.571Z" fill="black"/>
<path d="M90.0767 21.4167C90.4647 21.6293 90.892 21.7607 91.3325 21.8028C93.151 22.0512 95.0028 21.8436 96.721 21.1986C97.0031 21.9109 97.687 22.4012 98.4193 22.6328C99.1515 22.8644 99.9282 22.876 100.695 22.8876C100.864 22.9066 101.034 22.8743 101.184 22.7949C101.526 22.5652 101.36 22.0363 101.161 21.6773L100.172 19.886C99.8799 19.3571 99.5785 18.8166 99.1264 18.417C98.5584 17.9152 97.8049 17.6797 97.063 17.531C95.3071 17.1817 93.4942 17.2418 91.7653 17.7067C89.9163 18.1912 87.5418 19.886 90.0767 21.4167Z" fill="#333333"/>
<path d="M101.4 26.2849C101.741 26.2849 102.018 25.7672 102.018 25.1287C102.018 24.4901 101.741 23.9724 101.4 23.9724C101.058 23.9724 100.781 24.4901 100.781 25.1287C100.781 25.7672 101.058 26.2849 101.4 26.2849Z" fill="#FDB797"/>
<path d="M87.3565 26.2849C87.698 26.2849 87.9748 25.7672 87.9748 25.1287C87.9748 24.4901 87.698 23.9724 87.3565 23.9724C87.0151 23.9724 86.7383 24.4901 86.7383 25.1287C86.7383 25.7672 87.0151 26.2849 87.3565 26.2849Z" fill="#FDB797"/>
<path d="M92.7073 33.6181C92.7073 33.6181 83.7271 32.2206 85.5799 46.0975L86.6599 50.0758L89.7512 49.9523C89.7512 49.9523 87.7458 45.3196 88.9784 42.2427C90.2111 39.1658 92.7073 33.6181 92.7073 33.6181Z" fill="#F55F44"/>
<path d="M96.0469 33.6181C96.0469 33.6181 105.027 32.2206 103.174 46.0975L102.094 50.0758L99.0029 49.9523C99.0029 49.9523 101.008 45.3196 99.7757 42.2427C98.5431 39.1658 96.0469 33.6181 96.0469 33.6181Z" fill="#F55F44"/>
<path d="M88.3584 52.2648C89.2964 52.2648 90.0567 51.5051 90.0567 50.5681C90.0567 49.631 89.2964 48.8713 88.3584 48.8713C87.4205 48.8713 86.6602 49.631 86.6602 50.5681C86.6602 51.5051 87.4205 52.2648 88.3584 52.2648Z" fill="#FDB797"/>
<path d="M100.704 52.2648C101.642 52.2648 102.402 51.5051 102.402 50.5681C102.402 49.631 101.642 48.8713 100.704 48.8713C99.7662 48.8713 99.0059 49.631 99.0059 50.5681C99.0059 51.5051 99.7662 52.2648 100.704 52.2648Z" fill="#FDB797"/>
<path d="M90.2992 73.6968H90.8962C91.4086 73.6968 91.9 73.9002 92.2623 74.2622C92.6247 74.6242 92.8282 75.1151 92.8282 75.6271V76.156H88.3594V75.6271C88.3594 75.3729 88.4096 75.1213 88.5072 74.8866C88.6048 74.6519 88.7478 74.4388 88.928 74.2594C89.1082 74.0801 89.3221 73.9381 89.5574 73.8415C89.7927 73.745 90.0448 73.6958 90.2992 73.6968Z" fill="#333333"/>
<path d="M97.8617 73.6968H98.4587C98.9711 73.6968 99.4625 73.9002 99.8249 74.2622C100.187 74.6242 100.391 75.1151 100.391 75.6271V76.156H95.9219V75.6271C95.9219 75.3729 95.9721 75.1213 96.0697 74.8866C96.1673 74.6519 96.3103 74.4388 96.4905 74.2594C96.6707 74.0801 96.8846 73.9381 97.1199 73.8415C97.3552 73.745 97.6073 73.6958 97.8617 73.6968Z" fill="#333333"/>
<path opacity="0.1" d="M88.8223 41.009C88.8223 41.009 88.2041 44.2461 89.2861 45.6418L88.8223 41.009Z" fill="black"/>
<path opacity="0.1" d="M99.9344 41.009C99.9344 41.009 100.553 44.2461 99.4707 45.6418L99.9344 41.009Z" fill="black"/>
<defs>
<linearGradient id="paint0_linear" x1="42.4037" y1="97.5532" x2="42.4037" y2="0" gradientUnits="userSpaceOnUse">
<stop stop-color="#808080" stop-opacity="0.25"/>
<stop offset="0.54" stop-color="#808080" stop-opacity="0.12"/>
<stop offset="1" stop-color="#808080" stop-opacity="0.1"/>
</linearGradient>
<linearGradient id="paint1_linear" x1="27092.9" y1="26395.8" x2="27092.9" y2="9361.99" gradientUnits="userSpaceOnUse">
<stop stop-color="#808080" stop-opacity="0.25"/>
<stop offset="0.54" stop-color="#808080" stop-opacity="0.12"/>
<stop offset="1" stop-color="#808080" stop-opacity="0.1"/>
</linearGradient>
<linearGradient id="paint2_linear" x1="109200" y1="77937.1" x2="109200" y2="31688.8" gradientUnits="userSpaceOnUse">
<stop stop-color="#808080" stop-opacity="0.25"/>
<stop offset="0.54" stop-color="#808080" stop-opacity="0.12"/>
<stop offset="1" stop-color="#808080" stop-opacity="0.1"/>
</linearGradient>
<linearGradient id="paint3_linear" x1="13232.8" y1="31758.4" x2="13232.8" y2="9079.13" gradientUnits="userSpaceOnUse">
<stop stop-color="#808080" stop-opacity="0.25"/>
<stop offset="0.54" stop-color="#808080" stop-opacity="0.12"/>
<stop offset="1" stop-color="#808080" stop-opacity="0.1"/>
</linearGradient>
</defs>
</svg>
