<svg width="210" height="144" viewBox="0 0 210 144" fill="none" xmlns="http://www.w3.org/2000/svg">
<g clip-path="url(#clip0)">
<path d="M205.453 50.8667C205.452 50.1323 205.259 49.4108 204.891 48.7749C204.523 48.1389 203.994 47.6107 203.356 47.2435V35.4856H203.28V35.4437H194.234L99.2133 11.0762L0 38.9733V43.8542L47.4846 61.7435L44.7176 109.405C69.9803 116.585 89.8668 119.189 105.487 119.069H105.835H106.311C152.244 118.449 160.774 94.0736 160.774 94.0736C158.286 81.1538 158.634 66.8188 159.048 59.6464L200.53 41.0754L199.941 37.5507H200.567V46.7414C199.689 46.8895 198.881 47.313 198.26 47.9504C197.639 48.5878 197.238 49.406 197.114 50.2864C196.99 51.1668 197.151 52.0636 197.572 52.8468C197.993 53.6301 198.654 54.259 199.457 54.6424L196.375 62.0265C196.697 62.4346 197.132 62.74 197.625 62.9053L189.388 85.0404C190.271 85.747 191.217 86.3716 192.215 86.9061L193.544 87.7897L193.576 87.5706C195.825 88.5552 198.658 89.1755 201.221 87.9645L201.916 87.7897L201.805 87.6519C202.372 87.3098 202.891 86.8962 203.351 86.4212L202.654 62.7108L202.057 54.9624C203.011 54.7782 203.871 54.269 204.49 53.522C205.109 52.7749 205.45 51.8363 205.453 50.8667Z" fill="url(#paint0_linear)"/>
<path d="M159.183 93.3055C159.183 93.3055 144.214 136.092 46.2363 108.246L48.9638 61.3865L124.49 50.5195L157.832 55.2724C157.832 55.2724 155.78 75.6477 159.183 93.3055Z" fill="#56CCF2"/>
<path opacity="0.15" d="M48.9512 61.3868V65.4603L105.427 85.1562L155.099 64.1041L155.78 60.0281L105.427 78.3653L48.9512 61.3868Z" fill="black"/>
<path opacity="0.15" d="M157.898 55.2749L124.556 50.522L123.464 50.6795L155.703 55.2773C155.703 55.2773 153.661 75.6501 157.064 93.308C157.064 93.308 148.68 117.279 103.365 117.658C150.598 118.05 159.257 93.308 159.257 93.308C155.856 75.6476 157.898 55.2749 157.898 55.2749Z" fill="black"/>
<path d="M200.728 36.2583H198.006V48.5208H200.728V36.2583Z" fill="#56CCF2"/>
<path opacity="0.1" d="M200.728 36.2583H198.006V48.5208H200.728V36.2583Z" fill="black"/>
<path d="M187.119 84.5136C187.119 84.5136 195.284 91.3808 200.727 85.8723L200.046 62.7822L195.965 60.7441L187.119 84.5136Z" fill="#56CCF2"/>
<path opacity="0.1" d="M187.119 84.5136C187.119 84.5136 195.284 91.3808 200.727 85.8723L200.046 62.7822L195.965 60.7441L187.119 84.5136Z" fill="black"/>
<path d="M2.68164 39.6552V44.4081L105.426 83.1181L197.964 41.6932L197.286 37.6172L104.746 78.3652L2.68164 39.6552Z" fill="#56CCF2"/>
<path opacity="0.07" d="M2.68164 39.6552V44.4081L105.426 83.1181L197.964 41.6932L197.286 37.6172L104.746 78.3652L2.68164 39.6552Z" fill="black"/>
<path d="M2.68164 39.6552L105.239 79.3497L197.286 37.6171L99.3031 12.489L2.68164 39.6552Z" fill="#56CCF2"/>
<path d="M101.327 40.2976C105.074 40.2976 108.111 38.3295 108.111 35.9016C108.111 33.4738 105.074 31.5056 101.327 31.5056C97.5804 31.5056 94.543 33.4738 94.543 35.9016C94.543 38.3295 97.5804 40.2976 101.327 40.2976Z" fill="#56CCF2"/>
<path opacity="0.1" d="M101.327 40.2976C105.074 40.2976 108.111 38.3295 108.111 35.9016C108.111 33.4738 105.074 31.5056 101.327 31.5056C97.5804 31.5056 94.543 33.4738 94.543 35.9016C94.543 38.3295 97.5804 40.2976 101.327 40.2976Z" fill="black"/>
<path d="M200.652 36.2217H106.072V38.2597H200.652V36.2217Z" fill="#56CCF2"/>
<path opacity="0.1" d="M200.652 36.2217H106.072V38.2597H200.652V36.2217Z" fill="black"/>
<path d="M198.687 55.3119C200.941 55.3119 202.768 53.4881 202.768 51.2384C202.768 48.9886 200.941 47.1648 198.687 47.1648C196.433 47.1648 194.605 48.9886 194.605 51.2384C194.605 53.4881 196.433 55.3119 198.687 55.3119Z" fill="#56CCF2"/>
<path opacity="0.1" d="M198.687 55.3119C200.941 55.3119 202.768 53.4881 202.768 51.2384C202.768 48.9886 200.941 47.1648 198.687 47.1648C196.433 47.1648 194.605 48.9886 194.605 51.2384C194.605 53.4881 196.433 55.3119 198.687 55.3119Z" fill="black"/>
<path d="M193.924 62.103C193.924 62.103 195.285 64.2148 200.047 62.7823L199.366 53.9534H197.325L193.924 62.103Z" fill="#56CCF2"/>
<path opacity="0.1" d="M193.924 62.103C193.924 62.103 195.285 64.2148 200.047 62.7823L199.366 53.9534H197.325L193.924 62.103Z" fill="black"/>
<path opacity="0.2" d="M189.121 85.8354L191.841 82.4387L191.161 87.1941L189.121 85.8354Z" fill="white"/>
<path opacity="0.2" d="M196.607 83.7974V87.8734L199.328 87.1941L196.607 83.7974Z" fill="white"/>
<path opacity="0.15" d="M59.8398 85.8354C59.8398 85.8354 80.2517 92.6264 92.5008 88.543L59.8398 85.8354Z" fill="black"/>
<path opacity="0.15" d="M115.357 90.5784C115.357 90.5784 136.832 91.9223 147.626 84.8533L115.357 90.5784Z" fill="black"/>
<path opacity="0.15" d="M130.098 106.7C130.098 106.7 142.583 101.984 148.983 97.1748L130.098 106.7Z" fill="black"/>
<path opacity="0.15" d="M54.3887 96.0229C54.3887 96.0229 76.1692 104.854 81.6143 101.455L54.3887 96.0229Z" fill="black"/>
<path d="M9.61574 89.2942C11.3533 84.8506 12.2209 81.0376 11.5536 80.7777C10.8862 80.5177 8.93655 83.9092 7.19895 88.3528C5.46134 92.7964 4.59375 96.6094 5.26113 96.8694C5.9285 97.1294 7.87813 93.7379 9.61574 89.2942Z" fill="#E0E0E0"/>
<path d="M121.69 133.004C123.427 128.56 124.468 124.814 124.013 124.637C123.559 124.46 121.782 127.919 120.045 132.363C118.307 136.806 117.267 140.552 117.721 140.729C118.175 140.906 119.952 137.447 121.69 133.004Z" fill="#E0E0E0"/>
<path d="M62.0976 116.599L57.8164 113.664L48.0172 127.905L52.2984 130.84L62.0976 116.599Z" fill="#F55F44"/>
<path opacity="0.05" d="M54.1799 131.743L59.9629 132.571L62.4198 115.47L56.6367 114.642L54.1799 131.743Z" fill="black"/>
<path d="M54.5009 131.997L59.6426 132.723L62.0659 115.62L56.9243 114.894L54.5009 131.997Z" fill="#F55F44"/>
<path d="M11.7076 80.3734L5.09961 97.2722L117.57 141.084L124.178 124.185L11.7076 80.3734Z" fill="url(#paint1_linear)"/>
<path d="M117.728 140.692C115.531 139.87 3.64663 96.247 5.25946 96.8795C10.4037 87.2802 11.5529 80.7871 11.5529 80.7871L124.021 124.599C124.021 124.599 120.828 131.56 117.728 140.692Z" fill="#F5F5F5"/>
<path opacity="0.05" d="M70.3756 102.962L61.1191 99.3853L54.8877 115.452L64.1442 119.029L70.3756 102.962Z" fill="black"/>
<path d="M69.6082 103.395L61.1426 100.097L54.8493 116.191L63.3149 119.489L69.6082 103.395Z" fill="#F55F44"/>
<path opacity="0.05" d="M67.9961 102.768L62.3516 100.569L56.0582 116.663L61.7028 118.862L67.9961 102.768Z" fill="black"/>
<path d="M67.594 102.611L62.7559 100.727L56.4625 116.821L61.3007 118.705L67.594 102.611Z" fill="#F55F44"/>
<path d="M78.2949 139.526C78.694 139.52 79.0126 139.192 79.0066 138.794C79.0006 138.396 78.6723 138.078 78.2733 138.084C77.8742 138.09 77.5556 138.418 77.5616 138.816C77.5676 139.214 77.8959 139.532 78.2949 139.526Z" fill="#DBDBDB"/>
<g opacity="0.5">
<path opacity="0.5" d="M21.8375 118.638H21.0977V122.822H21.8375V118.638Z" fill="#47E6B1"/>
<path opacity="0.5" d="M23.5625 121.099V120.361H19.3701V121.099H23.5625Z" fill="#47E6B1"/>
</g>
<g opacity="0.5">
<path opacity="0.5" d="M208.273 66.457H207.533V70.6414H208.273V66.457Z" fill="#47E6B1"/>
<path opacity="0.5" d="M209.998 68.9183V68.1799H205.806V68.9183H209.998Z" fill="#47E6B1"/>
</g>
<g opacity="0.5">
<path opacity="0.5" d="M26.2769 14.522H25.5371V18.7063H26.2769V14.522Z" fill="#47E6B1"/>
<path opacity="0.5" d="M28.002 16.9833V16.2449H23.8096V16.9833H28.002Z" fill="#47E6B1"/>
</g>
<g opacity="0.5">
<path opacity="0.5" d="M186.08 8.12256H185.34V12.3069H186.08V8.12256Z" fill="#47E6B1"/>
<path opacity="0.5" d="M187.805 10.5839V9.84546H183.612V10.5839H187.805Z" fill="#47E6B1"/>
</g>
<path opacity="0.5" d="M16.8814 62.3858C16.6795 62.2953 16.5179 62.1341 16.427 61.9328C16.3361 61.7314 16.3223 61.5038 16.3882 61.2929C16.3987 61.2602 16.4053 61.2263 16.4079 61.192C16.4142 61.0946 16.3888 60.9978 16.3355 60.9159C16.2822 60.8341 16.2038 60.7717 16.112 60.7379C16.0202 60.7042 15.92 60.7009 15.8262 60.7286C15.7325 60.7563 15.6502 60.8135 15.5916 60.8917C15.5718 60.9192 15.5552 60.949 15.5423 60.9803C15.4516 61.1818 15.2902 61.3431 15.0884 61.4338C14.8867 61.5245 14.6586 61.5383 14.4474 61.4726C14.4146 61.4621 14.3806 61.4555 14.3462 61.4529C14.2487 61.4466 14.1516 61.472 14.0696 61.5252C13.9877 61.5784 13.9251 61.6566 13.8913 61.7482C13.8575 61.8398 13.8542 61.9399 13.882 62.0335C13.9097 62.1271 13.967 62.2092 14.0454 62.2676C14.073 62.2874 14.1028 62.3039 14.1342 62.3168C14.336 62.4073 14.4977 62.5685 14.5885 62.7699C14.6794 62.9712 14.6932 63.1988 14.6274 63.4097C14.6168 63.4424 14.6102 63.4763 14.6077 63.5106C14.5973 63.6098 14.6201 63.7096 14.6724 63.7945C14.7247 63.8795 14.8036 63.9448 14.8969 63.9804C14.9902 64.0161 15.0926 64.0199 15.1884 63.9915C15.2841 63.9631 15.3678 63.9039 15.4264 63.8232C15.4462 63.7957 15.4628 63.7659 15.4757 63.7346C15.5664 63.5331 15.7279 63.3718 15.9296 63.2811C16.1314 63.1904 16.3594 63.1766 16.5707 63.2423C16.6035 63.2528 16.6374 63.2595 16.6718 63.262C16.7694 63.2683 16.8664 63.2429 16.9484 63.1897C17.0304 63.1365 17.0929 63.0583 17.1267 62.9667C17.1606 62.8751 17.1638 62.7751 17.1361 62.6815C17.1083 62.5879 17.051 62.5057 16.9726 62.4473C16.9449 62.423 16.9143 62.4023 16.8814 62.3858Z" fill="#4D8AF0"/>
<path opacity="0.5" d="M59.2974 13.897C59.0955 13.8065 58.9339 13.6453 58.843 13.444C58.7521 13.2426 58.7383 13.015 58.8042 12.8041C58.8147 12.7714 58.8213 12.7375 58.8239 12.7032C58.8302 12.6058 58.8048 12.509 58.7515 12.4272C58.6982 12.3453 58.6198 12.2829 58.528 12.2491C58.4363 12.2154 58.336 12.2121 58.2422 12.2398C58.1485 12.2675 58.0662 12.3248 58.0076 12.4029C57.9878 12.4305 57.9712 12.4602 57.9583 12.4916C57.8676 12.693 57.7062 12.8544 57.5044 12.9451C57.3027 13.0358 57.0746 13.0496 56.8634 12.9838C56.8306 12.9733 56.7966 12.9667 56.7623 12.9641C56.6647 12.9579 56.5677 12.9832 56.4857 13.0364C56.4037 13.0896 56.3411 13.1679 56.3073 13.2595C56.2735 13.3511 56.2702 13.4511 56.298 13.5447C56.3257 13.6383 56.3831 13.7204 56.4614 13.7789C56.489 13.7987 56.5188 13.8152 56.5502 13.8281C56.752 13.9186 56.9137 14.0797 57.0045 14.2811C57.0954 14.4825 57.1092 14.7101 57.0434 14.9209C57.0329 14.9537 57.0262 14.9875 57.0237 15.0218C57.0133 15.121 57.0361 15.2208 57.0884 15.3057C57.1407 15.3907 57.2196 15.456 57.3129 15.4917C57.4062 15.5273 57.5086 15.5312 57.6044 15.5028C57.7001 15.4743 57.7838 15.4152 57.8424 15.3344C57.8622 15.3069 57.8788 15.2772 57.8917 15.2458C57.9824 15.0444 58.1439 14.883 58.3456 14.7923C58.5474 14.7016 58.7754 14.6878 58.9867 14.7536C59.0195 14.7641 59.0534 14.7707 59.0878 14.7732C59.1854 14.7795 59.2824 14.7542 59.3644 14.701C59.4464 14.6477 59.5089 14.5695 59.5427 14.4779C59.5766 14.3863 59.5798 14.2863 59.5521 14.1927C59.5243 14.0991 59.467 14.017 59.3886 13.9585C59.3609 13.9343 59.3303 13.9136 59.2974 13.897Z" fill="#4D8AF0"/>
<path opacity="0.5" d="M70.3951 142.38C70.1932 142.29 70.0316 142.129 69.9407 141.927C69.8498 141.726 69.836 141.498 69.9018 141.288C69.9124 141.255 69.919 141.221 69.9216 141.187C69.9279 141.089 69.9025 140.992 69.8492 140.911C69.7958 140.829 69.7174 140.766 69.6257 140.733C69.5339 140.699 69.4337 140.696 69.3399 140.723C69.2461 140.751 69.1639 140.808 69.1053 140.886C69.0855 140.914 69.0689 140.944 69.056 140.975C68.9653 141.176 68.8038 141.338 68.6021 141.428C68.4003 141.519 68.1723 141.533 67.961 141.467C67.9282 141.457 67.8943 141.45 67.8599 141.448C67.7623 141.441 67.6653 141.467 67.5833 141.52C67.5013 141.573 67.4388 141.651 67.405 141.743C67.3711 141.834 67.3679 141.934 67.3956 142.028C67.4234 142.122 67.4807 142.204 67.5591 142.262C67.5866 142.282 67.6164 142.299 67.6478 142.311C67.8497 142.402 68.0113 142.563 68.1022 142.764C68.1931 142.966 68.2069 143.193 68.1411 143.404C68.1305 143.437 68.1239 143.471 68.1213 143.505C68.111 143.604 68.1337 143.704 68.186 143.789C68.2383 143.874 68.3172 143.939 68.4105 143.975C68.5038 144.011 68.6063 144.015 68.702 143.986C68.7978 143.958 68.8815 143.899 68.9401 143.818C68.9599 143.79 68.9765 143.761 68.9894 143.729C69.0801 143.528 69.2415 143.366 69.4433 143.276C69.645 143.185 69.8731 143.171 70.0843 143.237C70.1172 143.247 70.1511 143.254 70.1854 143.257C70.283 143.263 70.3801 143.238 70.4621 143.184C70.544 143.131 70.6066 143.053 70.6404 142.961C70.6742 142.87 70.6775 142.77 70.6497 142.676C70.622 142.582 70.5646 142.5 70.4863 142.442C70.4586 142.418 70.428 142.397 70.3951 142.38Z" fill="#4D8AF0"/>
<path opacity="0.5" d="M201.122 110.762C201.939 110.762 202.602 110.101 202.602 109.285C202.602 108.469 201.939 107.808 201.122 107.808C200.305 107.808 199.643 108.469 199.643 109.285C199.643 110.101 200.305 110.762 201.122 110.762Z" fill="#F55F44"/>
<path opacity="0.5" d="M136.017 142.76C136.834 142.76 137.496 142.098 137.496 141.283C137.496 140.467 136.834 139.806 136.017 139.806C135.2 139.806 134.537 140.467 134.537 141.283C134.537 142.098 135.2 142.76 136.017 142.76Z" fill="#4D8AF0"/>
<path opacity="0.5" d="M161.171 115.438C161.988 115.438 162.651 114.777 162.651 113.961C162.651 113.146 161.988 112.485 161.171 112.485C160.354 112.485 159.691 113.146 159.691 113.961C159.691 114.777 160.354 115.438 161.171 115.438Z" fill="#47E6B1"/>
<path opacity="0.5" d="M115.302 2.95364C116.119 2.95364 116.782 2.29245 116.782 1.47682C116.782 0.661196 116.119 0 115.302 0C114.485 0 113.822 0.661196 113.822 1.47682C113.822 2.29245 114.485 2.95364 115.302 2.95364Z" fill="#F55F44"/>
</g>
<defs>
<linearGradient id="paint0_linear" x1="102.727" y1="119.071" x2="102.727" y2="11.0786" gradientUnits="userSpaceOnUse">
<stop stop-color="#808080" stop-opacity="0.25"/>
<stop offset="0.54" stop-color="#808080" stop-opacity="0.12"/>
<stop offset="1" stop-color="#808080" stop-opacity="0.1"/>
</linearGradient>
<linearGradient id="paint1_linear" x1="-133171" y1="310931" x2="-129947" y2="302653" gradientUnits="userSpaceOnUse">
<stop stop-color="#808080" stop-opacity="0.25"/>
<stop offset="0.54" stop-color="#808080" stop-opacity="0.12"/>
<stop offset="1" stop-color="#808080" stop-opacity="0.1"/>
</linearGradient>
<clipPath id="clip0">
<rect width="210" height="144" fill="white"/>
</clipPath>
</defs>
</svg>
