<svg width="18" height="18" viewBox="0 0 18 18" fill="none" xmlns="http://www.w3.org/2000/svg">
<path d="M15.6445 10.4805L17.1211 11.3594C17.2148 11.4062 17.2734 11.4766 17.2969 11.5703C17.3438 11.6641 17.3555 11.7578 17.332 11.8516C16.9336 13.0938 16.2891 14.1953 15.3984 15.1562C15.3281 15.2266 15.2461 15.2734 15.1523 15.2969C15.0586 15.3203 14.9648 15.3086 14.8711 15.2617L13.3945 14.3828C12.7617 14.9219 12.0469 15.332 11.25 15.6133V17.3359C11.25 17.4297 11.2148 17.5117 11.1445 17.582C11.0977 17.6758 11.0273 17.7344 10.9336 17.7578C9.64453 18.0391 8.35547 18.0391 7.06641 17.7578C6.97266 17.7344 6.89062 17.6758 6.82031 17.582C6.77344 17.5117 6.75 17.4297 6.75 17.3359V15.6133C5.95312 15.332 5.23828 14.9219 4.60547 14.3828L3.12891 15.2617C3.03516 15.3086 2.94141 15.3203 2.84766 15.2969C2.75391 15.2734 2.67188 15.2266 2.60156 15.1562C1.71094 14.1953 1.06641 13.0938 0.667969 11.8516C0.644531 11.7578 0.644531 11.6641 0.667969 11.5703C0.714844 11.4766 0.785156 11.4062 0.878906 11.3594L2.35547 10.4805C2.21484 9.66016 2.21484 8.83984 2.35547 8.01953L0.878906 7.14062C0.785156 7.09375 0.714844 7.02344 0.667969 6.92969C0.644531 6.83594 0.644531 6.74219 0.667969 6.64844C1.06641 5.40625 1.71094 4.30469 2.60156 3.34375C2.67188 3.27344 2.75391 3.22656 2.84766 3.20312C2.94141 3.17969 3.03516 3.19141 3.12891 3.23828L4.60547 4.11719C5.23828 3.57813 5.95312 3.16797 6.75 2.88672V1.16406C6.75 1.07031 6.77344 0.988281 6.82031 0.917969C6.89062 0.824219 6.97266 0.765625 7.06641 0.742188C8.35547 0.460938 9.64453 0.460938 10.9336 0.742188C11.0273 0.765625 11.0977 0.824219 11.1445 0.917969C11.2148 0.988281 11.25 1.07031 11.25 1.16406V2.88672C12.0469 3.16797 12.7617 3.57813 13.3945 4.11719L14.8711 3.23828C14.9648 3.19141 15.0586 3.17969 15.1523 3.20312C15.2461 3.22656 15.3281 3.27344 15.3984 3.34375C16.2891 4.30469 16.9336 5.40625 17.332 6.64844C17.3555 6.74219 17.3438 6.83594 17.2969 6.92969C17.2734 7.02344 17.2148 7.09375 17.1211 7.14062L15.6445 8.01953C15.7852 8.83984 15.7852 9.66016 15.6445 10.4805ZM11.8125 9.25C11.8125 8.47656 11.5312 7.82031 10.9688 7.28125C10.4297 6.71875 9.77344 6.4375 9 6.4375C8.22656 6.4375 7.55859 6.71875 6.99609 7.28125C6.45703 7.82031 6.1875 8.47656 6.1875 9.25C6.1875 10.0234 6.45703 10.6914 6.99609 11.2539C7.55859 11.793 8.22656 12.0625 9 12.0625C9.77344 12.0625 10.4297 11.793 10.9688 11.2539C11.5312 10.6914 11.8125 10.0234 11.8125 9.25Z" fill="#BDBDBD"/>
</svg>
