<svg width="18" height="19" viewBox="0 0 18 19" fill="none" xmlns="http://www.w3.org/2000/svg">
<path d="M0.667969 1.12891L4.32422 0.285156C4.51172 0.238281 4.69922 0.261719 4.88672 0.355469C5.07422 0.449219 5.20312 0.578125 5.27344 0.742188L6.96094 4.67969C7.03125 4.86719 7.04297 5.05469 6.99609 5.24219C6.94922 5.40625 6.85547 5.54688 6.71484 5.66406L4.60547 7.42188C5.23828 8.78125 6.09375 10 7.17188 11.0781C8.22656 12.1562 9.44531 13.0117 10.8281 13.6445L12.5508 11.5352C12.668 11.3711 12.8203 11.2773 13.0078 11.2539C13.1953 11.207 13.3711 11.2188 13.5352 11.2891L17.4727 12.9766C17.6602 13.0469 17.8008 13.1758 17.8945 13.3633C17.9883 13.5508 18.0117 13.7383 17.9648 13.9258L17.1211 17.582C17.0977 17.793 17.0039 17.957 16.8398 18.0742C16.6758 18.1914 16.5 18.25 16.3125 18.25C13.3594 18.25 10.6172 17.5117 8.08594 16.0352C5.625 14.582 3.66797 12.625 2.21484 10.1641C0.738281 7.63281 0 4.89062 0 1.9375C0 1.75 0.0585938 1.57422 0.175781 1.41016C0.292969 1.24609 0.457031 1.15234 0.667969 1.12891Z" fill="#A9ACB8"/>
</svg>
