<svg width="80" height="80" viewBox="0 0 80 80" fill="none" xmlns="http://www.w3.org/2000/svg">
<circle opacity="0.2" cx="40" cy="40" r="40" fill="white"/>
<path d="M53.8867 28.0312C54.5898 28.793 55 29.6719 55 30.7266C55 31.7812 54.5898 32.6602 53.8867 33.3633L33.2617 53.9883L26.4062 54.75C25.9375 54.75 25.5859 54.6328 25.3516 54.2812C25.0586 53.9883 24.9414 53.6367 25 53.168L25.7617 46.4883L46.3867 25.8633C47.0898 25.1602 47.9688 24.75 49.0234 24.75C50.0781 24.75 50.957 25.1602 51.7188 25.8633L53.8867 28.0312ZM32.3828 52.2305L47.8516 36.7617L42.9883 31.8984L27.5195 47.3672L26.9336 52.8164L32.3828 52.2305ZM52.5977 32.0156C52.9492 31.6641 53.125 31.2539 53.125 30.7266C53.125 30.1992 52.9492 29.7305 52.5977 29.3789L50.3711 27.1523C50.0195 26.8008 49.5508 26.625 49.0234 26.625C48.4961 26.625 48.0859 26.8008 47.7344 27.1523L44.3359 30.5508L49.1992 35.4141L52.5977 32.0156Z" fill="white"/>
</svg>
