<svg width="21" height="17" viewBox="0 0 21 17" fill="none" xmlns="http://www.w3.org/2000/svg">
<path d="M0.375 14.4375C0.375 14.9062 0.539062 15.3047 0.867188 15.6328C1.19531 15.9609 1.59375 16.125 2.0625 16.125H18.9375C19.4062 16.125 19.8047 15.9609 20.1328 15.6328C20.4609 15.3047 20.625 14.9062 20.625 14.4375V8.25H0.375V14.4375ZM7.125 12.0469C7.125 11.9297 7.16016 11.8359 7.23047 11.7656C7.32422 11.6719 7.42969 11.625 7.54688 11.625H12.3281C12.4453 11.625 12.5391 11.6719 12.6094 11.7656C12.7031 11.8359 12.75 11.9297 12.75 12.0469V13.4531C12.75 13.5703 12.7031 13.6758 12.6094 13.7695C12.5391 13.8398 12.4453 13.875 12.3281 13.875H7.54688C7.42969 13.875 7.32422 13.8398 7.23047 13.7695C7.16016 13.6758 7.125 13.5703 7.125 13.4531V12.0469ZM2.625 12.0469C2.625 11.9297 2.66016 11.8359 2.73047 11.7656C2.82422 11.6719 2.92969 11.625 3.04688 11.625H5.57812C5.69531 11.625 5.78906 11.6719 5.85938 11.7656C5.95312 11.8359 6 11.9297 6 12.0469V13.4531C6 13.5703 5.95312 13.6758 5.85938 13.7695C5.78906 13.8398 5.69531 13.875 5.57812 13.875H3.04688C2.92969 13.875 2.82422 13.8398 2.73047 13.7695C2.66016 13.6758 2.625 13.5703 2.625 13.4531V12.0469ZM20.625 2.0625V3.75H0.375V2.0625C0.375 1.59375 0.539062 1.19531 0.867188 0.867188C1.19531 0.539063 1.59375 0.375 2.0625 0.375H18.9375C19.4062 0.375 19.8047 0.539063 20.1328 0.867188C20.4609 1.19531 20.625 1.59375 20.625 2.0625Z" fill="white"/>
</svg>
