<svg width="18" height="19" viewBox="0 0 18 19" fill="none" xmlns="http://www.w3.org/2000/svg">
<path d="M6.75 7.5625C6.75 7.25781 6.63281 7 6.39844 6.78906C6.1875 6.55469 5.92969 6.4375 5.625 6.4375H5.0625C4.42969 6.4375 3.89062 6.66016 3.44531 7.10547C3.02344 7.52734 2.8125 8.05469 2.8125 8.6875V10.375C2.8125 11.0078 3.02344 11.5469 3.44531 11.9922C3.89062 12.4141 4.42969 12.625 5.0625 12.625H5.625C5.92969 12.625 6.1875 12.5195 6.39844 12.3086C6.63281 12.0742 6.75 11.8047 6.75 11.5V7.5625ZM12.9375 12.625C13.5703 12.625 14.0977 12.4141 14.5195 11.9922C14.9648 11.5469 15.1875 11.0078 15.1875 10.375V8.6875C15.1875 8.05469 14.9648 7.52734 14.5195 7.10547C14.0977 6.66016 13.5703 6.4375 12.9375 6.4375H12.375C12.0703 6.4375 11.8008 6.55469 11.5664 6.78906C11.3555 7 11.25 7.25781 11.25 7.5625V11.5C11.25 11.8047 11.3555 12.0742 11.5664 12.3086C11.8008 12.5195 12.0703 12.625 12.375 12.625H12.9375ZM9 0.25C7.35938 0.25 5.84766 0.671875 4.46484 1.51562C3.15234 2.3125 2.08594 3.40234 1.26562 4.78516C0.46875 6.16797 0.046875 7.65625 0 9.25V9.8125C0 9.97656 0.046875 10.1172 0.140625 10.2344C0.257812 10.3281 0.398438 10.375 0.5625 10.375H1.125C1.28906 10.375 1.41797 10.3281 1.51172 10.2344C1.62891 10.1172 1.6875 9.97656 1.6875 9.8125V9.25C1.6875 7.9375 2.01562 6.71875 2.67188 5.59375C3.32812 4.46875 4.21875 3.57813 5.34375 2.92188C6.46875 2.26562 7.6875 1.9375 9 1.9375C10.3125 1.9375 11.5312 2.26562 12.6562 2.92188C13.7812 3.57813 14.6719 4.46875 15.3281 5.59375C15.9844 6.71875 16.3125 7.9375 16.3125 9.25V15.0859C16.3125 15.4844 16.1602 15.8242 15.8555 16.1055C15.5742 16.4102 15.2344 16.5625 14.8359 16.5625H11.25C11.25 16.0938 11.0859 15.6953 10.7578 15.3672C10.4297 15.0391 10.0312 14.875 9.5625 14.875H8.4375C7.96875 14.875 7.57031 15.0391 7.24219 15.3672C6.91406 15.6953 6.75 16.0938 6.75 16.5625C6.75 17.0312 6.91406 17.4297 7.24219 17.7578C7.57031 18.0859 7.96875 18.25 8.4375 18.25H14.8359C15.7031 18.25 16.4414 17.9336 17.0508 17.3008C17.6836 16.6914 18 15.9531 18 15.0859V9.25C17.9531 7.65625 17.5195 6.16797 16.6992 4.78516C15.9023 3.40234 14.8477 2.3125 13.5352 1.51562C12.1523 0.671875 10.6406 0.25 9 0.25Z" fill="#BDBDBD"/>
</svg>
