<svg width="13" height="9" viewBox="0 0 13 9" fill="none" xmlns="http://www.w3.org/2000/svg">
<path d="M6.97266 1.83594C6.83594 1.72656 6.78125 1.5625 6.78125 1.39844C6.78125 1.23438 6.83594 1.07031 6.97266 0.90625L7.4375 0.46875C7.54688 0.332031 7.71094 0.25 7.875 0.25C8.03906 0.25 8.20312 0.332031 8.33984 0.46875L12.0586 4.16016C12.168 4.29688 12.25 4.46094 12.25 4.625C12.25 4.81641 12.168 4.98047 12.0586 5.08984L8.33984 8.78125C8.20312 8.94531 8.03906 9 7.875 9C7.71094 9 7.54688 8.94531 7.4375 8.78125L6.97266 8.34375C6.83594 8.20703 6.78125 8.04297 6.78125 7.87891C6.78125 7.71484 6.83594 7.55078 6.97266 7.41406L8.75 5.60938H0.65625C0.464844 5.60938 0.300781 5.55469 0.191406 5.41797C0.0546875 5.30859 0 5.14453 0 4.95312V4.29688C0 4.13281 0.0546875 3.96875 0.191406 3.83203C0.300781 3.72266 0.464844 3.64062 0.65625 3.64062H8.75L6.97266 1.83594Z" fill="#219653"/>
</svg>
