<svg width="16" height="13" viewBox="0 0 16 13" fill="none" xmlns="http://www.w3.org/2000/svg">
<path d="M7.50195 5.25C6.25977 5.25 5.25195 6.25781 5.25195 7.5C5.25195 8.74219 6.25977 9.75 7.50195 9.75C8.74414 9.75 9.75195 8.74219 9.75195 7.5C9.75195 6.25781 8.74414 5.25 7.50195 5.25ZM13.002 2H11.252L10.8535 0.9375C10.6582 0.421875 10.0488 -9.53674e-07 9.50195 -9.53674e-07H5.50195C4.95508 -9.53674e-07 4.3457 0.421875 4.15039 0.9375L3.75195 2H2.00195C0.900391 2 0.00195312 2.89844 0.00195312 4V11C0.00195312 12.1016 0.900391 13 2.00195 13H13.002C14.1035 13 15.002 12.1016 15.002 11V4C15.002 2.89844 14.1035 2 13.002 2ZM7.50195 11C5.57227 11 4.00195 9.42969 4.00195 7.5C4.00195 5.57031 5.57227 4 7.50195 4C9.43164 4 11.002 5.57031 11.002 7.5C11.002 9.42969 9.43164 11 7.50195 11Z" fill="#56CCF2"/>
</svg>
