<svg width="80" height="80" viewBox="0 0 80 80" fill="none" xmlns="http://www.w3.org/2000/svg">
<circle opacity="0.2" cx="40" cy="40" r="40" fill="white"/>
<circle opacity="0.2" cx="40" cy="40" r="40" fill="white"/>
<path d="M44.6875 26.625C43.1641 26.625 41.7578 27.0352 40.4688 27.7969C39.1797 28.5586 38.125 29.5547 37.3633 30.8438C36.6016 32.1328 36.25 33.5391 36.25 35.0625C36.25 36.1758 36.4258 37.2305 36.8359 38.2266L26.875 48.1875V52.875H32.5V49.125H36.25V45.375H39.0625L41.5234 42.9141C42.5195 43.3242 43.5742 43.5 44.6875 43.5C46.2109 43.5 47.6172 43.1484 48.9062 42.3867C50.1953 41.625 51.1914 40.5703 51.9531 39.2812C52.7148 37.9922 53.125 36.5859 53.125 35.0625C53.125 33.5391 52.7148 32.1328 51.9531 30.8438C51.1914 29.5547 50.1953 28.5586 48.9062 27.7969C47.6172 27.0352 46.2109 26.625 44.6875 26.625ZM44.6875 24.75C46.5625 24.75 48.2617 25.2188 49.8438 26.1562C51.4258 27.0938 52.6562 28.3242 53.5938 29.9062C54.5312 31.4883 55 33.1875 55 35.0625C55 36.9375 54.5312 38.6953 53.5938 40.2773C52.6562 41.8594 51.4258 43.0898 49.8438 44.0273C48.2617 44.9648 46.5625 45.375 44.6875 45.375C43.75 45.375 42.8711 45.2578 42.0508 45.0234L40.2344 46.8398C39.9414 47.1328 39.5898 47.25 39.2383 47.25H38.125V49.5938C38.125 50.0039 37.9492 50.3555 37.7148 50.5898C37.4219 50.8828 37.0703 51 36.7188 51H34.375V53.3438C34.375 53.7539 34.1992 54.1055 33.9648 54.3398C33.6719 54.6328 33.3203 54.75 32.9688 54.75H26.4062C25.9961 54.75 25.6445 54.6328 25.4102 54.3398C25.1172 54.1055 25 53.7539 25 53.3438V48.0117C25 47.6602 25.1172 47.3086 25.4102 47.0156L34.7266 37.6992C34.4922 36.8789 34.375 36 34.375 35.0625C34.375 33.1875 34.7852 31.4883 35.7227 29.9062C36.6602 28.3242 37.8906 27.0938 39.4727 26.1562C41.0547 25.2188 42.8125 24.75 44.6875 24.75ZM47.5 31.0781C47.1484 31.0781 46.9141 31.1953 46.6797 31.4297C46.4453 31.6641 46.3281 31.957 46.3281 32.25C46.3281 32.6016 46.4453 32.8359 46.6797 33.0703C46.9141 33.3047 47.1484 33.4219 47.5 33.4219C47.793 33.4219 48.0859 33.3047 48.3203 33.0703C48.5547 32.8359 48.6719 32.6016 48.6719 32.25C48.6719 31.957 48.5547 31.6641 48.3203 31.4297C48.0859 31.1953 47.793 31.0781 47.5 31.0781ZM47.5 29.4375C48.2617 29.4375 48.9062 29.7305 49.4922 30.2578C50.0195 30.8438 50.3125 31.4883 50.3125 32.25C50.3125 33.0703 50.0195 33.7148 49.4922 34.2422C48.9062 34.8281 48.2617 35.0625 47.5 35.0625C46.6797 35.0625 46.0352 34.8281 45.5078 34.2422C44.9219 33.7148 44.6875 33.0703 44.6875 32.25C44.6875 31.4883 44.9219 30.8438 45.5078 30.2578C46.0352 29.7305 46.6797 29.4375 47.5 29.4375Z" fill="white"/>
</svg>
