<svg width="80" height="80" viewBox="0 0 80 80" fill="none" xmlns="http://www.w3.org/2000/svg">
<circle opacity="0.2" cx="40" cy="40" r="40" fill="white"/>
<circle opacity="0.2" cx="40" cy="40" r="40" fill="white"/>
<path d="M45.7734 41.625C47.1797 41.625 48.4688 41.9766 49.6992 42.6797C50.8711 43.3828 51.8672 44.3789 52.5703 45.5508C53.2734 46.7812 53.625 48.0703 53.625 49.4766V51.9375C53.625 52.7578 53.332 53.4023 52.8047 53.9297C52.2188 54.5156 51.5742 54.75 50.8125 54.75H30.1875C29.3672 54.75 28.7227 54.5156 28.1953 53.9297C27.6094 53.4023 27.375 52.7578 27.375 51.9375V49.4766C27.375 48.0703 27.7266 46.7812 28.4297 45.5508C29.1328 44.3789 30.0703 43.3828 31.3008 42.6797C32.4727 41.9766 33.8203 41.625 35.2266 41.625C35.6953 41.625 36.3984 41.8008 37.2188 42.0352C37.7461 42.2109 38.2148 42.3281 38.5664 42.3867C39.1523 42.5039 39.7969 42.5625 40.5 42.5625C41.2031 42.5625 41.8477 42.5039 42.4336 42.3867C42.7852 42.3281 43.1953 42.2109 43.7812 42.0352C44.6016 41.8008 45.2461 41.625 45.7734 41.625ZM51.75 51.9375V49.4766C51.75 47.8359 51.1641 46.4297 49.9922 45.2578C48.8203 44.0859 47.4141 43.5 45.7734 43.5C45.4219 43.5 44.9531 43.6172 44.3086 43.793C42.9609 44.2617 41.6719 44.4375 40.5 44.4375C39.2695 44.4375 37.9805 44.2617 36.6914 43.793C35.9883 43.6172 35.5195 43.5 35.2266 43.5C33.5859 43.5 32.1797 44.0859 31.0078 45.2578C29.8359 46.4297 29.25 47.8359 29.25 49.4766V51.9375C29.25 52.2305 29.3086 52.4648 29.4844 52.6406C29.6602 52.8164 29.8945 52.875 30.1875 52.875H50.8125C51.0469 52.875 51.2812 52.8164 51.457 52.6406C51.6328 52.4648 51.75 52.2305 51.75 51.9375ZM40.5 39.75C39.0938 39.75 37.8633 39.457 36.6914 38.7539C35.5195 38.1094 34.6406 37.2305 33.9961 36.0586C33.293 34.8867 33 33.6562 33 32.25C33 30.9023 33.293 29.6719 33.9961 28.5C34.6406 27.3281 35.5195 26.4492 36.6914 25.7461C37.8633 25.1016 39.0938 24.75 40.5 24.75C41.8477 24.75 43.0781 25.1016 44.25 25.7461C45.4219 26.4492 46.3008 27.3281 47.0039 28.5C47.6484 29.6719 48 30.9023 48 32.25C48 33.6562 47.6484 34.8867 47.0039 36.0586C46.3008 37.2305 45.4219 38.1094 44.25 38.7539C43.0781 39.457 41.8477 39.75 40.5 39.75ZM40.5 26.625C38.918 26.625 37.5703 27.2109 36.5156 28.2656C35.4023 29.3789 34.875 30.7266 34.875 32.25C34.875 33.832 35.4023 35.1797 36.5156 36.2344C37.5703 37.3477 38.918 37.875 40.5 37.875C42.0234 37.875 43.3711 37.3477 44.4844 36.2344C45.5391 35.1797 46.125 33.832 46.125 32.25C46.125 30.7266 45.5391 29.3789 44.4844 28.2656C43.3711 27.2109 42.0234 26.625 40.5 26.625Z" fill="white"/>
</svg>
