<svg width="13" height="9" viewBox="0 0 13 9" fill="none" xmlns="http://www.w3.org/2000/svg">
<path d="M5.27734 7.41406C5.38672 7.55078 5.46875 7.71484 5.46875 7.87891C5.46875 8.04297 5.38672 8.20703 5.27734 8.34375L4.8125 8.78125C4.67578 8.94531 4.51172 9 4.34766 9C4.18359 9 4.01953 8.94531 3.91016 8.78125L0.191406 5.08984C0.0546875 4.98047 0 4.81641 0 4.625C0 4.46094 0.0546875 4.29688 0.191406 4.16016L3.91016 0.46875C4.01953 0.332031 4.18359 0.25 4.34766 0.25C4.51172 0.25 4.67578 0.332031 4.8125 0.46875L5.27734 0.90625C5.38672 1.07031 5.46875 1.23438 5.46875 1.39844C5.46875 1.5625 5.38672 1.72656 5.27734 1.83594L3.5 3.64062H11.5938C11.7578 3.64062 11.9219 3.72266 12.0586 3.83203C12.168 3.96875 12.25 4.13281 12.25 4.29688V4.95312C12.25 5.14453 12.168 5.30859 12.0586 5.41797C11.9219 5.55469 11.7578 5.60938 11.5938 5.60938H3.5L5.27734 7.41406Z" fill="#EB5757"/>
</svg>
