<svg width="80" height="80" viewBox="0 0 80 80" fill="none" xmlns="http://www.w3.org/2000/svg">
<circle opacity="0.2" cx="40" cy="40" r="40" fill="white"/>
<path d="M52.1875 32.25C52.9492 32.25 53.5938 32.543 54.1797 33.0703C54.707 33.6562 55 34.3008 55 35.0625V50.0625C55 50.8828 54.707 51.5273 54.1797 52.0547C53.5938 52.6406 52.9492 52.875 52.1875 52.875H27.8125C26.9922 52.875 26.3477 52.6406 25.8203 52.0547C25.2344 51.5273 25 50.8828 25 50.0625V35.0625C25 34.3008 25.2344 33.6562 25.8203 33.0703C26.3477 32.543 26.9922 32.25 27.8125 32.25H34.375V29.4375C34.375 28.6758 34.6094 28.0312 35.1953 27.4453C35.7227 26.918 36.3672 26.625 37.1875 26.625H42.8125C43.5742 26.625 44.2188 26.918 44.8047 27.4453C45.332 28.0312 45.625 28.6758 45.625 29.4375V32.25H52.1875ZM36.25 29.4375V32.25H43.75V29.4375C43.75 29.2031 43.6328 28.9688 43.457 28.793C43.2812 28.6172 43.0469 28.5 42.8125 28.5H37.1875C36.8945 28.5 36.6602 28.6172 36.4844 28.793C36.3086 28.9688 36.25 29.2031 36.25 29.4375ZM30.625 51V34.125H27.8125C27.5195 34.125 27.2852 34.2422 27.1094 34.418C26.9336 34.5938 26.875 34.8281 26.875 35.0625V50.0625C26.875 50.3555 26.9336 50.5898 27.1094 50.7656C27.2852 50.9414 27.5195 51 27.8125 51H30.625ZM47.5 51V34.125H32.5V51H47.5ZM53.125 50.0625V35.0625C53.125 34.8281 53.0078 34.5938 52.832 34.418C52.6562 34.2422 52.4219 34.125 52.1875 34.125H49.375V51H52.1875C52.4219 51 52.6562 50.9414 52.832 50.7656C53.0078 50.5898 53.125 50.3555 53.125 50.0625Z" fill="white"/>
</svg>
