<svg width="40" height="80" viewBox="0 0 40 80" fill="none" xmlns="http://www.w3.org/2000/svg">
<path d="M39.0432 32.5184C39.0432 21.9061 30.3632 13.322 19.7153 13.4769C9.43573 13.627 1.06698 22.0314 0.95714 32.3109C0.910734 36.7113 2.35526 40.7711 4.8187 44.0164C8.29323 48.598 10.4331 54.0311 10.8743 59.7259C10.9317 60.4536 10.9595 61.1859 10.9595 61.9214V66.4256H29.041V62.1863C29.041 61.3641 29.0735 60.5434 29.1401 59.7259C29.5937 54.0838 31.6082 48.6459 35.0826 44.1448C37.566 40.9291 39.0432 36.8956 39.0432 32.5184Z" fill="#F2C94C"/>
<path d="M29.1408 59.7259H10.875C10.9323 60.4536 10.9602 61.1859 10.9602 61.9214V66.4256H29.0417V62.1863C29.0417 61.3641 29.0742 60.5434 29.1408 59.7259Z" fill="#E4B00F"/>
<path d="M39.0426 32.5185C39.0426 24.4206 33.9889 17.5041 26.8618 14.7497C32.7393 17.9903 36.7201 24.2472 36.7201 31.4347C36.7201 35.8119 35.2429 39.8453 32.7595 43.0613C28.7817 48.2141 26.7178 54.5917 26.7178 61.1025V66.4256H29.0403V62.1863C29.0403 55.6755 31.1042 49.2978 35.082 44.145C37.5654 40.9291 39.0426 36.8956 39.0426 32.5185Z" fill="#E4B00F"/>
<path d="M15.5584 42.7431C14.9015 42.7431 14.3691 43.2755 14.3691 43.9323V66.4256C14.3691 67.0825 14.9015 67.615 15.5584 67.615C16.2152 67.615 16.7477 67.0826 16.7477 66.4256V43.9323C16.7476 43.2756 16.2152 42.7431 15.5584 42.7431Z" fill="#E4B00F"/>
<path d="M24.3816 42.7431C23.7247 42.7431 23.1924 43.2755 23.1924 43.9323V66.4256C23.1924 67.0825 23.7247 67.615 24.3816 67.615C25.0385 67.615 25.571 67.0826 25.571 66.4256V43.9323C25.5708 43.2756 25.0385 42.7431 24.3816 42.7431Z" fill="#E4B00F"/>
<path d="M24.3821 47.1728C24.0779 47.1728 23.7733 47.2889 23.541 47.5211C22.4193 48.6433 20.8929 47.547 20.7224 47.4183C20.2491 47.0602 19.5779 47.1012 19.1579 47.5212C18.0938 48.5855 16.2914 47.4216 16.215 47.3717C15.6683 47.0125 14.9308 47.1606 14.5688 47.7058C14.2066 48.2509 14.3503 48.9844 14.8935 49.3494C15.9435 50.0547 18.208 50.9136 20.0702 49.8055C21.4133 50.4947 23.518 50.908 25.2229 49.2033C25.6872 48.7387 25.6872 47.9858 25.2229 47.5212C24.9908 47.2889 24.6863 47.1728 24.3821 47.1728Z" fill="#E4B00F"/>
<path d="M29.4795 62.0484H10.4628C9.55386 62.0484 8.88964 62.9063 9.1173 63.7856L9.58948 65.6095L12.392 76.4386L13.0439 78.9578C13.2018 79.5711 13.7546 80 14.3879 80H25.5531C26.1864 80 26.7392 79.5711 26.8985 78.958L27.5504 76.4388L30.3514 65.6097L30.8235 63.7858C31.0512 62.9063 30.3868 62.0484 29.4795 62.0484Z" fill="#2EB1DB"/>
<path d="M30.3506 65.6097H9.58887L12.3914 76.4388H27.5497L30.3506 65.6097Z" fill="#56CCF2"/>
<path d="M30.5202 67.9322H9.41969C8.5839 67.9322 7.90625 68.6097 7.90625 69.4456V72.603C7.90625 73.4387 8.58375 74.1164 9.41969 74.1164H30.5203C31.3561 74.1164 32.0337 73.4389 32.0337 72.603V69.4456C32.0336 68.6098 31.3561 67.9322 30.5202 67.9322Z" fill="#AEE5F7"/>
<path opacity="0.2" d="M15.5575 19.3539C15.4491 19.3539 15.3391 19.3688 15.2295 19.4002C7.56969 21.593 6.14484 29.3025 6.08813 29.6297C5.97547 30.2769 6.40891 30.8925 7.05594 31.0052C7.70187 31.1188 8.31703 30.6856 8.43094 30.04C8.48062 29.7644 9.68453 23.4617 15.8844 21.6869C16.5158 21.5061 16.8812 20.8477 16.7003 20.2163C16.5508 19.6942 16.0747 19.3539 15.5575 19.3539Z" fill="white"/>
<path d="M20.0007 -7.62939e-06C19.3439 -7.62939e-06 18.8115 0.532336 18.8115 1.18937V8.00203C18.8115 8.65891 19.3439 9.19141 20.0007 9.19141C20.6576 9.19141 21.1901 8.65906 21.1901 8.00203V1.18937C21.1901 0.532336 20.6576 -7.62939e-06 20.0007 -7.62939e-06Z" fill="#F2C94C"/>
<path d="M1.33389 5.17812C1.02967 5.17812 0.725138 5.29421 0.49295 5.52639C0.0284184 5.99093 0.0284173 6.7439 0.492793 7.20843L5.31014 12.0258C5.77467 12.4903 6.5278 12.4902 6.99202 12.0259C7.45655 11.5614 7.45655 10.8084 6.99217 10.3439L2.17483 5.52655C1.94264 5.29421 1.63826 5.17812 1.33389 5.17812Z" fill="#F2C94C"/>
<path d="M38.6667 5.17813C38.3623 5.17813 38.0579 5.29422 37.8256 5.52657L33.0084 10.3438C32.544 10.8083 32.544 11.5613 33.0086 12.0258C33.4728 12.4902 34.2259 12.49 34.6904 12.0256L39.5078 7.20829C39.9722 6.74375 39.9722 5.99079 39.5076 5.52626C39.2754 5.29422 38.9709 5.17813 38.6667 5.17813Z" fill="#F2C94C"/>
</svg>
