<svg width="60" height="60" viewBox="0 0 60 60" fill="none" xmlns="http://www.w3.org/2000/svg">
<path d="M55.4999 38.7L46.2999 17C46.2999 17 46.2999 17 46.1999 17L34.7999 13.8V13.7C34.7999 11.8 33.3999 10.2 31.5999 10V5.4C31.5999 4.8 31.0999 4.3 30.4999 4.3C29.8999 4.3 29.3999 4.8 29.3999 5.4V9.3C27.5999 9.5 26.1999 11.1 26.1999 13V13.1L14.7999 16.3C14.7999 16.3 14.7999 16.3 14.6999 16.3C14.6999 16.3 14.6999 16.3 14.5999 16.3L4.4999 38.7C4.3999 38.9 4.3999 39.1 4.3999 39.3C4.3999 39.4 4.3999 39.4 4.3999 39.5C4.3999 42.8 8.8999 45.4 14.5999 45.4C20.2999 45.4 24.7999 42.8 24.7999 39.5C24.7999 39.4 24.7999 39.4 24.7999 39.3C24.7999 39.1 24.7999 38.9 24.6999 38.7L15.9999 18.1L26.2999 15.2C26.8999 16.1 27.7999 16.7 28.7999 16.8V47.3H22.0999C19.8999 47.3 18.0999 49.2 18.0999 51.5C18.0999 53.8 19.8999 55.7 22.0999 55.7H37.6999C39.8999 55.7 41.6999 53.8 41.6999 51.5C41.6999 49.2 39.8999 47.3 37.6999 47.3H30.9999V16.7C32.0999 16.6 32.9999 16 33.4999 15.1L43.7999 18L35.0999 38.6C34.9999 38.8 34.9999 39 34.9999 39.2C34.9999 39.3 34.9999 39.3 34.9999 39.4C34.9999 42.7 39.4999 45.3 45.1999 45.3C50.8999 45.3 55.3999 42.7 55.3999 39.4C55.3999 39.3 55.3999 39.3 55.3999 39.2C55.5999 39.1 55.5999 38.9 55.4999 38.7ZM14.6999 20.1L22.3999 38.4H6.9999L14.6999 20.1ZM14.6999 43.3C10.8999 43.3 7.9999 42 6.9999 40.6H22.3999C21.3999 42 18.4999 43.3 14.6999 43.3ZM37.7999 49.4C38.7999 49.4 39.6999 50.3 39.6999 51.5C39.6999 52.6 38.8999 53.6 37.7999 53.6H22.1999C21.1999 53.6 20.2999 52.7 20.2999 51.5C20.2999 50.4 21.0999 49.4 22.1999 49.4H28.8999V51.5C28.8999 52.1 29.3999 52.6 29.9999 52.6C30.5999 52.6 31.0999 52.1 31.0999 51.5V49.4H37.7999ZM30.6999 14.6H29.2999C28.4999 14.6 27.8999 13.9 27.8999 13C27.8999 12.1 28.4999 11.4 29.2999 11.4H30.6999C31.4999 11.4 32.0999 12.1 32.0999 13C32.0999 13.1 32.0999 13.2 32.0999 13.3C31.9999 13.4 31.9999 13.5 31.9999 13.6C31.9999 13.7 31.9999 13.8 31.9999 13.8C31.6999 14.3 31.1999 14.6 30.6999 14.6ZM52.9999 38.4H37.6999L45.3999 20.1L52.9999 38.4ZM45.2999 43.3C41.4999 43.3 38.5999 42 37.5999 40.6H52.9999C52.0999 42 49.1999 43.3 45.2999 43.3Z" fill="#56CCF2"/>
</svg>
