<svg width="206" height="60" viewBox="0 0 206 60" fill="none" xmlns="http://www.w3.org/2000/svg">
<path fill-rule="evenodd" clip-rule="evenodd" d="M11.3371 16.0715C10.8961 16.0715 10.4724 16.1872 10.1049 16.4482C9.74359 16.705 9.4904 17.0641 9.31724 17.4661L2.40284 33.8846H2.16347C1.58044 33.8846 1.05432 34.0896 0.637489 34.4993C0.199465 34.9115 0 35.451 0 36.0369V40.3286C0 40.9144 0.199463 41.454 0.637485 41.8661C1.05432 42.2759 1.58044 42.4809 2.16347 42.4809C2.74785 42.4809 3.2864 42.2855 3.69948 41.8566C4.13052 41.4457 4.32694 40.9099 4.32694 40.3286V37.879H18.2953V40.3286C18.2953 40.9145 18.4948 41.454 18.9328 41.8662C19.3497 42.2759 19.8758 42.4809 20.4588 42.4809C21.0431 42.4809 21.5817 42.2855 21.9948 41.8567C22.4258 41.4457 22.6222 40.9099 22.6222 40.3286V36.0369C22.6222 35.4555 22.4258 34.9198 21.9948 34.5088C21.5817 34.08 21.0432 33.8846 20.4588 33.8846H20.2714L13.3655 17.4862C13.2096 17.0766 12.9631 16.7096 12.5953 16.4482C12.2201 16.1816 11.7843 16.0715 11.3371 16.0715ZM6.90228 33.8846L11.3699 22.8954L15.9196 33.8846H6.90228Z" fill="white"/>
<path d="M114.441 21.992C113.618 21.992 112.838 22.1381 112.111 22.4382C111.77 22.5706 111.449 22.7308 111.15 22.9189C111.097 22.8551 111.039 22.7937 110.977 22.7351C110.566 22.3321 110.043 22.1471 109.478 22.1471C108.907 22.1471 108.384 22.3347 107.962 22.7263L107.952 22.7358L107.942 22.7457C107.522 23.1631 107.34 23.7003 107.34 24.2736V35.7784C107.34 36.346 107.529 36.8666 107.922 37.2862L107.941 37.3066L107.962 37.3256C108.384 37.7172 108.907 37.9048 109.478 37.9048C110.054 37.9048 110.594 37.7236 111.013 37.3062L111.023 37.2964L111.033 37.2862C111.426 36.8666 111.615 36.346 111.615 35.7784V28.4877C111.615 27.6955 111.843 27.1086 112.255 26.6595C112.678 26.2158 113.211 25.9864 113.921 25.9864C114.62 25.9864 115.093 26.1965 115.434 26.5583L115.443 26.5678L115.452 26.577C115.786 26.9086 116.02 27.4618 116.02 28.3843V35.7784C116.02 36.346 116.209 36.8666 116.602 37.2862L116.621 37.3066L116.642 37.3256C117.064 37.7172 117.587 37.9048 118.157 37.9048C118.734 37.9048 119.274 37.7236 119.693 37.3062L119.703 37.2964L119.713 37.2862C120.106 36.8666 120.295 36.346 120.295 35.7784V28.4877C120.295 27.6955 120.523 27.1086 120.935 26.6595C121.361 26.2124 121.888 25.9864 122.575 25.9864C123.274 25.9864 123.747 26.1965 124.088 26.5583L124.097 26.5678L124.106 26.577C124.439 26.9086 124.674 27.4618 124.674 28.3843V35.7784C124.674 36.346 124.862 36.8666 125.256 37.2862L125.275 37.3066L125.296 37.3256C125.717 37.7172 126.241 37.9048 126.811 37.9048C127.388 37.9048 127.928 37.7236 128.347 37.3062L128.357 37.2964L128.367 37.2862C128.76 36.8666 128.949 36.346 128.949 35.7784V28.3843C128.949 26.4851 128.441 24.8939 127.326 23.721C126.235 22.5555 124.797 21.992 123.095 21.992C122.036 21.992 121.051 22.1937 120.153 22.6107C119.572 22.8804 119.05 23.22 118.59 23.6295C118.18 23.2194 117.707 22.8826 117.173 22.6219C116.352 22.1955 115.435 21.992 114.441 21.992Z" fill="white"/>
<path d="M48.8383 22.0178C47.3584 22.0178 46.0041 22.3588 44.7964 23.0554C43.5889 23.7346 42.6431 24.6978 41.9667 25.9283L41.9645 25.9323C41.3043 27.1493 40.9835 28.5162 40.9835 30.013C40.9835 31.4832 41.3163 32.8418 41.9926 34.0719L42.0001 34.0851C42.6957 35.2962 43.6577 36.2531 44.8751 36.9452C46.1 37.6415 47.4711 37.9824 48.9682 37.9824C51.0227 37.9824 52.7863 37.3418 54.1992 36.0337L54.2099 36.0238L54.2203 36.0136C54.5587 35.6769 54.77 35.2459 54.77 34.7442C54.77 34.1048 54.4513 33.5843 53.9872 33.1955L53.9697 33.1808L53.9514 33.1672C53.6136 32.9151 53.2196 32.7729 52.7884 32.7729C52.2562 32.7729 51.7706 32.9805 51.3451 33.2923L51.3256 33.3067L51.307 33.3221C50.7581 33.7771 50.0041 34.0397 48.9682 34.0397C48.1992 34.0397 47.5389 33.8651 46.9655 33.5321C46.4044 33.1964 45.9618 32.7382 45.632 32.1427C45.3194 31.5307 45.1545 30.8266 45.1545 30.013C45.1545 28.7073 45.5205 27.7491 46.1812 27.0507L46.1866 27.045C46.85 26.33 47.7086 25.9605 48.8383 25.9605C49.4042 25.9605 49.8677 26.0566 50.2473 26.2259L50.2624 26.2327L50.2779 26.2388C50.6694 26.3946 51.0468 26.6539 51.408 27.0406C51.8303 27.5098 52.3829 27.7702 53.0223 27.7702C53.401 27.7702 53.7636 27.6662 54.0814 27.4462C54.6291 27.0734 55.0039 26.5277 55.0039 25.8248C55.0039 25.3708 54.8457 24.9553 54.5399 24.617C53.0368 22.8949 51.1178 22.0178 48.8383 22.0178Z" fill="white"/>
<path d="M64.4461 22.0178C62.9662 22.0178 61.6119 22.3588 60.4042 23.0554C59.1967 23.7346 58.2509 24.6978 57.5745 25.9283L57.5724 25.9323C56.9121 27.1493 56.5913 28.5162 56.5913 30.013C56.5913 31.4832 56.9241 32.8418 57.6004 34.0719L57.6079 34.0851C58.3036 35.2962 59.2655 36.2531 60.4829 36.9452C61.7078 37.6415 63.0789 37.9824 64.576 37.9824C66.6305 37.9824 68.3941 37.3418 69.8071 36.0337L69.8177 36.0238L69.8281 36.0136C70.1665 35.6769 70.3778 35.2459 70.3778 34.7442C70.3778 34.1048 70.0591 33.5843 69.595 33.1955L69.5775 33.1808L69.5592 33.1672C69.2214 32.9151 68.8274 32.7729 68.3962 32.7729C67.864 32.7729 67.3784 32.9805 66.9529 33.2923L66.9334 33.3067L66.9148 33.3221C66.366 33.7771 65.6119 34.0397 64.576 34.0397C63.807 34.0397 63.1467 33.8651 62.5733 33.5321C62.0122 33.1964 61.5697 32.7382 61.2398 32.1427C60.9272 31.5307 60.7624 30.8266 60.7624 30.013C60.7624 28.7073 61.1283 27.7491 61.7891 27.0507L61.7944 27.045C62.4578 26.33 63.3164 25.9605 64.4461 25.9605C65.012 25.9605 65.4755 26.0566 65.8551 26.2259L65.8702 26.2327L65.8857 26.2388C66.2772 26.3946 66.6546 26.6539 67.0158 27.0406C67.4381 27.5098 67.9907 27.7702 68.6301 27.7702C69.0088 27.7702 69.3714 27.6662 69.6892 27.4462C70.2369 27.0734 70.6117 26.5277 70.6117 25.8248C70.6117 25.3708 70.4536 24.9553 70.1477 24.617C68.6446 22.8949 66.7256 22.0178 64.4461 22.0178Z" fill="white"/>
<path fill-rule="evenodd" clip-rule="evenodd" d="M80.0279 22.0178C78.5471 22.0178 77.192 22.3592 75.9837 23.0568C74.7929 23.7369 73.8574 24.7003 73.1823 25.9283L73.1802 25.9323C72.5199 27.1493 72.1992 28.5162 72.1992 30.013C72.1992 31.5177 72.5409 32.8908 73.2417 34.1109L73.2465 34.1192C73.9625 35.332 74.953 36.287 76.2041 36.9763L76.2125 36.9809C77.4697 37.6543 78.8779 37.9824 80.4177 37.9824C81.315 37.9824 82.2344 37.8174 83.1719 37.5006C84.12 37.1859 84.9421 36.769 85.6186 36.2363C86.0684 35.8968 86.3494 35.4129 86.3494 34.8218C86.3494 34.2052 86.045 33.7044 85.602 33.3325C85.2262 32.9999 84.7573 32.8763 84.2899 32.8763C83.7942 32.8763 83.3306 33.0227 82.9362 33.329C82.6622 33.5357 82.282 33.7311 81.7722 33.9002L81.765 33.9026C81.2848 34.0668 80.837 34.1431 80.4177 34.1431C79.2664 34.1431 78.3364 33.8238 77.5799 33.2143C77.084 32.8056 76.7182 32.314 76.4826 31.7258H85.3034C85.8254 31.7258 86.3168 31.5641 86.7119 31.2013L86.7238 31.1904L86.7353 31.1789C87.1184 30.7978 87.311 30.3141 87.311 29.7804C87.311 28.3151 87.0308 26.9833 86.448 25.8043C85.8626 24.6202 85.0135 23.6832 83.9058 23.0142C82.7877 22.3389 81.4842 22.0178 80.0279 22.0178ZM76.5236 28.0417C76.7454 27.4973 77.0638 27.0516 77.4717 26.69C78.0925 26.1545 78.9205 25.8571 80.0279 25.8571C80.9943 25.8571 81.7061 26.1419 82.2415 26.6616C82.6153 27.0244 82.9035 27.4782 83.094 28.0417H76.5236Z" fill="white"/>
<path fill-rule="evenodd" clip-rule="evenodd" d="M97.0263 22.0178C95.5565 22.0178 94.201 22.3708 92.9785 23.0847C91.7787 23.7781 90.8215 24.7427 90.1122 25.9633L90.1101 25.9668C89.4111 27.1839 89.0676 28.5389 89.0676 30.013V41.8022C89.0676 42.3755 89.2497 42.9127 89.6693 43.3301L89.6792 43.3399L89.6894 43.3494C90.1111 43.741 90.6345 43.9287 91.2051 43.9287C91.7813 43.9287 92.3213 43.7475 92.7408 43.3301C93.1604 42.9127 93.3425 42.3755 93.3425 41.8022V36.6734C93.6703 36.903 94.0189 37.1061 94.3879 37.2823C95.3689 37.7508 96.4252 37.9824 97.546 37.9824C98.9351 37.9824 100.21 37.635 101.35 36.9318C102.5 36.2333 103.396 35.2709 104.034 34.0612C104.689 32.8331 105.011 31.4784 105.011 30.013C105.011 28.5396 104.668 27.1852 103.969 25.9686C103.274 24.7401 102.303 23.774 101.069 23.0818C99.8479 22.3698 98.4941 22.0178 97.0263 22.0178ZM95.0842 26.4887C95.6618 26.1383 96.3027 25.9605 97.0263 25.9605C97.7499 25.9605 98.3787 26.1383 98.9347 26.484L98.9447 26.4902L98.9549 26.4962C99.5324 26.8324 99.9824 27.2989 100.312 27.9122L100.319 27.9248C100.662 28.5365 100.84 29.2265 100.84 30.013C100.84 30.7995 100.662 31.4896 100.319 32.1012L100.316 32.1069C99.9865 32.7056 99.5329 33.1786 98.9448 33.5359C98.3877 33.8678 97.7552 34.0397 97.0263 34.0397C96.3006 34.0397 95.6585 33.8692 95.0818 33.5358C94.5146 33.1808 94.069 32.7097 93.7384 32.1104C93.4096 31.4974 93.2386 30.8039 93.2386 30.013C93.2386 29.2207 93.4102 28.5261 93.7403 27.9122C94.0728 27.2937 94.518 26.8267 95.0792 26.4917L95.0842 26.4887Z" fill="white"/>
<path fill-rule="evenodd" clip-rule="evenodd" d="M138.986 22.0178C137.516 22.0178 136.154 22.3708 134.917 23.0819C133.698 23.7751 132.737 24.7418 132.043 25.9686C131.344 27.1852 131.001 28.5397 131.001 30.013C131.001 31.4753 131.313 32.8276 131.949 34.0546L131.956 34.0679C132.609 35.2715 133.502 36.2317 134.634 36.9302L134.639 36.9334C135.794 37.6345 137.076 37.9824 138.466 37.9824C139.587 37.9824 140.643 37.7508 141.624 37.2823C142.046 37.0811 142.441 36.8448 142.808 36.574C142.904 36.8329 143.052 37.0726 143.252 37.2862L143.271 37.3066L143.292 37.3256C143.713 37.7172 144.237 37.9048 144.807 37.9048C145.378 37.9048 145.905 37.7165 146.317 37.3062C146.735 36.89 146.945 36.3629 146.945 35.7784V30.013C146.945 28.5376 146.592 27.1819 145.875 25.9653C145.182 24.7417 144.223 23.7771 143.008 23.0846C141.801 22.3698 140.454 22.0178 138.986 22.0178ZM137.044 26.4887C137.621 26.1383 138.262 25.9605 138.986 25.9605C139.71 25.9605 140.338 26.1383 140.894 26.484L140.904 26.4902L140.915 26.4962C141.492 26.8324 141.942 27.2988 142.272 27.9122C142.602 28.5261 142.774 29.2207 142.774 30.013C142.774 30.8037 142.603 31.497 142.274 32.1099C141.945 32.7073 141.491 33.1794 140.904 33.5362C140.347 33.8679 139.715 34.0397 138.986 34.0397C138.26 34.0397 137.618 33.8692 137.042 33.5358C136.473 33.1801 136.017 32.7068 135.669 32.1039C135.342 31.4925 135.172 30.8011 135.172 30.013C135.172 29.2234 135.343 28.5309 135.671 27.9185C136.021 27.2967 136.476 26.8275 137.039 26.4917L137.044 26.4887Z" fill="white"/>
<path d="M25.8486 22.0954C25.261 22.0954 24.7311 22.3036 24.3128 22.7198C23.9003 23.1302 23.7111 23.6545 23.7111 24.2218V30.5818C23.7111 32.0804 23.9996 33.4153 24.6126 34.5563L24.6154 34.5614C25.2243 35.6753 26.0797 36.5397 27.1749 37.134C28.2588 37.7222 29.469 38.0082 30.7862 38.0082C31.7465 38.0082 32.6606 37.8454 33.5217 37.5144L33.5292 37.5116L33.5366 37.5086C33.9506 37.3401 34.3398 37.1388 34.703 36.9045C34.7791 37.0296 34.8694 37.1486 34.9742 37.2603L34.9934 37.2807L35.0138 37.2997C35.4356 37.6913 35.9589 37.879 36.5295 37.879C37.1057 37.879 37.6457 37.6978 38.0653 37.2804L38.0752 37.2705L38.0847 37.2603C38.4784 36.8408 38.667 36.3202 38.667 35.7525V24.2218C38.667 23.6486 38.4848 23.1114 38.0653 22.694C37.6457 22.2766 37.1057 22.0954 36.5295 22.0954C35.9589 22.0954 35.4356 22.283 35.0138 22.6746L35.0036 22.6841L34.9937 22.694C34.5741 23.1114 34.392 23.6486 34.392 24.2218V31.5125C34.392 31.973 34.2667 32.3725 34.0158 32.7343L34.0103 32.7422L34.0051 32.7502C33.7658 33.1136 33.4171 33.4183 32.9262 33.6555L32.9178 33.6596C32.453 33.8909 31.921 34.0139 31.306 34.0139C30.2255 34.0139 29.4348 33.7139 28.8522 33.1773C28.316 32.6522 27.986 31.8332 27.986 30.5818V24.2218C27.986 23.646 27.7821 23.1231 27.3586 22.7196C26.953 22.2983 26.4274 22.0954 25.8486 22.0954Z" fill="white"/>
<path d="M151.117 22.0954C150.547 22.0954 150.023 22.283 149.601 22.6746L149.591 22.6841L149.581 22.694C149.162 23.1114 148.98 23.6486 148.98 24.2218V30.5818C148.98 31.9735 149.274 33.251 149.878 34.3961L149.881 34.4012C150.484 35.5226 151.319 36.4155 152.383 37.0624L152.39 37.0669L152.398 37.0713C153.487 37.7017 154.713 38.0082 156.055 38.0082C157.072 38.0082 158.023 37.8264 158.898 37.4508C159.348 37.2574 159.764 37.0205 160.144 36.74C160.277 36.9427 160.44 37.1262 160.637 37.2853L160.647 37.2928L160.656 37.3C161.115 37.6482 161.689 37.8141 162.311 37.863V40.3286C162.311 40.8962 162.5 41.4169 162.894 41.8364C163.294 42.263 163.814 42.4809 164.397 42.4809C164.969 42.4809 165.463 42.2447 165.833 41.8243C166.218 41.4059 166.378 40.8803 166.378 40.3286V36.192C166.378 35.6107 166.182 35.075 165.751 34.664C165.338 34.2351 164.799 34.0397 164.215 34.0397H163.936V24.2218C163.936 23.6486 163.753 23.1114 163.334 22.694C162.914 22.2766 162.374 22.0954 161.798 22.0954C161.227 22.0954 160.704 22.283 160.282 22.6746L160.272 22.6841L160.262 22.694C159.843 23.1114 159.661 23.6486 159.661 24.2218V31.5125C159.661 32.2452 159.398 32.8128 158.853 33.2776C158.299 33.7493 157.563 34.0139 156.575 34.0139C155.561 34.0139 154.781 33.6915 154.169 33.0703C153.573 32.4484 153.255 31.6421 153.255 30.5818V24.2218C153.255 23.6486 153.072 23.1114 152.653 22.694C152.233 22.2766 151.693 22.0954 151.117 22.0954Z" fill="white"/>
<path d="M169.339 22.0954C168.751 22.0954 168.221 22.3036 167.803 22.7198C167.391 23.1302 167.201 23.6545 167.201 24.2218V30.5818C167.201 32.0804 167.49 33.4153 168.103 34.5563L168.106 34.5614C168.715 35.6753 169.57 36.5397 170.665 37.134C171.749 37.7222 172.959 38.0082 174.277 38.0082C175.237 38.0082 176.151 37.8454 177.012 37.5144L177.02 37.5116L177.027 37.5086C177.441 37.3401 177.83 37.1388 178.193 36.9045C178.269 37.0296 178.36 37.1486 178.465 37.2603L178.484 37.2807L178.504 37.2997C178.926 37.6913 179.449 37.879 180.02 37.879C180.596 37.879 181.136 37.6978 181.556 37.2804L181.566 37.2705L181.575 37.2603C181.969 36.8408 182.157 36.3202 182.157 35.7525V24.2218C182.157 23.6486 181.975 23.1114 181.556 22.694C181.136 22.2766 180.596 22.0954 180.02 22.0954C179.449 22.0954 178.926 22.283 178.504 22.6746L178.494 22.6841L178.484 22.694C178.064 23.1114 177.882 23.6486 177.882 24.2218V31.5125C177.882 31.973 177.757 32.3725 177.506 32.7343L177.501 32.7422L177.495 32.7502C177.256 33.1136 176.908 33.4183 176.417 33.6555L176.408 33.6596C175.943 33.8909 175.411 34.0139 174.796 34.0139C173.716 34.0139 172.925 33.7138 172.342 33.1772C171.806 32.6521 171.476 31.8332 171.476 30.5818V24.2218C171.476 23.646 171.272 23.1232 170.849 22.7197C170.443 22.2984 169.918 22.0954 169.339 22.0954Z" fill="white"/>
<path fill-rule="evenodd" clip-rule="evenodd" d="M190.51 22.1213C189.402 22.1213 188.382 22.3637 187.47 22.8659C186.571 23.3442 185.85 24.0092 185.323 24.8565L185.316 24.8686C184.802 25.728 184.552 26.6916 184.552 27.7379C184.552 28.8623 184.868 29.8733 185.522 30.733C185.943 31.2868 186.457 31.7319 187.055 32.0689L185.068 34.6532L185.061 34.6609C184.766 35.0313 184.578 35.4687 184.578 35.9593C184.578 36.5122 184.845 36.9731 185.206 37.3321L185.226 37.3525L185.248 37.3713C185.672 37.7368 186.187 37.9048 186.741 37.9048C187.454 37.9048 188.067 37.6136 188.516 37.0623L191.678 33.1478H192.92V35.7525C192.92 36.3202 193.108 36.8408 193.502 37.2603L193.512 37.2705L193.522 37.2804C193.926 37.6831 194.441 37.879 195.005 37.879C195.57 37.879 196.098 37.6936 196.499 37.2702C196.885 36.8813 197.09 36.391 197.14 35.8515L197.143 35.815V24.2477C197.143 23.6745 196.961 23.1372 196.541 22.7198C196.122 22.3024 195.582 22.1213 195.005 22.1213H190.51ZM188.723 27.7379C188.723 27.2972 188.875 26.9571 189.201 26.6635C189.567 26.3502 189.99 26.1932 190.51 26.1932H192.92V29.3602H190.51C189.993 29.3602 189.572 29.2049 189.207 28.8949C188.883 28.5902 188.723 28.2239 188.723 27.7379Z" fill="white"/>
<g opacity="0.7">
<path d="M6.43795 53.427C6.43795 54.5612 6.15305 55.4464 5.58324 56.0826C5.01344 56.7187 4.22023 57.0368 3.2036 57.0368C2.56821 57.0368 2.00661 56.8903 1.51879 56.5973C1.03097 56.3044 0.655888 55.8838 0.393533 55.3355C0.131178 54.7872 0 54.1511 0 53.427C0 52.3012 0.282852 51.4223 0.848555 50.7903C1.41426 50.1583 2.21157 49.8423 3.24049 49.8423C4.22433 49.8423 5.00319 50.1667 5.57709 50.8154C6.151 51.4599 6.43795 52.3305 6.43795 53.427ZM1.48805 53.427C1.48805 55.03 2.0681 55.8314 3.2282 55.8314C4.376 55.8314 4.9499 55.03 4.9499 53.427C4.9499 51.8408 4.3719 51.0477 3.2159 51.0477C2.6092 51.0477 2.16853 51.2528 1.89388 51.6629C1.62332 52.0731 1.48805 52.6611 1.48805 53.427Z" fill="white"/>
<path d="M12.8363 49.9679V51.123H10.6227V56.9112H9.17152V51.123H6.9579V49.9679H12.8363Z" fill="white"/>
<path d="M22.6077 49.9679V56.9112H21.1566V51.1356H18.1067V56.9112H16.6617V49.9679H22.6077Z" fill="white"/>
<path d="M27.7517 57.0368C26.8908 57.0368 26.2226 56.7208 25.7471 56.0888H25.661C25.7184 56.6748 25.7471 57.0305 25.7471 57.1561V60H24.3021V49.9679H25.4704C25.5032 50.0976 25.5708 50.4073 25.6733 50.897H25.7471C26.198 50.1939 26.8744 49.8423 27.7763 49.8423C28.6248 49.8423 29.2848 50.1562 29.7562 50.784C30.2317 51.4118 30.4695 52.2928 30.4695 53.427C30.4695 54.5612 30.2276 55.4464 29.7439 56.0826C29.2643 56.7187 28.6002 57.0368 27.7517 57.0368ZM27.4012 51.0477C26.8273 51.0477 26.4071 51.2193 26.1406 51.5625C25.8783 51.9057 25.7471 52.4539 25.7471 53.2073V53.427C25.7471 54.2724 25.8783 54.8856 26.1406 55.2664C26.403 55.6431 26.8314 55.8314 27.4258 55.8314C27.9259 55.8314 28.3112 55.6222 28.5818 55.2036C28.8523 54.7851 28.9876 54.1887 28.9876 53.4144C28.9876 52.636 28.8523 52.048 28.5818 51.6504C28.3153 51.2486 27.9218 51.0477 27.4012 51.0477Z" fill="white"/>
<path d="M37.8025 53.427C37.8025 54.5612 37.5176 55.4464 36.9478 56.0826C36.378 56.7187 35.5848 57.0368 34.5681 57.0368C33.9328 57.0368 33.3712 56.8903 32.8833 56.5973C32.3955 56.3044 32.0204 55.8838 31.7581 55.3355C31.4957 54.7872 31.3645 54.1511 31.3645 53.427C31.3645 52.3012 31.6474 51.4223 32.2131 50.7903C32.7788 50.1583 33.5761 49.8423 34.605 49.8423C35.5889 49.8423 36.3677 50.1667 36.9416 50.8154C37.5155 51.4599 37.8025 52.3305 37.8025 53.427ZM32.8526 53.427C32.8526 55.03 33.4326 55.8314 34.5927 55.8314C35.7405 55.8314 36.3144 55.03 36.3144 53.427C36.3144 51.8408 35.7364 51.0477 34.5804 51.0477C33.9737 51.0477 33.5331 51.2528 33.2584 51.6629C32.9879 52.0731 32.8526 52.6611 32.8526 53.427Z" fill="white"/>
<path d="M47.0478 53.4396C47.0478 54.4817 46.7383 55.3125 46.1193 55.9319C45.5044 56.5513 44.6518 56.9029 43.5614 56.9866V60H42.1901V56.9866C41.112 56.9029 40.2573 56.5471 39.626 55.9193C38.9988 55.2874 38.6852 54.4608 38.6852 53.4396C38.6852 52.3807 38.9906 51.5457 39.6014 50.9347C40.2122 50.3194 41.0792 49.9721 42.2024 49.8925V47.1428H43.5614V49.8925C44.6518 49.993 45.5044 50.355 46.1193 50.9786C46.7383 51.6022 47.0478 52.4225 47.0478 53.4396ZM40.1856 53.4396C40.1856 54.1259 40.3537 54.6784 40.6898 55.0969C41.0259 55.5155 41.5302 55.7603 42.2024 55.8314V51.0477C41.5261 51.1272 41.0198 51.3741 40.6836 51.7885C40.3516 52.2028 40.1856 52.7532 40.1856 53.4396ZM45.5536 53.4396C45.5536 52.7615 45.3855 52.2175 45.0494 51.8073C44.7174 51.3971 44.2213 51.1523 43.5614 51.0728V55.8314C44.2295 55.7519 44.7276 55.505 45.0555 55.0906C45.3876 54.6721 45.5536 54.1218 45.5536 53.4396Z" fill="white"/>
<path d="M51.3125 57.0368C50.2548 57.0368 49.4268 56.7229 48.8283 56.0951C48.2339 55.4631 47.9367 54.5947 47.9367 53.4898C47.9367 52.3556 48.2134 51.4641 48.7668 50.8154C49.3202 50.1667 50.0806 49.8423 51.0481 49.8423C51.9458 49.8423 52.655 50.1206 53.1756 50.6773C53.6962 51.2339 53.9565 51.9998 53.9565 52.975V53.7723H49.4247C49.4452 54.4461 49.6236 54.9651 49.9597 55.3292C50.2958 55.6891 50.7693 55.8691 51.3801 55.8691C51.7818 55.8691 52.1549 55.8314 52.4992 55.7561C52.8477 55.6766 53.2207 55.5468 53.6183 55.3669V56.566C53.2658 56.7375 52.9091 56.8589 52.5484 56.9301C52.1877 57.0012 51.7757 57.0368 51.3125 57.0368ZM51.0481 50.9598C50.5889 50.9598 50.22 51.1084 49.9413 51.4055C49.6666 51.7027 49.5026 52.1358 49.4493 52.705H52.5361C52.5279 52.1317 52.3926 51.6985 52.1303 51.4055C51.8679 51.1084 51.5072 50.9598 51.0481 50.9598Z" fill="white"/>
<path d="M57.9629 57.0368C56.934 57.0368 56.151 56.7313 55.614 56.1202C55.0811 55.505 54.8147 54.624 54.8147 53.4772C54.8147 52.3095 55.0934 51.4118 55.6509 50.784C56.2125 50.1562 57.0221 49.8423 58.0798 49.8423C58.7971 49.8423 59.4428 49.9783 60.0167 50.2504L59.5801 51.4369C58.9693 51.1942 58.4651 51.0728 58.0675 51.0728C56.891 51.0728 56.3027 51.8701 56.3027 53.4647C56.3027 54.2431 56.4482 54.8291 56.7393 55.2225C57.0344 55.6117 57.4649 55.8063 58.0306 55.8063C58.6741 55.8063 59.2829 55.6431 59.8568 55.3167V56.6036C59.5985 56.7585 59.3218 56.8694 59.0267 56.9363C58.7356 57.0033 58.3811 57.0368 57.9629 57.0368Z" fill="white"/>
<path d="M63.8202 57.0368C62.7912 57.0368 62.0083 56.7313 61.4713 56.1202C60.9384 55.505 60.6719 54.624 60.6719 53.4772C60.6719 52.3095 60.9507 51.4118 61.5082 50.784C62.0698 50.1562 62.8794 49.8423 63.937 49.8423C64.6544 49.8423 65.3 49.9783 65.8739 50.2504L65.4373 51.4369C64.8265 51.1942 64.3223 51.0728 63.9247 51.0728C62.7482 51.0728 62.1599 51.8701 62.1599 53.4647C62.1599 54.2431 62.3055 54.8291 62.5965 55.2225C62.8917 55.6117 63.3221 55.8063 63.8878 55.8063C64.5314 55.8063 65.1401 55.6431 65.714 55.3167V56.6036C65.4558 56.7585 65.1791 56.8694 64.8839 56.9363C64.5929 57.0033 64.2383 57.0368 63.8202 57.0368Z" fill="white"/>
<path d="M72.9671 53.427C72.9671 54.5612 72.6822 55.4464 72.1124 56.0826C71.5426 56.7187 70.7494 57.0368 69.7327 57.0368C69.0974 57.0368 68.5357 56.8903 68.0479 56.5973C67.5601 56.3044 67.185 55.8838 66.9227 55.3355C66.6603 54.7872 66.5291 54.1511 66.5291 53.427C66.5291 52.3012 66.812 51.4223 67.3777 50.7903C67.9434 50.1583 68.7407 49.8423 69.7696 49.8423C70.7535 49.8423 71.5323 50.1667 72.1062 50.8154C72.6801 51.4599 72.9671 52.3305 72.9671 53.427ZM68.0172 53.427C68.0172 55.03 68.5972 55.8314 69.7573 55.8314C70.9051 55.8314 71.479 55.03 71.479 53.427C71.479 51.8408 70.901 51.0477 69.745 51.0477C69.1383 51.0477 68.6977 51.2528 68.423 51.6629C68.1525 52.0731 68.0172 52.6611 68.0172 53.427Z" fill="white"/>
<path d="M77.7052 57.0368C76.8444 57.0368 76.1762 56.7208 75.7007 56.0888H75.6146C75.672 56.6748 75.7007 57.0305 75.7007 57.1561V60H74.2557V49.9679H75.424C75.4568 50.0976 75.5244 50.4073 75.6269 50.897H75.7007C76.1516 50.1939 76.828 49.8423 77.7298 49.8423C78.5784 49.8423 79.2384 50.1562 79.7098 50.784C80.1853 51.4118 80.4231 52.2928 80.4231 53.427C80.4231 54.5612 80.1812 55.4464 79.6975 56.0826C79.2179 56.7187 78.5538 57.0368 77.7052 57.0368ZM77.3547 51.0477C76.7808 51.0477 76.3607 51.2193 76.0942 51.5625C75.8318 51.9057 75.7007 52.4539 75.7007 53.2073V53.427C75.7007 54.2724 75.8318 54.8856 76.0942 55.2664C76.3566 55.6431 76.7849 55.8314 77.3793 55.8314C77.8794 55.8314 78.2648 55.6222 78.5353 55.2036C78.8059 54.7851 78.9412 54.1887 78.9412 53.4144C78.9412 52.636 78.8059 52.048 78.5353 51.6504C78.2689 51.2486 77.8753 51.0477 77.3547 51.0477Z" fill="white"/>
<path d="M87.756 53.427C87.756 54.5612 87.4711 55.4464 86.9013 56.0826C86.3315 56.7187 85.5383 57.0368 84.5217 57.0368C83.8863 57.0368 83.3247 56.8903 82.8369 56.5973C82.3491 56.3044 81.974 55.8838 81.7116 55.3355C81.4493 54.7872 81.3181 54.1511 81.3181 53.427C81.3181 52.3012 81.601 51.4223 82.1667 50.7903C82.7324 50.1583 83.5297 49.8423 84.5586 49.8423C85.5424 49.8423 86.3213 50.1667 86.8952 50.8154C87.4691 51.4599 87.756 52.3305 87.756 53.427ZM82.8061 53.427C82.8061 55.03 83.3862 55.8314 84.5463 55.8314C85.6941 55.8314 86.268 55.03 86.268 53.427C86.268 51.8408 85.69 51.0477 84.534 51.0477C83.9273 51.0477 83.4866 51.2528 83.212 51.6629C82.9414 52.0731 82.8061 52.6611 82.8061 53.427Z" fill="white"/>
<path d="M94.9476 51.7445C94.9476 52.5648 94.4782 53.0608 93.5395 53.2324V53.2826C94.0642 53.3454 94.4659 53.5149 94.7447 53.7911C95.0234 54.0673 95.1628 54.4252 95.1628 54.8646C95.1628 55.5217 94.9169 56.0281 94.4249 56.3839C93.9371 56.7355 93.2259 56.9112 92.2913 56.9112H89.0446V49.9679H92.279C94.0581 49.9679 94.9476 50.5601 94.9476 51.7445ZM93.6809 54.7768C93.6809 54.4419 93.5538 54.2055 93.2997 54.0673C93.0455 53.925 92.6643 53.8539 92.156 53.8539H90.4896V55.8189H92.1929C93.1849 55.8189 93.6809 55.4715 93.6809 54.7768ZM93.5026 51.8701C93.5026 51.5939 93.396 51.3951 93.1829 51.2737C92.9738 51.1481 92.6602 51.0853 92.2421 51.0853H90.4896V52.7553H92.0269C92.5106 52.7553 92.8775 52.6925 93.1275 52.5669C93.3776 52.4372 93.5026 52.2049 93.5026 51.8701Z" fill="white"/>
<path d="M100.556 49.9679V53.5274C100.556 53.9418 100.523 54.5507 100.458 55.3543L103.87 49.9679H105.635V56.9112H104.246V53.4144C104.246 53.2219 104.256 52.9101 104.276 52.479C104.301 52.048 104.321 51.7341 104.338 51.5374L100.937 56.9112H99.1727V49.9679H100.556Z" fill="white"/>
<path d="M116.735 59.3659H115.388V56.9112H110.727V59.3659H109.393V55.7687H109.946C110.43 55.0613 110.813 54.2076 111.096 53.2073C111.383 52.2028 111.553 51.123 111.607 49.9679H115.739V55.7687H116.735V59.3659ZM114.318 55.7687V51.0979H112.855C112.777 51.9601 112.613 52.8097 112.363 53.6467C112.117 54.4838 111.816 55.1911 111.459 55.7687H114.318Z" fill="white"/>
<path d="M123.65 53.427C123.65 54.5612 123.365 55.4464 122.795 56.0826C122.225 56.7187 121.432 57.0368 120.415 57.0368C119.78 57.0368 119.218 56.8903 118.73 56.5973C118.243 56.3044 117.868 55.8838 117.605 55.3355C117.343 54.7872 117.212 54.1511 117.212 53.427C117.212 52.3012 117.495 51.4223 118.06 50.7903C118.626 50.1583 119.423 49.8423 120.452 49.8423C121.436 49.8423 122.215 50.1667 122.789 50.8154C123.363 51.4599 123.65 52.3305 123.65 53.427ZM118.7 53.427C118.7 55.03 119.28 55.8314 120.44 55.8314C121.588 55.8314 122.162 55.03 122.162 53.427C122.162 51.8408 121.584 51.0477 120.428 51.0477C119.821 51.0477 119.38 51.2528 119.106 51.6629C118.835 52.0731 118.7 52.6611 118.7 53.427Z" fill="white"/>
<path d="M129.156 49.9679H130.743L127.933 53.314L130.983 56.9112H129.322L126.383 53.3893V56.9112H124.938V49.9679H126.383V53.3391L129.156 49.9679Z" fill="white"/>
<path d="M136.84 49.9679V51.123H134.626V56.9112H133.175V51.123H130.961V49.9679H136.84Z" fill="white"/>
<path d="M143.804 53.427C143.804 54.5612 143.519 55.4464 142.949 56.0826C142.379 56.7187 141.586 57.0368 140.57 57.0368C139.934 57.0368 139.373 56.8903 138.885 56.5973C138.397 56.3044 138.022 55.8838 137.76 55.3355C137.497 54.7872 137.366 54.1511 137.366 53.427C137.366 52.3012 137.649 51.4223 138.215 50.7903C138.78 50.1583 139.578 49.8423 140.606 49.8423C141.59 49.8423 142.369 50.1667 142.943 50.8154C143.517 51.4599 143.804 52.3305 143.804 53.427ZM138.854 53.427C138.854 55.03 139.434 55.8314 140.594 55.8314C141.742 55.8314 142.316 55.03 142.316 53.427C142.316 51.8408 141.738 51.0477 140.582 51.0477C139.975 51.0477 139.535 51.2528 139.26 51.6629C138.989 52.0731 138.854 52.6611 138.854 53.427Z" fill="white"/>
<path d="M148.542 57.0368C147.681 57.0368 147.013 56.7208 146.538 56.0888H146.451C146.509 56.6748 146.538 57.0305 146.538 57.1561V60H145.093V49.9679H146.261C146.294 50.0976 146.361 50.4073 146.464 50.897H146.538C146.988 50.1939 147.665 49.8423 148.567 49.8423C149.415 49.8423 150.075 50.1562 150.547 50.784C151.022 51.4118 151.26 52.2928 151.26 53.427C151.26 54.5612 151.018 55.4464 150.534 56.0826C150.055 56.7187 149.391 57.0368 148.542 57.0368ZM148.192 51.0477C147.618 51.0477 147.198 51.2193 146.931 51.5625C146.669 51.9057 146.538 52.4539 146.538 53.2073V53.427C146.538 54.2724 146.669 54.8856 146.931 55.2664C147.193 55.6431 147.622 55.8314 148.216 55.8314C148.716 55.8314 149.102 55.6222 149.372 55.2036C149.643 54.7851 149.778 54.1887 149.778 53.4144C149.778 52.636 149.643 52.048 149.372 51.6504C149.106 51.2486 148.712 51.0477 148.192 51.0477Z" fill="white"/>
<path d="M158.593 53.427C158.593 54.5612 158.308 55.4464 157.738 56.0826C157.168 56.7187 156.375 57.0368 155.359 57.0368C154.723 57.0368 154.162 56.8903 153.674 56.5973C153.186 56.3044 152.811 55.8838 152.548 55.3355C152.286 54.7872 152.155 54.1511 152.155 53.427C152.155 52.3012 152.438 51.4223 153.004 50.7903C153.569 50.1583 154.367 49.8423 155.395 49.8423C156.379 49.8423 157.158 50.1667 157.732 50.8154C158.306 51.4599 158.593 52.3305 158.593 53.427ZM153.643 53.427C153.643 55.03 154.223 55.8314 155.383 55.8314C156.531 55.8314 157.105 55.03 157.105 53.427C157.105 51.8408 156.527 51.0477 155.371 51.0477C154.764 51.0477 154.323 51.2528 154.049 51.6629C153.778 52.0731 153.643 52.6611 153.643 53.427Z" fill="white"/>
<path d="M165.784 51.7445C165.784 52.5648 165.315 53.0608 164.376 53.2324V53.2826C164.901 53.3454 165.303 53.5149 165.582 53.7911C165.86 54.0673 166 54.4252 166 54.8646C166 55.5217 165.754 56.0281 165.262 56.3839C164.774 56.7355 164.063 56.9112 163.128 56.9112H159.881V49.9679H163.116C164.895 49.9679 165.784 50.5601 165.784 51.7445ZM164.518 54.7768C164.518 54.4419 164.391 54.2055 164.137 54.0673C163.882 53.925 163.501 53.8539 162.993 53.8539H161.326V55.8189H163.03C164.022 55.8189 164.518 55.4715 164.518 54.7768ZM164.339 51.8701C164.339 51.5939 164.233 51.3951 164.02 51.2737C163.811 51.1481 163.497 51.0853 163.079 51.0853H161.326V52.7553H162.864C163.347 52.7553 163.714 52.6925 163.964 52.5669C164.214 52.4372 164.339 52.2049 164.339 51.8701Z" fill="white"/>
<path d="M171.455 49.9679V52.7553H174.658V49.9679H176.103V56.9112H174.658V53.9167H171.455V56.9112H170.01V49.9679H171.455Z" fill="white"/>
<path d="M182.053 56.9112L181.764 55.9444H181.714C181.386 56.3672 181.056 56.6559 180.724 56.8108C180.392 56.9615 179.966 57.0368 179.445 57.0368C178.777 57.0368 178.255 56.8526 177.877 56.4843C177.504 56.116 177.318 55.595 177.318 54.9211C177.318 54.2055 177.578 53.6656 178.099 53.3014C178.619 52.9373 179.413 52.7385 180.478 52.705L181.653 52.6674V52.297C181.653 51.8533 181.55 51.5227 181.345 51.3051C181.145 51.0833 180.831 50.9723 180.405 50.9723C180.056 50.9723 179.722 51.0247 179.402 51.1293C179.083 51.2339 178.775 51.3574 178.48 51.4997L178.013 50.445C178.382 50.2483 178.785 50.0997 179.224 49.9993C179.663 49.8946 180.077 49.8423 180.466 49.8423C181.331 49.8423 181.983 50.0348 182.422 50.4199C182.864 50.8049 183.086 51.4097 183.086 52.2342V56.9112H182.053ZM179.9 55.9068C180.425 55.9068 180.845 55.7582 181.161 55.461C181.481 55.1597 181.641 54.7391 181.641 54.1992V53.5965L180.767 53.6342C180.087 53.6593 179.591 53.7765 179.279 53.9857C178.972 54.1908 178.818 54.5068 178.818 54.9337C178.818 55.2434 178.908 55.4841 179.089 55.6557C179.269 55.8231 179.54 55.9068 179.9 55.9068Z" fill="white"/>
<path d="M183.692 49.9679H185.266L186.649 53.9041C186.858 54.4649 186.998 54.9923 187.067 55.4862H187.117C187.154 55.256 187.221 54.9776 187.32 54.6512C187.418 54.3206 187.939 52.7595 188.881 49.9679H190.443L187.535 57.8341C187.006 59.278 186.125 60 184.891 60C184.571 60 184.259 59.9644 183.956 59.8932V58.7256C184.173 58.7758 184.421 58.8009 184.7 58.8009C185.397 58.8009 185.887 58.3886 186.17 57.5641L186.422 56.9112L183.692 49.9679Z" fill="white"/>
<path d="M195.317 49.9679H196.903L194.093 53.314L197.143 56.9112H195.483L192.543 53.3893V56.9112H191.098V49.9679H192.543V53.3391L195.317 49.9679Z" fill="white"/>
</g>
<path d="M164.029 3.97321C163.493 4.10714 163.159 4.33036 162.958 4.59821C162.824 4.86607 162.824 5.17857 162.958 5.44643C163.159 5.71429 163.493 5.9375 164.029 6.02679L182.72 9.82143C183.792 10.0893 184.796 10.0893 185.801 9.82143L198.931 7.14286C199.802 7.58929 200.271 8.125 200.338 8.79464C199.668 9.10714 199.266 9.50893 199.266 10C199.266 10.4911 199.601 10.8929 200.204 11.1607L198.463 16.2946C198.463 16.5179 198.53 16.6964 198.73 16.875C198.931 17.0536 199.199 17.1429 199.534 17.1429H203.286C203.688 17.1429 203.956 17.0536 204.157 16.875C204.358 16.6964 204.425 16.5179 204.358 16.2946L202.616 11.1607C203.286 10.8929 203.554 10.4911 203.554 9.95536C203.554 9.46428 203.219 9.0625 202.482 8.79464C202.482 8.03571 202.08 7.32143 201.276 6.69643L204.492 6.02679C205.028 5.9375 205.43 5.71429 205.564 5.44643C205.764 5.17857 205.764 4.86607 205.564 4.59821C205.43 4.33036 205.028 4.10714 204.492 3.97321L185.801 0.133929C184.796 -0.0446429 183.792 -0.0446429 182.72 0.133929L164.029 3.97321ZM182.05 11.2054L172.336 9.24107L171.398 14.2857C171.398 14.8214 172.001 15.2679 173.14 15.7143C174.346 16.1607 175.887 16.5179 177.829 16.7857C179.839 17.0536 181.983 17.1429 184.261 17.1429C186.605 17.1429 188.749 17.0536 190.692 16.7857C192.701 16.5179 194.242 16.1607 195.381 15.7143C196.587 15.2679 197.123 14.8214 197.123 14.2857L196.185 9.24107L186.471 11.2054C184.997 11.5179 183.524 11.5179 182.05 11.2054Z" fill="#F2C94C"/>
</svg>
