<svg width="52" height="52" viewBox="0 0 52 52" fill="none" xmlns="http://www.w3.org/2000/svg">
<path d="M11.1001 13.4C14.7001 13.4 17.6001 10.5 17.6001 6.90002C17.6001 3.30002 14.7001 0.400024 11.1001 0.400024C7.5001 0.400024 4.6001 3.30002 4.6001 6.90002C4.6001 10.4 7.5001 13.4 11.1001 13.4ZM11.1001 2.40002C13.5001 2.40002 15.5001 4.40002 15.5001 6.80002C15.5001 9.20002 13.5001 11.2 11.1001 11.2C8.7001 11.2 6.7001 9.20002 6.7001 6.80002C6.7001 4.40002 8.7001 2.40002 11.1001 2.40002Z" fill="#56CCF2"/>
<path d="M17.7001 14.2001H14.8001H13.2001C12.4001 14.2001 11.6001 14.7001 11.3001 15.4001L11.0001 15.9001L10.8001 15.4001C10.5001 14.7001 9.7001 14.2001 8.9001 14.2001H7.3001H4.5001C2.4001 14.2001 0.600098 15.9001 0.600098 18.1001V32.0001C0.600098 34.0001 2.1001 35.6001 4.0001 35.8001V47.7001C4.0001 49.9001 5.8001 51.7001 8.0001 51.7001C9.2001 51.7001 10.3001 51.2001 11.0001 50.4001C11.7001 51.2001 12.8001 51.7001 14.0001 51.7001C16.2001 51.7001 18.0001 49.9001 18.0001 47.7001V35.8001C19.9001 35.6001 21.4001 33.9001 21.4001 32.0001V18.0001C21.6001 15.9001 19.9001 14.2001 17.7001 14.2001ZM19.5001 31.9001C19.5001 32.9001 18.7001 33.7001 17.7001 33.7001C16.9001 33.7001 16.3001 33.2001 16.1001 32.5001L16.0001 47.6001C16.0001 48.7001 15.1001 49.5001 14.1001 49.5001C13.1001 49.5001 12.2001 48.7001 12.2001 47.7001V34.5001C12.2001 33.9001 11.7001 33.4001 11.1001 33.4001C10.5001 33.4001 10.0001 33.9001 10.0001 34.5001V35.5001V35.6001V36.0001V40.3001V47.6001C10.0001 48.7001 9.1001 49.5001 8.1001 49.5001C7.0001 49.5001 6.2001 48.6001 6.2001 47.6001V32.4001C6.0001 33.1001 5.3001 33.6001 4.5001 33.6001C3.5001 33.6001 2.7001 32.8001 2.7001 31.8001V18.0001C2.7001 17.0001 3.5001 16.2001 4.5001 16.2001C5.3001 16.2001 6.7001 16.2001 7.4001 16.2001H9.0001L11.1001 20.8001L13.3001 16.2001H14.9001C15.6001 16.2001 17.0001 16.2001 17.8001 16.2001C18.8001 16.2001 19.6001 17.0001 19.6001 18.0001V31.9001H19.5001Z" fill="#56CCF2"/>
<path d="M50.3 19.1H43.4001C42.8001 19.1 42.3 19.6 42.3 20.2V24.4C42.3 25 42.8001 25.5 43.4001 25.5C44.0001 25.5 44.5 25 44.5 24.4V21.3H49.3V33.5C48.8 33.6 48.5 34 48.5 34.5C48.5 35.1 49 35.6 49.6 35.6H50.4001C51.0001 35.6 51.5 35.1 51.5 34.5V20.2C51.3 19.6 50.9 19.1 50.3 19.1Z" fill="#56CCF2"/>
<path d="M25.0001 33.4001V16.9001H29.8001V27.6001C29.8001 28.2001 30.3001 28.7001 30.9001 28.7001C31.5001 28.7001 32.0001 28.2001 32.0001 27.6001V15.8001C32.0001 15.2001 31.5001 14.7001 30.9001 14.7001H24.0001C23.4001 14.7001 22.9001 15.2001 22.9001 15.8001V34.4001C22.9001 35.0001 23.4001 35.5001 24.0001 35.5001H24.8001C25.4001 35.5001 25.9001 35.0001 25.9001 34.4001C25.8001 34.0001 25.4001 33.6001 25.0001 33.4001Z" fill="#56CCF2"/>
<path d="M30.3002 9.90002H32.7002V27.5C32.7002 28.1 33.2002 28.6 33.8002 28.6C34.4002 28.6 34.9002 28.1 34.9002 27.5V8.90002C34.9002 8.30002 34.4002 7.80002 33.8002 7.80002H32.8002L37.3002 2.90002L41.8002 7.80002H40.8002C40.2002 7.80002 39.7002 8.30002 39.7002 8.90002V27.6C39.7002 28.2 40.2002 28.7 40.8002 28.7C41.4002 28.7 41.9002 28.2 41.9002 27.6V9.90002H44.0002C44.4002 9.90002 44.8002 9.70002 45.0002 9.30002C45.2002 8.90002 45.1002 8.50002 44.8002 8.20002L38.0002 0.700024C37.8002 0.500024 37.5002 0.400024 37.2002 0.400024C36.9002 0.400024 36.6002 0.500024 36.4002 0.700024L29.6002 8.20002C29.3002 8.50002 29.2002 9.00002 29.4002 9.30002C29.5002 9.70002 29.8002 9.90002 30.3002 9.90002Z" fill="#56CCF2"/>
<path d="M46.9002 29.3H44.8002C45.5002 28.1 46.2002 27.1 46.9002 26.5C47.3002 26.1 47.3002 25.4 47.0002 25C46.6002 24.6 45.9002 24.6 45.5002 24.9C44.5002 25.8 43.5002 27.3 42.5002 29.2H27.3002C26.7002 29.2 26.2002 29.7 26.2002 30.3V49.5C26.2002 50.1 26.7002 50.6 27.3002 50.6H46.9002C47.5002 50.6 48.0002 50.1 48.0002 49.5V30.4C47.9002 29.8 47.5002 29.3 46.9002 29.3ZM45.8002 48.5H28.4002V31.4H41.3002C39.6002 34.7 38.1002 38.6 37.0002 41.5C35.2002 38.1 32.2002 35.4 32.1002 35.3C31.7002 34.9 31.0002 35 30.6002 35.4C30.2002 35.8 30.3002 36.5 30.7002 36.9C30.7002 36.9 35.2002 40.9 36.0002 44.9C36.1002 45.4 36.5002 45.7 37.0002 45.7C37.5002 45.7 37.9002 45.4 38.0002 45C39.0002 41.7 41.3002 35.8 43.5002 31.5H45.7002V48.5H45.8002Z" fill="#56CCF2"/>
</svg>
