<svg width="44" height="52" viewBox="0 0 44 52" fill="none" xmlns="http://www.w3.org/2000/svg">
<path d="M27.1001 42.7H19.5001V36.9C19.5001 36.3 19.0001 35.9 18.5001 35.9C17.9001 35.9 17.5001 36.4 17.5001 36.9V42.7H9.9001C7.5001 42.7 5.6001 44.7 5.6001 47.2C5.6001 49.7 7.5001 51.7 9.9001 51.7H27.2001C29.6001 51.7 31.5001 49.7 31.5001 47.2C31.4001 44.7 29.4001 42.7 27.1001 42.7ZM27.1001 49.6H9.8001C8.6001 49.6 7.6001 48.5 7.6001 47.2C7.6001 45.9 8.6001 44.8 9.8001 44.8H17.4001V46.5C17.4001 47.1 17.9001 47.5 18.4001 47.5C19.0001 47.5 19.4001 47 19.4001 46.5V44.8H27.0001C28.2001 44.8 29.2001 45.9 29.2001 47.2C29.3001 48.5 28.3001 49.6 27.1001 49.6Z" fill="#56CCF2"/>
<path d="M17.4 24.9V30.6C17.4 31.2 17.9 31.6 18.4 31.6C19 31.6 19.4 31.1 19.4 30.6V24.9C21.6 24.6 23.6001 23.3 24.9001 21.2C32.0001 19.7 36 16 36 10.8C36 10.2 35.5 9.80005 35 9.80005H1.80005C1.20005 9.80005 0.800049 10.3 0.800049 10.8C0.800049 16 4.70005 19.7 11.9 21.2C13.2 23.3 15.2 24.6 17.4 24.9ZM3.00005 11.9H33.9001C33.2001 16.8 27.6 18.6 24.2001 19.3C23.9001 19.4 23.6 19.5 23.5 19.8C22.3 21.8 20.5 22.9 18.5 22.9C16.5 22.9 14.6 21.7 13.5 19.8C13.3 19.5 13.1 19.4 12.8 19.3C9.30005 18.6 3.70005 16.8 3.00005 11.9Z" fill="#56CCF2"/>
<path d="M23.7999 17.7C23.8999 17.7 23.8999 17.7 23.7999 17.7C28.9999 17.3 31.3 14.1 31.4 14C31.7 13.5 31.6 12.9 31.2 12.5C30.7 12.2 30.1 12.3 29.7 12.7C29.7 12.7 27.8 15.2 23.7 15.5C23.1 15.5 22.7 16.1 22.7 16.6C22.8 17.3 23.2999 17.7 23.7999 17.7Z" fill="#56CCF2"/>
<path d="M42.3001 10.2C40.8001 5.90005 38.4001 3.00005 35.1001 1.60005C30.6001 -0.299951 26.0001 1.10005 24.3001 1.70005C23.3001 1.10005 21.9001 0.800049 21.3001 0.600049C20.7001 0.400049 20.0001 0.300049 19.3001 0.300049C18.0001 0.300049 16.7001 0.600048 15.8001 1.20005C14.4001 2.20005 13.4001 3.80005 13.2001 5.40005C13.1001 6.30005 13.2001 7.00005 13.6001 7.70005C14.1001 8.70005 14.9001 8.80005 15.3001 8.80005C15.4001 8.80005 15.4001 8.80005 15.5001 8.80005C16.4001 8.60005 19.1001 7.30005 20.5001 6.50005C23.7001 4.80005 24.6001 4.10005 24.9001 3.60005C26.2001 3.10005 30.4001 1.80005 34.2001 3.40005C36.9001 4.60005 39.0001 7.00005 40.3001 10.8C41.5001 14.2 41.4001 16.9 40.1001 19C37.1001 24 27.8001 25.5 21.0001 26.5C20.4001 26.6 20.0001 27.1 20.1001 27.7001C20.2001 28.2001 20.6001 28.6 21.1001 28.6C21.2001 28.6 21.2001 28.6 21.3001 28.6C28.5001 27.5 38.4001 25.9 41.9001 20.1C43.5001 17.5 43.6001 14.1 42.3001 10.2ZM15.5001 6.70005C15.4001 6.50005 15.4001 6.10005 15.4001 5.80005C15.5001 4.90005 16.2001 3.80005 17.1001 3.10005C17.6001 2.70005 18.5001 2.50005 19.4001 2.50005C19.9001 2.50005 20.4001 2.60005 20.8001 2.70005H20.9001C21.5001 2.80005 22.0001 3.00005 22.4001 3.10005C20.6001 4.20005 16.7001 6.20005 15.5001 6.70005Z" fill="#56CCF2"/>
<path d="M20.8 38.8C20.2 38.9 19.9 39.5 20 40C20.1 40.5 20.5 40.9 21 40.9C21.1 40.9 21.1 40.9 21.2 40.9C24.1 40.4 26 39.2 26.7 37.7C27 37 27.3 35.8 26.4 34.4C25 32.1 21.1 32.5 16.9 32.9C14.3 33.2 10.8 33.6 10.1 32.7C9.89995 32.5 9.89995 32.2 9.99995 31.8C10.3 30.5 14.6 29.7 16 29.5C16.6 29.4 17 28.9 16.8 28.3C16.7 27.7 16.2 27.3 15.6 27.5C11.2 28.3 8.39995 29.2 7.89995 31.5C7.69995 32.6 7.89995 33.6 8.49995 34.3C9.99995 35.9 13.3 35.6 17.1 35.2C20 34.9 23.9 34.5 24.5 35.6C24.9 36.3 24.8 36.7 24.7 37C24.4 37.7 22.9 38.4 20.8 38.8Z" fill="#56CCF2"/>
<path d="M13.8001 38.3001C13.3001 38.0001 12.7001 38.1001 12.3001 38.6001C12.0001 39.0001 12.1001 39.7001 12.6001 40.0001C13.4001 40.5001 14.4001 40.9001 15.7001 41.1001H15.8001C16.3001 41.1001 16.8001 40.7001 16.8001 40.2001C16.9001 39.6001 16.5001 39.1001 15.9001 39.0001C15.0001 38.8001 14.3001 38.6001 13.8001 38.3001Z" fill="#56CCF2"/>
</svg>
