<svg width="243" height="152" viewBox="0 0 243 152" fill="none" xmlns="http://www.w3.org/2000/svg">
<g filter="url(#filter0_d)">
<rect x="16" y="12" width="211" height="120" rx="12" fill="#56CCF2"/>
</g>
<path fill-rule="evenodd" clip-rule="evenodd" d="M121.5 32.1649C106.043 32.1649 93.5146 44.693 93.5146 60.15C93.5146 73.8989 103.433 85.3267 116.506 87.6845V63.079C116.506 61.9263 117.449 60.9779 118.607 60.9779H122.338C122.448 60.9779 122.537 60.8888 122.537 60.7788V32.1911C122.186 32.1754 121.846 32.1649 121.5 32.1649ZM116.119 56.1679C114.295 56.1679 112.818 54.6903 112.818 52.8669C112.818 51.0435 114.295 49.5711 116.119 49.5711C117.942 49.5711 119.42 51.0487 119.42 52.8669C119.414 54.6903 117.942 56.1679 116.119 56.1679Z" fill="white"/>
<path fill-rule="evenodd" clip-rule="evenodd" d="M125.854 32.5055V62.1044C125.854 63.2572 124.911 64.2055 123.753 64.2055H120.022C119.912 64.2055 119.823 64.2946 119.823 64.4046V88.088C120.379 88.1194 120.934 88.1404 121.495 88.1404C136.952 88.1404 149.48 75.6123 149.48 60.1553C149.485 46.1758 139.241 34.5961 125.854 32.5055ZM125.676 74.5225C124.046 74.5225 122.726 73.2021 122.726 71.5725C122.726 69.943 124.046 68.6226 125.676 68.6226C127.306 68.6226 128.626 69.943 128.626 71.5725C128.626 73.2021 127.306 74.5225 125.676 74.5225ZM133.478 74.5225C131.848 74.5225 130.528 73.2021 130.528 71.5725C130.528 69.943 131.848 68.6226 133.478 68.6226C135.107 68.6226 136.428 69.943 136.428 71.5725C136.423 73.2021 135.102 74.5225 133.478 74.5225ZM141.274 74.5225C139.645 74.5225 138.325 73.2021 138.325 71.5725C138.325 69.943 139.645 68.6226 141.274 68.6226C142.904 68.6226 144.224 69.943 144.224 71.5725C144.224 73.2021 142.904 74.5225 141.274 74.5225Z" fill="white"/>
<path fill-rule="evenodd" clip-rule="evenodd" d="M98.9008 107.952V106.249H104.843V104.294H98.9008V102.88C98.9008 102.738 98.9217 102.628 99.0737 102.628H104.974V100.59H98.0729C97.2503 100.59 96.7158 101.161 96.7158 102.157V108.654C96.7158 109.644 97.2503 110.22 98.0729 110.22H105.115V108.182H99.0789C98.9217 108.172 98.9008 108.088 98.9008 107.952Z" fill="white"/>
<path fill-rule="evenodd" clip-rule="evenodd" d="M115.453 102.623V100.585H108.558C107.73 100.585 107.195 101.156 107.195 102.151V110.194H109.448V102.874C109.448 102.754 109.459 102.623 109.616 102.623H115.453V102.623Z" fill="white"/>
<path fill-rule="evenodd" clip-rule="evenodd" d="M135.516 99.086C135.265 99.065 135.008 99.0598 134.725 99.0598H130.35C130.072 99.0598 129.815 99.065 129.564 99.086C126.598 99.3166 125.43 100.909 125.43 104.006C125.43 107.066 126.677 108.685 129.564 108.937C129.821 108.958 130.093 108.963 130.381 108.963H131.408V110.194H133.661V108.963H134.709C134.987 108.963 135.265 108.952 135.516 108.937C138.419 108.685 139.65 107.066 139.65 104.006C139.645 100.899 138.524 99.3166 135.516 99.086ZM131.408 106.956H130.35C130.067 106.956 129.794 106.94 129.564 106.904C128.139 106.673 127.719 105.725 127.719 104.043C127.719 102.298 128.128 101.365 129.564 101.135C129.805 101.098 130.083 101.077 130.386 101.077H131.408V106.956ZM135.516 106.904C135.286 106.94 135.024 106.956 134.725 106.956H133.661V101.072H134.688C135.003 101.072 135.275 101.093 135.516 101.129C136.973 101.36 137.381 102.298 137.381 104.038C137.376 105.725 136.952 106.673 135.516 106.904Z" fill="white"/>
<path fill-rule="evenodd" clip-rule="evenodd" d="M92.3043 98.8241C91.2197 98.8241 90.5229 99.4267 90.0041 100.648L86.9756 107.884L83.8894 100.648C83.3812 99.4267 82.6738 98.8241 81.5944 98.8241C80.3212 98.8241 79.5195 99.5839 79.5195 101.234V110.194H81.8512V101.549L84.9636 108.832C85.388 109.833 86.0272 110.383 86.9389 110.383C87.903 110.383 88.5108 109.838 88.93 108.832L92.0528 101.475V110.194H94.3793V101.234C94.3793 99.5839 93.5933 98.8241 92.3043 98.8241Z" fill="white"/>
<path fill-rule="evenodd" clip-rule="evenodd" d="M147.31 100.448H146.498C142.977 100.448 141.578 102.026 141.578 105.384C141.578 108.701 143.003 110.351 146.514 110.351H147.284C150.769 110.351 152.236 108.701 152.236 105.384C152.23 102.031 150.863 100.448 147.31 100.448ZM147.31 108.35H146.498C144.486 108.35 143.836 107.386 143.836 105.416C143.836 103.414 144.402 102.45 146.53 102.45H147.274C149.406 102.45 149.962 103.414 149.962 105.416C149.956 107.386 149.328 108.35 147.31 108.35Z" fill="white"/>
<path fill-rule="evenodd" clip-rule="evenodd" d="M119.623 100.344C119.613 100.344 119.613 100.344 119.602 100.344C118.722 100.344 118.109 100.768 117.721 101.648L114.682 108.465L113.912 110.189H114.682H116.385L117.255 108.114H121.997L122.898 110.189H125.308L121.499 101.701C121.122 100.836 120.493 100.354 119.623 100.344ZM117.989 106.191L119.435 102.754C119.524 102.555 119.712 102.555 119.786 102.754L121.242 106.191H117.989Z" fill="white"/>
<path fill-rule="evenodd" clip-rule="evenodd" d="M161.243 100.585V104.226H156.334V100.585H154.102V110.194H156.334V106.301H161.243V110.194H163.481V100.585H161.243Z" fill="white"/>
<defs>
<filter id="filter0_d" x="0" y="0" width="243" height="152" filterUnits="userSpaceOnUse" color-interpolation-filters="sRGB">
<feFlood flood-opacity="0" result="BackgroundImageFix"/>
<feColorMatrix in="SourceAlpha" type="matrix" values="0 0 0 0 0 0 0 0 0 0 0 0 0 0 0 0 0 0 127 0"/>
<feOffset dy="4"/>
<feGaussianBlur stdDeviation="8"/>
<feColorMatrix type="matrix" values="0 0 0 0 0 0 0 0 0 0 0 0 0 0 0 0 0 0 0.1 0"/>
<feBlend mode="normal" in2="BackgroundImageFix" result="effect1_dropShadow"/>
<feBlend mode="normal" in="SourceGraphic" in2="effect1_dropShadow" result="shape"/>
</filter>
</defs>
</svg>
