<svg width="85" height="79" viewBox="0 0 85 79" fill="none" xmlns="http://www.w3.org/2000/svg">
<path fill-rule="evenodd" clip-rule="evenodd" d="M42.4998 0.164917C27.0427 0.164917 14.5146 12.693 14.5146 28.15C14.5146 41.8989 24.4334 53.3267 37.5063 55.6845V31.079C37.5063 29.9263 38.4495 28.9779 39.6075 28.9779H43.3381C43.4481 28.9779 43.5372 28.8888 43.5372 28.7788V0.191116C43.1862 0.175397 42.8456 0.164917 42.4998 0.164917ZM37.1186 24.1679C35.2952 24.1679 33.8176 22.6903 33.8176 20.8669C33.8176 19.0435 35.2952 17.5711 37.1186 17.5711C38.942 17.5711 40.4196 19.0487 40.4196 20.8669C40.4144 22.6903 38.942 24.1679 37.1186 24.1679Z" fill="#0DB14B"/>
<path fill-rule="evenodd" clip-rule="evenodd" d="M46.8541 0.505493V30.1044C46.8541 31.2572 45.911 32.2055 44.753 32.2055H41.0223C40.9123 32.2055 40.8232 32.2946 40.8232 32.4046V56.088C41.3786 56.1194 41.9341 56.1404 42.4947 56.1404C57.9517 56.1404 70.4798 43.6123 70.4798 28.1553C70.4851 14.1758 60.2415 2.59612 46.8541 0.505493ZM46.676 42.5225C45.0464 42.5225 43.726 41.2021 43.726 39.5725C43.726 37.943 45.0464 36.6226 46.676 36.6226C48.3055 36.6226 49.6259 37.943 49.6259 39.5725C49.6259 41.2021 48.3055 42.5225 46.676 42.5225ZM54.4778 42.5225C52.8483 42.5225 51.5279 41.2021 51.5279 39.5725C51.5279 37.943 52.8483 36.6226 54.4778 36.6226C56.1074 36.6226 57.4278 37.943 57.4278 39.5725C57.4225 41.2021 56.1021 42.5225 54.4778 42.5225ZM62.2745 42.5225C60.6449 42.5225 59.3245 41.2021 59.3245 39.5725C59.3245 37.943 60.6449 36.6226 62.2745 36.6226C63.904 36.6226 65.2244 37.943 65.2244 39.5725C65.2244 41.2021 63.904 42.5225 62.2745 42.5225Z" fill="#26247B"/>
<path fill-rule="evenodd" clip-rule="evenodd" d="M19.9008 75.9516V74.2487H25.8426V72.2943H19.9008V70.8796C19.9008 70.7381 19.9217 70.6281 20.0737 70.6281H25.9735V68.5898H19.0729C18.2503 68.5898 17.7158 69.161 17.7158 70.1565V76.6537C17.7158 77.644 18.2503 78.2204 19.0729 78.2204H26.115V76.1821H20.0789C19.9217 76.1716 19.9008 76.0878 19.9008 75.9516Z" fill="#26247B"/>
<path fill-rule="evenodd" clip-rule="evenodd" d="M36.453 70.6228V68.5846H29.5576C28.7298 68.5846 28.1953 69.1557 28.1953 70.1513V78.1942H30.4484V70.8743C30.4484 70.7538 30.4589 70.6228 30.616 70.6228H36.453V70.6228Z" fill="#26247B"/>
<path fill-rule="evenodd" clip-rule="evenodd" d="M56.5161 67.086C56.2646 67.065 56.0078 67.0598 55.7249 67.0598H51.3497C51.072 67.0598 50.8153 67.065 50.5638 67.086C47.5981 67.3166 46.4297 68.9094 46.4297 72.0061C46.4297 75.066 47.6767 76.6851 50.5638 76.9366C50.8205 76.9576 51.093 76.9628 51.3812 76.9628H52.4082V78.1941H54.6612V76.9628H55.7092C55.9869 76.9628 56.2646 76.9523 56.5161 76.9366C59.4188 76.6851 60.6502 75.066 60.6502 72.0061C60.6449 68.8989 59.5236 67.3166 56.5161 67.086ZM52.4082 74.956H51.3497C51.0668 74.956 50.7943 74.9403 50.5638 74.9036C49.1386 74.6731 48.7194 73.7247 48.7194 72.0427C48.7194 70.2979 49.1281 69.3653 50.5638 69.1347C50.8048 69.098 51.0825 69.0771 51.3864 69.0771H52.4082V74.956ZM56.5161 74.9036C56.2855 74.9403 56.0235 74.956 55.7249 74.956H54.6612V69.0718H55.6882C56.0026 69.0718 56.275 69.0928 56.5161 69.1295C57.9727 69.36 58.3814 70.2979 58.3814 72.0375C58.3761 73.7247 57.9517 74.6731 56.5161 74.9036Z" fill="#26247B"/>
<path fill-rule="evenodd" clip-rule="evenodd" d="M13.3043 66.8241C12.2197 66.8241 11.5229 67.4267 11.0041 68.6475L7.97559 75.8835L4.88942 68.6475C4.38117 67.4267 3.67382 66.8241 2.59444 66.8241C1.3212 66.8241 0.519531 67.5839 0.519531 69.2344V78.1942H2.85119V69.5487L5.96355 76.8319C6.38797 77.8327 7.02721 78.3828 7.93891 78.3828C8.90301 78.3828 9.51082 77.8379 9.92999 76.8319L13.0528 69.4754V78.1942H15.3793V69.2344C15.3793 67.5839 14.5933 66.8241 13.3043 66.8241Z" fill="#26247B"/>
<path fill-rule="evenodd" clip-rule="evenodd" d="M68.3103 68.4484H67.4982C63.9771 68.4484 62.5781 70.0255 62.5781 73.3841C62.5781 76.7009 64.0033 78.3513 67.5139 78.3513H68.2841C71.7685 78.3513 73.2356 76.7009 73.2356 73.3841C73.2304 70.0307 71.8628 68.4484 68.3103 68.4484ZM68.3103 76.3498H67.4982C65.4861 76.3498 64.8364 75.3857 64.8364 73.4156C64.8364 71.414 65.4023 70.4499 67.5296 70.4499H68.2737C70.4062 70.4499 70.9616 71.414 70.9616 73.4156C70.9564 75.3857 70.3276 76.3498 68.3103 76.3498Z" fill="#26247B"/>
<path fill-rule="evenodd" clip-rule="evenodd" d="M40.6234 68.3436C40.6129 68.3436 40.6129 68.3436 40.6024 68.3436C39.7221 68.3436 39.1091 68.768 38.7214 69.6483L35.6823 76.4651L34.9121 78.189H35.6823H37.3852L38.255 76.1141H42.9969L43.8982 78.189H46.3084L42.4992 69.7007C42.1219 68.8362 41.4931 68.3541 40.6234 68.3436ZM38.9886 74.1911L40.4347 70.7539C40.5238 70.5548 40.7124 70.5548 40.7858 70.7539L42.2424 74.1911H38.9886Z" fill="#26247B"/>
<path fill-rule="evenodd" clip-rule="evenodd" d="M82.2432 68.5846V72.2262H77.3337V68.5846H75.1016V78.1942H77.3337V74.3011H82.2432V78.1942H84.4806V68.5846H82.2432Z" fill="#26247B"/>
</svg>
