<svg width="211" height="120" viewBox="0 0 211 120" fill="none" xmlns="http://www.w3.org/2000/svg">
<rect width="211" height="120" rx="12" fill="white"/>
<g clip-path="url(#clip0)">
<path fill-rule="evenodd" clip-rule="evenodd" d="M103.948 88.9787H46V31H103.948V88.9787ZM92.0048 64.4402C92.0048 51.6844 83.2077 36.9535 74.9715 36.9535C66.7353 36.9535 57.9453 51.6844 57.9453 64.4402C57.9453 74.4609 63.8136 83.0075 74.9715 83.0075C86.1188 83.0075 92.0048 74.4609 92.0048 64.4402Z" fill="#ED1C24"/>
<path fill-rule="evenodd" clip-rule="evenodd" d="M108.06 89H166.001V31.0249H108.06V89ZM118.401 53.1408H112.302V67.0582H116.36V58.128H116.395L118.813 67.0582H122.011L124.422 58.128H124.464V67.0582H128.519V53.1408H122.423L120.428 61.3286H120.396L118.401 53.1408ZM134.752 56.7072H130.857V53.1408H142.942V56.7072H139.037V67.0582H134.752V56.7072ZM151.051 56.2738C152.815 56.2738 153.209 57.819 153.287 58.3198H157.452C157.089 54.8316 154.984 52.8246 151.161 52.8104C146.876 52.8104 144.11 55.7125 144.11 60.103C144.11 64.2129 146.656 67.3921 151.161 67.3921C155.233 67.3921 157.515 64.4047 157.515 61.5949H153.305C153.057 62.9092 152.485 63.9216 151.051 63.9216C149.041 63.9216 148.395 61.975 148.395 60.103C148.395 58.2239 149.038 56.2738 151.051 56.2738Z" fill="#ED1C24"/>
</g>
<defs>
<clipPath id="clip0">
<rect width="120" height="58" fill="white" transform="translate(46 31)"/>
</clipPath>
</defs>
</svg>
