<svg xmlns="http://www.w3.org/2000/svg" width="103" height="40" fill="none"><rect id="backgroundrect" width="100%" height="100%" x="0" y="0" fill="none" stroke="none"/>

<defs>
<clipPath id="clip0">
<rect width="102.97899627685547" height="40" fill="white" id="svg_1"/>
</clipPath>
</defs>
<g class="currentLayer" style=""><title>Layer 1</title><g clip-path="url(#clip0)" id="svg_2" class="selected" fill="#ffffff" fill-opacity="1">
<path d="M20.9431 9.73999C21.5074 9.9764 22.0716 10.2601 22.5889 10.5911L9.32887 18.3452L3.12206 14.7518C3.45121 14.3263 3.78036 13.9007 4.15653 13.4752L9.32887 16.4539L20.9431 9.73999ZM24.1876 11.584L9.32887 20.1892L2.27567 16.123C1.99355 16.5958 1.75844 17.1159 1.52333 17.5887L9.32887 22.1277L25.4101 12.766C25.034 12.3405 24.6108 11.9622 24.1876 11.584ZM26.5857 13.948L9.32887 23.9717L0.959079 19.149C0.770994 19.6691 0.676951 20.1892 0.535888 20.7093L9.28185 25.8156L27.5731 15.2719C27.291 14.8464 26.9618 14.4208 26.5857 13.948ZM28.3255 16.6431L9.28185 27.7069L0.347803 22.4587C0.300781 22.7896 0.300781 23.1679 0.300781 23.4989C0.300781 31.7258 6.93078 38.4397 15.1125 38.4397C23.2942 38.4397 29.9712 31.7731 29.9712 23.5461C30.0182 21.1821 29.454 18.7707 28.3255 16.6431Z" fill="#ffffff" id="svg_3" fill-opacity="1"/>
<path d="M94.8601 25.721H75.1581C75.4873 26.7139 75.9105 27.7068 76.4277 28.6051H93.9667C96.2237 30.5436 97.9164 33.0496 98.9039 35.8392H80.5186C77.3211 33.1914 74.9701 29.6926 73.7005 25.721C73.8415 25.2481 74.0296 24.7753 74.2177 24.3025H94.8601C96.0356 23.4514 97.0701 22.4585 98.0575 21.4184H75.6754C75.9575 20.9455 76.2867 20.4254 76.6158 19.9999H99.233C99.8913 19.0543 100.503 18.1087 101.02 17.1158H79.1079C79.6252 16.5957 80.1894 16.1228 80.7537 15.65H101.678C102.054 14.7044 102.383 13.7588 102.666 12.7659H79.9073C75.4873 15.9337 72.2898 20.52 70.7852 25.7682C72.2428 31.0165 75.4873 35.6028 79.8603 38.7706H102.572C102.619 38.7233 102.242 31.8202 94.8601 25.721Z" fill="#ffffff" id="svg_4" fill-opacity="1"/>
<path d="M39.5637 34.0425C39.3286 34.0425 39.1875 34.2316 39.1875 34.4207V38.8179C39.1875 39.0543 39.3286 39.1961 39.5637 39.1961H63.5915C63.8267 39.1961 63.9677 39.007 63.9677 38.8179V34.4207C63.9677 34.1843 63.8267 34.0425 63.5915 34.0425H39.5637ZM63.0743 24.3498C62.8862 23.7824 56.0211 4.96446 55.739 4.16068C55.0337 2.26943 54.2343 0.378174 51.6011 0.378174C48.9679 0.378174 48.1215 2.31671 47.4632 4.16068C47.1341 5.10631 40.4101 23.6406 40.1279 24.3498C40.0339 24.5389 40.1749 24.7753 40.363 24.8699L44.3598 26.4302C44.5479 26.4775 44.783 26.3829 44.8301 26.1938C44.9241 26.0046 46.3818 21.8912 46.5698 21.4656H56.6794L58.3722 26.1938C58.4662 26.3829 58.6543 26.4775 58.8424 26.4302L62.8392 24.8699C63.0273 24.7753 63.1684 24.5389 63.0743 24.3498ZM48.1686 16.8321L51.6011 6.52475H51.6481L55.0807 16.8321H48.1686Z" fill="#ffffff" id="svg_5" fill-opacity="1"/>
</g></g></svg>