<svg width="46" height="52" viewBox="0 0 46 52" fill="none" xmlns="http://www.w3.org/2000/svg">
<path d="M3.30005 9.20005C3.30005 12.2 5.70005 14.6 8.70005 14.6C11.7 14.6 14.1 12.2 14.1 9.20005C14.1 6.20005 11.7 3.80005 8.70005 3.80005C5.80005 3.90005 3.30005 6.30005 3.30005 9.20005ZM12 9.20005C12 11 10.5 12.5 8.70005 12.5C6.90005 12.5 5.40005 11 5.40005 9.20005C5.40005 7.40005 6.90005 5.90005 8.70005 5.90005C10.5 5.90005 12 7.40005 12 9.20005Z" fill="#56CCF2"/>
<path d="M1.1001 15.1C1.7001 15.1 2.1001 14.6 2.1001 14.1V2.40002H41.7001V30H20.4001C19.8001 30 19.4001 30.5 19.4001 31C19.4001 31.6 19.9001 32 20.4001 32H42.5001C43.2001 32 43.8001 32.6 43.8001 33.3C43.8001 34 43.2001 34.6 42.5001 34.6H18.4001C17.8001 34.6 17.4001 35.1 17.4001 35.6C17.4001 36.2 17.9001 36.6 18.4001 36.6H42.5001C44.4001 36.6 45.9001 35.1 45.9001 33.2C45.9001 31.8 45.1001 30.6 43.9001 30.1V1.40002C43.9001 0.800024 43.4001 0.400024 42.9001 0.400024H1.1001C0.500098 0.400024 0.100098 0.900024 0.100098 1.40002V14.1C0.100098 14.6 0.600098 15.1 1.1001 15.1Z" fill="#56CCF2"/>
<path d="M42.1999 44.6001C43.1999 43.9001 43.7999 42.8001 43.7999 41.5001C43.7999 39.4001 42.0999 37.7001 39.9999 37.7001C37.8999 37.7001 36.1999 39.4001 36.1999 41.5001C36.1999 42.8001 36.8999 43.9001 37.7999 44.6001C36.9999 44.9001 36.2999 45.4001 35.6999 46.1001C35.0999 45.4001 34.3999 44.9001 33.5999 44.6001C34.5999 43.9001 35.1999 42.8001 35.1999 41.5001C35.1999 39.4001 33.4999 37.7001 31.3999 37.7001C29.2999 37.7001 27.5999 39.4001 27.5999 41.5001C27.5999 42.8001 28.2999 43.9001 29.1999 44.6001C28.3999 44.9001 27.6999 45.4001 27.0999 46.1001C26.4999 45.4001 25.7999 44.9001 24.9999 44.6001C25.9999 43.9001 26.5999 42.8001 26.5999 41.5001C26.5999 39.4001 24.8999 37.7001 22.7999 37.7001C20.6999 37.7001 18.9999 39.4001 18.9999 41.5001C18.9999 42.8001 19.6999 43.9001 20.5999 44.6001C18.4999 45.4001 16.8999 47.5001 16.8999 50.0001V50.6001C16.8999 51.2001 17.3999 51.6001 17.8999 51.6001H44.3999C44.9999 51.6001 45.3999 51.1001 45.3999 50.6001V50.0001C45.8999 47.6001 44.3999 45.5001 42.1999 44.6001ZM40.0999 39.8001C40.9999 39.8001 41.7999 40.6001 41.7999 41.5001C41.7999 42.4001 40.9999 43.2001 40.0999 43.2001C39.1999 43.2001 38.3999 42.4001 38.3999 41.5001C38.3999 40.6001 39.1999 39.8001 40.0999 39.8001ZM31.5999 39.8001C32.4999 39.8001 33.2999 40.6001 33.2999 41.5001C33.2999 42.4001 32.4999 43.2001 31.5999 43.2001C30.6999 43.2001 29.8999 42.4001 29.8999 41.5001C29.8999 40.6001 30.6999 39.8001 31.5999 39.8001ZM23.0999 39.8001C23.9999 39.8001 24.7999 40.6001 24.7999 41.5001C24.7999 42.4001 23.9999 43.2001 23.0999 43.2001C22.1999 43.2001 21.3999 42.4001 21.3999 41.5001C21.3999 40.6001 22.1999 39.8001 23.0999 39.8001ZM19.3999 49.6001C19.5999 47.7001 21.1999 46.3001 23.0999 46.3001C24.4999 46.3001 25.7999 47.1001 26.3999 48.4001C26.5999 48.8001 26.8999 49.0001 27.2999 49.0001C27.6999 49.0001 28.0999 48.8001 28.1999 48.4001C28.7999 47.1001 30.0999 46.3001 31.4999 46.3001C32.8999 46.3001 34.1999 47.1001 34.7999 48.4001C34.9999 48.8001 35.2999 49.0001 35.6999 49.0001C36.0999 49.0001 36.4999 48.8001 36.5999 48.4001C37.1999 47.1001 38.4999 46.3001 39.8999 46.3001C41.7999 46.3001 43.3999 47.8001 43.5999 49.6001H19.3999Z" fill="#56CCF2"/>
<path d="M17.4 27.3001L17.6 27.5001C17.6 27.5001 17.6 27.6001 17.7 27.6001C18.3 28.2001 19.2 28.5001 20 28.5001C21 28.5001 21.8 28.1001 22.5 27.4001L28.6 21.0001C29.2 20.3001 29.6 19.5001 29.6 18.5001C29.6 17.9001 29.4 17.4001 29.2 16.9001L36.5 9.50007C36.9 9.10007 36.9 8.40007 36.5 8.00007C36.1 7.60007 35.4 7.60007 35 8.00007L27.7 15.4001C27.2 15.2001 26.7 15.0001 26.2 15.0001C25.2 15.0001 24.4 15.4001 23.7 16.1001L19.9 20.1001L16.3 17.0001C16.2 16.9001 16.1 16.8001 16 16.8001C16 16.8001 15.9 16.8001 15.9 16.7001C15.3 16.3001 14.1 15.5001 13.3 15.5001C12.5 15.3001 11.7 15.2001 11.2 15.1001C11.1 15.1001 11 15.1001 10.9 15.1001C10.5 15.0001 10 15.2001 9.8 15.6001L8.7 17.7001L7.6 15.6001C7.4 15.2001 7 15.0001 6.5 15.1001C6.4 15.1001 6.3 15.1001 6.2 15.1001C4.6 15.3001 0.4 16.0001 0 19.2001V19.3001V31.8001C0 33.0001 0.7 34.0001 1.8 34.4001V48.1001C1.8 50.0001 3.4 51.6001 5.3 51.6001C6.9 51.6001 8.3 50.5001 8.7 49.0001C9.1 50.5001 10.5 51.6001 12.1 51.6001C14 51.6001 15.6 50.0001 15.6 48.1001V34.5001C16.6 34.1001 17.4 33.1001 17.4 31.9001V27.3001ZM16 23.6001C15.6 23.8001 15.3 24.1001 15.3 24.6001V31.9001C15.3 32.3001 15 32.6001 14.7 32.6001H14.6C14 32.6001 13.6 33.1001 13.6 33.6001V48.2001C13.6 49.0001 13 49.6001 12.2 49.6001C11.4 49.6001 10.8 49.0001 10.8 48.2001V35.9001C10.8 34.8001 10 34.0001 8.9 33.9001C7.8 33.9001 7 34.8001 7 35.9001V48.2001C7 49.0001 6.4 49.6001 5.6 49.6001C4.8 49.6001 4.2 49.0001 4.2 48.2001V33.6001C4.2 33.0001 3.7 32.6001 3.2 32.6001C3.1 32.6001 3.1 32.6001 3.1 32.6001C2.8 32.6001 2.5 32.3001 2.5 31.9001V19.4001C2.7 18.0001 5.1 17.4001 6.5 17.2001L8.2 20.4001C8.4 20.7001 8.7 21.0001 9.1 21.0001C9.5 21.0001 9.8 20.8001 10 20.4001L11.7 17.2001C12.1 17.3001 12.7 17.4001 13.2 17.5001C13.3 17.5001 13.4 17.5001 13.5 17.5001C13.8 17.6001 14.5 17.9001 15.1 18.4001L15.2 18.5001L19.5 22.3001C19.9 22.7001 20.6 22.7001 20.9 22.2001L25.4 17.5001C25.7 17.2001 26 17.1001 26.4 17.1001C26.8 17.1001 27.1 17.2001 27.4 17.5001C27.7 17.8001 27.8 18.1001 27.8 18.5001C27.8 18.9001 27.7 19.2001 27.4 19.5001L21 26.0001C20.7 26.3001 20.4 26.4001 20 26.4001C19.7 26.4001 19.4 26.3001 19.1 26.1001L17.2 23.9001C16.9 23.6001 16.4 23.5001 16 23.6001Z" fill="#56CCF2"/>
</svg>
