<svg width="52" height="52" viewBox="0 0 52 52" fill="none" xmlns="http://www.w3.org/2000/svg">
<path d="M17 35.3C15.8 34.2 14.3 33.6 12.7 33.6C11 33.6 9.3 34.3 8.2 35.6C7.1 36.8 6.5 38.4 6.5 40.1C6.6 41.8 7.3 43.3 8.5 44.4C9.7 45.5 11.2 46.1 12.8 46.1C14.5 46.1 16.2 45.4 17.3 44.1C18.4 42.9 19 41.3 19 39.6C19 38 18.3 36.5 17 35.3ZM15.7 42.6C14.9 43.4 13.9 43.9 12.7 43.9C11.7 43.9 10.7 43.5 9.9 42.8C9.1 42.1 8.7 41.1 8.6 40C8.6 38.9 9 37.9 9.7 37.1C10.5 36.3 11.5 35.8 12.7 35.8C13.7 35.8 14.7 36.2 15.5 36.9C16.3 37.6 16.7 38.6 16.8 39.7C16.9 40.8 16.5 41.8 15.7 42.6Z" fill="#56CCF2"/>
<path d="M23.7 37.2999L21.2 36.5999C21.1 36.2999 20.9 35.9999 20.8 35.5999L21.9 33.2999C22.1 32.8999 22 32.3999 21.7 32.0999C21.4 31.7999 21.1 31.3999 20.8 31.1999C20.5 30.8999 20.2 30.5999 19.8 30.3999C19.5 30.0999 19 30.0999 18.6 30.2999L16.4 31.5999C16.1 31.4999 15.8 31.2999 15.4 31.1999L14.6 28.7999C14.5 28.3999 14.1 28.0999 13.7 28.0999C12.8 27.9999 12 28.0999 11.1 28.1999C10.7 28.2999 10.3 28.5999 10.2 28.9999L9.50004 31.4999C9.20004 31.5999 8.90004 31.7999 8.60004 31.8999L6.30004 30.7999C5.90004 30.5999 5.40004 30.6999 5.10004 30.9999C4.70004 31.2999 4.40004 31.5999 4.20004 31.8999C3.90004 32.1999 3.60004 32.4999 3.40004 32.8999C3.10004 33.0999 3.00004 33.5999 3.30004 33.9999L4.60004 36.1999C4.50004 36.4999 4.30004 36.7999 4.20004 37.1999L1.70004 37.9999C1.30004 38.0999 1.00004 38.4999 1.00004 38.8999C0.90004 39.7999 1.00004 40.5999 1.10004 41.4999C1.20004 41.8999 1.50004 42.2999 1.90004 42.3999L4.40004 43.0999C4.50004 43.3999 4.70004 43.6999 4.80004 43.9999L3.70004 46.2999C3.50004 46.6999 3.60004 47.1999 3.90004 47.4999C4.20004 47.8999 4.50004 48.1999 4.80004 48.3999C5.10004 48.6999 5.40004 48.9999 5.80004 49.1999C6.10004 49.4999 6.60004 49.4999 7.00004 49.2999L9.20004 47.9999C9.50004 48.0999 9.80004 48.2999 10.2 48.3999L11 50.7999C11.1 51.1999 11.5 51.4999 11.9 51.4999C12.2 51.4999 12.5 51.4999 12.8 51.4999C13.4 51.4999 13.9 51.4999 14.5 51.3999C14.9 51.2999 15.3 50.9999 15.4 50.5999L16.1 48.0999C16.4 47.9999 16.7 47.7999 17.1 47.6999L19.4 48.7999C19.8 48.9999 20.3 48.8999 20.6 48.5999C20.9 48.2999 21.2 47.9999 21.5 47.6999C21.8 47.3999 22 47.0999 22.3 46.6999C22.6 46.3999 22.6 45.8999 22.4 45.4999L21.1 43.2999C21.2 42.9999 21.4 42.6999 21.5 42.2999L23.9 41.4999C24.3 41.3999 24.6 40.9999 24.6 40.5999C24.7 39.6999 24.6 38.8999 24.5 37.9999C24.4 37.6999 24.1 37.3999 23.7 37.2999ZM20.2 40.6999C19.9 40.7999 19.6 41.0999 19.5 41.4999C19.4 42.0999 19.2 42.5999 18.9 43.0999C18.7 43.3999 18.7 43.7999 18.9 44.0999L20.1 46.1999C20 46.2999 19.9 46.3999 19.9 46.4999C19.8 46.5999 19.7 46.6999 19.6 46.7999L17.5 45.7999C17.2 45.5999 16.8 45.6999 16.5 45.8999C16 46.1999 15.5 46.3999 14.9 46.5999C14.5 46.6999 14.3 46.9999 14.2 47.3999L13.6 49.6999C13.4 49.6999 13.1 49.6999 12.9 49.6999L12 47.1999C11.9 46.7999 11.6 46.5999 11.2 46.4999C10.6 46.3999 10.1 46.1999 9.60004 45.8999C9.30004 45.6999 8.90004 45.6999 8.60004 45.8999L6.50004 47.0999C6.40004 46.9999 6.30004 46.8999 6.20004 46.8999C6.10004 46.7999 6.00004 46.6999 5.90004 46.6999L6.90004 44.5999C7.10004 44.2999 7.00004 43.8999 6.80004 43.5999C6.50004 43.0999 6.30004 42.5999 6.10004 41.9999C6.00004 41.5999 5.70004 41.3999 5.40004 41.2999L3.10004 40.6999C3.10004 40.4999 3.10004 40.1999 3.10004 39.9999L5.40004 38.9999C5.80004 38.8999 6.00004 38.5999 6.10004 38.1999C6.20004 37.5999 6.40004 37.0999 6.70004 36.5999C6.90004 36.2999 6.90004 35.8999 6.70004 35.5999L5.50004 33.4999C5.60004 33.3999 5.70004 33.2999 5.70004 33.1999C5.80004 33.0999 5.90004 32.9999 6.00004 32.8999L8.10004 33.8999C8.40004 34.0999 8.80004 33.9999 9.10004 33.7999C9.60004 33.4999 10.1 33.2999 10.7 33.0999C11.1 32.9999 11.3 32.6999 11.4 32.2999L12 29.9999C12.2 29.9999 12.5 29.9999 12.7 29.9999L13.5 32.1999C13.6 32.5999 13.9 32.7999 14.3 32.8999C14.8 32.9999 15.4 33.1999 15.9 33.4999C16.2 33.6999 16.6 33.6999 16.9 33.4999L19 32.2999C19.1 32.3999 19.2 32.4999 19.3 32.4999C19.4 32.5999 19.5 32.6999 19.6 32.7999L18.6 34.8999C18.4 35.1999 18.5 35.5999 18.7 35.8999C19 36.3999 19.2 36.8999 19.4 37.4999C19.5 37.8999 19.8 38.0999 20.1 38.1999L22.4 38.7999C22.4 38.9999 22.4 39.2999 22.4 39.4999L20.2 40.6999Z" fill="#56CCF2"/>
<path d="M39.6 11.2C37.5 9.19995 34.8 8.19995 31.9 8.19995C28.8 8.19995 25.8 9.49995 23.7 11.8C19.5 16.3 19.7 23.5 24.2 27.7C26.3 29.7 29 30.7 31.9 30.7C35 30.7 38 29.4 40.1 27.1C42.2 24.9 43.2 22 43.1 19C43.1 16.1 41.8 13.3 39.6 11.2ZM38.5 25.6C36.8 27.5 34.4 28.5 31.9 28.5C29.6 28.5 27.4 27.6 25.7 26.1C22.1 22.7 21.9 16.9 25.3 13.3C27 11.4 29.4 10.4 31.9 10.4C34.2 10.4 36.4 11.3 38.1 12.9C39.9 14.6 40.9 16.8 41 19.2C41.1 21.6 40.2 23.9 38.5 25.6Z" fill="#56CCF2"/>
<path d="M50.5 14.7999C50.4 14.4 50 14 49.5 14L46.2 13.7C45.9 12.8 45.5 12.1 45 11.3L46.7 8.49995C46.9 8.09995 46.9 7.59995 46.6 7.29995C46 6.49995 45.5 5.99995 45 5.49995C44.5 4.99995 43.9 4.49995 43.1 3.99995C42.7 3.69995 42.2 3.69995 41.8 3.99995L39.1 5.79995C38.4 5.39995 37.6 5.09995 36.7 4.79995L36.1 1.49995C36 0.99995 35.7 0.69995 35.2 0.59995C33.6 0.29995 32 0.19995 30.4 0.39995C29.9 0.39995 29.6 0.69995 29.4 1.19995L28.5 4.39995C27.6 4.59995 26.8 4.79995 26 5.09995L23.7 2.99995C23.4 2.69995 22.9 2.69995 22.5 2.89995C21.2 3.69995 19.9 4.59995 18.7 5.79995C18.4 6.09995 18.3 6.59995 18.5 6.99995L19.9 9.99995C19.4 10.7 18.9 11.4 18.5 12.1H15.1C14.6 12.1 14.2 12.4 14.1 12.7999C13.6 14.2999 13.2 15.8 13 17.5C13 18 13.2 18.4 13.6 18.6L16.6 20C16.6 20.9 16.7 21.7 16.9 22.5L14.4 24.6C14 24.9 13.9 25.4 14.1 25.7999C14.6 27.2999 15.4 28.7999 16.3 30.0999C16.6 30.4999 17 30.7 17.5 30.5L20.7 29.7C21 30 21.2 30.2999 21.6 30.5999C21.9 30.8999 22.3 31.2 22.6 31.4L22 34.7C21.9 35.2 22.1 35.5999 22.5 35.7999C23.9 36.5999 25.4 37.2 26.9 37.7C27.3 37.7999 27.8 37.7 28.1 37.2999L30 34.5999C30.8 34.6999 31.7 34.7999 32.6 34.7L34.2 37.5999C34.4 37.8999 34.8 38.2 35.1 38.2C35.2 38.2 35.2 38.2 35.3 38.2C36.9 37.9 38.5 37.5 39.9 36.7999C40.3 36.5999 40.6 36.2 40.5 35.7L40.3 32.4C41 31.9 41.7 31.4 42.3 30.9L45.4 32.0999C45.8 32.2999 46.3 32.0999 46.6 31.7999C47.7 30.5 48.6 29.1999 49.2 27.7999C49.4 27.4 49.3 26.9 49 26.6L46.7 24.2C47 23.4 47.1 22.6 47.3 21.6L50.4 20.5C50.8 20.2999 51.1 19.9 51.1 19.5C51 18 50.8 16.4 50.5 14.7999ZM45.8 19.9C45.4 20 45.1 20.4 45.1 20.7999C45 22.0999 44.7 23.2 44.4 24.1C44.3 24.5 44.3 24.9 44.6 25.2L46.8 27.5C46.4 28.2999 45.9 29 45.3 29.7999L42.3 28.7C41.9 28.6 41.5 28.6 41.2 28.9C40.4 29.7 39.5 30.3 38.5 30.9C38.1 31.1 37.9 31.5 37.9 31.9L38.1 35.0999C37.3 35.3999 36.4 35.7 35.5 35.9L33.9 33.0999C33.7 32.7999 33.3 32.5 33 32.5H32.9C31.7 32.5999 30.6 32.5 29.5 32.2999C29.1 32.1999 28.7 32.4 28.4 32.7L26.5 35.2999C25.6 35 24.8 34.6 24 34.2L24.6 31C24.7 30.6 24.5 30.2 24.2 29.9C24.1 29.8 24 29.6999 23.8 29.5999C23.4 29.2999 23.1 29.0999 22.8 28.7999C22.5 28.5 22.2 28.1999 21.9 27.7999C21.8 27.6999 21.7 27.6 21.7 27.5C21.4 27.2 21 27 20.6 27.1L17.5 27.9C17 27.1 16.6 26.2999 16.3 25.5L18.8 23.5C19.1 23.2 19.3 22.7999 19.2 22.4C18.9 21.2999 18.8 20.2 18.8 19C18.8 18.6 18.6 18.2 18.2 18L15.2 17C15.3 16.1 15.5 15.1999 15.8 14.2999H19C19.4 14.2999 19.8 14.1 20 13.7C20.5 12.6 21.1 11.7 21.8 10.9C22.1 10.5999 22.1 10.0999 22 9.69995L20.7 6.79995C21.4 6.19995 22.1 5.59995 22.9 5.09995L25.3 7.19995C25.6 7.49995 26.1 7.49995 26.5 7.39995C27.5 6.99995 28.5 6.69995 29.8 6.39995C30.2 6.29995 30.6 5.99995 30.7 5.59995L31.6 2.49995C32.5 2.49995 33.4 2.49995 34.3 2.59995L34.8 5.79995C34.9 6.19995 35.2 6.59995 35.6 6.69995C36.8 6.99995 37.9 7.49995 38.8 7.99995C39.2 8.19995 39.6 8.19995 40 7.99995L42.6 6.19995C43 6.49995 43.3 6.79995 43.6 7.09995C43.9 7.39995 44.2 7.69995 44.6 8.09995L43 10.8C42.8 11.2 42.8 11.6 43 12C43.6 12.9 44.1 13.9 44.5 15.1C44.6 15.5 45 15.7999 45.4 15.7999L48.6 16.1C48.8 17 48.9 17.9 48.9 18.7999L45.8 19.9Z" fill="#56CCF2"/>
</svg>
