<svg width="46" height="46" viewBox="0 0 46 46" fill="none" xmlns="http://www.w3.org/2000/svg">
<path d="M45.2998 21.4413C45.2998 21.3519 45.1998 21.3519 45.1998 21.2626C45.1998 21.2626 44.3998 20.2794 43.5998 19.1176C42.1998 17.2407 41.8998 16.7044 41.7998 16.5257C41.7998 16.4363 41.9998 15.9894 42.0998 15.7213C42.3998 15.0957 42.7998 14.3807 42.6998 13.5763C42.6998 13.4869 42.6998 13.4869 42.6998 13.3082C41.9998 5.62194 36.4998 0.974438 27.1998 0.170063C26.2998 0.0806884 25.4998 0.0806885 24.6998 0.0806885H24.4998C16.9998 0.0806885 12.3998 3.03006 9.9998 5.44319C6.9998 8.30319 5.2998 12.1463 5.2998 15.9001C5.2998 17.3301 5.4998 18.5813 5.7998 19.9219C5.7998 19.9219 5.7998 19.9219 5.7998 20.0113C6.7998 24.1226 9.3998 26.4463 11.2998 28.1444C11.6998 28.5019 12.0998 28.8594 12.4998 29.2169C12.8998 29.5744 13.5998 29.6638 13.9998 29.3063C14.3998 28.9488 14.4998 28.3232 14.0998 27.9657C13.6998 27.6082 13.2998 27.2507 12.8998 26.8038C11.1998 25.2844 9.2998 23.6757 8.2998 20.7263H13.1998C13.1998 20.8157 13.0998 20.9051 13.0998 20.9944C12.5998 22.5138 12.0998 23.9438 12.9998 25.0163C13.5998 25.8207 14.6998 26.1782 16.2998 26.2676C16.5998 26.2676 16.9998 26.2676 17.2998 26.2676C17.2998 26.2676 17.2998 26.2676 17.3998 26.2676C18.3998 26.2676 19.6998 26.0888 20.3998 25.1057C21.1998 24.1226 20.8998 22.7819 20.0998 20.6369H23.3998V27.0719C23.3998 27.4294 23.5998 27.7869 23.9998 27.9657C24.0998 27.9657 24.0998 28.0551 24.1998 28.0551C24.2998 28.0551 24.2998 28.0551 24.3998 28.1444C25.3998 28.4126 26.6998 28.3232 27.7998 28.2338H27.8998C27.9998 28.2338 28.0998 28.2338 28.1998 28.1444C28.2998 28.1444 28.3998 28.1444 28.4998 28.0551H28.5998C28.6998 28.0551 28.7998 27.9657 28.9998 27.9657C29.0998 27.9657 29.1998 27.9657 29.1998 27.8763H29.2998C29.4998 27.8763 29.5998 27.7869 29.6998 27.7869C29.7998 27.8763 29.8998 27.9657 29.9998 28.3232C30.0998 28.5019 30.0998 28.7701 30.1998 29.0382C30.2998 29.3063 30.2998 29.6638 30.2998 29.9319C30.2998 30.4682 30.1998 30.8257 30.0998 31.1832C29.9998 31.4513 29.8998 31.6301 29.8998 31.7194L29.7998 31.8982L29.6998 31.9876C29.1998 32.5238 28.7998 32.8813 28.3998 32.9707C28.3998 32.9707 28.3998 32.9707 28.2998 32.9707C28.2998 32.9707 28.2998 32.9707 28.1998 32.9707C28.1998 32.9707 28.1998 32.9707 28.0998 32.9707H27.9998H27.8998C27.8998 32.9707 27.8998 32.9707 27.7998 32.9707H27.6998C27.6998 32.9707 27.6998 32.9707 27.5998 32.9707C27.5998 32.9707 27.5998 32.9707 27.4998 32.9707C27.4998 32.9707 27.3998 32.9707 27.3998 32.8813C27.3998 32.8813 27.3998 32.8813 27.2998 32.8813C27.2998 32.8813 27.1998 32.8813 27.1998 32.7919C27.1998 32.7919 27.1998 32.7919 27.0998 32.7026L26.9998 32.6132C26.9998 32.6132 26.9998 32.6132 26.8998 32.5238L26.7998 32.4344C26.7998 32.4344 26.6998 32.4344 26.6998 32.3451L26.5998 32.2557L26.4998 32.1663L26.3998 32.0769L26.2998 31.9876L26.1998 31.8982C26.0998 31.8088 26.0998 31.8088 25.9998 31.7194C25.9998 31.7194 25.9998 31.7194 25.8998 31.6301C25.7998 31.5407 25.6998 31.4513 25.5998 31.3619C25.4998 31.2726 25.3998 31.1832 25.2998 31.0938L25.1998 31.0044C24.8998 30.7363 24.3998 30.6469 23.9998 30.7363C23.5998 30.9151 23.2998 31.2726 23.2998 31.6301V41.0144H14.2998C13.6998 41.0144 13.1998 41.4613 13.1998 41.9976C13.1998 42.5338 13.6998 42.9807 14.2998 42.9807H24.3998H31.0998C31.5998 42.9807 31.9998 42.7126 32.0998 42.2657C32.0998 42.2657 33.2998 37.8863 33.8998 35.5626C33.9998 35.3838 34.3998 34.5794 37.9998 34.5794C38.5998 34.5794 39.1998 34.5794 39.6998 34.5794C40.1998 34.5794 40.5998 34.5794 40.8998 34.5794C41.6998 34.5794 42.2998 34.1326 42.5998 33.5069C43.0998 32.5238 42.7998 31.2726 42.2998 30.5576C42.1998 30.2894 42.2998 29.3957 42.4998 29.0382C43.0998 28.5913 43.1998 27.8763 43.0998 27.4294C43.0998 27.3401 43.0998 27.3401 43.0998 27.3401C43.2998 27.0719 43.4998 26.8038 43.3998 26.4463C43.3998 26.3569 43.3998 26.2676 43.3998 26.1782C43.3998 25.9101 43.3998 25.4632 43.2998 25.0163C43.4998 24.9269 43.6998 24.8376 43.7998 24.8376C44.4998 24.5694 45.3998 24.2119 45.4998 23.4076C45.7998 22.2457 45.3998 21.5307 45.2998 21.4413ZM40.5998 13.5763C40.5998 13.6657 40.5998 13.7551 40.5998 13.8444C40.5998 14.1126 40.3998 14.5594 40.1998 14.9169C39.8998 15.5426 39.3998 16.4363 39.7998 17.2407C39.8998 17.4194 40.0998 17.7769 40.6998 18.6707H38.6998C38.8998 18.0451 38.9998 17.5982 39.0998 17.4194C39.1998 17.2407 39.2998 16.9726 39.2998 16.7938C39.2998 16.1682 39.0998 15.4532 38.6998 15.0063C38.1998 14.2913 37.4998 13.8444 36.6998 13.6657C36.4998 13.6657 36.2998 13.5763 36.0998 13.5763C35.9998 13.5763 35.7998 13.5763 35.6998 13.5763C33.2998 13.8444 31.7998 14.5594 31.1998 15.6319C30.8998 16.1682 30.6998 17.1513 31.4998 18.4026C31.5998 18.4919 31.5998 18.5813 31.6998 18.6707H25.4998V8.83944V8.75006C25.4998 8.48194 25.2998 8.30319 25.0998 8.12444C25.0998 8.12444 24.9998 8.03506 24.8998 8.03506C24.8998 8.03506 24.7998 8.03506 24.7998 7.94569H24.6998H24.5998C24.5998 7.94569 24.5998 7.94569 24.4998 7.94569H24.3998H24.2998C24.1998 7.94569 23.9998 7.94569 23.7998 7.94569C22.7998 7.94569 21.6998 8.39256 20.3998 9.19694C20.2998 9.28631 20.1998 9.28631 20.0998 9.37569C19.8998 9.46506 19.7998 9.46506 19.6998 9.46506C19.4998 9.46506 18.8998 8.92881 18.5998 6.60506C18.5998 6.51569 18.5998 6.51569 18.5998 6.51569C18.5998 6.24756 18.6998 5.97944 18.8998 5.71131C19.0998 5.44319 19.4998 5.35381 19.5998 5.35381C19.6998 5.35381 19.6998 5.44319 19.7998 5.44319C20.7998 5.89006 23.0998 6.33694 24.1998 6.33694C24.2998 6.33694 24.4998 6.33694 24.5998 6.33694C25.0998 6.24756 25.4998 5.89006 25.4998 5.35381V2.04694C25.9998 2.04694 26.3998 2.04694 26.8998 2.13631C35.1998 2.76194 39.8998 6.78381 40.5998 13.5763ZM23.3998 2.04694V4.01319C22.3998 3.83444 20.9998 3.47694 20.6998 3.29819C20.3998 3.11944 20.0998 3.11944 19.7998 3.11944C18.9998 3.11944 18.0998 3.47694 17.3998 4.10256C16.7998 4.63881 16.4998 5.35381 16.4998 6.15819C16.4998 6.24756 16.4998 6.33694 16.4998 6.51569V6.60506C16.6998 7.85631 17.0998 11.0738 19.6998 11.0738C19.7998 11.0738 19.8998 11.0738 19.8998 11.0738C20.3998 10.9844 20.9998 10.8057 21.5998 10.4482C22.3998 9.91194 22.9998 9.73319 23.2998 9.64381V18.6707H18.3998C17.9998 18.6707 17.6998 18.8494 17.4998 19.1176C17.3998 19.2963 17.2998 19.4751 17.2998 19.6538C17.2998 19.7432 17.2998 19.9219 17.3998 20.0113C17.7998 20.9051 18.8998 23.4969 18.4998 24.0332C18.4998 24.1226 18.1998 24.3013 16.9998 24.3013C16.7998 24.3013 16.5998 24.3013 16.3998 24.3013C15.0998 24.2119 14.7998 23.9438 14.6998 23.8544C14.3998 23.4969 14.7998 22.4244 15.0998 21.4413C15.2998 20.9051 15.3998 20.3688 15.5998 19.8326C15.6998 19.5644 15.5998 19.2069 15.3998 19.0282C15.1998 18.7601 14.8998 18.6707 14.5998 18.6707H7.6998C7.4998 17.7769 7.3998 16.7938 7.3998 15.8107C7.3998 10.7163 11.6998 2.58319 23.3998 2.04694ZM42.9998 22.7819C42.1998 23.0501 40.9998 23.4969 41.0998 24.6588C41.1998 25.1057 41.1998 25.5526 41.1998 25.9101C41.0998 25.9994 40.9998 26.0888 40.7998 26.0888C40.4998 26.2676 40.2998 26.5357 40.2998 26.8932C40.2998 27.1613 40.3998 27.5188 40.6998 27.6976C40.3998 28.1444 40.1998 28.6807 40.1998 29.1276C40.0998 29.8426 40.0998 30.7363 40.5998 31.3619C40.6998 31.5407 40.7998 32.0769 40.6998 32.2557C40.4998 32.2557 40.1998 32.2557 39.7998 32.2557C39.2998 32.2557 38.6998 32.2557 37.9998 32.2557C36.4998 32.2557 32.3998 32.2557 31.7998 34.6688C31.3998 36.3669 30.5998 39.2269 30.1998 40.5676H25.3998V33.5963C25.4998 33.6857 25.5998 33.7751 25.7998 33.8644C25.8998 33.9538 25.9998 34.0432 26.0998 34.0432C26.1998 34.1326 26.2998 34.1326 26.3998 34.2219C26.4998 34.3113 26.5998 34.3113 26.6998 34.4007C26.7998 34.4007 26.8998 34.4901 26.9998 34.4901C27.0998 34.4901 27.1998 34.5794 27.2998 34.5794C27.3998 34.5794 27.4998 34.5794 27.5998 34.6688C27.6998 34.6688 27.7998 34.6688 27.8998 34.6688H27.9998H28.0998H28.1998H28.2998H28.3998C28.4998 34.6688 28.4998 34.6688 28.5998 34.6688H28.6998C28.7998 34.6688 28.7998 34.6688 28.8998 34.5794H28.9998C29.0998 34.5794 29.0998 34.5794 29.1998 34.4901C29.1998 34.4901 29.1998 34.4901 29.2998 34.4901L29.3998 34.4007C29.3998 34.4007 29.3998 34.4007 29.4998 34.4007L29.5998 34.3113C29.5998 34.3113 29.5998 34.3113 29.6998 34.3113L29.7998 34.2219C29.7998 34.2219 29.7998 34.2219 29.8998 34.2219L29.9998 34.1326C29.9998 34.1326 29.9998 34.1326 30.0998 34.0432L30.1998 33.9538C30.1998 33.9538 30.1998 33.9538 30.2998 33.8644L30.3998 33.7751L30.4998 33.6857L30.5998 33.5963L30.6998 33.5069C30.6998 33.5069 30.6998 33.5069 30.6998 33.4176C30.7998 33.2388 30.9998 33.1494 31.0998 32.9707L31.1998 32.7919C32.0998 31.8088 32.2998 29.6638 31.8998 28.1444C31.8998 28.0551 31.8998 28.0551 31.7998 27.9657C31.7998 27.8763 31.7998 27.8763 31.6998 27.7869C31.6998 27.6976 31.6998 27.6976 31.5998 27.6082C31.4998 27.5188 31.4998 27.3401 31.3998 27.2507V27.1613C31.3998 27.1613 31.3998 27.0719 31.2998 27.0719V26.9826C31.2998 26.9826 31.2998 26.8932 31.1998 26.8932V26.8038C31.1998 26.8038 31.1998 26.8038 31.0998 26.7144C31.0998 26.7144 31.0998 26.6251 30.9998 26.6251C30.6998 26.2676 30.2998 26.0888 29.9998 25.9994H29.8998H29.7998C29.7998 25.9994 29.7998 25.9994 29.6998 25.9994H29.5998H29.4998C29.4998 25.9994 29.4998 25.9994 29.3998 25.9994H29.2998C29.2998 25.9994 29.2998 25.9994 29.1998 25.9994H29.0998H28.9998H28.8998C28.7998 25.9994 28.7998 25.9994 28.6998 25.9994C28.5998 25.9994 28.4998 26.0888 28.2998 26.0888H28.1998C28.0998 26.0888 27.9998 26.1782 27.8998 26.1782H27.7998C27.6998 26.1782 27.6998 26.1782 27.5998 26.1782C27.4998 26.1782 27.3998 26.1782 27.3998 26.2676C27.2998 26.2676 27.2998 26.2676 27.1998 26.2676C27.0998 26.2676 27.0998 26.2676 26.9998 26.2676C26.9998 26.2676 26.9998 26.2676 26.8998 26.2676C26.7998 26.2676 26.5998 26.2676 26.4998 26.3569C26.4998 26.3569 26.4998 26.3569 26.3998 26.3569C26.1998 26.3569 25.9998 26.3569 25.7998 26.3569C25.6998 26.3569 25.6998 26.3569 25.5998 26.3569H25.4998C25.3998 26.3569 25.3998 26.3569 25.2998 26.3569C25.1998 26.3569 25.0998 26.3569 24.9998 26.3569V20.6369H32.7998H32.8998C33.3998 20.5476 33.7998 20.1901 33.7998 19.6538C33.7998 19.5644 33.7998 19.4751 33.7998 19.3857C33.7998 19.3857 33.7998 19.3857 33.7998 19.2963V19.2069V19.1176V19.0282V18.9388C33.7998 18.9388 33.7998 18.8494 33.6998 18.8494V18.7601C33.6998 18.6707 33.6998 18.6707 33.5998 18.5813V18.4919C33.5998 18.4026 33.5998 18.4026 33.4998 18.3132C33.4998 18.3132 33.4998 18.2238 33.3998 18.2238C33.3998 18.1344 33.2998 18.1344 33.2998 18.0451C33.2998 18.0451 33.2998 17.9557 33.1998 17.9557C33.1998 17.8663 33.0998 17.8663 33.0998 17.7769C33.0998 17.7769 33.0998 17.6876 32.9998 17.6876C32.9998 17.5982 32.8998 17.5088 32.8998 17.5088C32.8998 17.5088 32.8998 17.5088 32.8998 17.4194C32.7998 17.2407 32.6998 17.0619 32.5998 16.7938C32.5998 16.7044 32.5998 16.5257 32.5998 16.4363C32.6998 16.2576 33.0998 15.7213 35.4998 15.4532H35.5998H35.6998C35.7998 15.4532 35.9998 15.5426 36.2998 15.7213C36.5998 15.9894 36.6998 16.4363 36.6998 16.5257C36.3998 17.1513 35.9998 18.6707 35.8998 19.3857C35.7998 19.6538 35.8998 19.9219 36.0998 20.1901C36.2998 20.3688 36.5998 20.5476 36.8998 20.5476H41.6998C42.2998 21.2626 42.7998 21.8882 42.9998 22.1563C42.9998 22.2457 43.0998 22.3351 43.0998 22.5138C43.2998 22.6926 43.1998 22.7819 42.9998 22.7819Z" fill="#56CCF2"/>
<path d="M16.1999 32.7025C16.2999 32.4344 16.2999 32.1663 16.3999 31.8981C16.7999 30.0213 18.1999 29.7531 18.2999 29.7531L17.9999 27.8763C17.8999 27.8763 14.9999 28.2338 14.1999 31.5406C14.0999 31.8088 14.0999 32.0769 13.9999 32.4344C13.4999 35.205 12.7999 37.5288 10.7999 38.3331V29.5744C10.7999 29.0381 10.2999 28.5913 9.69989 28.5913C9.09988 28.5913 8.59988 29.0381 8.59988 29.5744V38.2438C6.59988 37.5288 5.89988 35.1156 5.39988 32.345C5.29988 32.0769 5.29988 31.7194 5.19988 31.4513C4.49989 28.1444 1.59988 27.7869 1.39988 27.7869C0.799884 27.6975 0.299885 28.055 0.199885 28.5913C0.0998847 29.1275 0.499885 29.5744 1.09989 29.6638C1.09989 29.6638 2.59988 29.8425 2.99988 31.8088C3.09988 32.0769 3.09988 32.345 3.19988 32.6131C3.69988 35.205 4.49988 39.3163 8.49988 40.21V44.9469C8.49988 45.4831 8.99988 45.93 9.59988 45.93C10.1999 45.93 10.6999 45.4831 10.6999 44.9469V40.21C14.8999 39.495 15.6999 35.2944 16.1999 32.7025Z" fill="#56CCF2"/>
</svg>
