<svg width="243" height="152" viewBox="0 0 243 152" fill="none" xmlns="http://www.w3.org/2000/svg">
<g filter="url(#filter0_d)">
<rect x="16" y="12" width="211" height="120" rx="12" fill="#56CCF2"/>
</g>
<g clip-path="url(#clip0)">
<path d="M120.775 75.7162H122.514V79.609H123.769L126.021 75.7162H127.919L125.216 80.2855V80.3158L128.081 85.3046H126.116L123.799 81.1208H122.544V85.3008H120.806V75.7162H120.775V75.7162ZM131.974 78.256C134.064 78.256 135.768 79.7677 135.768 81.8616C135.768 83.9856 134.094 85.4634 132.004 85.4634C129.914 85.4634 128.24 83.9856 128.24 81.8616C128.206 79.7375 129.88 78.256 131.974 78.256V78.256ZM137.118 78.4185H138.762V83.8231H140.916V78.4185H142.556V83.8231H144.711V78.4185H146.355V85.3008H137.182V78.4185H137.118ZM151.215 78.256C153.173 78.256 154.269 79.7035 154.269 81.5063C154.263 81.733 154.242 81.9591 154.205 82.1828H149.473C149.571 83.3733 150.504 84.0158 151.532 84.0158C152.25 83.9853 152.939 83.7257 153.498 83.2751L154.171 84.4996C153.389 85.1384 152.413 85.4905 151.404 85.4974C149.121 85.4974 147.704 83.8533 147.704 81.8918C147.704 79.7375 149.151 78.256 151.211 78.256H151.215ZM155.07 83.8533C155.909 83.7248 156.521 83.0218 156.521 80.5728V78.4185H161.54V85.3008H159.832V79.8055H158.162V80.5765C158.162 83.5661 157.357 85.3046 155.07 85.3689V83.8571V83.8533ZM166.431 78.2597C168.393 78.2597 169.485 79.7035 169.485 81.5101C169.479 81.7355 169.458 81.9604 169.421 82.1828H164.692C164.787 83.3733 165.72 84.0158 166.752 84.0158C167.468 83.9845 168.156 83.7249 168.714 83.2751L169.39 84.4996C168.609 85.1384 167.633 85.4905 166.624 85.4974C164.337 85.4974 162.92 83.8533 162.92 81.8918C162.92 79.7375 164.371 78.256 166.431 78.256V78.2597ZM170.902 78.4185H172.607V81.0565H173.442L175.116 78.4185H177.013L174.825 81.699V81.7331L177.27 85.3008H175.279L173.476 82.5041H172.576V85.3008H170.868V78.4185H170.902V78.4185ZM131.974 83.9856C133.1 83.9856 134.03 83.1163 134.03 81.8313C134.041 81.5533 133.995 81.276 133.897 81.0158C133.798 80.7557 133.648 80.5179 133.456 80.3167C133.264 80.1154 133.034 79.9548 132.778 79.8442C132.523 79.7337 132.248 79.6756 131.97 79.6733C130.848 79.6733 129.944 80.5425 129.944 81.8275C129.944 83.1126 130.844 83.9818 131.974 83.9818V83.9856ZM152.534 80.9923C152.534 80.0928 151.918 79.5448 151.147 79.5448C150.278 79.5448 149.635 80.123 149.473 80.9923H152.534ZM167.75 80.9923C167.75 80.0928 167.138 79.5448 166.367 79.5448C165.498 79.5448 164.855 80.123 164.692 80.9923H167.75Z" fill="white"/>
<path d="M144.809 54.8348V71.0826C144.811 71.1421 144.8 71.2013 144.778 71.2566C144.756 71.3118 144.723 71.362 144.681 71.4041C144.639 71.4462 144.589 71.4793 144.533 71.5013C144.478 71.5234 144.419 71.5339 144.36 71.5324H141.045C140.985 71.5339 140.926 71.5234 140.871 71.5013C140.816 71.4793 140.766 71.4462 140.723 71.4041C140.681 71.362 140.648 71.3118 140.626 71.2566C140.604 71.2013 140.594 71.1421 140.595 71.0826V54.8348C140.594 54.775 140.604 54.7155 140.627 54.66C140.649 54.6044 140.682 54.554 140.725 54.5119C140.767 54.4698 140.818 54.4368 140.874 54.415C140.929 54.3932 140.989 54.383 141.049 54.3851H144.36C144.419 54.383 144.479 54.3932 144.535 54.415C144.59 54.4368 144.641 54.4698 144.684 54.5119C144.726 54.554 144.759 54.6044 144.782 54.66C144.804 54.7155 144.815 54.775 144.813 54.8348H144.809ZM170.676 54.3851C170.804 54.3851 170.967 54.4493 171.129 54.5778C171.224 54.6723 171.224 54.8348 171.194 54.9633L165.721 71.2451C165.688 71.3286 165.63 71.4003 165.556 71.4514C165.482 71.5025 165.395 71.5307 165.305 71.5324H162.346C162.149 71.5324 161.991 71.4379 161.926 71.2451L158.74 61.7512L155.554 71.2414C155.521 71.3255 155.464 71.398 155.39 71.4498C155.316 71.5016 155.229 71.5303 155.138 71.5324H152.172C151.983 71.5324 151.82 71.4379 151.756 71.2414L146.283 54.9633C146.253 54.8348 146.253 54.7063 146.348 54.5778C146.416 54.4493 146.574 54.3851 146.703 54.3851H150.403C150.596 54.3851 150.758 54.5136 150.819 54.7063L153.748 64.325L156.968 54.7063C157.001 54.6222 157.058 54.5496 157.132 54.4978C157.206 54.4461 157.293 54.4173 157.383 54.4153H159.991C160.18 54.4153 160.343 54.5136 160.407 54.7063L163.627 64.325L166.556 54.7063C166.582 54.6154 166.636 54.5351 166.711 54.4772C166.786 54.4194 166.877 54.3871 166.972 54.3851H170.676V54.3851ZM176.273 54.3851C176.5 54.3851 176.693 54.5778 176.727 54.8348V71.0826C176.728 71.1424 176.718 71.2019 176.695 71.2575C176.673 71.313 176.64 71.3634 176.597 71.4055C176.555 71.4477 176.504 71.4807 176.448 71.5025C176.393 71.5243 176.333 71.5345 176.273 71.5324H172.962C172.903 71.5345 172.843 71.5243 172.787 71.5025C172.732 71.4807 172.681 71.4477 172.638 71.4055C172.596 71.3634 172.562 71.313 172.54 71.2575C172.518 71.2019 172.507 71.1424 172.509 71.0826V54.8348C172.507 54.775 172.518 54.7155 172.54 54.66C172.562 54.6044 172.596 54.554 172.638 54.5119C172.681 54.4698 172.732 54.4368 172.787 54.415C172.843 54.3932 172.903 54.383 172.962 54.3851H176.273ZM138.668 70.9541C138.857 71.1809 138.698 71.5021 138.407 71.5021H134.352C134.272 71.5036 134.193 71.4867 134.121 71.4526C134.049 71.4185 133.985 71.3682 133.936 71.3056L133.259 70.4741C131.81 71.4069 130.126 71.9077 128.403 71.9179C126.067 71.8501 123.85 70.8747 122.222 69.1987C120.594 67.5228 119.683 65.2782 119.683 62.9417C119.683 60.6052 120.594 58.3607 122.222 56.6847C123.85 55.0087 126.067 54.0333 128.403 53.9655C130.015 53.965 131.598 54.3987 132.985 55.2211C134.373 56.0435 135.513 57.2243 136.286 58.6394C137.059 60.0545 137.437 61.6517 137.38 63.2633C137.323 64.8749 136.833 66.4414 135.962 67.7983L138.664 70.9541H138.668ZM104.785 78.838C105.624 79.1593 105.945 80.4141 106.01 80.9583C106.138 81.9561 105.847 82.3416 105.526 82.3416C105.205 82.3416 104.755 81.9561 104.271 81.1851C103.787 80.4141 103.594 79.5448 103.855 79.095C104.014 78.804 104.369 78.6755 104.785 78.838ZM99.8944 82.4739C100.412 82.4739 100.99 82.7006 101.504 83.1466C102.502 83.9856 102.789 84.9494 102.275 85.6561C102.112 85.8436 101.908 85.9926 101.681 86.0925C101.453 86.1925 101.205 86.2409 100.956 86.2344C100.403 86.2412 99.8665 86.0479 99.4447 85.6902C98.5452 84.9154 98.2882 83.6304 98.8664 82.9236C98.9903 82.7729 99.1479 82.6533 99.3264 82.5745C99.505 82.4958 99.6995 82.46 99.8944 82.4701V82.4739ZM88.6355 91.7713C84.2584 91.7705 79.9799 90.472 76.3408 88.0397C72.7017 85.6075 69.8655 82.1509 68.1909 78.1068C66.5162 74.0628 66.0782 69.613 66.9323 65.3201C67.7864 61.0272 69.8942 57.084 72.9893 53.9889C76.0843 50.8939 80.0276 48.786 84.3205 47.9319C88.6134 47.0778 93.0632 47.5158 97.1072 49.1905C101.151 50.8652 104.608 53.7013 107.04 57.3404C109.472 60.9795 110.771 65.258 110.772 69.6351C110.769 73.6324 109.691 77.5553 107.65 80.9923C107.586 81.0868 107.423 81.0566 107.393 80.9281C106.622 75.4895 103.307 72.4999 98.4809 71.5966C98.0652 71.5324 97.9971 71.2754 98.5452 71.2111C100.023 71.0826 102.117 71.1129 103.209 71.3056C103.448 69.2533 103.25 67.1737 102.628 65.2032C102.006 63.2328 100.975 61.4162 99.6015 59.8725C98.2281 58.3289 96.5438 57.0932 94.6591 56.2464C92.7743 55.3997 90.7319 54.9611 88.6657 54.9595C84.7841 54.9635 81.0627 56.5075 78.3183 59.2526C75.574 61.9977 74.0309 65.7195 74.0279 69.6011C74.0309 73.4833 75.5745 77.2057 78.3197 79.9509C81.0648 82.6961 84.7872 84.2396 88.6695 84.2426H89.3422C89.1139 82.9366 89.0176 81.6109 89.055 80.2856C89.0928 79.3823 89.2818 79.2538 89.6673 79.9605C91.6968 83.4678 94.5919 86.6237 100.253 87.8785C104.887 88.9065 109.521 90.097 114.506 96.4351C114.959 96.9831 114.279 97.5614 113.765 97.1116C108.682 92.6065 104.052 91.125 99.8339 91.125C95.1059 91.159 91.8896 91.7675 88.6392 91.7675L88.6355 91.7713ZM130.621 67.3523L128.852 65.198C128.66 64.9713 128.818 64.616 129.109 64.616H132.84C133.033 64.102 133.131 63.52 133.131 62.9417C133.131 60.2734 131.135 57.9529 128.403 57.9529C125.666 57.9529 123.671 60.2734 123.671 62.9417C123.671 65.6138 125.666 67.8966 128.403 67.8966C129.174 67.9306 129.945 67.7076 130.621 67.3523Z" fill="white"/>
</g>
<defs>
<filter id="filter0_d" x="0" y="0" width="243" height="152" filterUnits="userSpaceOnUse" color-interpolation-filters="sRGB">
<feFlood flood-opacity="0" result="BackgroundImageFix"/>
<feColorMatrix in="SourceAlpha" type="matrix" values="0 0 0 0 0 0 0 0 0 0 0 0 0 0 0 0 0 0 127 0"/>
<feOffset dy="4"/>
<feGaussianBlur stdDeviation="8"/>
<feColorMatrix type="matrix" values="0 0 0 0 0 0 0 0 0 0 0 0 0 0 0 0 0 0 0.1 0"/>
<feBlend mode="normal" in2="BackgroundImageFix" result="effect1_dropShadow"/>
<feBlend mode="normal" in="SourceGraphic" in2="effect1_dropShadow" result="shape"/>
</filter>
<clipPath id="clip0">
<rect width="111.774" height="50.773" fill="white" transform="translate(66 47)"/>
</clipPath>
</defs>
</svg>
