<svg width="76" height="34" viewBox="0 0 76 34" fill="none" xmlns="http://www.w3.org/2000/svg">
<g clip-path="url(#clip0)">
<path d="M37.4954 19.2297H38.6596V21.8366H39.4998L41.0082 19.2297H42.2787L40.4692 22.2896V22.3098L42.3876 25.6506H41.0715L39.5201 22.8489H38.6798V25.6481H37.5156V19.2297H37.4954ZM44.9944 20.9305C46.394 20.9305 47.5354 21.9429 47.5354 23.345C47.5354 24.7673 46.4142 25.7569 45.0146 25.7569C43.6151 25.7569 42.4939 24.7673 42.4939 23.345C42.4711 21.9226 43.5923 20.9305 44.9944 20.9305ZM48.4389 21.0393H49.5399V24.6585H50.9825V21.0393H52.0809V24.6585H53.5235V21.0393H54.6244V25.6481H48.482V21.0393H48.4389ZM57.8792 20.9305C59.1902 20.9305 59.9241 21.8998 59.9241 23.1071C59.9205 23.2589 59.9061 23.4103 59.8811 23.5601H56.7124C56.7782 24.3573 57.4034 24.7876 58.0918 24.7876C58.5722 24.7671 59.0334 24.5933 59.4078 24.2915L59.8583 25.1115C59.3352 25.5393 58.6814 25.7751 58.0057 25.7797C56.477 25.7797 55.528 24.6787 55.528 23.3652C55.528 21.9226 56.4973 20.9305 57.8766 20.9305H57.8792ZM60.4607 24.6787C61.0225 24.5927 61.4325 24.122 61.4325 22.4819V21.0393H64.7936V25.6481H63.6496V21.9682H62.5309V22.4845C62.5309 24.4864 61.9919 25.6506 60.4607 25.6936V24.6813V24.6787ZM68.0685 20.933C69.3821 20.933 70.1135 21.8998 70.1135 23.1096C70.1098 23.2606 70.0954 23.4111 70.0705 23.5601H66.9043C66.9676 24.3573 67.5927 24.7876 68.2837 24.7876C68.7632 24.7666 69.2235 24.5928 69.5972 24.2915L70.0502 25.1115C69.5271 25.5393 68.8733 25.7751 68.1976 25.7797C66.6664 25.7797 65.7173 24.6787 65.7173 23.3652C65.7173 21.9226 66.6892 20.9305 68.0685 20.9305V20.933ZM71.0626 21.0393H72.204V22.8059H72.7633L73.8845 21.0393H75.155L73.6896 23.2361V23.2589L75.3271 25.6481H73.9933L72.7861 23.7752H72.1838V25.6481H71.0398V21.0393H71.0626ZM44.9944 24.7673C45.7486 24.7673 46.3712 24.1852 46.3712 23.3247C46.3783 23.1386 46.348 22.9529 46.282 22.7786C46.2161 22.6044 46.1158 22.4452 45.9872 22.3104C45.8585 22.1757 45.7042 22.0681 45.5332 21.9941C45.3622 21.9201 45.1782 21.8811 44.9919 21.8796C44.2402 21.8796 43.6353 22.4617 43.6353 23.3222C43.6353 24.1827 44.2377 24.7648 44.9944 24.7648V24.7673ZM58.7624 22.7629C58.7624 22.1605 58.3499 21.7935 57.8336 21.7935C57.2515 21.7935 56.8212 22.1808 56.7124 22.7629H58.7624ZM68.9518 22.7629C68.9518 22.1605 68.5418 21.7935 68.0255 21.7935C67.4434 21.7935 67.0131 22.1808 66.9043 22.7629H68.9518Z" fill="#2D3540"/>
<path d="M53.5893 5.24652V16.1268C53.5903 16.1667 53.5833 16.2063 53.5685 16.2433C53.5537 16.2803 53.5316 16.3139 53.5034 16.3421C53.4752 16.3703 53.4416 16.3924 53.4046 16.4072C53.3676 16.422 53.328 16.429 53.2881 16.428H51.0685C51.0287 16.429 50.9891 16.422 50.9521 16.4072C50.915 16.3924 50.8814 16.3703 50.8532 16.3421C50.8251 16.3139 50.8029 16.2803 50.7882 16.2433C50.7734 16.2063 50.7663 16.1667 50.7674 16.1268V5.24652C50.7663 5.20646 50.7735 5.16661 50.7884 5.12943C50.8033 5.09224 50.8257 5.0585 50.8541 5.03028C50.8826 5.00207 50.9165 4.97998 50.9538 4.96537C50.9911 4.95076 51.031 4.94395 51.0711 4.94534H53.2881C53.3282 4.94395 53.3681 4.95076 53.4054 4.96537C53.4427 4.97998 53.4766 5.00207 53.5051 5.03028C53.5335 5.0585 53.5559 5.09224 53.5708 5.12943C53.5857 5.16661 53.5929 5.20646 53.5918 5.24652H53.5893ZM70.9107 4.94534C70.9968 4.94534 71.1056 4.98837 71.2144 5.07442C71.2777 5.13769 71.2777 5.24652 71.2575 5.33257L67.5927 16.2357C67.5704 16.2915 67.532 16.3396 67.4825 16.3738C67.433 16.408 67.3745 16.4268 67.3143 16.428H65.3326C65.201 16.428 65.0947 16.3647 65.0517 16.2357L62.9182 9.87805L60.7846 16.2331C60.7626 16.2895 60.7245 16.338 60.6749 16.3727C60.6254 16.4074 60.5667 16.4266 60.5062 16.428H58.5195C58.3929 16.428 58.2841 16.3647 58.2411 16.2331L54.5764 5.33257C54.5561 5.24652 54.5561 5.16047 54.6194 5.07442C54.6649 4.98837 54.7712 4.94534 54.8573 4.94534H57.335C57.4641 4.94534 57.5729 5.03139 57.6134 5.16047L59.5749 11.6016L61.7312 5.16047C61.7532 5.10412 61.7913 5.05555 61.8409 5.02087C61.8904 4.98619 61.9491 4.96695 62.0096 4.96559H63.7559C63.8824 4.96559 63.9913 5.03139 64.0343 5.16047L66.1906 11.6016L68.1521 5.16047C68.1694 5.09955 68.2057 5.04579 68.2558 5.00707C68.3059 4.96836 68.3671 4.94672 68.4304 4.94534H70.9107ZM74.659 4.94534C74.8108 4.94534 74.9399 5.07442 74.9627 5.24652V16.1268C74.9637 16.1669 74.9566 16.2067 74.9417 16.2439C74.9267 16.2811 74.9044 16.3148 74.8759 16.3431C74.8475 16.3713 74.8135 16.3934 74.7762 16.408C74.7389 16.4226 74.699 16.4294 74.659 16.428H72.4419C72.4019 16.4294 72.362 16.4226 72.3246 16.408C72.2873 16.3934 72.2534 16.3713 72.225 16.3431C72.1965 16.3148 72.1741 16.2811 72.1592 16.2439C72.1443 16.2067 72.1371 16.1669 72.1382 16.1268V5.24652C72.1371 5.20646 72.1443 5.16661 72.1592 5.12943C72.1741 5.09224 72.1965 5.0585 72.225 5.03028C72.2534 5.00207 72.2873 4.97998 72.3246 4.96537C72.362 4.95076 72.4019 4.94395 72.4419 4.94534H74.659ZM49.4766 16.0408C49.6031 16.1926 49.4969 16.4077 49.302 16.4077H46.5863C46.5329 16.4087 46.48 16.3974 46.4317 16.3745C46.3834 16.3517 46.3411 16.318 46.3079 16.2761L45.8549 15.7193C44.8847 16.344 43.7566 16.6793 42.6027 16.6861C41.0387 16.6408 39.554 15.9876 38.4638 14.8653C37.3736 13.743 36.7638 12.2399 36.7638 10.6753C36.7638 9.11063 37.3736 7.6076 38.4638 6.4853C39.554 5.36299 41.0387 4.7098 42.6027 4.66441C43.6826 4.66404 44.7426 4.95447 45.6715 5.50519C46.6004 6.05592 47.3639 6.84662 47.8817 7.79424C48.3995 8.74187 48.6526 9.81145 48.6144 10.8907C48.5762 11.9699 48.2481 13.0189 47.6645 13.9275L49.4741 16.0408H49.4766ZM26.7872 21.3202C27.349 21.5353 27.5641 22.3756 27.6072 22.74C27.6932 23.4082 27.4983 23.6663 27.2832 23.6663C27.0681 23.6663 26.7669 23.4082 26.443 22.8919C26.119 22.3756 25.9899 21.7935 26.1646 21.4923C26.2709 21.2974 26.5088 21.2114 26.7872 21.3202ZM23.5122 23.7549C23.8589 23.7549 24.2462 23.9068 24.5904 24.2054C25.2585 24.7673 25.4509 25.4127 25.1067 25.8859C24.9969 26.0114 24.8609 26.1112 24.7082 26.1781C24.5556 26.2451 24.39 26.2775 24.2234 26.2732C23.853 26.2777 23.4935 26.1483 23.211 25.9087C22.6087 25.3899 22.4366 24.5294 22.8238 24.0561C22.9068 23.9552 23.0123 23.8751 23.1319 23.8223C23.2514 23.7696 23.3817 23.7456 23.5122 23.7524V23.7549ZM15.9727 29.9809C13.0416 29.9804 10.1765 29.1108 7.73957 27.4821C5.30268 25.8534 3.40344 23.5386 2.28199 20.8306C1.16055 18.1225 0.867258 15.1427 1.43921 12.268C2.01115 9.39325 3.42266 6.75265 5.49524 4.68006C7.56783 2.60747 10.2084 1.19597 13.0832 0.624021C15.9579 0.0520724 18.9377 0.345363 21.6457 1.46681C24.3538 2.58825 26.6685 4.48749 28.2973 6.92439C29.926 9.36129 30.7956 12.2264 30.7961 15.1575C30.7944 17.8343 30.0723 20.4612 28.7056 22.7628C28.6626 22.8261 28.5537 22.8058 28.5335 22.7198C28.0172 19.0778 25.7976 17.0759 22.5656 16.471C22.2872 16.428 22.2417 16.2559 22.6087 16.2129C23.5982 16.1268 25.0004 16.1471 25.7318 16.2761C25.8917 14.9018 25.7591 13.5092 25.3427 12.1897C24.9264 10.8702 24.2357 9.65372 23.316 8.62002C22.3963 7.58632 21.2684 6.75881 20.0063 6.19181C18.7443 5.6248 17.3765 5.33112 15.9929 5.33004C13.3936 5.33272 10.9016 6.36665 9.06382 8.20487C7.22607 10.0431 6.19279 12.5354 6.19078 15.1347C6.19279 17.7345 7.22642 20.2271 9.06472 22.0654C10.903 23.9037 13.3957 24.9374 15.9954 24.9394H16.4459C16.293 24.0648 16.2286 23.177 16.2536 22.2895C16.2789 21.6847 16.4055 21.5986 16.6636 22.0719C18.0227 24.4206 19.9614 26.5338 23.7526 27.3741C26.8555 28.0625 29.9584 28.8597 33.2966 33.104C33.6003 33.471 33.1448 33.8582 32.8006 33.5571C29.3965 30.5402 26.2962 29.5481 23.4717 29.5481C20.3056 29.5709 18.1518 29.9784 15.9752 29.9784L15.9727 29.9809ZM44.0883 13.6288L42.9039 12.1862C42.7748 12.0344 42.8811 11.7965 43.076 11.7965H45.574C45.703 11.4523 45.7688 11.0625 45.7688 10.6753C45.7688 8.88847 44.4325 7.3345 42.6027 7.3345C40.7703 7.3345 39.434 8.88847 39.434 10.6753C39.434 12.4646 40.7703 13.9933 42.6027 13.9933C43.119 14.0161 43.6353 13.8667 44.0883 13.6288Z" fill="#FF8C00"/>
</g>
<defs>
<clipPath id="clip0">
<rect width="74.8491" height="34" fill="white" transform="translate(0.814941)"/>
</clipPath>
</defs>
</svg>
