<svg width="227" height="131" viewBox="0 0 227 131" fill="none" xmlns="http://www.w3.org/2000/svg">
<g clip-path="url(#clip0)">
<path d="M106.179 12.3272L105.422 17.3027L223.289 35.1922L224.046 30.2167L106.179 12.3272Z" fill="#F5F5F5"/>
<path d="M104.146 10.3233L89.8301 104.427L212.678 123.073L226.994 28.9689L104.146 10.3233Z" fill="url(#paint0_linear)"/>
<path d="M105.419 17.3017L92.3652 103.114L210.232 121.004L223.286 35.1913L105.419 17.3017Z" fill="#F5F5F5"/>
<path d="M109.896 15.4363C109.998 14.7645 109.536 14.1372 108.863 14.0351C108.191 13.933 107.563 14.3948 107.46 15.0666C107.358 15.7384 107.821 16.3657 108.493 16.4678C109.166 16.5699 109.794 16.108 109.896 15.4363Z" fill="#FF5252"/>
<path d="M113.244 15.9431C113.346 15.2713 112.883 14.644 112.211 14.5419C111.538 14.4399 110.91 14.9017 110.808 15.5735C110.706 16.2452 111.168 16.8725 111.841 16.9746C112.513 17.0767 113.141 16.6149 113.244 15.9431Z" fill="#FFFF00"/>
<path d="M116.593 16.4524C116.695 15.7806 116.233 15.1533 115.56 15.0512C114.888 14.9491 114.26 15.411 114.158 16.0827C114.055 16.7545 114.518 17.3818 115.19 17.4839C115.863 17.586 116.491 17.1241 116.593 16.4524Z" fill="#69F0AE"/>
<path d="M109.234 25.7281L104.504 56.8201L210.337 72.883L215.066 41.7911L109.234 25.7281Z" fill="url(#paint1_linear)"/>
<path d="M213.847 42.8771L110.297 27.1606L105.914 55.9725L209.464 71.689L213.847 42.8771Z" fill="#56CCF2"/>
<path d="M120.729 71.5792L119.814 77.5908L126.87 78.6617L127.785 72.6501L120.729 71.5792Z" fill="url(#paint2_linear)"/>
<path d="M127.626 73.0498L120.986 72.042L120.229 77.0175L126.869 78.0253L127.626 73.0498Z" fill="#56CCF2"/>
<path d="M126.329 81.5483L119.689 80.5405L118.933 85.516L125.572 86.5238L126.329 81.5483Z" fill="#FF5252"/>
<path d="M125.038 90.0473L118.398 89.0396L117.642 94.0151L124.281 95.0229L125.038 90.0473Z" fill="#FF9800"/>
<path opacity="0.4" d="M192.003 83.8812L138.465 75.7554L138.024 78.6561L191.561 86.7819L192.003 83.8812Z" fill="#56CCF2"/>
<path opacity="0.4" d="M190.71 92.3799L137.172 84.2542L136.731 87.1548L190.268 95.2806L190.71 92.3799Z" fill="#56CCF2"/>
<path opacity="0.4" d="M189.417 100.879L135.879 92.7532L135.438 95.6539L188.975 103.78L189.417 100.879Z" fill="#56CCF2"/>
<path d="M126.635 2.24253L2.75977 29.9004L3.84116 34.7328L127.716 7.0749L126.635 2.24253Z" fill="#F5F5F5"/>
<path d="M129.107 -0.00142613L-0.00195312 28.825L20.4538 120.235L149.563 91.4083L129.107 -0.00142613Z" fill="url(#paint3_linear)"/>
<path d="M127.715 7.07774L3.83984 34.7356L22.4933 118.091L146.369 90.4335L127.715 7.07774Z" fill="#F5F5F5"/>
<path d="M6.58851 32.8217C7.29472 32.664 7.74891 32.0075 7.60296 31.3553C7.45701 30.7031 6.76619 30.3022 6.05997 30.4599C5.35375 30.6175 4.89957 31.2741 5.04552 31.9263C5.19147 32.5785 5.88229 32.9794 6.58851 32.8217Z" fill="#FF5252"/>
<path d="M10.108 32.038C10.8143 31.8803 11.2684 31.2238 11.1225 30.5716C10.9765 29.9194 10.2857 29.5185 9.5795 29.6762C8.87328 29.8338 8.4191 30.4904 8.56505 31.1426C8.711 31.7948 9.40182 32.1957 10.108 32.038Z" fill="#FFFF00"/>
<path d="M13.6256 31.2526C14.3318 31.0949 14.786 30.4384 14.6401 29.7862C14.4941 29.134 13.8033 28.7331 13.0971 28.8908C12.3909 29.0484 11.9367 29.705 12.0826 30.3572C12.2286 31.0094 12.9194 31.4103 13.6256 31.2526Z" fill="#69F0AE"/>
<path d="M121.967 16.1824L10.7402 41.0161L17.4989 71.2184L128.726 46.3846L121.967 16.1824Z" fill="url(#paint4_linear)"/>
<path d="M121.148 17.6328L12.3203 41.9309L18.5831 69.9171L127.411 45.619L121.148 17.6328Z" fill="#56CCF2"/>
<path d="M46.505 77.0019L39.0898 78.6575L40.3962 84.4953L47.8114 82.8397L46.505 77.0019Z" fill="url(#paint5_linear)"/>
<path d="M47.0696 77.7853L40.0605 79.3569L41.1511 84.2095L48.1602 82.6379L47.0696 77.7853Z" fill="#56CCF2"/>
<path d="M48.3333 85.6838L41.3535 87.2422L42.4349 92.0745L49.4147 90.5162L48.3333 85.6838Z" fill="#FF5252"/>
<path d="M50.8117 94.3561L43.8027 95.9277L44.8933 100.78L51.9023 99.2087L50.8117 94.3561Z" fill="#FF9800"/>
<path opacity="0.4" d="M114.534 63.2911L58.2676 75.8538L58.8984 78.6726L115.165 66.11L114.534 63.2911Z" fill="#56CCF2"/>
<path opacity="0.4" d="M116.381 71.5475L60.1152 84.1101L60.746 86.929L117.012 74.3663L116.381 71.5475Z" fill="#56CCF2"/>
<path opacity="0.4" d="M118.229 79.8011L61.9629 92.3638L62.5937 95.1827L118.86 82.62L118.229 79.8011Z" fill="#56CCF2"/>
<path d="M187.055 4.67822H43.1016V10.7538H187.055V4.67822Z" fill="#F5F5F5"/>
<path d="M190.35 2.65308H40.3145V117.583H190.35V2.65308Z" fill="url(#paint6_linear)"/>
<path d="M187.055 10.7539H43.1016V115.558H187.055V10.7539Z" fill="white"/>
<path d="M46.6166 9.20196C47.4382 9.20196 48.1043 8.53666 48.1043 7.71597C48.1043 6.89528 47.4382 6.22998 46.6166 6.22998C45.795 6.22998 45.1289 6.89528 45.1289 7.71597C45.1289 8.53666 45.795 9.20196 46.6166 9.20196Z" fill="#FF5252"/>
<path d="M50.7064 9.20196C51.5281 9.20196 52.1941 8.53666 52.1941 7.71597C52.1941 6.89528 51.5281 6.22998 50.7064 6.22998C49.8848 6.22998 49.2188 6.89528 49.2188 7.71597C49.2188 8.53666 49.8848 9.20196 50.7064 9.20196Z" fill="#FFFF00"/>
<path d="M54.7943 9.20196C55.616 9.20196 56.282 8.53666 56.282 7.71597C56.282 6.89528 55.616 6.22998 54.7943 6.22998C53.9727 6.22998 53.3066 6.89528 53.3066 7.71597C53.3066 8.53666 53.9727 9.20196 54.7943 9.20196Z" fill="#69F0AE"/>
<path d="M178.437 20.1204H49.1836V58.0928H178.437V20.1204Z" fill="url(#paint7_linear)"/>
<path d="M177.171 21.6392H50.7051V56.827H177.171V21.6392Z" fill="#56CCF2"/>
<path d="M79.8513 72.7756H71.2344V80.117H79.8513V72.7756Z" fill="url(#paint8_linear)"/>
<path d="M79.7233 73.2817H71.6133V79.3573H79.7233V73.2817Z" fill="#56CCF2"/>
<path d="M79.7233 83.6609H71.6133V89.7365H79.7233V83.6609Z" fill="#FF5252"/>
<path d="M79.7233 94.0403H71.6133V100.116H79.7233V94.0403Z" fill="#FF9800"/>
<path opacity="0.4" d="M158.543 74.5476H93.1562V78.0917H158.543V74.5476Z" fill="#56CCF2"/>
<path opacity="0.4" d="M158.543 84.9268H93.1562V88.4708H158.543V84.9268Z" fill="#56CCF2"/>
<path opacity="0.4" d="M158.543 95.3059H93.1562V98.85H158.543V95.3059Z" fill="#56CCF2"/>
<path d="M139.409 92.2681H92.2695V131H139.409V92.2681Z" fill="url(#paint9_linear)"/>
<path d="M103.148 86.1089C103.148 82.6119 104.538 79.2582 107.014 76.7854C109.489 74.3127 112.847 72.9236 116.348 72.9236C119.849 72.9236 123.206 74.3127 125.682 76.7854C128.158 79.2582 129.548 82.6119 129.548 86.1089V94.5463H133.243V86.1089C133.271 83.8752 132.854 81.6584 132.017 79.5869C131.18 77.5154 129.94 75.6304 128.369 74.0413C126.797 72.4521 124.925 71.1904 122.862 70.3292C120.798 69.4681 118.584 69.0247 116.348 69.0247C114.112 69.0247 111.898 69.4681 109.834 70.3292C107.771 71.1904 105.899 72.4521 104.327 74.0413C102.756 75.6304 101.515 77.5154 100.679 79.5869C99.8418 81.6584 99.4251 83.8752 99.4524 86.1089V94.5463H103.148V86.1089Z" fill="url(#paint10_linear)"/>
<path d="M103.675 85.9394C103.675 82.5824 105.01 79.3629 107.387 76.9892C109.763 74.6154 112.986 73.2819 116.347 73.2819C119.708 73.2819 122.931 74.6154 125.307 76.9892C127.684 79.3629 129.019 82.5824 129.019 85.9394V94.0402H132.567V85.9394C132.567 81.6425 130.858 77.5215 127.816 74.4831C124.775 71.4447 120.649 69.7378 116.347 69.7378C112.045 69.7378 107.92 71.4447 104.878 74.4831C101.836 77.5215 100.127 81.6425 100.127 85.9394V94.0402H103.675V85.9394Z" fill="white"/>
<path d="M138.395 93.5339H94.2969V129.481H138.395V93.5339Z" fill="#56CCF2"/>
<path d="M138.395 93.5339H94.2969V129.481H138.395V93.5339Z" fill="white"/>
<path d="M138.395 100.622H94.2969V122.393H138.395V100.622Z" fill="#56CCF2"/>
<path d="M119.583 107.396C119.585 106.868 119.458 106.347 119.212 105.879C118.966 105.411 118.609 105.01 118.172 104.713C117.734 104.415 117.231 104.229 116.705 104.17C116.179 104.112 115.647 104.184 115.155 104.379C114.663 104.574 114.227 104.887 113.885 105.29C113.542 105.692 113.304 106.173 113.19 106.689C113.077 107.206 113.092 107.742 113.235 108.251C113.377 108.76 113.642 109.226 114.007 109.609V116.499C114.007 117.123 114.255 117.72 114.696 118.161C115.137 118.601 115.735 118.849 116.359 118.849C116.983 118.849 117.581 118.601 118.022 118.161C118.463 117.72 118.711 117.123 118.711 116.499V109.609C119.274 109.01 119.586 108.218 119.583 107.396Z" fill="url(#paint11_linear)"/>
<path opacity="0.2" d="M119.134 107.963C119.135 107.509 119.024 107.061 118.812 106.659C118.599 106.256 118.291 105.912 117.915 105.656C117.539 105.401 117.105 105.241 116.653 105.191C116.2 105.141 115.743 105.202 115.319 105.37C114.896 105.537 114.52 105.806 114.225 106.152C113.93 106.498 113.724 106.911 113.625 107.355C113.526 107.799 113.538 108.26 113.659 108.698C113.78 109.137 114.006 109.539 114.319 109.87V115.811C114.319 116.348 114.533 116.863 114.913 117.243C115.293 117.623 115.809 117.836 116.346 117.836C116.884 117.836 117.4 117.623 117.78 117.243C118.16 116.863 118.374 116.348 118.374 115.811V109.87C118.861 109.354 119.133 108.672 119.134 107.963Z" fill="black"/>
</g>
<defs>
<linearGradient id="paint0_linear" x1="151.256" y1="113.75" x2="165.539" y2="19.6414" gradientUnits="userSpaceOnUse">
<stop stop-color="#808080" stop-opacity="0.25"/>
<stop offset="0.54" stop-color="#808080" stop-opacity="0.12"/>
<stop offset="1" stop-color="#808080" stop-opacity="0.1"/>
</linearGradient>
<linearGradient id="paint1_linear" x1="17442.1" y1="50870.1" x2="19435.4" y2="37736.8" gradientUnits="userSpaceOnUse">
<stop stop-color="#808080" stop-opacity="0.25"/>
<stop offset="0.54" stop-color="#808080" stop-opacity="0.12"/>
<stop offset="1" stop-color="#808080" stop-opacity="0.1"/>
</linearGradient>
<linearGradient id="paint2_linear" x1="3539.12" y1="4321.64" x2="3564.82" y2="4152.34" gradientUnits="userSpaceOnUse">
<stop stop-color="#808080" stop-opacity="0.25"/>
<stop offset="0.54" stop-color="#808080" stop-opacity="0.12"/>
<stop offset="1" stop-color="#808080" stop-opacity="0.1"/>
</linearGradient>
<linearGradient id="paint3_linear" x1="68373.7" y1="42853.2" x2="60821.4" y2="9027.97" gradientUnits="userSpaceOnUse">
<stop stop-color="#808080" stop-opacity="0.25"/>
<stop offset="0.54" stop-color="#808080" stop-opacity="0.12"/>
<stop offset="1" stop-color="#808080" stop-opacity="0.1"/>
</linearGradient>
<linearGradient id="paint4_linear" x1="50452.3" y1="1901.06" x2="49627.8" y2="-1791.57" gradientUnits="userSpaceOnUse">
<stop stop-color="#808080" stop-opacity="0.25"/>
<stop offset="0.54" stop-color="#808080" stop-opacity="0.12"/>
<stop offset="1" stop-color="#808080" stop-opacity="0.1"/>
</linearGradient>
<linearGradient id="paint5_linear" x1="2870.37" y1="2426.67" x2="2839.56" y2="2288.7" gradientUnits="userSpaceOnUse">
<stop stop-color="#808080" stop-opacity="0.25"/>
<stop offset="0.54" stop-color="#808080" stop-opacity="0.12"/>
<stop offset="1" stop-color="#808080" stop-opacity="0.1"/>
</linearGradient>
<linearGradient id="paint6_linear" x1="68317.1" y1="53385.4" x2="68317.1" y2="1207.12" gradientUnits="userSpaceOnUse">
<stop stop-color="#808080" stop-opacity="0.25"/>
<stop offset="0.54" stop-color="#808080" stop-opacity="0.12"/>
<stop offset="1" stop-color="#808080" stop-opacity="0.1"/>
</linearGradient>
<linearGradient id="paint7_linear" x1="58093.2" y1="8734.05" x2="58093.2" y2="3038.17" gradientUnits="userSpaceOnUse">
<stop stop-color="#808080" stop-opacity="0.25"/>
<stop offset="0.54" stop-color="#808080" stop-opacity="0.12"/>
<stop offset="1" stop-color="#808080" stop-opacity="0.1"/>
</linearGradient>
<linearGradient id="paint8_linear" x1="2639.68" y1="2396.17" x2="2639.68" y2="2183.27" gradientUnits="userSpaceOnUse">
<stop stop-color="#808080" stop-opacity="0.25"/>
<stop offset="0.54" stop-color="#808080" stop-opacity="0.12"/>
<stop offset="1" stop-color="#808080" stop-opacity="0.1"/>
</linearGradient>
<linearGradient id="paint9_linear" x1="21638.4" y1="20135.3" x2="21638.4" y2="14209.3" gradientUnits="userSpaceOnUse">
<stop stop-color="#808080" stop-opacity="0.25"/>
<stop offset="0.54" stop-color="#808080" stop-opacity="0.12"/>
<stop offset="1" stop-color="#808080" stop-opacity="0.1"/>
</linearGradient>
<linearGradient id="paint10_linear" x1="20755.1" y1="14482.1" x2="20755.1" y2="11930" gradientUnits="userSpaceOnUse">
<stop stop-color="#808080" stop-opacity="0.25"/>
<stop offset="0.54" stop-color="#808080" stop-opacity="0.12"/>
<stop offset="1" stop-color="#808080" stop-opacity="0.1"/>
</linearGradient>
<linearGradient id="paint11_linear" x1="4066.39" y1="9815.6" x2="4066.39" y2="8963.13" gradientUnits="userSpaceOnUse">
<stop stop-color="#808080" stop-opacity="0.25"/>
<stop offset="0.54" stop-color="#808080" stop-opacity="0.12"/>
<stop offset="1" stop-color="#808080" stop-opacity="0.1"/>
</linearGradient>
<clipPath id="clip0">
<rect width="227" height="131" fill="white"/>
</clipPath>
</defs>
</svg>
