<svg width="42" height="52" viewBox="0 0 42 52" fill="none" xmlns="http://www.w3.org/2000/svg">
<path d="M9.6001 27.3H8.4001H8.2001C9.0001 26.7 9.4001 25.8 9.4001 24.7C9.4001 22.9 7.9001 21.4 6.1001 21.4C4.3001 21.4 2.8001 22.9 2.8001 24.7C2.8001 25.7 3.3001 26.7 4.0001 27.3H2.9001C1.3001 27.3 0.100098 28.6 0.100098 30.1V34.8C0.100098 35.8 0.700097 36.8 1.5001 37.3V40.9C1.5001 42.5 2.8001 43.8 4.4001 43.8C5.1001 43.8 5.8001 43.5 6.3001 43.1C6.8001 43.5 7.5001 43.8 8.2001 43.8C9.8001 43.8 11.1001 42.5 11.1001 40.9V37.3C12.0001 36.8 12.5001 35.9 12.5001 34.8V30.1C12.5001 28.6 11.2001 27.3 9.6001 27.3ZM6.1001 23.5C6.8001 23.5 7.3001 24 7.3001 24.7C7.3001 25.4 6.8001 25.9 6.1001 25.9C5.4001 25.9 4.9001 25.4 4.9001 24.7C4.9001 24.1 5.4001 23.5 6.1001 23.5ZM10.3001 34.8C10.3001 35.2 10.0001 35.5 9.6001 35.5C9.3001 35.5 9.0001 35.3 8.9001 35V40.8C8.9001 41.2 8.5001 41.6 8.1001 41.6C7.7001 41.6 7.3001 41.3 7.3001 40.9V36.9C7.3001 36.3 6.8001 35.8 6.2001 35.8C5.6001 35.8 5.1001 36.3 5.1001 36.9V37.3C5.1001 37.3 5.1001 37.3 5.1001 37.4V37.5V38V40.9C5.1001 41.3 4.7001 41.7 4.3001 41.7C3.9001 41.7 3.5001 41.3 3.5001 40.9V35C3.4001 35.3 3.1001 35.5 2.8001 35.5C2.4001 35.5 2.1001 35.2 2.1001 34.8V30.1C2.1001 29.7 2.4001 29.4 2.8001 29.4C3.1001 29.4 3.7001 29.4 4.0001 29.4H8.4001C8.7001 29.4 9.3001 29.4 9.6001 29.4C10.0001 29.4 10.3001 29.7 10.3001 30.1V34.8Z" fill="#56CCF2"/>
<path d="M23.9001 21.4H22.5H21.8C23.1 20.7 23.9001 19.4 23.9001 17.9C23.9001 15.7 22.1 13.9 19.9 13.9C17.7 13.9 15.9 15.7 15.9 17.9C15.9 19.4 16.8 20.8 18 21.4H17.7001H16.3C14.7 21.4 13.3 22.7 13.3 24.4V29.5C13.3 30.7 14 31.7 15 32.2V36.3C15 38 16.4 39.3 18 39.3C18.8 39.3 19.5 39 20 38.6C20.5 39.1 21.2 39.3 22 39.3C23.7 39.3 25 37.9 25 36.3V32.2C26 31.7 26.7001 30.7 26.7001 29.5V24.4C26.8001 22.7 25.5001 21.4 23.9001 21.4ZM19.9 16C20.9 16 21.8 16.8 21.8 17.9C21.8 18.9 21 19.8 19.9 19.8C18.9 19.8 18 19 18 17.9C18.1 16.8 18.9 16 19.9 16ZM24.7001 29.4C24.7001 29.9 24.3001 30.2 23.9001 30.2C23.5001 30.2 23.2 29.9 23.1 29.6V36.1C23.1 36.6 22.7001 37 22.2001 37C21.7001 37 21.3 36.6 21.3 36.1V31.6C21.3 31 20.8001 30.5 20.2001 30.5C19.6001 30.5 19.1 31 19.1 31.5V32.7V35.9C19.1 36.4 18.7001 36.8 18.2001 36.8C17.7001 36.8 17.3 36.4 17.3 35.9V29.4C17.2 29.7 16.9 30 16.5 30C16 30 15.7001 29.6 15.7001 29.2V24.1C15.7001 23.6 16.1 23.2 16.5 23.2C16.9 23.2 17.6 23.2 17.9 23.2H22.6C22.9001 23.2 23.6 23.2 24 23.2C24.5 23.2 24.8 23.6 24.8 24.1V29.4H24.7001Z" fill="#56CCF2"/>
<path d="M38.7001 9.30005H36.8001H36.7001C37.9001 8.40005 38.8001 6.90005 38.8001 5.30005C38.8001 2.60005 36.6001 0.300049 33.8001 0.300049C31.1001 0.300049 28.8001 2.50005 28.8001 5.30005C28.8001 7.00005 29.6001 8.40005 30.9001 9.30005H29.4001C27.6001 9.30005 26.1001 10.8 26.1001 12.6V20.1C26.1001 21.5 27.0001 22.8001 28.3001 23.2001V31.3C28.3001 33.2001 29.8001 34.7001 31.7001 34.7001C32.6001 34.7001 33.4001 34.3 34.0001 33.8C34.6001 34.4 35.4001 34.7001 36.3001 34.7001C38.2001 34.7001 39.7001 33.2001 39.7001 31.3V23.2001C41.0001 22.8001 41.9001 21.5 41.9001 20.1V12.6C42.0001 10.8 40.5001 9.30005 38.7001 9.30005ZM33.8001 2.40005C35.4001 2.40005 36.7001 3.70005 36.7001 5.30005C36.7001 6.90005 35.4001 8.20005 33.8001 8.20005C32.2001 8.20005 30.9001 6.90005 30.9001 5.30005C30.9001 3.70005 32.2001 2.40005 33.8001 2.40005ZM39.9001 20.1C39.9001 20.7 39.4001 21.2001 38.8001 21.2001C38.3001 21.2001 37.9001 20.9 37.7001 20.4V31.2001C37.7001 31.9001 37.1001 32.5 36.4001 32.5C35.8001 32.5 35.3001 32.0001 35.2001 31.4001V22.6C35.2001 22 34.7001 21.5 34.1001 21.5C33.5001 21.5 33.0001 22 33.0001 22.6V22.7001V26V31.2001C33.0001 31.9001 32.4001 32.5 31.7001 32.5C31.0001 32.5 30.4001 31.9001 30.4001 31.2001V20.5C30.3001 21 29.8001 21.3 29.3001 21.3C28.7001 21.3 28.2001 20.8001 28.2001 20.2001V12.7C28.2001 12.1 28.7001 11.6 29.3001 11.6C29.8001 11.6 30.8001 11.6 31.2001 11.6H36.8001C37.2001 11.6 38.2001 11.6 38.7001 11.6C39.3001 11.6 39.8001 12.1 39.8001 12.7V20.1H39.9001Z" fill="#56CCF2"/>
<path d="M9.9 44.1001H2.6C2 44.1001 1.5 44.6001 1.5 45.2001V50.7001C1.5 51.3001 2 51.8001 2.6 51.8001H9.9C10.5 51.8001 11 51.3001 11 50.7001V45.2001C11 44.6001 10.5 44.1001 9.9 44.1001ZM8.9 49.6001H3.7V46.3001H8.9V49.6001Z" fill="#56CCF2"/>
<path d="M23.8001 39.8H16.5001C15.9001 39.8 15.4001 40.3001 15.4001 40.9001V50.6C15.4001 51.2 15.9001 51.7001 16.5001 51.7001H23.8001C24.4001 51.7001 24.9001 51.2 24.9001 50.6V40.9001C24.9001 40.3001 24.4001 39.8 23.8001 39.8ZM22.7001 49.6H17.5001V42H22.7001V49.6Z" fill="#56CCF2"/>
<path d="M37.7001 35.7001H30.4001C29.8001 35.7001 29.3 36.2001 29.3 36.8001V50.6001C29.3 51.2001 29.8001 51.7001 30.4001 51.7001H37.7001C38.3001 51.7001 38.8 51.2001 38.8 50.6001V36.8001C38.8 36.2001 38.3001 35.7001 37.7001 35.7001ZM36.6 49.6001H31.4001V37.9001H36.6V49.6001Z" fill="#56CCF2"/>
</svg>
