<svg width="39" height="37" viewBox="0 0 39 37" fill="none" xmlns="http://www.w3.org/2000/svg">
<path d="M17.942 1.74192C18.547 -0.0874734 21.1347 -0.0874765 21.7397 1.74192L24.8713 11.2115C25.1422 12.0305 25.9076 12.5836 26.7702 12.5836H36.8283C38.7742 12.5836 39.5741 15.0808 37.9902 16.2114L29.9141 21.9765C29.2008 22.4857 28.9021 23.4001 29.1773 24.2322L32.2763 33.6034C32.8837 35.4399 30.7898 36.983 29.2155 35.8592L21.0028 29.9967C20.3076 29.5004 19.374 29.5004 18.6788 29.9967L10.4662 35.8592C8.89189 36.983 6.79802 35.4398 7.40533 33.6034L10.5044 24.2322C10.7796 23.4001 10.4809 22.4857 9.76754 21.9765L1.69142 16.2114C0.107577 15.0808 0.907438 12.5836 2.85342 12.5836H12.9115C13.7741 12.5836 14.5395 12.0305 14.8104 11.2115L17.942 1.74192Z" fill="#E0E0E0"/>
</svg>
