<svg width="39" height="37" viewBox="0 0 39 37" fill="none" xmlns="http://www.w3.org/2000/svg">
<path d="M17.5279 1.74192C18.1329 -0.0874734 20.7207 -0.0874765 21.3256 1.74192L24.4573 11.2115C24.7281 12.0305 25.4935 12.5836 26.3561 12.5836H36.4142C38.3602 12.5836 39.16 15.0808 37.5762 16.2114L29.5001 21.9765C28.7867 22.4857 28.488 23.4001 28.7632 24.2322L31.8623 33.6034C32.4696 35.4399 30.3757 36.983 28.8014 35.8592L20.5888 29.9967C19.8936 29.5004 18.96 29.5004 18.2648 29.9967L10.0521 35.8592C8.47783 36.983 6.38396 35.4398 6.99127 33.6034L10.0903 24.2322C10.3655 23.4001 10.0668 22.4857 9.35347 21.9765L1.27736 16.2114C-0.306486 15.0808 0.493375 12.5836 2.43935 12.5836H12.4974C13.36 12.5836 14.1255 12.0305 14.3963 11.2115L17.5279 1.74192Z" fill="#F2C94C"/>
</svg>
