<svg xmlns="http://www.w3.org/2000/svg" width="111" height="24" fill="none"><rect id="backgroundrect" width="100%" height="100%" x="0" y="0" fill="none" stroke="none"/>

<defs>
<clipPath id="clip0">
<rect width="110.66699981689453" height="24" fill="white" y="0" x="0.14819300174713135" id="svg_1"/>
</clipPath>
</defs>
<g class="currentLayer" style=""><title>Layer 1</title><g clip-path="url(#clip0)" id="svg_2" class="selected" fill="#ffffff" fill-opacity="1">
<path d="M39.6252 8.86874H36.99C35.815 8.86874 35.4047 8.25962 35.4047 7.68329C35.4047 7.10725 35.815 6.51338 36.99 6.51338H39.6252V8.86874ZM19.7185 8.43937V6.51338H22.4248C23.0458 6.51338 23.7584 6.69226 23.7584 7.44718C23.7584 8.20585 23.0458 8.43937 22.4248 8.43937H19.7185ZM19.7185 12.1628V10.1295H22.531C23.4929 10.1295 24.0444 10.4007 24.0444 11.1554C24.0444 11.9094 23.4929 12.1628 22.531 12.1628H19.7185ZM48.4209 10.3099H52.0191C53.123 10.3099 53.4431 10.6682 53.4431 11.1191C53.4431 11.8413 52.6605 12.1631 51.3404 12.1631C49.8284 12.1631 47.7994 11.7668 46.3367 11.3722L45.9112 13.8717C47.584 14.3752 49.5788 14.8805 52.356 14.8805C55.9189 14.8805 59.658 14.0175 59.658 11.6759C59.658 10.0781 57.8956 9.37375 56.3816 9.26677V9.19544C57.5925 8.95991 58.8193 8.11497 58.8193 6.85503C58.8193 4.71478 55.8458 3.90263 52.7294 3.90263C50.4684 3.90263 48.0097 4.39038 46.3554 4.83931L46.6949 7.25047C48.1716 6.87373 50.0399 6.49583 51.432 6.49583C52.6602 6.49583 53.2997 6.72964 53.2997 7.40951C53.2997 7.84607 53.0515 8.20556 52.072 8.20556H48.4209V10.3099ZM84.9958 12.1798C83.7155 12.1798 81.9321 11.4789 81.9321 9.42839C81.9321 7.25076 83.6953 6.62208 84.9958 6.62208C86.2966 6.62208 88.0559 7.25047 88.0559 9.42839C88.0559 11.4789 86.2773 12.1798 84.9958 12.1798ZM13.1272 7.80868V4.83931C11.6875 4.22933 10.0295 3.84741 8.07194 3.84741C4.26118 3.84741 0.148193 5.30895 0.148193 9.44594C0.148193 13.4391 4.24524 14.9519 8.14309 14.9519C9.99397 14.9519 11.7936 14.6116 13.1274 14.0362V11.0651C12.0076 11.5313 10.9029 11.784 9.72704 11.784C8.05515 11.784 6.21935 11.2273 6.21935 9.44594C6.21935 7.72011 7.80558 7.05376 9.51389 7.05376C10.6178 7.05347 11.9541 7.35832 13.1272 7.80868ZM60.3871 14.412H66.0322V10.6682H69.8777V14.4123H75.541V4.39067H69.8777V7.8639H66.0322V4.39067H60.3871V14.412ZM99.4011 14.412L105.277 9.39216V14.412H110.815V4.39067H105.899L100.022 9.41085V4.39067H94.4864V14.4123H99.4011V14.412ZM35.5487 14.412L37.5763 11.0493H39.6255V14.412H45.0566V4.39067C42.743 4.13845 39.4473 4.04786 38.4149 4.04786C34.0327 4.04786 29.9032 4.33632 29.9032 7.72039C29.9032 9.17589 31.1673 10.0401 32.5916 10.401L29.6377 14.4123H35.5487V14.412ZM14.2871 14.412C16.9211 14.6459 19.1471 14.7707 21.5862 14.7707C25.148 14.7707 29.7618 14.5748 29.7618 11.7665C29.7618 10.1295 27.9436 9.26677 26.3773 9.26677V9.15691C27.8731 8.97831 29.0851 7.95248 29.0851 6.74661C29.0851 4.24572 25.148 4.04758 21.445 4.04758C18.9866 4.04758 17.0105 4.13845 14.2871 4.39038V14.412ZM84.9958 3.84741C81.1119 3.84741 76.1105 5.25459 76.1105 9.44594C76.1105 13.5481 81.1683 14.9521 84.9958 14.9521C88.8259 14.9521 93.8809 13.5481 93.8809 9.44594C93.8806 5.25459 88.8791 3.84741 84.9958 3.84741Z" fill="#ffffff" id="svg_3" fill-opacity="1"/>
<path d="M105.099 3.50774L101.038 0V7.0175L105.099 3.50774Z" fill="#ffffff" id="svg_4" fill-opacity="1"/>
<path d="M0.161865 18.8035H22.2925V23.9999H0.161865V18.8035Z" fill="#ffffff" id="svg_5" fill-opacity="1"/>
<path d="M22.292 18.8035H44.4227V23.9999H22.292V18.8035Z" fill="#ffffff" id="svg_6" fill-opacity="1"/>
<path d="M44.4229 18.8035H66.5538V23.9999H44.4229V18.8035Z" fill="#ffffff" id="svg_7" fill-opacity="1"/>
<path d="M66.5537 18.8035H88.6844V23.9999H66.5537V18.8035Z" fill="#ffffff" id="svg_8" fill-opacity="1"/>
<path d="M88.6838 18.8035H110.815V23.9999H88.6838V18.8035Z" fill="#ffffff" id="svg_9" fill-opacity="1"/>
</g></g></svg>