<svg width="243" height="152" viewBox="0 0 243 152" fill="none" xmlns="http://www.w3.org/2000/svg">
<g filter="url(#filter0_d)">
<rect x="16" y="12" width="211" height="120" rx="12" fill="#56CCF2"/>
</g>
<g clip-path="url(#clip0)">
<path d="M165.275 49.4075C156.247 51.3167 151.812 57.9067 152.324 68.6595L161.952 67.8136C161.514 61.7384 163.387 60.2973 165.281 59.5049L165.275 49.4075ZM151.923 85.5576L151.926 94.9996H183L151.923 85.5576ZM183 94.9996V84.6281L151.923 85.5576L183 94.9996ZM178.808 52.3398C175.923 49.6349 171.691 48.5248 167.064 49.1835V59.097C168.938 58.9934 170.457 59.6855 171.135 61.073C172.203 63.263 171.101 66.5497 168.499 69.5956C164.486 74.2966 153.814 83.9125 153.814 83.9125L169.136 83.4144C178.498 74.3401 181.861 68.83 182.464 61.9557C182.778 58.3213 181.446 54.814 178.808 52.3398ZM110.895 86.7947V94.9996H122.413V86.4503L110.895 86.7947ZM101.48 59.4147V94.9996H109.416V58.308L101.48 59.4147ZM135.667 86.049V94.9996H148.974V85.6512L135.667 86.049ZM135.667 70.2944V79.3955L144.388 78.924V69.5522L135.667 70.2944ZM135.667 54.6368V63.574L148.974 62.1229V52.7811L135.667 54.6368ZM124.829 56.148V94.9996H133.962V54.8742L124.829 56.148ZM88.7584 87.4567V94.9996H98.8175V87.1558L88.7584 87.4567ZM88.7584 74.2933V81.9432L95.36 81.5855V73.7282L88.7584 74.2933ZM88.7584 61.1867V68.6996L98.8175 67.6029V59.7858L88.7584 61.1867ZM80.4955 62.3402V94.9996H87.461V61.3706L80.4955 62.3402ZM65.7625 72.2437V94.9996H72.3741V71.5717L65.7625 72.2437ZM60 65.1989V71.8391L78.0557 69.8698V62.6813L60 65.1989Z" fill="white"/>
</g>
<defs>
<filter id="filter0_d" x="0" y="0" width="243" height="152" filterUnits="userSpaceOnUse" color-interpolation-filters="sRGB">
<feFlood flood-opacity="0" result="BackgroundImageFix"/>
<feColorMatrix in="SourceAlpha" type="matrix" values="0 0 0 0 0 0 0 0 0 0 0 0 0 0 0 0 0 0 127 0"/>
<feOffset dy="4"/>
<feGaussianBlur stdDeviation="8"/>
<feColorMatrix type="matrix" values="0 0 0 0 0 0 0 0 0 0 0 0 0 0 0 0 0 0 0.1 0"/>
<feBlend mode="normal" in2="BackgroundImageFix" result="effect1_dropShadow"/>
<feBlend mode="normal" in="SourceGraphic" in2="effect1_dropShadow" result="shape"/>
</filter>
<clipPath id="clip0">
<rect width="123" height="46" fill="white" transform="translate(60 49)"/>
</clipPath>
</defs>
</svg>
