<svg width="211" height="120" viewBox="0 0 211 120" fill="none" xmlns="http://www.w3.org/2000/svg">
<rect width="211" height="120" rx="12" fill="white"/>
<g clip-path="url(#clip0)">
<path d="M149.275 37.4075C140.247 39.3167 135.812 45.9067 136.324 56.6595L145.952 55.8136C145.514 49.7384 147.387 48.2973 149.281 47.5049L149.275 37.4075ZM135.923 73.5576L135.926 82.9996H167L135.923 73.5576ZM167 82.9996V72.6281L135.923 73.5576L167 82.9996ZM162.808 40.3398C159.923 37.6349 155.691 36.5248 151.064 37.1835V47.097C152.938 46.9934 154.457 47.6855 155.135 49.073C156.203 51.263 155.101 54.5497 152.499 57.5956C148.486 62.2966 137.814 71.9125 137.814 71.9125L153.136 71.4144C162.498 62.3401 165.861 56.83 166.464 49.9557C166.778 46.3213 165.446 42.814 162.808 40.3398ZM94.895 74.7947V82.9996H106.413V74.4503L94.895 74.7947ZM85.4796 47.4147V82.9996H93.4157V46.308L85.4796 47.4147ZM119.667 74.049V82.9996H132.974V73.6512L119.667 74.049ZM119.667 58.2944V67.3955L128.388 66.924V57.5522L119.667 58.2944ZM119.667 42.6368V51.574L132.974 50.1229V40.7811L119.667 42.6368ZM108.829 44.148V82.9996H117.962V42.8742L108.829 44.148ZM72.7584 75.4567V82.9996H82.8175V75.1558L72.7584 75.4567ZM72.7584 62.2933V69.9432L79.36 69.5855V61.7282L72.7584 62.2933ZM72.7584 49.1867V56.6996L82.8175 55.6029V47.7858L72.7584 49.1867ZM64.4955 50.3402V82.9996H71.461V49.3706L64.4955 50.3402ZM49.7625 60.2437V82.9996H56.3741V59.5717L49.7625 60.2437ZM44 53.1989V59.8391L62.0557 57.8698V50.6813L44 53.1989Z" fill="#151515"/>
</g>
<defs>
<clipPath id="clip0">
<rect width="123" height="46" fill="white" transform="translate(44 37)"/>
</clipPath>
</defs>
</svg>
