<svg width="206" height="153" viewBox="0 0 206 153" fill="none" xmlns="http://www.w3.org/2000/svg">
<g clip-path="url(#clip0)">
<path opacity="0.1" d="M20.7208 15.3203C19.4387 15.8513 18.1228 16.5328 17.4183 17.7274C16.672 18.9894 16.7613 20.5564 16.9003 22.0165C18.1109 34.6799 21.3003 48.1475 15.7928 59.6182C13.1194 65.1832 8.64788 69.6427 5.09129 74.6965C1.53471 79.7504 -1.15059 86.0602 0.500679 92.0056C2.51713 99.2703 10.0431 103.298 15.116 108.889C18.4364 112.544 20.7645 116.986 23.8626 120.831C26.9607 124.676 31.206 128.064 36.1519 128.29C43.265 128.617 49.0524 122.485 56.0266 121.065C63.1716 119.611 70.3661 123.311 76.1594 127.741C81.9528 132.171 87.2222 137.538 93.9721 140.303C101.427 143.36 109.83 142.893 117.677 144.729C124.822 146.403 131.4 149.963 138.493 151.861C145.586 153.759 153.9 153.644 159.396 148.796C166.559 142.457 165.995 131.164 170.57 122.778C174.819 114.987 183.137 110.335 188.736 103.447C198.81 91.0487 198.481 72.0993 189.926 58.6158C181.372 45.1323 165.878 36.968 150.034 34.8423C142.889 33.8854 135.532 34.0162 128.663 31.8389C110.276 26.0144 99.3348 5.1453 80.5635 0.802688C68.6315 -1.95305 57.0269 2.81947 46.8633 8.69349C38.0413 13.7929 29.902 11.5186 20.7208 15.3203Z" fill="#56CCF2"/>
<path d="M38.6377 56.2302C38.6377 56.2302 31.8639 62.6114 24.594 62.8016C21.5411 62.8623 18.5904 63.9099 16.1848 65.7872C15.0477 66.6844 13.9954 67.6838 13.041 68.7727" stroke="#535461" stroke-width="2" stroke-miterlimit="10"/>
<path d="M8.45651 68.9292C9.43298 68.4339 13.1603 68.7628 13.1603 68.7628C13.1603 68.7628 11.2272 71.9623 10.2507 72.4576C10.0168 72.5959 9.75697 72.6849 9.48725 72.7189C9.21753 72.7529 8.94369 72.7312 8.68271 72.6552C8.42173 72.5792 8.17917 72.4505 7.97009 72.277C7.761 72.1036 7.58985 71.8891 7.46723 71.6469C7.34462 71.4047 7.27316 71.1399 7.25729 70.869C7.24142 70.5981 7.28148 70.3268 7.37498 70.072C7.46848 69.8172 7.61343 69.5843 7.80084 69.3877C7.98825 69.1911 8.21412 69.035 8.46445 68.9292H8.45651Z" fill="#56CCF2"/>
<path d="M12.3804 63.2731C13.47 63.388 16.4192 65.6861 16.4192 65.6861C16.4192 65.6861 13.0452 67.3225 11.9656 67.2096C11.4604 67.1334 11.0042 66.8657 10.6917 66.4622C10.3793 66.0588 10.2348 65.5506 10.2882 65.0434C10.3417 64.5363 10.589 64.0692 10.9787 63.7395C11.3683 63.4097 11.8704 63.2427 12.3804 63.2731Z" fill="#56CCF2"/>
<path d="M21.6849 58.7146C22.5661 59.3624 23.9515 62.8333 23.9515 62.8333C23.9515 62.8333 20.2182 62.55 19.337 61.9042C18.9398 61.5839 18.6816 61.1231 18.616 60.6176C18.5505 60.1121 18.6826 59.6009 18.985 59.1901C19.2873 58.7794 19.7366 58.5008 20.2395 58.4122C20.7423 58.3237 21.26 58.432 21.6849 58.7146Z" fill="#56CCF2"/>
<path d="M29.5039 56.8502C30.4823 57.3395 32.4353 60.5272 32.4353 60.5272C32.4353 60.5272 28.708 60.8778 27.7295 60.3885C27.4827 60.2809 27.2603 60.1242 27.076 59.9281C26.8918 59.7319 26.7494 59.5004 26.6577 59.2476C26.566 58.9947 26.5267 58.7259 26.5424 58.4575C26.5581 58.189 26.6284 57.9266 26.749 57.6861C26.8696 57.4457 27.0379 57.2322 27.2438 57.0588C27.4497 56.8854 27.6888 56.7556 27.9465 56.6774C28.2043 56.5992 28.4753 56.5742 28.743 56.6039C29.0107 56.6336 29.2696 56.7174 29.5039 56.8502Z" fill="#56CCF2"/>
<path d="M18.494 69.2936C18.8195 68.2496 17.8668 64.636 17.8668 64.636C17.8668 64.636 15.0327 67.0767 14.7072 68.1208C14.6155 68.3728 14.576 68.6407 14.591 68.9084C14.6061 69.1761 14.6754 69.438 14.7948 69.6781C14.9142 69.9183 15.0813 70.1317 15.2857 70.3056C15.4902 70.4794 15.7279 70.61 15.9845 70.6895C16.241 70.7689 16.511 70.7955 16.7781 70.7678C17.0453 70.74 17.304 70.6584 17.5386 70.5279C17.7733 70.3974 17.9789 70.2207 18.1431 70.0086C18.3074 69.7964 18.4267 69.5532 18.494 69.2936Z" fill="#56CCF2"/>
<path d="M27.608 66.9896C27.608 65.896 25.6134 62.7341 25.6134 62.7341C25.6134 62.7341 23.6406 65.9039 23.6426 67.0015C23.6442 67.5269 23.8548 68.0302 24.2281 68.4006C24.6014 68.771 25.1069 68.9782 25.6332 68.9767C26.1596 68.9751 26.6638 68.7649 27.0349 68.3922C27.406 68.0196 27.6136 67.515 27.612 66.9896H27.608Z" fill="#56CCF2"/>
<path d="M36.1624 63.5503C36.345 62.4726 34.916 59.0195 34.916 59.0195C34.916 59.0195 32.4331 61.8169 32.2525 62.8946C32.1915 63.4002 32.3279 63.9099 32.6334 64.3177C32.9389 64.7256 33.3901 65.0004 33.8932 65.085C34.3963 65.1696 34.9127 65.0576 35.3352 64.7722C35.7578 64.4868 36.054 64.05 36.1624 63.5523V63.5503Z" fill="#56CCF2"/>
<path d="M47.4406 39.3311C47.4406 39.3311 39.2815 34.8577 36.8562 28.005C35.8598 25.1234 33.9536 22.6423 31.424 20.9344C30.2169 20.1326 28.9387 19.4429 27.6055 18.874" stroke="#535461" stroke-width="2" stroke-miterlimit="10"/>
<path d="M26.0565 14.5653C26.8286 15.3399 27.6602 18.9831 27.6602 18.9831C27.6602 18.9831 24.0163 18.1313 23.2442 17.3547C22.9033 16.9767 22.721 16.4824 22.7351 15.974C22.7493 15.4656 22.9587 14.9821 23.3202 14.6237C23.6816 14.2652 24.1673 14.0592 24.6766 14.0483C25.186 14.0374 25.6801 14.2225 26.0565 14.5653Z" fill="#56CCF2"/>
<path d="M32.6562 16.5521C32.8824 17.6219 31.5983 21.1305 31.5983 21.1305C31.5983 21.1305 29.0043 18.4381 28.7781 17.3663C28.7109 17.1071 28.6971 16.837 28.7374 16.5723C28.7778 16.3077 28.8714 16.0539 29.0128 15.8263C29.1541 15.5988 29.3402 15.4022 29.5597 15.2484C29.7793 15.0947 30.0278 14.9869 30.2903 14.9317C30.5527 14.8765 30.8237 14.875 31.0867 14.9272C31.3498 14.9795 31.5995 15.0844 31.8208 15.2356C32.0421 15.3869 32.2304 15.5813 32.3743 15.8073C32.5183 16.0332 32.6148 16.2859 32.6581 16.5501L32.6562 16.5521Z" fill="#56CCF2"/>
<path d="M39.8611 23.9993C39.5157 25.0354 36.632 27.4187 36.632 27.4187C36.632 27.4187 35.7547 23.7873 36.1001 22.7492C36.2661 22.2501 36.624 21.8372 37.0951 21.6015C37.5661 21.3657 38.1116 21.3264 38.6117 21.4922C39.1117 21.658 39.5254 22.0152 39.7615 22.4854C39.9977 22.9556 40.0371 23.5001 39.871 23.9993H39.8611Z" fill="#56CCF2"/>
<path d="M44.0439 30.8441C43.8792 31.9238 41.44 34.7588 41.44 34.7588C41.44 34.7588 39.9594 31.3275 40.1241 30.2478C40.1516 29.9809 40.233 29.7224 40.3635 29.488C40.494 29.2535 40.6709 29.0479 40.8834 28.8837C41.0958 28.7194 41.3395 28.6 41.5996 28.5326C41.8597 28.4652 42.1308 28.4512 42.3965 28.4915C42.6622 28.5317 42.9169 28.6255 43.1452 28.7669C43.3735 28.9084 43.5707 29.0947 43.7247 29.3145C43.8787 29.5343 43.9865 29.783 44.0413 30.0456C44.0962 30.3082 44.0971 30.5792 44.0439 30.8421V30.8441Z" fill="#56CCF2"/>
<path d="M28.7928 24.2113C29.8884 24.1994 33.0401 22.1826 33.0401 22.1826C33.0401 22.1826 29.8427 20.2411 28.7472 20.253C28.2208 20.259 27.7184 20.4735 27.3505 20.8494C26.9825 21.2252 26.7792 21.7315 26.7853 22.2569C26.7913 22.7823 27.0062 23.2838 27.3827 23.6511C27.7592 24.0183 28.2664 24.2213 28.7928 24.2152V24.2113Z" fill="#56CCF2"/>
<path d="M33.7877 32.1635C34.8277 31.8247 37.2312 28.96 37.2312 28.96C37.2312 28.96 33.5972 28.0626 32.5572 28.4014C32.3006 28.4745 32.0614 28.5985 31.8538 28.766C31.6463 28.9335 31.4748 29.1411 31.3495 29.3763C31.2242 29.6116 31.1477 29.8696 31.1246 30.135C31.1015 30.4004 31.1323 30.6677 31.2151 30.921C31.2979 31.1743 31.431 31.4083 31.6065 31.609C31.782 31.8097 31.9962 31.973 32.2364 32.0892C32.4765 32.2054 32.7377 32.272 33.0043 32.2851C33.2708 32.2983 33.5373 32.2576 33.7877 32.1655V32.1635Z" fill="#56CCF2"/>
<path d="M39.7024 39.2282C40.7861 39.0697 43.6401 36.6527 43.6401 36.6527C43.6401 36.6527 40.2105 35.155 39.1289 35.3135C38.8625 35.3409 38.6044 35.4219 38.3702 35.5515C38.1359 35.6811 37.9304 35.8566 37.7659 36.0676C37.6015 36.2786 37.4815 36.5206 37.4132 36.7791C37.345 37.0376 37.3298 37.3072 37.3687 37.5717C37.4075 37.8362 37.4996 38.0901 37.6394 38.3181C37.7792 38.5462 37.9637 38.7436 38.182 38.8986C38.4002 39.0535 38.6476 39.1628 38.9092 39.2198C39.1709 39.2768 39.4414 39.2803 39.7044 39.2302L39.7024 39.2282Z" fill="#56CCF2"/>
<path d="M103.59 147.873C143.27 147.873 175.436 115.764 175.436 76.1563C175.436 36.5483 143.27 4.4397 103.59 4.4397C63.9108 4.4397 31.7441 36.5483 31.7441 76.1563C31.7441 115.764 63.9108 147.873 103.59 147.873Z" fill="url(#paint0_linear)"/>
<path d="M103.591 146.684C142.613 146.684 174.246 115.108 174.246 76.1563C174.246 37.2048 142.613 5.62842 103.591 5.62842C64.569 5.62842 32.9355 37.2048 32.9355 76.1563C32.9355 115.108 64.569 146.684 103.591 146.684Z" fill="#56CCF2"/>
<path d="M103.589 132.222C134.609 132.222 159.756 107.121 159.756 76.1563C159.756 45.1921 134.609 20.0906 103.589 20.0906C72.5687 20.0906 47.4219 45.1921 47.4219 76.1563C47.4219 107.121 72.5687 132.222 103.589 132.222Z" fill="#DDE1EC"/>
<path opacity="0.3" d="M105.177 29.9963H102.002V79.5244H105.177V29.9963Z" fill="#535461"/>
<g opacity="0.1">
<path opacity="0.1" d="M151.819 74.9675H106.965V78.9298H151.819V74.9675Z" fill="black"/>
<path opacity="0.1" d="M75.2965 60.1435L73.4551 63.6536L101.678 78.4065L103.519 74.8964L75.2965 60.1435Z" fill="black"/>
<path opacity="0.1" d="M103.591 82.8918C106.879 82.8918 109.545 80.2309 109.545 76.9485C109.545 73.6661 106.879 71.0051 103.591 71.0051C100.302 71.0051 97.6367 73.6661 97.6367 76.9485C97.6367 80.2309 100.302 82.8918 103.591 82.8918Z" fill="black"/>
</g>
<path d="M151.817 74.1753H106.963V78.1375H151.817V74.1753Z" fill="#535461"/>
<path d="M103.531 74.1089L75.3086 59.356L73.4671 62.866L101.69 77.619L103.531 74.1089Z" fill="#535461"/>
<path d="M103.591 82.0996C106.879 82.0996 109.545 79.4387 109.545 76.1562C109.545 72.8738 106.879 70.2129 103.591 70.2129C100.302 70.2129 97.6367 72.8738 97.6367 76.1562C97.6367 79.4387 100.302 82.0996 103.591 82.0996Z" fill="#535461"/>
<g opacity="0.1">
<path opacity="0.1" d="M51.7844 82.8921C51.7844 51.9272 76.9305 26.8264 107.951 26.8264C116.658 26.8187 125.247 28.8348 133.038 32.7149C140.829 36.5951 147.608 42.2327 152.837 49.1814C143.279 31.8426 124.821 20.0906 103.585 20.0906C72.5642 20.0906 47.418 45.1914 47.418 76.1563C47.3998 88.3207 51.3632 100.158 58.705 109.867C54.1519 101.604 51.7709 92.323 51.7844 82.8921Z" fill="black"/>
</g>
<path d="M155.486 34.9132C154.819 34.2733 149.206 38.4792 149.206 38.4792C149.206 38.4792 147.208 38.8437 147.684 40.2127C148.16 41.5816 145.59 49.2486 145.59 49.2486L144.544 47.7885C144.645 46.0748 144.173 44.8604 143.712 44.1036C143.675 44.0422 143.637 43.9827 143.599 43.9273L143.782 43.8639C143.712 42.9288 142.214 41.5044 141.418 40.807C141.418 40.706 141.418 40.6089 141.418 40.5059C141.468 39.3885 141.916 38.2097 141.418 37.1974C140.855 36.0424 139.205 35.4619 139.066 34.194C138.983 33.4372 139.495 32.7537 139.721 32.0247C140.261 30.2813 139.14 28.5023 138.068 27.0006C137.705 26.4375 137.263 25.9292 136.756 25.4909C136.273 25.1384 135.742 24.8556 135.18 24.6509C133.61 24.017 132.005 23.698 130.385 23.2642C128.831 22.8521 127.398 22.656 125.82 23.173C125.446 23.2738 125.104 23.4697 124.828 23.7416C124.453 24.1616 124.403 24.7599 124.157 25.2611C123.76 26.0675 122.905 26.5489 122.149 27.0659C121.393 27.583 120.634 28.2923 120.63 29.1838C120.63 30.4497 122.079 31.2461 122.564 32.4249C123.016 33.5224 122.564 34.7448 122.311 35.9017C122.206 36.2757 122.196 36.6699 122.282 37.0488C122.382 37.3312 122.532 37.593 122.726 37.8214C123.026 38.2177 123.347 38.5862 123.667 38.9626L123.52 39.02C120.857 38.7466 119.144 42.1225 119.144 42.1225C119.267 42.1482 119.384 42.1779 119.499 42.2116L119.386 42.3582C118.581 43.4016 117.923 44.5501 117.431 45.7717L115.248 48.6919C115.248 48.6919 114.772 41.3894 115.915 39.7471C117.058 38.1047 114.869 37.1003 114.869 37.1003C114.869 37.1003 110.106 31.8068 109.445 32.2624C108.784 32.7181 111.062 38.4693 113.061 39.3826C113.061 39.3826 113.259 41.2072 112.862 42.3939C112.622 43.1447 111.34 51.0652 111.34 51.0652C111.34 51.0652 110.199 57.7278 115.432 54.4332C118.832 52.2975 121.029 48.6205 122.149 46.3106C122.227 46.1481 122.3 45.9929 122.369 45.845C122.421 46.09 122.456 46.3382 122.474 46.5879L122.673 54.2212C122.723 56.1092 122.31 57.9809 121.47 59.6732L119.138 64.3942L119.398 64.4735L119.241 64.6993C117.705 66.9558 115.093 72.0295 120.47 74.6148L127.615 75.5281L127.234 77.3527C127.234 77.3527 124.284 82.9197 123.427 86.7532C122.894 89.1007 122.063 91.3704 120.952 93.5068L121.172 93.6237C121.127 93.6752 121.079 93.7287 121.033 93.7842C120.6 94.2706 120.314 94.8695 120.208 95.5117L119.239 96.8826C119.239 96.8826 118.858 102.541 119.62 103.912C120.037 104.661 121.42 105.136 122.597 105.413C124.344 105.827 125.753 104.027 124.826 102.543L124.814 102.523H124.796C124.598 101.602 123.991 98.7429 124.189 97.6573C124.245 97.3482 124.296 97.0411 124.322 96.7281C124.37 96.3168 124.495 95.9182 124.691 95.5533C124.723 95.4919 124.757 95.4325 124.79 95.373L124.894 95.4166C125.213 95.5533 125.529 95.6821 125.828 95.795C125.364 96.217 125.034 97.0907 125.431 98.8875C125.431 98.8875 125.469 103.383 125.812 104.09C126.156 104.797 129.998 105.732 130.665 105.003C131.332 104.274 130.236 101.762 130.236 101.762L130.203 101.786C129.982 100.33 129.71 97.7226 130.379 96.6964C130.649 96.2824 130.911 95.8544 131.145 95.4543L131.29 95.2066C132.533 95.8247 133.847 96.2903 134.565 95.9674C134.565 95.9674 137.705 88.665 137.514 87.7536C137.324 86.8423 142.367 76.5266 142.367 76.5266C142.367 76.5266 146.648 71.7719 141.416 68.4952C139.755 67.4511 138.544 66.7498 137.665 66.2763L136.929 62.4329C136.55 60.418 136.618 58.3448 137.127 56.3588L137.921 53.3356L137.987 53.0781C137.987 53.0781 139.985 48.9712 139.89 47.0535C139.883 46.9045 139.899 46.7553 139.94 46.6117C139.961 46.7028 139.985 46.7979 140.011 46.897C140.536 48.8902 141.228 50.8359 142.079 52.7135C143.597 56.133 145.85 55.8615 147.084 55.3762C147.349 55.2741 147.583 55.108 147.767 54.8929C147.951 54.6778 148.079 54.4204 148.138 54.1439C148.583 52.0162 149.804 46.055 149.881 44.4087C149.95 43.1213 150.109 41.8404 150.357 40.5752C153.489 38.7466 156.153 35.5531 155.486 34.9132Z" fill="url(#paint1_linear)"/>
<path d="M132.188 93.4001C132.188 93.4001 131.769 94.2381 131.196 95.2445C130.972 95.6407 130.721 96.0667 130.465 96.4767C129.558 97.9249 130.465 102.539 130.465 102.539L128.481 102.81L126.496 101.82L126.133 98.4717V96.0231L128.395 93.4971L129.388 92.4036L132.188 93.4001Z" fill="#F8BDC5"/>
<g opacity="0.1">
<path opacity="0.1" d="M132.187 93.4C132.187 93.4 131.769 94.238 131.195 95.2444C130.319 94.777 129.472 94.257 128.659 93.6873L128.484 93.5645L128.391 93.4971L129.383 92.4036L132.187 93.4Z" fill="black"/>
</g>
<path d="M141.89 76.4771C141.89 76.4771 137.085 86.7016 137.267 87.607C137.45 88.5124 134.457 95.7514 134.457 95.7514C133.774 96.0723 132.52 95.6107 131.337 94.9986C130.445 94.524 129.583 93.9947 128.757 93.4137L128.582 93.2908L128.477 93.2156L136.364 71.4074L129.386 66.2981L128.87 65.9197L125.75 63.6216L135.277 65.3412C135.277 65.3412 135.608 65.2996 137.361 66.2783C138.202 66.7478 139.371 67.4511 140.987 68.509C145.966 71.7719 141.89 76.4771 141.89 76.4771Z" fill="#5E52AD"/>
<g opacity="0.03">
<path opacity="0.03" d="M141.89 76.4771C141.89 76.4771 137.085 86.7016 137.267 87.607C137.45 88.5124 134.457 95.7514 134.457 95.7514C133.774 96.0723 132.52 95.6107 131.337 94.9986C130.445 94.524 129.583 93.9947 128.757 93.4137L128.582 93.2908L128.477 93.2156L136.364 71.4074L129.386 66.2981L128.87 65.9197L125.75 63.6216L135.277 65.3412C135.277 65.3412 135.608 65.2996 137.361 66.2783C138.202 66.7478 139.371 67.4511 140.987 68.509C145.966 71.7719 141.89 76.4771 141.89 76.4771Z" fill="black"/>
</g>
<path d="M127.293 95.2085C127.293 95.2085 124.935 94.846 125.752 98.6478C125.752 98.6478 125.788 103.105 126.116 103.799C126.443 104.492 130.105 105.427 130.738 104.704C131.371 103.981 130.329 101.493 130.329 101.493C130.329 101.493 127.656 103.438 126.929 101.356C126.203 99.2738 127.293 95.2085 127.293 95.2085Z" fill="#5D3E53"/>
<path d="M125.659 94.4855C125.402 94.73 125.192 95.0202 125.042 95.3413C124.854 95.705 124.735 96.0998 124.69 96.5062C124.666 96.8153 124.617 97.1224 124.565 97.4275C124.339 98.7172 125.206 102.539 125.206 102.539L121.761 103.082L120.493 101.725L120.221 98.739C120.559 97.7153 120.742 96.6469 120.765 95.5692C120.765 94.7906 121.161 94.0952 121.558 93.5881C121.827 93.2496 122.136 92.9444 122.477 92.6787C122.477 92.6787 126.385 93.8515 125.659 94.4855Z" fill="#F8BDC5"/>
<g opacity="0.1">
<path opacity="0.1" d="M125.659 94.4855C125.402 94.7301 125.192 95.0203 125.042 95.3414C123.631 94.7054 122.148 93.9031 121.608 93.6059L121.566 93.5841C121.836 93.2457 122.144 92.9405 122.485 92.6748C122.485 92.6748 126.385 93.8516 125.659 94.4855Z" fill="black"/>
</g>
<path d="M136.812 73.7629C136.812 73.7629 134.548 78.0164 133.095 81.5448C132.142 83.8627 130.173 89.3821 128.927 92.8966L128.744 93.4157C128.196 94.9708 127.831 96.0228 127.831 96.0228C127.59 96.0244 127.35 95.989 127.119 95.9178C126.904 95.8604 126.664 95.7831 126.408 95.688L126.12 95.579C125.835 95.4681 125.525 95.3393 125.229 95.2046C123.788 94.5627 122.252 93.7267 121.695 93.4216L121.484 93.3047C122.548 91.1773 123.342 88.926 123.848 86.6026C124.664 82.8028 127.474 77.2913 127.474 77.2913L127.837 75.4806L121.038 74.5752C115.915 72.0196 118.404 66.9816 119.867 64.7449C120.116 64.3566 120.386 63.9817 120.674 63.6216L126.115 64.8103C126.115 64.8103 126.972 65.0837 128.877 65.9256L129.752 66.3219C130.82 66.8112 132.134 67.4412 133.722 68.2495C139.077 70.9517 136.812 73.7629 136.812 73.7629Z" fill="#5E52AD"/>
<path d="M125.173 102.267C125.367 102.594 125.46 102.97 125.44 103.349C125.42 103.728 125.288 104.092 125.061 104.396C124.834 104.701 124.522 104.931 124.164 105.058C123.806 105.186 123.418 105.204 123.049 105.112C121.936 104.837 120.616 104.365 120.219 103.622C119.494 102.265 119.856 96.6548 119.856 96.6548L120.808 95.2522C120.808 95.2522 120.31 101.451 121.489 101.988C122.668 102.525 125.161 102.24 125.161 102.24L125.173 102.267Z" fill="#5D3E53"/>
<path d="M126.137 23.5755C125.775 23.676 125.447 23.8709 125.185 24.1401C124.827 24.5561 124.788 25.1505 124.546 25.6477C124.169 26.4402 123.355 26.9255 122.632 27.4307C121.91 27.9359 121.19 28.6471 121.186 29.5307C121.186 30.7867 122.575 31.5752 123.027 32.7421C123.458 33.8317 123.027 35.0422 122.787 36.1893C122.687 36.5607 122.678 36.9506 122.759 37.3264C122.854 37.6052 122.998 37.8649 123.184 38.0931C124.059 39.2818 125.147 40.3357 125.732 41.6889C126.177 42.7171 126.3 43.8522 126.417 44.9676C126.586 46.5723 126.755 48.2067 126.449 49.7916C126.419 49.8864 126.419 49.9881 126.449 50.0829C126.501 50.1738 126.583 50.2438 126.681 50.281C127.259 50.5611 127.887 50.7217 128.528 50.7532C129.17 50.7848 129.811 50.6866 130.413 50.4645C131.015 50.2424 131.567 49.9011 132.033 49.461C132.5 49.021 132.873 48.4912 133.129 47.9036C133.526 47.0062 133.679 45.9225 134.465 45.3401C134.557 45.2643 134.667 45.2144 134.785 45.1954C134.97 45.2005 135.15 45.2605 135.301 45.3678C136.321 45.9185 137.557 45.9344 138.695 45.7085C139.381 45.5718 140.084 45.3282 140.538 44.7933C141.433 43.7314 140.935 42.1445 140.995 40.7597C141.042 39.6523 141.469 38.4834 140.995 37.4809C140.459 36.3359 138.885 35.7613 138.754 34.5093C138.675 33.7604 139.163 33.0809 139.379 32.3597C139.893 30.6302 138.826 28.867 137.805 27.3792C137.462 26.8242 137.042 26.3206 136.557 25.8835C136.099 25.5357 135.594 25.2554 135.057 25.0514C133.562 24.4234 132.038 24.1064 130.492 23.6785C129.011 23.2565 127.648 23.0604 126.137 23.5755Z" fill="#85555C"/>
<path d="M133.729 49.4209H128.47V40.914C128.626 40.097 128.718 39.269 128.744 38.4376C128.744 38.1583 128.744 37.873 128.744 37.5857C128.694 36.5714 128.484 35.559 127.932 34.9409C126.481 33.3124 132.646 33.5839 132.646 33.5839C132.835 34.3316 133.08 35.0641 133.38 35.775C133.827 36.8842 134.421 37.9284 135.146 38.8794C135.785 39.7256 136.603 40.4204 137.542 40.914C141.162 42.7247 133.729 49.4209 133.729 49.4209Z" fill="#F8BDC5"/>
<g opacity="0.1">
<path opacity="0.1" d="M133.374 35.775C132.84 36.47 132.126 37.0061 131.309 37.3252C130.492 37.6444 129.603 37.7344 128.738 37.5857C128.688 36.5714 128.478 35.559 127.926 34.9409C126.475 33.3124 132.64 33.5839 132.64 33.5839C132.829 34.3316 133.074 35.0641 133.374 35.775Z" fill="black"/>
</g>
<path d="M129.557 37.3878C132.211 37.3878 134.362 35.2404 134.362 32.5915C134.362 29.9425 132.211 27.7952 129.557 27.7952C126.903 27.7952 124.752 29.9425 124.752 32.5915C124.752 35.2404 126.903 37.3878 129.557 37.3878Z" fill="#F8BDC5"/>
<path d="M149.501 40.825C149.265 42.0801 149.114 43.3496 149.048 44.6248C148.975 46.2553 147.812 52.167 147.387 54.2769C147.334 54.5474 147.214 54.8006 147.039 55.0138C146.864 55.2271 146.638 55.3938 146.383 55.4992C145.204 55.9806 143.061 56.2501 141.62 52.8604C140.807 50.9952 140.148 49.0671 139.649 47.0953C139.472 46.4325 139.34 45.7588 139.252 45.0785L142.427 43.3589C142.726 43.638 142.979 43.9623 143.178 44.3197C143.616 45.0706 144.067 46.2751 143.972 47.9729L144.964 49.4211C144.964 49.4211 147.411 41.8196 146.949 40.4625C146.486 39.1054 148.399 38.7429 148.399 38.7429C148.399 38.7429 153.748 34.5825 154.383 35.2145C155.018 35.8465 152.492 39.0143 149.501 40.825Z" fill="#F8BDC5"/>
<path d="M123.484 44.4446C123.236 45.1524 122.952 45.8468 122.631 46.5247C121.563 48.8169 119.471 52.4681 116.232 54.58C111.247 57.8369 112.334 51.2319 112.334 51.2319C112.334 51.2319 113.555 43.3787 113.785 42.6358C114.148 41.459 113.966 39.6503 113.966 39.6503C112.062 38.7449 109.887 33.0452 110.52 32.5915C111.153 32.1378 115.68 37.3878 115.68 37.3878C115.68 37.3878 117.766 38.3784 116.673 40.0128C115.579 41.6472 116.038 48.8803 116.038 48.8803L118.135 45.9898C118.602 44.7837 119.229 43.6456 119.999 42.6061C120.396 42.0652 120.674 41.7384 120.674 41.7384L123.484 44.4446Z" fill="#F8BDC5"/>
<g opacity="0.1">
<path opacity="0.1" d="M143.18 44.3195C142.513 44.5652 139.931 45.6053 139.645 47.0931C139.468 46.4303 139.336 45.7566 139.248 45.0763L142.424 43.3567C142.725 43.636 142.98 43.9609 143.18 44.3195Z" fill="black"/>
</g>
<g opacity="0.1">
<path opacity="0.1" d="M123.485 44.4446C123.237 45.1524 122.953 45.8468 122.632 46.5248C122.509 45.6293 122.003 43.3391 120 42.6002C120.397 42.0593 120.675 41.7324 120.675 41.7324L123.485 44.4446Z" fill="black"/>
</g>
<g opacity="0.1">
<path opacity="0.1" d="M133.728 49.4211H128.469V40.9141C128.625 40.0971 128.717 39.2691 128.743 38.4377C129.824 39.4798 129.556 41.0944 129.556 41.0944L132.367 47.434L133.728 41.8294L133.276 41.1063L135.141 38.8914C135.78 39.7376 136.598 40.4324 137.537 40.926C141.161 42.7249 133.728 49.4211 133.728 49.4211Z" fill="black"/>
</g>
<g opacity="0.1">
<path opacity="0.1" d="M137.446 66.7914C137.446 66.7914 133.325 66.4645 129.751 66.31L129.392 66.2941C128.884 66.2743 128.399 66.2585 127.925 66.2466C124.456 66.1634 120.532 64.9529 119.865 64.7409C120.115 64.354 120.386 63.9803 120.675 63.6216L126.115 64.8103C126.115 64.8103 126.972 65.0837 128.878 65.9256L125.752 63.6216L135.278 65.3412C135.278 65.3412 135.61 65.2996 137.362 66.2783L137.446 66.7914Z" fill="black"/>
</g>
<path d="M133.73 42.1819L133.277 41.4588L135.29 39.0557C135.29 39.0557 139.44 41.0864 140.528 40.6406C140.528 40.6406 143.157 42.8198 143.247 44.0798C143.247 44.0798 139.44 45.3458 139.529 47.2496C139.619 49.1535 137.723 53.2207 137.723 53.2207L136.929 56.4737C136.441 58.4452 136.373 60.4971 136.731 62.4963L137.455 66.5239C137.455 66.5239 131.743 66.0723 127.929 65.9811C124.114 65.89 119.77 64.4438 119.77 64.4438L121.994 59.7703C122.797 58.0837 123.19 56.2322 123.142 54.3658L122.943 46.7999C122.943 46.7999 122.762 43.0001 119.768 42.3662C119.768 42.3662 121.399 39.0181 123.935 39.2895C123.935 39.2895 127.631 37.7502 128.728 38.7903C129.826 39.8303 129.556 41.4608 129.556 41.4608L132.366 47.8004L133.73 42.1819Z" fill="#ED677B"/>
<g opacity="0.1">
<path opacity="0.1" d="M126.089 31.6029C126.818 31.6029 127.389 30.8322 128.118 30.8718C128.495 30.8916 128.818 31.1313 129.13 31.3473C130.307 32.1612 131.617 32.7645 133.002 33.1303C133.54 33.2729 134.109 33.3799 134.649 33.2492C135.189 33.1184 135.695 32.6945 135.757 32.1417C135.772 31.8981 135.739 31.6539 135.661 31.4226C135.05 29.2973 133.668 27.4756 131.783 26.3133C131.029 25.8517 130.108 25.499 129.273 25.7883C128.518 26.0478 128.032 26.7531 127.486 27.3335C127.075 27.7682 126.608 28.1466 126.097 28.4588C125.7 28.6985 125.105 28.855 124.877 29.2948C124.446 30.115 125.123 31.5949 126.089 31.6029Z" fill="black"/>
</g>
<path d="M126.089 31.4224C126.818 31.4224 127.389 30.6518 128.118 30.6914C128.495 30.7112 128.818 30.9509 129.13 31.1669C130.307 31.9807 131.617 32.5841 133.002 32.9499C133.54 33.0925 134.109 33.1995 134.649 33.0687C135.189 32.938 135.695 32.514 135.757 31.9613C135.772 31.7177 135.739 31.4735 135.661 31.2422C135.05 29.1169 133.668 27.2952 131.783 26.1328C131.029 25.6712 130.108 25.3186 129.273 25.6078C128.518 25.8674 128.032 26.5726 127.486 27.1531C127.075 27.5878 126.608 27.9661 126.097 28.2784C125.7 28.5181 125.105 28.6746 124.877 29.1144C124.446 29.9425 125.123 31.4125 126.089 31.4224Z" fill="#85555C"/>
<path opacity="0.05" d="M123.893 52.0896C123.893 52.0896 128.334 53.7181 131.236 52.4521L132.687 52.5433C132.687 52.5433 135.098 54.2312 137.649 53.4764" fill="black"/>
<path opacity="0.05" d="M144.925 49.3755C144.925 49.3755 144.201 51.0951 144.562 51.6379L144.925 49.3755Z" fill="black"/>
<path opacity="0.05" d="M116.006 48.8328C116.006 48.8328 116.369 50.5524 116.006 51.0952V48.8328Z" fill="black"/>
<path d="M191.191 88.0173C191.191 88.0173 182.887 96.3063 187.575 108.605C192.263 120.904 179.541 141.357 179.541 141.357C179.541 141.357 179.678 141.337 179.938 141.294C196.992 138.288 205.465 118.82 195.982 104.356C192.448 98.9769 189.554 92.669 191.191 88.0173Z" fill="#56CCF2"/>
<path opacity="0.1" d="M191.191 88.156C191.191 88.156 182.887 96.445 187.575 108.744C192.263 121.043 179.541 141.494 179.541 141.494C179.541 141.494 179.678 141.474 179.938 141.43C196.992 138.425 205.465 118.957 195.982 104.492C192.448 99.1156 189.554 92.8077 191.191 88.156Z" fill="black"/>
<path d="M191.191 88.0173C191.191 88.0173 186.503 98.1765 191.191 106.466C195.879 114.755 191.985 138.015 179.539 141.357" stroke="#535461" stroke-miterlimit="10"/>
<path d="M205.98 121.542C205.98 121.542 196.505 120.036 195.642 128.511C194.778 136.987 177.416 138.161 177.416 138.161L177.742 138.377C192.071 147.768 205.771 144.358 203.705 131.889C202.943 127.255 203.007 122.6 205.98 121.542Z" fill="#56CCF2"/>
<path d="M205.98 121.542C205.98 121.542 198.624 123.152 199.232 129.829C199.839 136.505 188.316 144.507 177.424 138.163" stroke="#535461" stroke-miterlimit="10"/>
<path d="M197.645 138.47C197.645 138.47 190.182 136.981 188.191 134.994C186.201 133.006 177.246 129.532 176.252 132.022C175.257 134.512 162.819 142.948 171.276 144.437C179.733 145.927 191.176 146.419 193.663 145.428C196.15 144.437 197.645 138.47 197.645 138.47Z" fill="#A8A8A8"/>
<path opacity="0.2" d="M171.276 143.508C179.735 144.998 191.177 145.49 193.663 144.499C195.559 143.742 196.875 140.109 197.395 138.417L197.643 138.469C197.643 138.469 196.15 144.428 193.663 145.42C191.177 146.413 179.733 145.918 171.276 144.43C168.835 144 168.136 142.989 168.4 141.712C168.606 142.546 169.458 143.188 171.276 143.508Z" fill="black"/>
</g>
<defs>
<linearGradient id="paint0_linear" x1="103.59" y1="147.873" x2="103.59" y2="4.4397" gradientUnits="userSpaceOnUse">
<stop stop-color="#808080" stop-opacity="0.25"/>
<stop offset="0.54" stop-color="#808080" stop-opacity="0.12"/>
<stop offset="1" stop-color="#808080" stop-opacity="0.1"/>
</linearGradient>
<linearGradient id="paint1_linear" x1="34732.8" y1="49282.5" x2="34732.8" y2="14831.8" gradientUnits="userSpaceOnUse">
<stop stop-color="#808080" stop-opacity="0.25"/>
<stop offset="0.54" stop-color="#808080" stop-opacity="0.12"/>
<stop offset="1" stop-color="#808080" stop-opacity="0.1"/>
</linearGradient>
<clipPath id="clip0">
<rect width="206" height="153" fill="white"/>
</clipPath>
</defs>
</svg>
