<svg xmlns="http://www.w3.org/2000/svg" width="124" height="34" fill="none"><rect id="backgroundrect" width="100%" height="100%" x="0" y="0" fill="none" stroke="none"/>

<defs>
<clipPath id="clip0">
<rect width="123.63600158691406" height="34" fill="white" y="0" x="0.11865200102329254" id="svg_1"/>
</clipPath>
</defs>
<g class="currentLayer" style=""><title>Layer 1</title><g clip-path="url(#clip0)" id="svg_2" class="selected" fill="#ffffff" fill-opacity="1">
<path d="M100.683 15.7011C100.729 16.5784 100.405 17.4095 99.8027 17.9635C99.1077 18.5176 98.1809 18.8408 97.2542 18.7484H93.0375V8.40592H97.3005C98.0882 8.35975 98.8296 8.59061 99.432 9.05233C100.312 9.88342 100.498 11.2686 99.8491 12.2844C99.571 12.6999 99.2003 12.9769 98.737 13.1155V13.1616C99.015 13.2078 99.293 13.3463 99.5247 13.4848C99.7564 13.6234 99.9881 13.808 100.173 14.0389C100.359 14.2698 100.498 14.5006 100.59 14.7777C100.683 15.1009 100.729 15.4241 100.683 15.7011ZM94.1959 9.51405V12.6999H97.2542C97.7176 12.7461 98.2273 12.5614 98.598 12.2382C98.9223 11.9612 99.0613 11.5456 99.0613 11.0839C99.0613 10.6683 98.9223 10.2528 98.6443 9.9296C98.2736 9.60639 97.8102 9.46787 97.3469 9.51405H94.1959ZM94.1959 13.7619V17.6865H97.3005C97.9029 17.7327 98.5053 17.548 98.9687 17.1786C99.3394 16.8092 99.5247 16.2552 99.5247 15.7473C99.571 15.1932 99.3394 14.6391 98.876 14.3159C98.4126 13.9466 97.8566 13.7619 97.3005 13.808L94.1959 13.7619ZM105.132 10.853C105.873 10.8069 106.614 11.0377 107.217 11.4994C107.726 12.0073 108.004 12.6999 107.958 13.3925V18.7946H106.846V18.0097H106.8C106.429 18.3329 106.012 18.6099 105.549 18.7484C105.178 18.8408 104.761 18.9331 104.39 18.9331C104.066 18.9331 103.741 18.887 103.463 18.7946C103.139 18.7023 102.861 18.5638 102.629 18.3791C102.351 18.1944 102.166 17.9173 102.027 17.6403C101.842 17.2709 101.795 16.9016 101.795 16.5322C101.795 16.1628 101.842 15.8396 102.027 15.5164C102.166 15.1932 102.398 14.9623 102.629 14.7315C102.907 14.5006 103.232 14.3159 103.556 14.2236C103.927 14.0851 104.344 14.0389 104.714 14.0389C105.039 14.0389 105.41 14.0851 105.734 14.1312C106.105 14.2236 106.475 14.3621 106.846 14.5468V13.5772C106.892 13.1155 106.707 12.6076 106.383 12.2844C106.012 12.0073 105.502 11.8226 105.039 11.8688C104.668 11.8688 104.297 11.915 103.973 12.0073C103.649 12.0997 103.324 12.2382 103 12.3767L102.629 11.4994C103 11.3148 103.417 11.1762 103.834 11.0839C104.205 10.8992 104.668 10.853 105.132 10.853ZM106.8 15.4702C106.475 15.2855 106.197 15.147 105.827 15.0547C105.456 14.9623 105.085 14.87 104.668 14.9162C104.205 14.9162 103.741 15.0547 103.371 15.3317C103 15.6088 102.815 16.0705 102.861 16.486C102.815 16.9016 103 17.3633 103.324 17.6403C103.695 17.9173 104.158 18.0559 104.622 18.0559C105.039 18.0559 105.456 17.9173 105.827 17.7327C106.197 17.548 106.522 17.2709 106.8 16.9939V15.4702ZM115.789 18.7946H114.631V14.1312C114.677 13.531 114.538 12.9308 114.214 12.4691C113.889 12.0535 113.333 11.8226 112.824 11.8688C112.36 11.8688 111.943 12.0073 111.572 12.3305C111.248 12.6537 111.016 13.0231 110.877 13.4848C110.831 13.7157 110.785 13.9466 110.785 14.1774V18.8408H109.673V10.9916H110.785V12.0997H110.831C111.109 11.6841 111.48 11.3609 111.897 11.1301C112.267 10.9454 112.685 10.853 113.102 10.853C113.843 10.8069 114.584 11.0839 115.094 11.638C115.557 12.3305 115.789 13.1155 115.743 13.9466L115.789 18.7946ZM119.635 14.593L123.203 11.0377H121.906L118.569 14.4545V7.75951L117.411 8.2674V18.7946H118.569V14.8238L121.906 18.7946H123.296L119.635 14.593ZM40.7227 9.51405H43.7809V18.7946H45.9588V9.51405H48.878V7.71334H40.7227V9.51405ZM70.4249 11.0377H68.0153L65.2351 14.3621V7.9442L63.1499 8.68295V18.7946H65.2351V15.0085L67.969 18.7946H70.4249L67.3666 14.593L70.4249 11.0377ZM77.2365 11.9612C76.9121 11.5918 76.4951 11.3148 76.0317 11.1762C75.0586 10.8069 73.9465 10.8069 72.9271 11.1762C72.4637 11.3609 72.0467 11.5918 71.7223 11.9612C71.398 12.3305 71.1199 12.7461 70.9346 13.254C70.7492 13.808 70.6566 14.3621 70.6566 14.9623C70.6566 15.5164 70.7492 16.1166 70.9346 16.6245C71.1199 17.0863 71.3516 17.548 71.676 17.9173C72.0003 18.2867 72.4174 18.5638 72.8807 18.7484C73.3905 18.9331 73.9002 19.0255 74.4562 19.0255C74.9659 19.0255 75.522 18.9331 75.9853 18.7484C76.4487 18.5638 76.8658 18.2867 77.1901 17.9635C77.5608 17.5941 77.7925 17.1786 77.9779 16.6707C78.1632 16.1166 78.2559 15.5626 78.2559 14.9623C78.2559 14.4083 78.1632 13.808 77.9779 13.3002C77.8388 12.6999 77.5608 12.2844 77.2365 11.9612ZM76.078 15.8396C75.9854 16.1166 75.8927 16.3475 75.7537 16.5784C75.6146 16.8092 75.4293 16.9477 75.1976 17.0863C74.9659 17.2248 74.7342 17.2709 74.4562 17.2709C73.9465 17.3171 73.4831 17.0401 73.1588 16.6245C72.8344 16.1166 72.6491 15.4702 72.6954 14.87C72.6954 14.2698 72.8344 13.7157 73.1124 13.1616C73.3905 12.7461 73.8538 12.4691 74.3635 12.4691C74.8733 12.4229 75.383 12.6999 75.7073 13.1155C76.0317 13.6234 76.1707 14.2236 76.1707 14.8238C76.217 15.2394 76.1707 15.5164 76.078 15.8396ZM50.9632 7.71334C50.6388 7.71334 50.3145 7.85186 50.0828 8.08272C49.6194 8.54444 49.6194 9.28319 50.0828 9.74491C50.3145 9.97577 50.6388 10.1143 50.9632 10.1143C51.2876 10.1143 51.6119 9.97577 51.8436 9.74491C52.307 9.32936 52.3533 8.59061 51.8899 8.12889L51.8436 8.08272C51.6119 7.80568 51.2876 7.66717 50.9632 7.71334ZM49.9438 10.9916H52.029V18.7484H49.9438V10.9916ZM58.5162 10.9454C57.6821 10.853 56.8017 11.1301 56.153 11.638V10.9916H54.0678V18.7484H56.153V14.1312C56.1993 13.3002 56.8944 12.6999 57.7284 12.7461C58.4698 12.7923 59.0722 13.3925 59.1186 14.1312V18.7484H61.2037V14.1312C61.1574 11.7303 59.7673 11.0377 58.5162 10.9454ZM80.2947 10.853V10.9916H79.0436V12.6076H80.2947V18.7946H82.3799V12.6076H83.631V10.9916H82.3799V10.853C82.3799 9.79108 82.8896 9.23702 83.8627 9.4217L84.1871 7.80568C80.9898 7.39014 80.2947 9.0985 80.2947 10.853ZM85.6698 10.853V10.9916H84.4187V12.6076H85.6698V18.7946H87.755V12.6076H89.0061V10.9916H87.755V10.853C87.755 9.79108 88.2647 9.23702 89.2378 9.4217L89.5622 7.80568C86.4112 7.39014 85.6698 9.0985 85.6698 10.853Z" fill="#ffffff" id="svg_3" fill-opacity="1"/>
<path d="M11.3445 24.6123C11.8079 24.2429 12.2249 24.0582 12.1786 23.1348C11.4835 23.5041 9.44468 23.458 8.61061 22.3037C8.37892 21.9805 8.61061 21.7958 8.8423 22.0728C9.44468 22.7192 10.5104 22.4422 10.8811 22.2575C10.7885 22.0266 10.6495 21.7958 10.4641 21.6111C10.6031 21.4726 11.0201 21.2417 11.1128 20.8723C10.7421 20.78 10.4178 20.6877 10.0471 20.6415C10.2788 20.4568 10.3714 20.1336 10.2788 19.8566C9.39834 20.1336 8.33258 19.7642 8.05456 19.441C7.77654 19.1178 8.05456 18.8408 8.28625 19.0255C8.70328 19.4872 10.8811 19.9951 11.6689 19.2101C11.3908 19.1178 11.1592 18.9331 10.9738 18.7023C11.7152 18.6099 12.3176 18.1944 12.3639 17.6403C11.8542 17.6865 11.3908 17.5941 10.9275 17.4094C11.2518 17.3633 11.5299 17.0862 11.6225 16.763C10.2788 16.6707 10.1861 15.7011 10.1397 15.5164C11.0201 16.0243 12.5956 15.7934 12.1786 14.5468C11.4372 14.5006 10.6958 13.3001 12.7346 12.2382C14.5881 11.2686 16.6733 10.1604 16.4879 8.40591C16.3489 7.29778 14.4954 6.51286 14.2638 5.95879C13.476 6.32817 13.337 6.74372 13.6614 7.48247C13.6614 7.48247 11.9469 7.66716 11.8079 6.6052C11.8079 6.09731 12.0396 5.63559 12.4103 5.35856C12.2249 5.35856 10.9275 4.98918 10.5104 6.05114C9.76904 5.54324 9.16666 5.58942 8.65695 6.09731C9.44468 6.55903 9.90805 8.17505 11.2055 8.63677C10.2788 9.14466 8.79596 8.9138 7.91555 7.39012C7.08148 8.63677 6.6181 9.83724 8.37892 11.1762C5.18165 12.6537 5.18165 15.424 2.40141 16.763C2.67943 17.5018 3.28182 17.5018 4.06955 17.4094C2.86478 18.9793 3.8842 20.5953 1.98438 21.2879C2.16972 21.9343 2.54042 22.4422 3.23548 22.2575C3.05013 22.5807 2.91112 22.5807 2.58676 22.9039C3.65252 23.5503 4.85729 23.0886 5.13531 20.9647C5.18165 20.5953 5.69136 20.8262 5.50601 21.1955C4.30124 23.6427 7.31316 25.4895 6.24741 27.2902C7.17415 27.2441 7.91555 27.1517 8.28625 26.8747C8.4716 27.1979 8.56427 27.6135 8.56427 27.9828C8.98131 27.9367 9.25933 27.6134 9.30567 27.1979C9.63003 28.1675 10.8811 29.2295 12.8273 29.2295C11.8542 27.7981 12.8273 26.2745 11.3445 24.6123ZM9.44468 26.413L9.02764 27.1056C8.88863 26.6438 8.65695 26.2283 8.42526 25.8127C8.1009 26.5053 7.54485 26.5053 7.03514 26.5053C7.12782 24.8431 5.08897 23.2271 5.96938 21.3341C6.15473 20.9647 6.01572 20.503 5.64502 20.3183C4.2549 19.6257 4.90363 22.5345 3.51351 22.6269C3.69886 22.3037 3.83787 21.9343 3.93054 21.5187C3.65252 21.6111 2.91112 22.0266 2.58676 21.4726C3.23548 21.1032 3.69886 20.4568 3.74519 19.718C3.83787 19.164 3.93054 18.6561 4.16223 18.1482C4.44025 17.6403 4.81095 17.1324 5.18165 16.7169C5.04264 16.7169 3.46717 17.0862 3.14281 16.9016C5.83037 15.2394 5.22799 13.1616 9.35201 11.2686C8.28625 10.4836 7.17415 9.83724 7.96189 8.31356C9.07398 9.65255 11.2518 9.19083 12.4103 8.5906C11.2518 8.35974 9.76904 7.34395 9.44468 6.23582C9.86172 6.18965 10.4178 6.65137 10.7421 6.83606C10.8811 6.42051 10.9738 5.95879 11.4372 5.82028C10.7421 7.25161 12.0859 7.99036 13.337 7.99036C13.5224 7.99036 14.3564 7.89802 14.3564 7.89802C14.2174 7.62098 13.7077 6.88223 14.0784 6.6052C14.4028 6.88223 14.7735 7.11309 15.0978 7.39012C17.5537 9.28318 13.9394 11.0377 12.4566 11.8226C10.1397 13.0693 10.7421 14.5468 11.7152 14.9623C11.7152 15.147 11.6225 15.1932 11.4372 15.2394C10.7421 15.4702 10.0934 14.9623 9.58369 14.6853C9.63003 15.6087 9.53735 16.5322 10.6031 17.0401L9.90805 17.3171C10.5104 17.7788 10.6958 18.0097 11.4372 18.1482C11.0665 18.2867 10.6958 18.3329 10.2788 18.3329C10.3714 18.6099 10.4641 18.9331 10.6495 19.164C9.12032 19.3487 8.51793 18.4714 8.05456 18.5176C7.08148 18.6099 7.12781 20.4568 9.58369 20.4568L9.35201 20.8723C9.63003 21.0109 9.90805 21.1494 10.2324 21.1955C10.0471 21.3341 9.90805 21.5187 9.76904 21.6573L10.1861 21.9805C9.16666 22.1652 8.88863 21.1032 8.23991 21.6111C7.26683 22.396 9.44468 24.0582 11.5299 23.7812C11.2518 24.0582 10.9738 24.2891 10.6495 24.5199C12.3639 26.1359 11.5299 27.6596 12.2249 28.7677C10.8811 28.7216 9.76904 27.752 9.44468 26.413Z" fill="#ffffff" id="svg_4" fill-opacity="1"/>
<path d="M6.71096 20.5492C7.08166 20.9186 7.49869 20.9648 8.33276 20.9186C7.45236 20.8263 6.94265 20.5954 6.61828 19.9952C6.57195 19.672 6.52561 19.3488 6.52561 19.0256C6.57195 17.8713 6.84997 16.717 7.45236 15.7474C7.49869 16.8555 8.33276 17.7789 9.44486 17.9174C8.24009 17.3634 7.49869 16.1629 7.86939 15.0086C8.10108 14.5931 8.42544 14.1775 8.7498 13.762C8.93515 13.5311 9.07416 13.3464 9.21317 13.1617C9.02782 13.762 9.76922 14.3622 10.2326 14.4545C9.95457 14.2237 9.39852 13.3926 10.696 12.0074C10.3253 12.1921 9.95457 12.423 9.63021 12.6538C11.9934 10.1144 13.9396 10.0682 14.82 8.77539C13.5225 9.65266 10.1399 10.1144 8.56445 9.69883C9.39852 10.2529 11.4374 10.2067 11.9471 10.1144C10.2789 11.7304 6.66462 13.3926 6.0159 14.8701C6.57195 14.1775 7.35968 13.7158 8.24009 13.4849C7.68404 14.316 7.17433 15.1933 6.7573 16.0706C5.78421 18.1483 4.48677 18.1945 4.44043 19.9028C4.9038 18.5639 5.78421 18.2406 6.3866 17.3634C6.29392 18.0098 6.24758 18.61 6.24758 19.2564C6.24758 19.949 6.3866 20.6878 6.66462 21.3342C6.61828 22.1653 6.66462 23.6428 7.6377 24.6124C7.08166 23.8275 6.80363 22.8578 6.89631 21.8882C7.6377 23.3657 9.8619 25.3973 10.9277 26.7825C9.8619 24.9818 7.26701 22.904 6.71096 20.5492ZM30.9454 13.4849C31.8258 13.7158 32.6135 14.1775 33.1696 14.8701C32.5208 13.3926 28.9065 11.7304 27.2384 10.1144C27.7481 10.2067 29.7869 10.2529 30.621 9.69883C29.0919 10.1144 25.6629 9.65266 24.3655 8.77539C25.2459 10.0682 27.1921 10.1144 29.5553 12.6538C29.2309 12.423 28.8602 12.1921 28.4895 12.0074C29.7869 13.3926 29.2309 14.2237 28.9529 14.4545C29.4162 14.3622 30.1576 13.762 29.9723 13.1617C30.1113 13.3464 30.2967 13.5311 30.4357 13.762C30.76 14.1775 31.038 14.5931 31.3161 15.0086C31.6868 16.1629 30.9917 17.3634 29.7406 17.9174C30.8527 17.7789 31.6868 16.8555 31.7331 15.7474C32.3355 16.7631 32.6599 17.8713 32.6599 19.0256C32.6599 19.3488 32.6135 19.672 32.5672 19.9952C32.2428 20.5954 31.7331 20.8263 30.8527 20.9186C31.6868 20.9648 32.1038 20.9186 32.4282 20.5492C31.8721 22.904 29.2772 24.9818 28.2115 26.7363C29.2772 25.3511 31.4551 23.3196 32.2428 21.8421C32.2892 22.8117 32.0575 23.7813 31.5014 24.5662C32.4745 23.5966 32.5672 22.1653 32.4745 21.288C32.7525 20.6416 32.8915 19.9028 32.8915 19.2103C32.9379 18.5639 32.8915 17.9174 32.7525 17.3172C33.3549 18.1945 34.2817 18.5177 34.6987 19.8567C34.606 18.1483 33.3086 18.1021 32.3355 16.0244C32.0111 15.1471 31.5014 14.2699 30.9454 13.4849Z" fill="#ffffff" id="svg_5" fill-opacity="1"/>
<path d="M35.1618 17.3633C35.9032 17.5018 36.5056 17.5018 36.83 16.7169C34.0497 15.3779 34.0497 12.6076 30.8525 11.1763C32.6133 9.88344 32.1499 8.6368 31.3158 7.39015C30.4818 8.91383 28.9526 9.09852 28.0259 8.59062C29.3233 8.1289 29.7867 6.51288 30.5744 6.05116C30.0647 5.54327 29.4623 5.4971 28.7209 6.00499C28.3039 4.94304 27.0065 5.31241 26.8211 5.31241C27.1918 5.63562 27.4235 6.09734 27.4235 6.55906C27.2845 7.62101 25.57 7.43632 25.57 7.43632C25.9407 6.74374 25.7554 6.28202 24.9676 5.91265C24.7359 6.46671 22.8824 7.25164 22.7434 8.35976C22.5581 10.1143 24.6433 11.1763 26.4968 12.192C28.4893 13.254 27.7942 14.4545 27.0528 14.5006C26.6358 15.7473 28.2112 15.9781 29.0916 15.4702C29.0916 15.6549 28.9526 16.6245 27.6089 16.7169C27.7015 17.0401 27.9796 17.3171 28.3039 17.3633C27.8405 17.548 27.3308 17.6403 26.8675 17.5942C26.9138 18.1482 27.5162 18.5638 28.2576 18.6561C28.1186 18.9331 27.8405 19.1178 27.5625 19.2102C28.3503 19.9951 30.5281 19.4872 30.9451 19.0255C31.1305 18.7946 31.4085 19.1178 31.1305 19.441C30.8525 19.7642 29.7867 20.1336 28.9063 19.8566C28.8136 20.1336 28.9063 20.4568 29.0916 20.6415C28.7209 20.6877 28.3503 20.7339 28.0259 20.8724C28.1186 21.2417 28.5356 21.4726 28.6746 21.6111C28.4893 21.7958 28.3502 22.0267 28.3039 22.2575C28.6746 22.4422 29.7867 22.7192 30.3428 22.0728C30.5744 21.7958 30.8061 21.9805 30.5744 22.3037C29.7404 23.458 27.7015 23.458 27.0065 23.1348C27.0065 24.0582 27.3772 24.2429 27.8405 24.6123C26.3577 26.2745 27.3308 27.7982 26.3114 29.2295C28.2576 29.2295 29.4623 28.1675 29.833 27.1979C29.8794 27.6135 30.1574 27.9367 30.5744 27.9829C30.5744 27.5673 30.6671 27.1979 30.8525 26.8747C31.2232 27.1979 31.9646 27.2441 32.8913 27.2903C31.8256 25.4896 34.8375 23.6427 33.6327 21.1956C33.4474 20.8262 33.9571 20.5953 34.0034 20.9647C34.2814 23.0886 35.5325 23.5503 36.552 22.9039C36.2276 22.5807 36.0886 22.5807 35.9032 22.2575C36.5983 22.4422 36.969 21.9343 37.1543 21.2879C35.3472 20.5953 36.3666 18.9331 35.1618 17.3633ZM35.3472 21.5188C35.4399 21.8882 35.5325 22.2575 35.7642 22.5807C34.3741 22.4884 35.0228 19.5796 33.6327 20.2721C33.262 20.4568 33.123 20.9185 33.3083 21.2879C34.2351 23.181 32.1499 24.797 32.2426 26.4592C31.7329 26.4592 31.1768 26.4592 30.8525 25.7666C30.6208 26.1821 30.4354 26.5977 30.2501 27.0594L29.833 26.3668C29.5087 27.6596 28.3502 28.6293 27.0065 28.7216C27.7015 27.6135 26.8675 26.0898 28.5819 24.4738C28.2576 24.2429 27.9795 24.0121 27.7015 23.735C29.7867 23.9659 32.0109 22.3499 30.9915 21.5649C30.3428 21.0571 30.0647 22.119 29.0453 21.9343L29.416 21.6111C29.277 21.4264 29.138 21.2879 28.9526 21.1494C29.277 21.1032 29.555 20.9647 29.833 20.8262L29.555 20.4106C32.0109 20.4106 32.0572 18.5176 31.0842 18.4714C30.6208 18.4253 30.0184 19.3025 28.4893 19.1178C28.6746 18.887 28.7673 18.6099 28.86 18.3329C28.4893 18.3329 28.0722 18.2867 27.7015 18.1482C28.4429 18.0559 28.6283 17.825 29.2307 17.3171L28.5356 17.0401C29.555 16.5322 29.5087 15.6088 29.555 14.6853C28.999 15.0085 28.3502 15.4702 27.7015 15.2394C27.5625 15.1932 27.4235 15.1009 27.4235 14.9624C28.3966 14.593 28.999 13.1155 26.6821 11.8227C25.1993 11.0377 21.585 9.2832 24.0409 7.39015C24.3652 7.11312 24.7359 6.92843 25.0603 6.60523C25.431 6.88226 24.9213 7.62101 24.7823 7.89804C24.7823 7.89804 25.6163 7.99039 25.8017 7.99039C27.0528 7.99039 28.3966 7.25164 27.7015 5.8203C28.2112 5.91265 28.2576 6.42054 28.3966 6.83609C28.7209 6.60523 29.277 6.14351 29.694 6.23585C29.3233 7.34398 27.8869 8.35976 26.7284 8.59062C27.8869 9.23703 30.0184 9.69875 31.1768 8.31359C31.9646 9.83727 30.8525 10.4837 29.7867 11.2686C33.9107 13.1616 33.3083 15.2394 35.9959 16.9016C35.6252 17.0401 34.0961 16.7169 33.9571 16.7169C34.3278 17.1786 34.6985 17.6403 34.9765 18.1482C35.1618 18.6561 35.3008 19.164 35.3935 19.7181C35.4862 20.4568 35.9032 21.1032 36.552 21.4726C36.3203 22.0728 35.6252 21.6573 35.3472 21.5188ZM15.7002 26.1821L16.3025 25.6743L16.2099 25.4896C16.1635 25.3511 16.1635 25.351 16.2562 25.3049L16.5806 25.074C16.6269 25.0278 16.7196 25.0278 16.8123 25.0278L17.739 25.2587H16.7659C16.5806 25.2587 16.4416 25.351 16.3952 25.5357L16.3489 25.6743L16.0245 26.1821C15.8855 26.413 15.9319 26.69 16.1172 26.8747L16.3025 27.0594L15.9318 27.7982H16.2562L16.4879 27.2903C16.7196 27.1056 16.8586 26.8747 16.9513 26.5977C16.8586 26.5054 16.7659 26.4592 16.8123 26.3207L16.9513 26.0898C16.9976 25.9975 16.9976 25.9513 17.0903 25.9975L18.0634 26.2283C18.2024 26.3207 18.3877 26.2745 18.4804 26.136C18.6194 25.9513 18.6194 25.9513 18.9438 25.9975L19.4535 26.0436C20.0095 26.136 20.5656 25.9975 21.0753 25.7204C21.168 25.9051 21.3533 26.0898 21.446 26.2745C21.4923 26.3207 21.446 26.413 21.3997 26.5515L20.8436 27.8905H21.724L22.2337 26.69L22.3727 26.413L22.0947 27.7982H22.9288L23.1605 26.3207C23.2068 25.9975 23.1605 25.9051 23.0215 25.7666C22.6508 25.4896 22.6971 24.8432 22.5581 24.4738C22.6044 24.4276 22.6971 24.4276 22.7898 24.4276C22.9751 24.4276 23.1141 24.8893 23.3458 25.2125C23.7629 25.8128 24.3652 26.4592 25.014 25.5357C24.9676 25.4434 24.875 25.3511 24.7823 25.2587L24.5969 25.0278C24.5043 24.8893 23.9482 24.3353 23.7629 24.1044C23.3458 23.6889 22.6971 23.6427 22.2337 23.9197C21.5387 23.5503 20.8436 23.9197 20.6583 23.9197L19.4535 23.8735C19.3608 23.8735 19.3145 23.8274 19.2681 23.7812L19.4998 23.6889C19.3145 22.8578 18.8048 22.119 17.878 22.0267C17.878 22.0267 17.8317 21.7496 17.6927 21.7035L17.4146 22.0267C17.322 22.0267 17.2756 22.0728 17.183 22.0728L16.0245 21.6573L16.8586 22.5346C16.8586 22.5346 16.3952 23.181 16.3025 23.2733C16.2099 23.3657 16.2099 23.5042 16.3025 23.5965L16.4879 23.8274C16.5806 23.9197 16.6732 23.9197 16.8123 23.8735L16.9976 23.7812C17.0903 23.6889 17.3683 23.8735 17.461 23.735L17.322 24.4276L16.5342 24.2891C16.3952 24.2429 16.3025 24.2891 16.1635 24.3814L15.5148 24.8893C15.2831 25.074 15.2368 25.3511 15.3758 25.6281L15.7002 26.1821ZM22.0484 26.3207L21.5387 27.6135H21.2143L21.724 26.3668C21.7704 26.2283 21.6777 26.136 21.5387 25.9513L22.0947 26.2283C22.0947 26.2745 22.0947 26.2745 22.0484 26.3207ZM16.9976 23.5042L16.8586 23.5965C16.7659 23.6427 16.7196 23.6889 16.6269 23.5965L16.5342 23.5042C16.4879 23.458 16.4879 23.3657 16.5342 23.2733L17.183 22.5346L16.5806 22.0728L17.322 22.3499L17.6 22.0267C17.6927 22.119 17.6463 22.3037 17.6463 22.3037C18.3877 22.4422 18.8974 23.0886 18.8511 23.8274C18.9438 23.9659 19.1291 24.1044 19.3145 24.1506L20.6119 24.2429C20.8436 24.2429 21.3533 23.8274 22.0484 24.2429C22.2337 24.1506 22.4191 24.0582 22.6044 24.0121C23.1605 24.0121 23.7165 24.3353 23.9945 24.8432C24.2262 25.1664 24.5969 25.6281 24.5969 25.6281C24.4579 25.8128 24.3189 25.8589 24.1799 25.8128C23.9945 25.7204 23.9019 25.5357 23.9019 25.351C23.8092 25.1202 23.6238 24.8893 23.4385 24.7508C23.5312 24.9817 23.6238 25.2125 23.6238 25.4434C23.1141 24.9355 23.0215 24.3353 22.6508 24.2429C22.4654 24.1968 22.2337 24.2891 22.141 24.4738C22.3264 24.8893 22.3264 25.351 22.5117 25.6743C22.5581 25.8128 22.6508 25.9051 22.7434 25.9975C22.8824 26.0898 22.7898 26.3207 22.7898 26.4592L22.6044 27.6596H22.3264L22.5581 26.4592C22.6044 26.0898 21.6313 26.0898 21.0753 25.3972C20.6119 25.9051 19.4071 25.7666 18.8511 25.7204C18.6658 25.6281 18.4341 25.7204 18.2951 25.9051C18.2024 26.0436 18.1097 25.9975 18.017 25.9975L17.1366 25.7204C16.9513 25.6743 16.9049 25.7204 16.8123 25.8589L16.6269 26.2745C16.5806 26.3668 16.5806 26.4592 16.6732 26.5053L16.7659 26.5977C16.7196 26.7362 16.6269 26.8286 16.5342 26.9209L16.3025 26.69C16.2099 26.5515 16.2099 26.3668 16.2562 26.2283L16.5806 25.5819C16.6269 25.4896 16.7196 25.4434 16.8123 25.4434H18.017L17.6463 24.8432C17.3683 24.3814 17.8317 23.5965 17.7853 23.2271C17.739 23.735 17.1366 23.5042 16.9976 23.5042ZM15.7002 25.074L16.2562 24.6585C16.3489 24.5661 16.4416 24.52 16.5342 24.52L17.3683 24.6123C17.4146 24.7508 17.461 24.8893 17.5537 24.9817L16.6732 24.797C16.5806 24.7508 16.4879 24.797 16.3952 24.8893L15.9782 25.2125C15.8855 25.2587 15.8855 25.3972 15.9318 25.4896L15.9782 25.6281L15.7002 25.8589L15.6075 25.6743C15.5148 25.351 15.5148 25.1664 15.7002 25.074ZM18.2024 9.56024C18.4804 9.74492 18.7584 9.88344 19.0828 10.022V9.65258L17.878 9.19086C17.8317 9.19086 17.8317 9.32938 18.2024 9.56024ZM19.0828 9.09852V8.72914L17.6927 8.22125C17.8317 8.35976 18.017 8.49828 18.2024 8.6368C18.4804 8.82148 18.7584 9.00617 19.0828 9.09852ZM19.0828 8.26742V7.89804L17.5537 7.34398C17.5537 7.34398 17.8317 7.57484 18.2024 7.8057C18.4804 7.99039 18.7584 8.1289 19.0828 8.26742Z" fill="#ffffff" id="svg_6" fill-opacity="1"/>
<path d="M23.3459 13.3002H24.8751C24.7824 12.977 24.458 12.7923 24.1337 12.8385C23.763 12.8385 23.4849 13.0231 23.3459 13.3002ZM21.7241 7.34399L20.195 7.89806V8.26743C20.5194 8.12892 20.7974 7.9904 21.0754 7.80571L21.7241 7.34399ZM21.3998 9.19087L20.195 9.65259V10.022C20.5194 9.88345 20.7974 9.74494 21.0754 9.56025C21.3998 9.32939 21.3998 9.19087 21.3998 9.19087ZM21.5851 8.26743L20.195 8.77533V9.09853C20.5194 8.96001 20.7974 8.8215 21.0754 8.63681C21.2608 8.49829 21.3998 8.35978 21.5851 8.26743ZM15.1442 12.8385C14.8199 12.7923 14.4955 12.977 14.4028 13.3002H15.9783C15.793 13.0231 15.4686 12.8385 15.1442 12.8385Z" fill="#ffffff" id="svg_7" fill-opacity="1"/>
<path d="M22.6971 6.37435C22.6971 5.49708 21.2143 4.71216 19.5925 4.71216C17.9707 4.71216 16.5343 5.49708 16.5343 6.37435L16.5806 6.60521L17.2293 10.299L14.1711 12.0997C13.754 12.3767 13.476 12.8384 13.3833 13.3463H13.9394C14.0321 12.6999 14.5881 12.2382 15.2368 12.2844C15.9319 12.3305 16.3489 12.7461 16.766 13.3463L16.8586 13.4848L16.9976 13.7157H12.5029C12.8736 14.3621 13.1053 15.1009 13.1517 15.8396V25.1663C13.1517 27.5673 15.0051 28.7216 16.9976 28.7216C18.5268 28.7216 18.7585 28.6292 19.5925 29.5065C20.4266 28.6754 20.6583 28.7216 22.1874 28.7216C24.1799 28.7216 26.0334 27.5673 26.0334 25.1663V15.8396C26.0798 15.1009 26.3115 14.3621 26.6821 13.7157H22.1874L22.3264 13.4848L22.4191 13.3463C22.8362 12.7461 23.2532 12.2844 23.9482 12.2844C24.597 12.2382 25.153 12.6999 25.2457 13.3463H25.8017C25.8017 12.7923 25.5237 12.3305 25.1067 12.0535L22.0484 10.2528L22.6971 6.55904V6.37435ZM17.1367 6.7899L19.4072 7.57482V11.1301L17.739 10.2528L17.1367 6.7899ZM17.6927 14.3621C18.0171 14.8238 18.5268 15.1009 19.0828 15.1932C19.1292 15.4241 19.2682 15.6549 19.4535 15.8396C19.3145 16.4398 19.6852 17.0863 20.3339 17.2248C20.3803 17.548 20.612 17.825 20.9363 17.9173L20.4729 18.4714C20.3339 18.6561 20.1022 18.7484 19.8706 18.7023L17.739 18.4714C17.8317 18.2406 17.6 17.9635 16.905 18.102L17.739 15.7473L17.2293 14.6391L16.2563 15.4702L16.1636 17.9173L15.7465 17.7327C15.1905 17.5018 15.0515 18.4714 15.5612 18.4714H15.7465C15.7465 18.5638 15.7465 18.6561 15.8392 18.7023C15.7465 18.7484 15.7465 18.8408 15.7929 18.9331C15.7929 18.9793 15.8392 18.9793 15.8392 18.9793C15.7465 19.0255 15.7002 19.164 15.7465 19.2563L15.7929 19.3025C15.6539 19.5334 15.7465 19.8104 15.9782 19.9489C16.0246 19.9489 16.0246 19.9951 16.0709 19.9951C16.3953 20.0874 16.5806 19.7642 16.6269 19.5334L19.9632 20.5492C20.3803 20.6877 20.8436 20.5953 21.168 20.3183L22.0484 19.5795C21.9094 19.9951 22.0948 20.4568 22.5118 20.6415C22.4655 20.8724 22.4655 21.057 22.4655 21.2879H13.8004V15.8396C13.8004 15.3317 13.6614 14.8238 13.476 14.3621H17.6927ZM21.307 16.3937C21.1217 16.763 21.1217 17.1786 21.3534 17.5018L21.2143 17.6403C20.612 17.548 20.3339 16.6245 20.3339 16.6245V16.8554C19.9632 16.7169 19.7316 16.3475 19.7316 15.9781C19.8706 16.0705 20.0559 16.1166 20.1949 16.1166L20.2413 15.8396C19.8706 15.7934 19.5462 15.5164 19.4535 15.1932H19.4072H19.6389C19.8706 15.1932 20.1486 15.147 20.3803 15.1009C20.5656 15.3779 20.89 15.5164 21.2143 15.5626C21.1217 15.8858 21.168 16.1628 21.307 16.3937ZM22.2338 18.8408C22.1874 18.9331 22.0948 19.0255 22.0948 19.1178L21.7241 19.441C21.7704 18.9331 21.5387 18.4252 21.1217 18.102L21.4924 17.7327L21.585 17.825C21.4924 18.2867 21.7704 18.7484 22.2338 18.8408ZM20.5656 18.7023L20.8436 18.4252C21.2607 18.7484 21.446 19.2563 21.3997 19.7642L21.0753 20.0413C21.029 20.0874 20.9363 20.1336 20.89 20.1798C21.029 19.6719 20.89 19.1178 20.5656 18.7023ZM19.9169 18.9331C20.0096 18.9331 20.1486 18.9331 20.2413 18.887C20.5193 19.3025 20.5656 19.8566 20.3803 20.3645C20.2413 20.3645 20.1022 20.3645 19.9632 20.3183L19.8706 20.2721C20.0096 19.8566 20.0559 19.3487 19.9169 18.9331ZM19.2218 18.8408L19.6389 18.887C19.7316 19.3025 19.6389 19.7642 19.4535 20.1336L18.9902 19.9951C19.1755 19.6257 19.2682 19.2563 19.2218 18.8408ZM18.3878 18.7484L18.8511 18.7946C18.8975 19.164 18.8048 19.5795 18.6195 19.9027L18.1097 19.7642C18.3414 19.441 18.4341 19.1178 18.3878 18.7484ZM16.3953 18.6099C16.3026 18.6561 16.1636 18.6099 16.1172 18.5176C16.1172 18.4714 16.0709 18.4252 16.1172 18.3791C16.3489 18.2406 16.6733 18.2406 16.905 18.3791C17.044 18.4714 17.1367 18.6561 17.2757 18.7946C17.2293 19.0255 17.183 19.2102 17.1367 19.3948C16.8586 19.3948 16.6733 19.164 16.7196 18.887C16.7196 18.7946 16.766 18.7023 16.8123 18.6099C16.7196 18.5638 16.5343 18.5176 16.3953 18.6099ZM16.0709 19.4872C16.1636 19.5334 16.2563 19.5334 16.3953 19.5795C16.3953 19.6719 16.3026 19.7642 16.2099 19.7181C16.0709 19.7181 16.0246 19.6257 16.0709 19.4872C16.0709 19.4872 16.0709 19.5334 16.0709 19.4872ZM15.6075 18.1944C15.5612 18.1482 15.5149 18.0559 15.5612 18.0097C15.5612 17.9635 15.6075 17.9635 15.6539 17.9635C15.7929 17.9635 15.9782 18.102 16.1636 18.1944C15.9782 18.2405 15.7929 18.2405 15.6075 18.1944ZM16.0709 19.1178C16.1636 19.2102 16.4416 19.164 16.4416 19.164V19.2563C16.3489 19.3948 15.9782 19.3487 16.0709 19.1178ZM16.4416 18.9331C16.2099 19.0255 16.0246 18.887 16.0709 18.7484C16.1636 18.8408 16.4416 18.7946 16.4416 18.7946V18.9331ZM16.766 16.486L16.3489 17.9635L16.4879 15.6087L17.0903 15.0547L17.4147 15.7934L16.6269 18.102L16.8586 16.5784C16.8586 16.4398 16.8123 16.3937 16.766 16.486ZM16.8123 18.2867C16.9976 18.2867 17.183 18.2867 17.3683 18.3329C17.461 18.3791 17.4147 18.5176 17.2757 18.5176C17.1367 18.4714 16.9513 18.3791 16.8123 18.2867ZM17.5074 18.6561L18.0171 18.7023C18.0634 19.0255 17.9707 19.3948 17.7854 19.6719L17.322 19.5334C17.461 19.2563 17.5074 18.9793 17.5074 18.6561ZM25.431 25.1663C25.4774 26.1821 24.9213 27.1517 24.0409 27.6596L24.3653 27.0132H24.0409L23.6239 27.8443C23.1605 28.029 22.6971 28.0752 22.2338 28.0752C20.612 28.0752 20.1949 28.1214 19.6389 28.7216C19.0365 28.1214 18.6195 28.029 16.9976 28.029C16.5343 28.029 16.0709 27.9367 15.6075 27.7982L16.0246 26.9671H15.7002L15.3295 27.6596C15.2368 27.6135 15.1905 27.5673 15.0978 27.5211L15.3758 26.9209H15.1442L14.9125 27.3364C14.2174 26.7824 13.8004 25.9513 13.8467 25.074V21.5649H25.4774L25.431 25.1663ZM25.7554 14.3621C25.5701 14.8238 25.431 15.3317 25.431 15.8396V21.2417H24.7823C24.5506 20.8724 24.3653 20.4568 24.2263 20.0413C24.1336 20.4568 24.1799 20.8724 24.4116 21.2417H23.5775C23.3922 20.8262 23.2532 20.4106 23.2068 19.9951C22.9752 20.2721 23.1142 21.0109 23.2532 21.2417H22.6971C22.6971 20.9647 22.6971 20.6877 22.7898 20.4106C22.5118 20.3645 22.1874 20.2259 22.1874 19.9027C22.2801 19.9951 22.4655 20.0413 22.6045 20.0413L22.8362 19.8566C22.0484 19.8566 22.0484 19.0255 22.6508 18.6561C22.0484 18.6561 21.585 18.3329 21.8167 17.6865C21.3997 17.4095 21.2607 16.9016 21.5387 16.486C21.5387 16.486 21.5387 16.4398 21.585 16.4398C21.3534 16.1166 21.307 15.7011 21.446 15.3779C21.1217 15.3779 20.8436 15.2855 20.612 15.0547H20.5656C20.9363 14.9162 21.2607 14.6853 21.4924 14.3621H25.7554ZM23.4385 11.7765C22.7898 11.8688 22.2801 12.6537 21.8167 13.3463L21.7704 13.4387H21.307V13.531C21.2607 14.0851 20.751 14.7777 19.6389 14.7777C19.2218 14.7777 18.8048 14.6391 18.4804 14.4083C18.2488 14.2236 18.1097 14.0389 18.0171 13.7619C17.9707 13.6695 17.9707 13.6234 17.9707 13.531V13.4387H17.5074L17.461 13.3463C16.9976 12.6537 16.4879 11.8688 15.8392 11.7765L17.5537 10.7607L19.6852 11.8688L21.7704 10.7145L23.4385 11.7765ZM21.4924 10.2528L19.7779 11.1301V7.52865L22.0948 6.74373L21.4924 10.2528ZM19.6389 7.20545L17.1367 6.23583C17.3683 5.72794 18.3414 5.31239 19.6389 5.31239C20.9363 5.31239 21.9094 5.72794 22.1411 6.23583L19.6389 7.20545Z" fill="#ffffff" id="svg_8" fill-opacity="1"/>
<path d="M25.1995 17.8711V17.5941C24.3654 17.5941 24.1801 16.5783 24.1801 16.5783C24.0411 17.1324 24.3191 17.6864 24.8751 17.825C24.9678 17.8711 25.0605 17.8711 25.1995 17.8711ZM24.1337 19.5333L24.0411 19.2563C23.346 19.441 22.9753 18.2867 22.9753 18.2867C22.8363 18.7946 23.1143 19.3486 23.624 19.4871C23.763 19.5333 23.9484 19.5795 24.1337 19.5333ZM24.5971 18.4714C23.763 18.6099 23.3923 17.5941 23.3923 17.5941C23.2533 18.102 23.624 18.6099 24.1337 18.7484H24.2264C24.1337 19.1639 24.4118 19.5333 24.8288 19.6257C25.0141 19.6718 25.1995 19.6257 25.3385 19.5333L25.2458 19.3025C24.9678 19.3948 24.6434 19.2563 24.5508 18.9793C24.4581 18.8407 24.5044 18.6561 24.5971 18.4714ZM24.0874 15.6549V15.3778C22.9753 15.147 23.068 14.3621 23.068 14.3621C22.929 14.9161 23.207 15.4702 23.763 15.6087C23.8557 15.6549 23.9947 15.6549 24.0874 15.6549ZM16.9515 27.0132L16.5344 27.7981H16.8588L17.2295 27.0132H16.9515ZM17.5538 27.0132L17.1368 27.7981H17.4612L17.8782 27.0132H17.5538ZM20.0097 27.0132L19.5927 27.7981H19.917L20.2877 27.0132H20.0097ZM20.6121 27.0132L20.1951 27.7981H20.5194L20.9365 27.0132H20.6121ZM19.4073 27.0132L18.9903 27.7981H19.3147L19.6854 27.0132H19.4073ZM22.9753 27.7981H23.2533L23.6704 27.0132H23.346L22.9753 27.7981ZM18.1562 27.0132L17.7855 27.7981H18.0636L18.4806 27.0132H18.1562ZM18.7586 27.0132L18.3879 27.7981H18.6659L19.083 27.0132H18.7586ZM17.4148 22.5807C17.3685 22.5807 17.3222 22.6268 17.3222 22.7192C17.3222 22.7654 17.3685 22.8115 17.4148 22.8577C17.4612 22.8577 17.5075 22.8115 17.5538 22.7654V22.7192L17.4148 22.5807ZM19.639 4.15805C20.6584 4.11188 21.6315 4.43508 22.4656 5.03532C22.6046 4.38891 22.8363 3.7425 23.207 3.18844L22.1876 3.32696L21.6315 2.17266L20.6121 2.68055L19.639 1.71094L18.6659 2.68055L17.6465 2.17266L17.1368 3.28078L16.071 3.14227C16.4417 3.69633 16.6734 4.34274 16.8124 4.98915C17.6002 4.43508 18.6196 4.11188 19.639 4.15805ZM17.2295 3.69633L17.6929 2.68055L18.5733 3.14227L19.5463 2.17266L20.5194 3.14227L21.3998 2.68055L21.8632 3.69633L22.4656 3.60399C22.3266 3.88102 22.1876 4.15805 22.0949 4.48126C20.5194 3.60399 18.5269 3.60399 16.9515 4.48126C16.8588 4.15805 16.7198 3.88102 16.5808 3.60399L17.2295 3.69633Z" fill="#ffffff" id="svg_9" fill-opacity="1"/>
<path d="M20.6584 2.17262C20.7975 2.17262 20.9365 2.08027 20.9365 1.94176C20.8901 1.75707 20.8438 1.57238 20.7511 1.3877C20.7511 1.3877 20.4268 1.7109 20.4268 1.89559C20.4268 2.0341 20.5194 2.17262 20.6584 2.17262ZM22.3266 2.77285C22.4656 2.81903 22.6046 2.77285 22.6973 2.68051C22.7436 2.49582 22.7436 2.31114 22.6973 2.12645C22.6973 2.12645 22.2803 2.31113 22.1876 2.44965C22.0949 2.54199 22.1412 2.68051 22.3266 2.77285ZM18.6196 2.17262C18.7586 2.17262 18.8513 2.0341 18.8513 1.89559C18.8513 1.75707 18.5269 1.3877 18.5269 1.3877C18.4343 1.57238 18.3416 1.75707 18.3416 1.94176C18.3416 2.08027 18.4343 2.17262 18.6196 2.17262ZM16.9515 2.77285C17.0905 2.68051 17.1368 2.54199 17.0441 2.40348C16.9515 2.26496 16.5344 2.08028 16.5344 2.08028C16.5344 2.26496 16.5344 2.44965 16.5808 2.63434C16.6734 2.77285 16.8124 2.81903 16.9515 2.77285C16.9515 2.72668 16.9515 2.72668 16.9515 2.77285ZM36.7838 11.8226C37.1082 11.684 37.3862 11.407 37.5716 11.0376C36.6912 10.8991 34.2816 9.92951 32.3354 10.7144C33.0768 10.0219 33.7256 9.92951 33.7719 8.91373C34.0499 9.19076 34.5133 9.14459 34.7913 8.86756C34.8377 8.82138 34.884 8.77521 34.884 8.72904C34.6987 8.1288 34.1889 8.59052 34.0963 8.45201C34.0036 8.31349 34.745 8.49818 34.884 7.75943C34.2816 7.57474 34.1426 8.03646 34.0499 7.94412C33.9573 7.85177 34.4206 7.66708 34.0963 7.02068C33.4939 7.39005 33.8182 7.75943 33.6792 7.8056C33.5402 7.85177 33.6329 7.39005 32.9842 7.39005C32.9378 8.08263 33.5866 8.1288 33.4939 8.22115C33.4012 8.31349 33.1695 7.8056 32.6598 8.08263C32.6135 8.49818 32.9378 8.82138 33.3549 8.86756C33.4475 8.86756 33.5402 8.86756 33.6329 8.82138C33.5402 9.92951 32.5671 9.69865 31.8257 10.9453C33.4012 11.7764 34.1426 13.1615 35.1157 14.1312C35.4864 13.7618 35.7644 13.3462 35.9961 12.8845C36.5058 13.3924 37.2935 13.3924 37.8033 12.8845C37.3399 12.6075 37.3399 12.3305 36.7838 11.8226ZM35.2547 12.0073C35.4864 12.5613 35.4401 13.2077 35.0694 13.7156C34.606 12.6998 33.9109 11.8226 33.0305 11.0838C32.8915 10.9915 33.1232 10.8068 33.4939 10.7606C34.6987 10.5297 36.1351 11.0376 36.8302 11.2223C36.5521 11.4532 36.2741 11.5455 35.9498 11.5917C36.3668 11.9149 36.7375 12.3305 37.0619 12.746C36.5521 12.9307 36.2741 12.6075 35.2547 12.0073ZM19.3147 31.1686H18.6196L18.5269 31.4457H18.6196C18.6659 31.4457 18.6659 31.3995 18.6659 31.3533H19.1757C18.9903 31.7227 18.5733 32.0459 18.5733 32.2768C18.5733 32.4153 18.7123 32.4153 18.805 32.4153C18.8976 32.4153 18.9903 32.3229 19.0366 32.1844C19.1293 31.815 19.2683 31.5842 19.4073 31.1686H19.3147ZM19.778 31.5842V31.3533H20.3804L20.3341 31.1225C20.1951 31.1225 19.917 31.1686 19.7317 31.1686L19.6854 31.6303C19.9634 31.6303 20.1487 31.7227 20.1487 32.0459C20.1487 32.1382 20.0561 32.3691 19.9634 32.3691H19.8707C19.8244 32.3229 19.8707 32.2768 19.8707 32.1844C19.8244 32.0921 19.7317 32.0459 19.6854 32.0921C19.639 32.0921 19.5927 32.1844 19.5927 32.2306C19.5927 32.4153 19.8244 32.4614 19.9634 32.4614C20.1951 32.4614 20.4731 32.3229 20.4731 32.0459C20.4731 31.7227 20.0561 31.6303 19.778 31.5842ZM21.0755 31.1225C20.8438 31.1225 20.7048 31.261 20.7048 31.4918C20.7048 31.815 21.0755 31.9535 21.3535 31.815C21.3998 32.0921 21.3535 32.2768 21.2145 32.2768C21.0755 32.2768 21.1682 32.2306 21.1682 32.1844C21.1682 32.0921 21.0755 32.0459 21.0291 32.0459H20.9828C20.9365 32.0459 20.8901 32.1382 20.8901 32.1844C20.9365 32.3229 21.1218 32.3229 21.1682 32.3229C21.4462 32.3229 21.6779 32.0459 21.6779 31.7227C21.7242 31.3995 21.4925 31.1225 21.1682 31.0763C21.1682 31.1225 21.1218 31.1225 21.0755 31.1225ZM21.2608 31.815C21.0291 31.815 21.0291 31.4918 21.0291 31.3071C21.0291 31.261 21.0755 31.2148 21.1218 31.2148C21.3072 31.2148 21.3535 31.6765 21.3998 31.815C21.3535 31.7689 21.3072 31.815 21.2608 31.815ZM18.1562 31.0763C18.0172 31.261 17.8319 31.3995 17.6465 31.538L17.6929 31.5842L17.8782 31.4918L17.6929 32.1382C17.6929 32.1844 17.6465 32.1844 17.6002 32.1844H17.4612V32.2768L18.0636 32.3691V32.2768L17.9709 32.2306C17.9245 32.2306 17.9245 32.1844 17.9245 32.1844L18.1562 31.0763Z" fill="#ffffff" id="svg_10" fill-opacity="1"/>
<path d="M25.0604 30.2452V28.9062C23.7629 29.4603 22.4191 29.8297 21.029 29.922L20.9363 30.3837C21.1217 30.4299 21.307 30.4299 21.4924 30.4299C20.2326 30.6139 18.9525 30.6139 17.6927 30.4299C17.8781 30.4299 18.0634 30.3837 18.2488 30.3837L18.1561 29.922C16.766 29.8297 15.4222 29.4603 14.1247 28.9062V30.2452L12.8273 30.7993C13.9857 31.3995 15.1905 31.8151 16.4416 32.1383L16.3026 32.6923C18.5268 33.2926 20.8437 33.2926 23.0678 32.6923L22.8825 32.1383C24.1336 31.8151 25.3384 31.3995 26.4505 30.7993L25.0604 30.2452ZM13.5224 30.8455L14.4491 30.4761V29.368C15.2832 29.6912 16.1172 29.922 16.9977 30.1067L16.4416 31.8612C15.4685 31.5842 14.4954 31.261 13.5224 30.8455ZM19.5925 32.8309C18.5731 32.8309 17.5537 32.6923 16.5806 32.4615L17.1367 30.6146C17.9244 30.7531 18.7585 30.7993 19.5925 30.7993C20.4266 30.7993 21.2144 30.7531 22.0484 30.6146L22.6045 32.4615C21.6314 32.6923 20.612 32.8309 19.5925 32.8309ZM22.7435 31.8151L22.1874 30.0605C23.0678 29.8759 23.9019 29.645 24.736 29.3218V30.4299L25.6627 30.7993C24.736 31.261 23.7166 31.5842 22.7435 31.8151ZM3.32815 12.9769C3.55984 13.4386 3.83786 13.8542 4.20856 14.2236C5.18164 13.2539 5.92304 11.8226 7.49851 11.0377C6.75711 9.79104 5.73769 10.0219 5.64502 8.91377C6.01572 9.05229 6.43275 8.82143 6.57176 8.40588C6.6181 8.31354 6.6181 8.22119 6.6181 8.12885C6.10839 7.85182 5.92304 8.40588 5.78403 8.26737C5.64502 8.12885 6.38641 8.12885 6.29374 7.43627C5.64502 7.43627 5.73769 7.89799 5.59868 7.85182C5.45967 7.80565 5.78403 7.3901 5.18164 7.06689C4.85728 7.7133 5.32066 7.89799 5.22798 7.99033C5.13531 8.08268 4.94996 7.62096 4.39391 7.80565C4.53292 8.59057 5.32066 8.26737 5.18164 8.49823C5.04263 8.72909 4.57926 8.17502 4.39391 8.77526C4.57926 9.09846 4.99629 9.23698 5.36699 9.05229C5.41333 9.00612 5.45967 9.00612 5.50601 8.95995C5.55234 9.97573 6.20107 10.0681 6.94246 10.7145C4.99629 9.88339 2.58675 10.8992 1.70635 11.0377C1.84536 11.3609 2.12338 11.6379 2.44774 11.8226C1.8917 12.3305 1.89169 12.6075 1.521 12.9769C2.03071 13.4848 2.86478 13.4848 3.32815 12.9769ZM2.21606 12.8384C2.54042 12.4228 2.91112 12.0073 3.32815 11.6841C3.00379 11.6379 2.67943 11.4994 2.44774 11.3147C3.1428 11.13 4.57926 10.6221 5.78403 10.853C6.20107 10.8992 6.43275 11.0839 6.2474 11.1762C5.36699 11.8688 4.67193 12.746 4.20856 13.808C3.83786 13.3001 3.79152 12.6537 4.02321 12.0996C3.00379 12.6537 2.72577 12.9307 2.21606 12.8384ZM18.7585 12.2382V12.7922C18.8975 12.6537 19.1292 12.5614 19.3609 12.6075V13.4386C19.3609 13.6695 19.3145 13.8542 19.2219 14.0389H20.0559C19.9632 13.8542 19.9169 13.6695 19.9169 13.4386V12.6075C20.1486 12.5614 20.3339 12.6537 20.5193 12.7922V12.192L18.7585 12.2382Z" fill="#ffffff" id="svg_11" fill-opacity="1"/>
<path d="M38.2204 12.469C38.1277 12.3767 38.035 12.2382 37.9887 12.1458L37.8497 11.915C37.9887 11.7303 38.1277 11.5456 38.2204 11.3147L38.5911 10.4375L37.6643 10.2989C37.5253 10.2528 37.2473 10.2066 36.9693 10.1143C36.2742 9.92957 35.5792 9.79106 34.8378 9.69871C35.1158 9.5602 35.3475 9.32934 35.4865 9.05231L35.6255 8.77527C35.6255 8.77527 35.5792 8.4059 35.4401 8.26738L35.5792 7.85183L35.7182 7.2516L35.1158 7.06691C35.0231 7.02074 34.9304 7.02074 34.8378 7.02074C34.7914 6.88222 34.7451 6.78988 34.6987 6.65136L34.328 6.00496L33.6793 6.4205C33.5403 6.51285 33.4013 6.60519 33.2623 6.74371C33.1696 6.74371 33.0769 6.69754 32.9379 6.69754C32.6599 6.69754 32.4282 6.69753 32.1502 6.78988L31.6405 6.28199L31.0381 5.63558C30.5284 5.03534 29.648 4.85066 28.9066 5.12769C28.4895 4.75831 27.9798 4.57362 27.4238 4.57362C27.2384 4.57362 27.0531 4.57362 26.8214 4.6198C26.2654 4.71214 25.7093 4.98917 25.2459 5.31238L24.5509 4.98917C24.2729 5.45089 23.8095 5.7741 23.2998 5.95878C23.2534 5.72792 23.1608 5.54323 23.0217 5.35855L23.0681 5.12769C23.1608 4.57362 23.3924 4.01956 23.7168 3.51167L24.5509 2.26502L23.3924 2.40354V1.98799L23.2998 1.01838L22.373 1.43393L22.095 1.57244L21.9096 1.20307L21.4926 1.43393C21.4463 1.29541 21.3999 1.20307 21.3073 1.06455L20.8439 0.187285L20.2415 0.926037L20.0562 1.11073L19.6391 0.695177L19.2221 1.11073C19.1757 1.01838 19.0831 0.972209 19.0367 0.879865L18.3417 0.141113L17.8783 1.01838C17.832 1.11072 17.7393 1.24924 17.693 1.38776L17.2759 1.1569L17.0906 1.52627L16.8125 1.38776L15.8858 0.972209L15.7931 1.94182V2.35737L14.681 2.3112L15.4688 3.55784C15.7931 4.06573 15.9785 4.57362 16.0711 5.12769L16.1175 5.35855C15.9785 5.54323 15.8858 5.72792 15.8395 5.95878C15.3761 5.72792 14.9591 5.40472 14.5884 4.98917L13.8933 5.31238C13.2909 4.80448 12.5032 4.57362 11.7618 4.52745C11.2057 4.48128 10.6497 4.66597 10.279 5.08152C9.53758 4.75831 8.70351 4.98917 8.14746 5.58941C8.14746 5.58941 7.77677 6.00496 7.54508 6.23582C7.35973 6.4205 7.17438 6.55902 6.94269 6.69754C6.61833 6.65136 6.29397 6.65136 5.92327 6.69754C5.78426 6.55902 5.64525 6.46667 5.50624 6.37433L4.85752 6.00496L4.48682 6.65136C4.44048 6.74371 4.39414 6.88222 4.3478 7.02074C4.25513 7.02074 4.16246 7.06691 4.06978 7.06691L3.56007 7.34394L3.69908 7.94418L3.83809 8.35973C3.79176 8.4059 3.79176 8.49824 3.74542 8.59059L3.65275 8.86762L3.79176 9.14465C3.93077 9.42168 4.16246 9.65254 4.44048 9.79106C3.74542 9.8834 3.00402 10.0219 2.30896 10.2066C2.03094 10.2989 1.75292 10.3451 1.6139 10.3913L0.687157 10.5298L0.918844 10.9915L1.10419 11.3609C1.19687 11.5918 1.33588 11.7765 1.47489 11.9611L1.05786 12.5152L0.594482 12.9769L1.05786 13.4848C1.42855 13.8542 1.93826 14.0851 2.44798 14.0851C2.67966 14.0851 2.91135 14.0851 3.0967 13.9927C3.28205 14.3159 3.51373 14.5929 3.83809 14.87C3.37472 15.424 2.81867 15.8396 2.16995 16.1628L1.56757 16.4398L1.84559 17.1324C2.03094 17.6403 2.44797 18.0097 2.95769 18.1482L2.67966 19.2563C2.54065 20.0412 2.49431 20.4106 1.79925 20.6415L1.15053 20.8723L1.33588 21.5187C1.42855 21.9343 1.66024 22.3037 1.93826 22.6269L1.52123 23.0886C2.07728 23.5041 2.77234 23.8273 3.4674 23.9659C3.93077 24.012 4.34781 23.8273 4.67217 23.5041C4.81118 24.012 5.04286 24.5199 5.27455 24.9816C5.73792 25.9051 5.96961 26.4591 5.64525 26.967L5.04286 28.029L6.34031 27.9828C6.85002 27.9828 7.40607 27.9366 7.91578 27.7981V27.8905L7.8231 28.8601L8.98154 28.6292C9.12055 28.5831 9.21322 28.5369 9.3059 28.4907C10.2326 29.5065 11.5301 30.0144 12.8739 29.9682H12.9665L11.0667 30.7531L12.4568 31.4457C13.4299 31.9536 14.4493 32.3692 15.4688 32.6462L15.3297 33.2003L16.0248 33.3849C17.1832 33.7081 18.388 33.8928 19.5928 33.8928C20.7976 33.8928 22.0023 33.7081 23.1608 33.3849L23.8558 33.2003L23.7168 32.6462C24.7826 32.3692 25.802 31.9536 26.7751 31.4457L28.1652 30.7531L26.2654 29.9682H26.358C27.7018 30.0144 29.0456 29.5065 29.926 28.4907C30.0187 28.5369 30.1577 28.5831 30.2504 28.6292L31.4088 28.8601L31.3161 27.8905V27.7981C31.8258 27.8905 32.3819 27.9828 32.8916 27.9828L34.189 28.029L33.5403 26.8747C33.2623 26.3668 33.494 25.8127 33.911 24.8893C34.1427 24.3814 34.3744 23.8735 34.5134 23.3656C34.7451 23.5503 35.0231 23.6888 35.3011 23.735C35.4401 23.7812 35.5792 23.7812 35.7182 23.8273C36.1815 23.8273 36.6449 23.6888 37.0156 23.4118L37.757 22.9501L37.34 22.4884C37.618 22.1651 37.8497 21.7958 37.9424 21.3802L38.1277 20.7338L37.479 20.503C36.7839 20.2721 36.6913 19.9027 36.5986 19.1178C36.5522 18.7484 36.4596 18.379 36.3206 18.0097C36.8303 17.8712 37.2473 17.5018 37.4326 16.9939L37.6643 16.3013L37.062 16.0243C36.4132 15.7011 35.8572 15.2855 35.3938 14.7315C35.6718 14.5006 35.9035 14.1774 36.1352 13.8542C36.3669 13.9465 36.5986 13.9927 36.7839 13.9927C37.2936 13.9927 37.8033 13.7618 38.174 13.3925L38.6374 12.8846L38.2204 12.469Z" fill="#ffffff" id="svg_12" fill-opacity="1"/>
<path d="M13.8004 21.2879V15.8396C13.8004 15.3317 13.6614 14.8238 13.4761 14.3621H17.6928C18.5732 15.424 20.1486 15.5625 21.1681 14.6853C21.2607 14.5929 21.3998 14.5006 21.4924 14.3621H25.7091C25.5238 14.8238 25.3848 15.3317 25.3848 15.8396V21.2879H13.8004ZM19.6389 28.6754C19.0366 28.1213 18.6195 28.029 16.9977 28.029C15.0979 28.029 13.8004 26.9208 13.8004 25.1201V21.5649H25.4311V25.1201C25.4311 26.9208 24.1337 28.029 22.2338 28.029C20.6584 28.029 20.2413 28.1213 19.6389 28.6754Z" fill="#ffffff" id="svg_13" fill-opacity="1"/>
<path d="M14.4957 29.368V30.43L13.5689 30.7994C14.4957 31.2149 15.5151 31.5381 16.5345 31.769L17.0905 30.0144C16.2101 29.9221 15.3297 29.6912 14.4957 29.368ZM19.6391 30.8455C18.805 30.8455 18.0173 30.7994 17.1832 30.6608L16.6272 32.5077C18.6197 33.0156 20.6585 33.0156 22.651 32.5077L22.095 30.6608C21.2609 30.7994 20.4732 30.8455 19.6391 30.8455ZM24.7825 29.368C23.9485 29.6912 23.1144 29.9221 22.234 30.0606L22.79 31.8151C23.8094 31.5843 24.7825 31.2611 25.7556 30.8455L24.8289 30.4761L24.7825 29.368ZM12.5031 11.8688C13.9859 11.0839 17.6002 9.32938 15.1444 7.43633C14.82 7.1593 14.4493 6.92844 14.125 6.65141C13.7543 6.92844 14.264 7.66719 14.403 7.94422C14.403 7.94422 13.5689 8.03657 13.3836 8.03657C12.1324 8.03657 10.7887 7.29782 11.4837 5.86648C10.974 5.95883 10.9277 6.46672 10.7887 6.88227C10.4643 6.65141 9.90826 6.18969 9.49122 6.28203C9.86192 7.39016 11.2984 8.40594 12.4568 8.6368C11.2984 9.28321 9.16686 9.74493 8.00843 8.40594C7.22069 9.92962 8.33279 10.576 9.39855 11.361C5.27453 13.2078 5.87691 15.3317 3.18935 16.9939C3.56005 17.1786 5.08918 16.8554 5.22819 16.8092C4.85749 17.271 4.48679 17.7327 4.20877 18.2406C4.02342 18.7485 3.88441 19.3025 3.79173 19.8104C3.69906 20.5492 3.28202 21.1956 2.6333 21.565C2.95766 22.1652 3.65272 21.7035 3.97708 21.6111C3.88441 21.9805 3.79173 22.3499 3.56005 22.6731C4.95017 22.5807 4.30144 19.6719 5.69156 20.3645C6.06226 20.5492 6.20127 21.0109 6.01592 21.3803C5.08918 23.2733 7.17436 24.9355 7.08168 26.5515C7.59139 26.5515 8.1011 26.5515 8.4718 25.859C8.70349 26.2745 8.88884 26.69 9.07419 27.1518L9.49122 26.4592C9.81558 27.752 10.974 28.7216 12.3178 28.814C11.6227 27.7058 12.4568 26.1822 10.7423 24.5661C11.0667 24.3353 11.3447 24.1044 11.6227 23.8274C9.53756 24.0582 7.31337 22.4422 8.33279 21.6111C8.98151 21.1032 9.25953 22.1652 10.279 21.9805L9.86192 21.6573C10.0009 21.5188 10.1399 21.3341 10.3253 21.1956C10.0009 21.1494 9.72291 21.0109 9.44488 20.8724L9.67657 20.4568C7.22069 20.4568 7.17436 18.5638 8.14744 18.5176C8.61081 18.4714 9.2132 19.3487 10.7423 19.164C10.557 18.9332 10.418 18.6561 10.3253 18.3329C10.696 18.3329 11.113 18.2867 11.4837 18.1482C10.7423 18.0559 10.557 17.825 9.9546 17.3171L10.6497 17.0401C9.63023 16.5322 9.67657 15.6088 9.63023 14.6853C10.1863 15.0085 10.7887 15.4703 11.4837 15.2394C11.6691 15.1932 11.7617 15.1009 11.7617 14.9624C10.7887 14.6392 10.1863 13.1617 12.5031 11.8688ZM10.7423 12.0074C9.44488 13.3925 10.0009 14.2236 10.279 14.4545C9.81558 14.3621 9.07419 13.7619 9.2132 13.1617C9.07419 13.3463 8.88884 13.531 8.74982 13.7619C8.42546 14.1774 8.14744 14.593 7.86942 15.0085C7.45238 16.1628 8.19378 17.3633 9.44488 17.9174C8.33279 17.7327 7.54505 16.8554 7.45238 15.7473C6.85 16.7631 6.57197 17.8712 6.52563 19.0255C6.52563 19.3487 6.57197 19.6719 6.61831 19.9951C6.94267 20.5953 7.45238 20.8262 8.33279 20.9186C7.49872 20.9647 7.08168 20.9186 6.71098 20.5492C7.26703 22.9039 9.86192 24.9817 10.9277 26.7362C9.86192 25.3511 7.68407 23.3195 6.89633 21.842C6.84999 22.8116 7.08168 23.7812 7.63773 24.5661C6.66465 23.5965 6.57197 22.1652 6.66465 21.2879C6.38662 20.6415 6.24761 19.9028 6.24761 19.2102C6.24761 18.5638 6.29395 17.9174 6.38662 17.3171C5.78424 18.1944 4.85749 18.5176 4.44046 19.8566C4.53313 18.1482 5.83057 18.1021 6.80366 16.0243C7.22069 15.1009 7.7304 14.2236 8.33279 13.4387C7.45238 13.6695 6.66465 14.1313 6.1086 14.8238C6.75732 13.3463 10.3716 11.6842 12.0398 10.0681C11.5301 10.1605 9.49122 10.2067 8.65715 9.65259C10.1863 10.0681 13.6152 9.60642 14.9127 8.72915C13.9859 9.97579 12.0861 10.0681 9.72291 12.5614C10.0009 12.3767 10.3716 12.192 10.7423 12.0074ZM35.4401 19.7643C35.3938 19.2102 35.2548 18.7023 35.0694 18.1944C34.7914 17.6865 34.4207 17.1786 34.05 16.7631C34.189 16.7631 35.7645 17.1324 36.0888 16.9478C33.4013 15.2856 34.0037 13.2078 29.8796 11.3148C30.9454 10.5299 32.0575 9.88345 31.2698 8.35977C30.1577 9.69876 27.9798 9.23704 26.8214 8.59063C27.9798 8.35977 29.4626 7.34399 29.787 6.23586C29.3699 6.18969 28.8139 6.65141 28.4895 6.8361C28.3505 6.42055 28.2578 5.95883 27.7481 5.82031C28.3968 7.25164 27.0994 7.9904 25.8483 7.9904C25.6629 7.9904 24.8289 7.89805 24.8289 7.89805C24.9679 7.62102 25.4776 6.88227 25.1069 6.60524C24.7825 6.88227 24.4118 7.11313 24.0875 7.39016C21.6316 9.28321 25.2459 11.0839 26.7287 11.8688C29.0456 13.1155 28.4432 14.593 27.4701 15.0085C27.4701 15.1932 27.5628 15.2394 27.7481 15.2856C28.4432 15.5164 29.0456 15.0547 29.6016 14.7315C29.5553 15.6549 29.6479 16.5784 28.5822 17.0863L29.2773 17.3633C28.6749 17.825 28.4895 18.0559 27.7481 18.1944C28.1188 18.3329 28.4895 18.3791 28.9066 18.3791C28.8139 18.6561 28.7212 18.9793 28.5359 19.2102C30.065 19.3949 30.6674 18.5176 31.1307 18.5638C32.1502 18.6561 32.0575 20.503 29.6016 20.503L29.8796 20.9186C29.6016 21.0571 29.3236 21.1956 28.9992 21.2418L29.4626 21.7035L29.0456 22.0267C30.065 22.2114 30.343 21.1494 30.9917 21.6573C31.9648 22.4422 29.787 24.1044 27.7018 23.8736C27.9798 24.1506 28.3042 24.3815 28.6285 24.5661C26.914 26.1822 27.7481 27.7058 27.0531 28.814C28.3968 28.7216 29.5553 27.7982 29.8796 26.4592L30.2967 27.1518C30.482 26.69 30.6674 26.2745 30.8991 25.859C31.2234 26.5515 31.7795 26.5515 32.2892 26.5515C32.1502 24.9355 34.2353 23.2733 33.3549 21.3803C33.1696 21.0109 33.3086 20.5492 33.6793 20.3645C35.0694 19.6719 34.4207 22.5807 35.8108 22.6731C35.6255 22.3499 35.4865 21.9805 35.3938 21.6111C35.6718 21.7035 36.4132 22.119 36.6912 21.565C35.9962 21.1494 35.5328 20.503 35.4401 19.7643ZM32.8452 17.3633C32.9842 18.0097 33.0306 18.61 32.9842 19.2564C32.9842 19.9489 32.8452 20.6877 32.5672 21.3341C32.6135 22.1652 32.5672 23.6427 31.5941 24.6123C32.1502 23.8274 32.3818 22.8578 32.3355 21.8882C31.5478 23.3657 29.3699 25.3972 28.3042 26.7824C29.3699 25.0279 31.9648 22.9501 32.5209 20.5953C32.1502 20.9647 31.7331 21.0109 30.8991 20.9647C31.7795 20.8724 32.2892 20.6415 32.6135 20.0413C32.6599 19.7181 32.7062 19.3949 32.7062 19.0717C32.6599 17.9174 32.3819 16.7631 31.7795 15.7935C31.7331 16.9016 30.8991 17.825 29.787 17.9635C31.0381 17.4095 31.7331 16.209 31.3624 15.0547C31.0844 14.6392 30.8064 14.2236 30.482 13.8081C30.343 13.5772 30.1577 13.3925 30.0186 13.2078C30.1577 13.8081 29.4626 14.4083 28.9529 14.5006C29.2309 14.2698 29.787 13.4387 28.4895 12.0535C28.8602 12.2382 29.2309 12.4691 29.5553 12.6999C27.1921 10.1605 25.2459 10.0681 24.3655 8.82149C25.6629 9.69876 29.0919 10.1605 30.5747 9.74493C29.7406 10.299 27.7018 10.2528 27.1921 10.1605C28.8602 11.7765 32.4745 13.4387 33.1232 14.9162C32.5672 14.2236 31.7795 13.7619 30.8991 13.531C31.5014 14.3621 32.0112 15.1932 32.4282 16.1167C33.4013 18.1944 34.6987 18.2406 34.7914 19.9489C34.3744 18.5638 33.4939 18.2406 32.8452 17.3633Z" fill="#ffffff" id="svg_14" fill-opacity="1"/>
<path d="M21.539 14.3621C21.0756 14.9623 20.3806 15.2855 19.6392 15.2393C19.4538 15.2393 19.2685 15.2393 19.0831 15.1932C19.1295 15.424 19.2685 15.6549 19.5002 15.8396C19.3612 16.4398 19.7319 17.0862 20.3342 17.2247H20.3806C20.4269 17.5479 20.6586 17.825 20.983 17.9173L20.5196 18.4714C20.3806 18.6561 20.1489 18.7484 19.9172 18.7022L17.7857 18.4714C17.8784 18.2405 17.6467 17.9635 16.9516 18.102L17.7857 15.7472L17.2296 14.6391L16.2566 15.4702L16.1639 17.9173L15.7469 17.7326C15.1908 17.5018 15.0518 18.4714 15.5615 18.4714H15.7932C15.7932 18.5637 15.7932 18.6561 15.8859 18.7022C15.7932 18.7484 15.7932 18.8407 15.8395 18.9331C15.8395 18.9793 15.8859 18.9793 15.8859 18.9793C15.7932 19.0254 15.7468 19.1639 15.7932 19.2563C15.7932 19.2563 15.7932 19.3025 15.8395 19.3025C15.7005 19.5333 15.7932 19.8104 16.0249 19.9489C16.0712 19.9489 16.0712 19.995 16.1175 19.995C16.4419 20.0874 16.6273 19.7642 16.6736 19.5333L20.0099 20.5491C20.4269 20.6876 20.8903 20.5953 21.2147 20.3182L22.0951 19.5795C21.956 19.995 22.1414 20.4568 22.5584 20.6415C22.5121 20.8723 22.5121 21.057 22.5121 21.2879H25.524V15.8396C25.524 15.3317 25.663 14.8238 25.8484 14.3621H21.539ZM16.5346 23.5041L16.5809 23.5965C16.6736 23.6888 16.7199 23.6888 16.8126 23.5965L16.9516 23.5041C17.0443 23.4118 17.6467 23.6426 17.693 23.1347C17.7857 23.5041 17.3223 24.3352 17.6003 24.7508L17.971 25.351H16.7663C16.6736 25.351 16.5809 25.3972 16.5346 25.4895L16.2102 26.1359C16.1175 26.2744 16.1175 26.4591 16.2566 26.5976L16.4882 26.8285C16.5809 26.7362 16.6736 26.5976 16.7199 26.5053L16.6273 26.4129C16.5346 26.3668 16.5346 26.2283 16.5809 26.1821L16.7663 25.7665C16.8589 25.628 16.9053 25.5819 17.0906 25.628L18.0637 25.8127C18.1564 25.8589 18.2491 25.8127 18.2954 25.7665C18.3881 25.5819 18.6198 25.4895 18.8514 25.5819C19.4075 25.6742 20.6123 25.7665 21.0756 25.2586C21.5853 25.9512 22.6048 25.9512 22.5584 26.3206L22.3731 27.5672H22.6974L22.8828 26.3668C22.8828 26.2283 22.9755 26.0436 22.8365 25.9051C22.7438 25.8127 22.6511 25.7204 22.6048 25.5819C22.4194 25.2586 22.4194 24.7969 22.2341 24.3814C22.3267 24.1967 22.5584 24.1043 22.7438 24.1505C23.1145 24.2429 23.2072 24.8431 23.7169 25.351C23.6705 25.1201 23.6242 24.8893 23.5315 24.6584C23.7169 24.7969 23.9022 25.0278 23.9949 25.2586C23.9949 25.4433 24.1339 25.628 24.2729 25.7204C24.4119 25.7665 24.5509 25.7204 24.6899 25.5357C24.6899 25.5357 24.3656 25.074 24.0876 24.7508C23.8095 24.2429 23.2535 23.9658 22.6974 23.9197C22.5121 23.9658 22.3267 24.012 22.1414 24.1505C21.4463 23.7811 20.8903 24.1505 20.7049 24.1505L19.4075 24.0582C19.2221 24.012 19.0368 23.9197 18.9441 23.735C18.9905 22.9962 18.4344 22.3498 17.7394 22.2113C17.7394 22.2113 17.7857 22.0266 17.693 21.9343L17.415 22.2575L16.6736 22.0266L17.276 22.4883L16.6273 23.2733C16.5346 23.3656 16.5346 23.4118 16.5346 23.5041Z" fill="#ffffff" id="svg_15" fill-opacity="1"/>
<path d="M15.7004 25.0277C15.515 25.1662 15.515 25.3971 15.654 25.5818L15.7467 25.7665L16.0247 25.5356L15.9784 25.3971C15.932 25.3048 15.932 25.2124 16.0247 25.1201L16.4418 24.7969C16.5344 24.7045 16.6271 24.7045 16.7198 24.7045L17.5539 24.8892C17.4612 24.7507 17.4148 24.6583 17.3685 24.5198L16.5344 24.4275C16.4418 24.4275 16.3027 24.4737 16.2564 24.5198L15.7004 25.0277ZM21.2145 27.6134H21.5389L22.0486 26.3205C22.0486 26.2744 22.0949 26.2744 22.0949 26.2282L21.5389 25.9512C21.6779 26.1359 21.7705 26.182 21.7242 26.3667L21.2145 27.6134ZM21.4925 10.2527L22.0949 6.78979L19.8244 7.57472V11.13L21.4925 10.2527ZM20.1951 7.94409L21.7242 7.39003C21.7242 7.39003 21.4462 7.62089 21.0755 7.85175C20.7975 8.03644 20.5194 8.17495 20.1951 8.31347V7.94409ZM20.1951 8.77519L21.5852 8.2673C21.4462 8.40581 21.2608 8.54433 21.0755 8.68285C20.7975 8.86753 20.5194 9.00605 20.1951 9.14457V8.77519ZM20.1951 9.65246L21.3998 9.19074C21.3998 9.19074 21.3998 9.32925 21.0291 9.56011C20.7511 9.7448 20.4731 9.88332 20.1487 10.0218V9.65246H20.1951Z" fill="#ffffff" id="svg_16" fill-opacity="1"/>
<path d="M17.4148 13.3002L17.4612 13.3926H17.9245V13.4849C17.9245 13.5773 17.9709 13.6696 17.9709 13.7158C18.0635 13.9928 18.2026 14.1775 18.4342 14.3622C18.7586 14.6392 19.1756 14.7316 19.5927 14.7316C20.7048 14.7316 21.2145 13.9928 21.2608 13.4849V13.3926H21.7242L21.7705 13.3002C22.2339 12.6076 22.7436 11.8227 23.3923 11.7304L21.6779 10.7146L19.639 11.8689L17.5538 10.7146L15.8394 11.7304C16.4417 11.8227 16.9978 12.6076 17.4148 13.3002Z" fill="#ffffff" id="svg_17" fill-opacity="1"/>
<path d="M19.4535 11.1299V7.5747L17.183 6.78978L17.7854 10.2527L19.4535 11.1299ZM19.0828 10.0218C18.8048 9.8833 18.4805 9.74478 18.2024 9.56009C17.8317 9.32924 17.8317 9.19072 17.8317 9.19072L19.0365 9.65244L19.0828 10.0218ZM19.0828 7.94408V8.31345C18.8048 8.17494 18.4805 8.03642 18.2024 7.85173C17.8317 7.62087 17.5537 7.39001 17.5537 7.39001L19.0828 7.94408ZM19.0828 8.77517V9.14455C18.7585 9.00603 18.4805 8.86752 18.2024 8.68283C18.0171 8.54431 17.8317 8.4058 17.6927 8.26728L19.0828 8.77517ZM19.6389 5.2661C18.3414 5.2661 17.3684 5.68165 17.1367 6.18954L19.6389 7.15915L22.1411 6.18954C21.9094 5.68165 20.9363 5.2661 19.6389 5.2661ZM19.6389 3.83477C20.5193 3.83477 21.446 4.06563 22.1874 4.52735C22.2801 4.20415 22.4191 3.92711 22.5581 3.65008L21.9558 3.74243L21.4924 2.72664L20.612 3.18836L19.6389 2.21875L18.6658 3.18836L17.7854 2.72664L17.322 3.74243L16.7196 3.65008C16.8587 3.92711 16.9977 4.20415 17.0903 4.52735C17.8781 4.06563 18.7585 3.83477 19.6389 3.83477ZM35.9033 11.684C36.2276 11.6378 36.552 11.4993 36.7837 11.3146C36.0886 11.1299 34.6522 10.6221 33.4474 10.8529C33.0304 10.8991 32.7987 11.0838 32.984 11.1761C33.8644 11.8687 34.5595 12.746 35.0229 13.7617C35.3936 13.2539 35.4399 12.6074 35.2082 12.0534C36.2276 12.6536 36.5057 12.9768 36.969 12.8383C36.7374 12.3766 36.3667 12.0072 35.9033 11.684ZM4.20857 13.7617C4.67194 12.746 5.367 11.8687 6.24741 11.1299C6.38642 11.0376 6.15473 10.8991 5.78404 10.8067C4.57927 10.5759 3.14281 11.0838 2.44775 11.2685C2.72577 11.4993 3.0038 11.5917 3.32816 11.6378C2.91112 11.961 2.54043 12.3304 2.21606 12.7921C2.67944 12.9307 2.95746 12.6074 3.97688 12.0072C3.79153 12.6074 3.88421 13.2539 4.20857 13.7617Z" fill="#ffffff" id="svg_18" fill-opacity="1"/>
<path d="M11.3447 24.6122C11.808 24.2429 12.2251 24.0582 12.1787 23.1347C11.4837 23.5041 9.44483 23.4579 8.61076 22.3036C8.37907 21.9804 8.61076 21.7958 8.84244 22.0728C9.44483 22.7192 10.5106 22.4422 10.8813 22.2575C10.7886 22.0266 10.6496 21.7958 10.4642 21.6111C10.6033 21.4725 11.0203 21.2417 11.113 20.8723C10.7423 20.78 10.4179 20.6876 10.0472 20.6876C10.2789 20.5029 10.3716 20.1797 10.2326 19.9027C9.35215 20.1797 8.2864 19.8104 8.00837 19.4872C7.73035 19.1639 8.00837 18.8869 8.24006 19.0716C8.65709 19.5333 10.8349 20.0412 11.6227 19.2563C11.3447 19.1639 11.113 18.9793 10.9276 18.7484C11.669 18.6561 12.2714 18.2405 12.3177 17.6864C11.808 17.7326 11.3447 17.6403 10.8813 17.4556C11.2056 17.3632 11.4837 17.1324 11.5763 16.8092C10.2326 16.7168 10.1399 15.7472 10.0936 15.5625C10.974 16.0704 12.5494 15.8396 12.1324 14.5929C11.391 14.5468 10.6496 13.3925 12.6884 12.2843C14.5419 11.3147 16.6271 10.2066 16.4418 8.45205C16.3028 7.34392 14.4493 6.559 14.2176 6.00494C13.4298 6.37431 13.2908 6.78986 13.6152 7.52861C13.6152 7.52861 11.9007 7.7133 11.7617 6.65134C11.7617 6.14345 11.9934 5.68173 12.3641 5.4047C12.1787 5.4047 10.8813 5.03532 10.4642 6.09728C9.72285 5.58939 9.12047 5.63556 8.61076 6.14345C9.39849 6.60517 9.86186 8.17502 11.1593 8.68291C10.2326 9.1908 8.74977 8.95994 7.86936 7.43627C7.03529 8.68291 6.57191 9.88338 8.33273 11.2224C5.13546 12.6999 5.13546 15.4702 2.35522 16.8092C2.63324 17.5479 3.23563 17.5479 3.97703 17.4556C2.77225 19.0254 3.79168 20.6415 1.89185 21.334C2.07719 21.9804 2.44789 22.4883 3.14295 22.3036C2.9576 22.6268 2.81859 22.6268 2.49423 22.9501C3.55999 23.5965 4.76476 23.1347 5.04278 21.0108C5.08912 20.6415 5.59883 20.8723 5.41348 21.2417C4.20871 23.6888 7.22064 25.5357 6.15488 27.3364C7.08163 27.2902 7.82302 27.1979 8.19372 26.9208C8.37907 27.244 8.51808 27.6596 8.51808 28.029C8.93512 27.9828 9.25948 27.6596 9.25948 27.244C9.58384 28.2137 10.8349 29.2756 12.7811 29.2756C11.8544 27.7519 12.8275 26.2744 11.3447 24.6122ZM9.44483 26.413L9.02779 27.1055C8.88878 26.6438 8.65709 26.2283 8.42541 25.8127C8.10105 26.5053 7.545 26.5053 7.03529 26.5053C7.1743 24.8893 5.08912 23.2271 5.96953 21.334C6.15488 20.9647 6.01587 20.5029 5.64517 20.3182C4.25505 19.6257 4.90377 22.5345 3.51365 22.6268C3.699 22.3036 3.83801 21.9343 3.93069 21.5187C3.65266 21.6111 2.91127 22.0266 2.58691 21.4725C3.23563 21.1032 3.699 20.4568 3.74534 19.718C3.83801 19.1639 3.93069 18.6561 4.16237 18.1482C4.4404 17.6403 4.8111 17.1324 5.1818 16.6707C5.04278 16.6707 3.46731 17.04 3.14295 16.8553C5.83052 15.1932 5.22813 13.1154 9.35215 11.2224C8.2864 10.4374 7.1743 9.79104 7.96203 8.26736C9.07413 9.60635 11.252 9.14463 12.4104 8.49822C11.252 8.26736 9.81553 7.25158 9.44483 6.14345C9.86186 6.09728 10.4179 6.559 10.7423 6.74369C10.8813 6.32814 10.974 5.86642 11.4837 5.7279C10.7886 7.15923 12.1324 7.89799 13.3835 7.89799C13.5688 7.89799 14.4029 7.80564 14.4029 7.80564C14.2639 7.52861 13.7542 6.78986 14.1249 6.51283C14.4493 6.78986 14.82 7.02072 15.1443 7.29775C17.6002 9.1908 13.9859 10.9453 12.5031 11.7303C10.1862 12.9769 10.7886 14.4544 11.7617 14.87C11.7617 15.0546 11.669 15.1008 11.4837 15.147C10.7886 15.3778 10.1862 14.87 9.63018 14.5929C9.67652 15.5164 9.58384 16.4398 10.6496 16.9477L9.95454 17.2247C10.5569 17.6864 10.7423 17.9173 11.4837 18.0558C11.113 18.1943 10.7423 18.2405 10.3252 18.2405C10.4179 18.5175 10.5106 18.8407 10.6959 19.0716C9.1668 19.2563 8.56442 18.379 8.10105 18.4252C7.12796 18.5175 7.1743 20.3644 9.63018 20.3644L9.39849 20.78C9.67652 20.9185 10.0009 21.057 10.2789 21.1032C10.0936 21.2417 9.95454 21.4264 9.81553 21.5649L10.2326 21.8881C9.21314 22.0728 8.93512 21.0108 8.2864 21.5187C7.31331 22.3036 9.49117 23.9658 11.5763 23.735C11.2983 24.012 11.0203 24.2429 10.6959 24.4737C12.4104 26.0897 11.5763 27.6134 12.2714 28.7215C10.8813 28.6754 9.76919 27.7519 9.44483 26.413Z" fill="#ffffff" id="svg_19" fill-opacity="1"/>
<path d="M6.75734 20.5492C7.12804 20.9186 7.54508 20.9648 8.37915 20.9186C7.49874 20.8263 6.98903 20.5954 6.66467 19.9952C6.61833 19.672 6.572 19.3488 6.572 19.0256C6.61833 17.8713 6.89636 16.717 7.49874 15.7474C7.54508 16.8555 8.37915 17.7789 9.49125 17.9174C8.28648 17.3634 7.54508 16.1629 7.91578 15.0086C8.14746 14.5931 8.47183 14.1775 8.79619 13.762C8.98154 13.5311 9.12055 13.3464 9.25956 13.1617C9.07421 13.762 9.81561 14.3622 10.3253 14.4545C10.0473 14.2237 9.49125 13.3926 10.7887 12.0074C10.418 12.1921 10.0473 12.423 9.72293 12.6538C12.0861 10.1144 14.0323 10.0682 14.9127 8.77539C13.6153 9.65266 10.2326 10.1144 8.65718 9.69883C9.49125 10.2529 11.5301 10.2067 12.0398 10.1144C10.3717 11.7304 6.75735 13.3926 6.10862 14.8701C6.66467 14.1775 7.4524 13.7158 8.33281 13.4849C7.77677 14.316 7.26706 15.1933 6.85002 16.0706C5.87694 18.1483 4.57949 18.1945 4.48682 19.9028C4.90385 18.5639 5.8306 18.2406 6.43298 17.3634C6.34031 18.0098 6.29397 18.61 6.29397 19.2564C6.29397 19.949 6.43298 20.6878 6.71101 21.3342C6.66467 22.1653 6.71101 23.6428 7.68409 24.6124C7.12804 23.8275 6.85002 22.8578 6.94269 21.8882C7.68409 23.3657 9.90828 25.3973 10.974 26.7825C9.90828 24.9818 7.31339 22.9502 6.75734 20.5492ZM30.9454 13.4849C31.8258 13.7158 32.6136 14.1775 33.1696 14.8701C32.5672 13.3926 28.9066 11.7304 27.2384 10.1144C27.7482 10.2067 29.787 10.2529 30.6211 9.69883C29.0919 10.1144 25.663 9.65266 24.3655 8.77539C25.2459 10.0682 27.1921 10.1144 29.5553 12.6538C29.2309 12.423 28.8602 12.1921 28.4895 12.0074C29.787 13.3926 29.2309 14.2237 28.9529 14.4545C29.4626 14.3622 30.1577 13.762 30.0187 13.1617C30.1577 13.3464 30.343 13.5311 30.4821 13.762C30.8064 14.1775 31.0844 14.5931 31.3625 15.0086C31.7332 16.1629 31.0381 17.3634 29.8333 17.9174C30.9454 17.7328 31.7332 16.8555 31.8258 15.7474C32.4282 16.7631 32.7062 17.8713 32.7526 19.0256C32.7526 19.3488 32.7062 19.672 32.6599 19.9952C32.3355 20.5954 31.8258 20.8263 30.9454 20.9186C31.7795 20.9648 32.1965 20.9186 32.5672 20.5492C32.0112 22.904 29.4163 24.9818 28.3505 26.7363C29.4163 25.3511 31.5942 23.3196 32.3819 21.8421C32.4282 22.8117 32.1965 23.7813 31.6405 24.5662C32.6136 23.5966 32.7062 22.1653 32.6136 21.288C32.8916 20.6416 33.0306 19.9028 33.0306 19.2103C33.0769 18.5639 33.0306 17.9174 32.8916 17.3172C33.494 18.1945 34.4207 18.5177 34.8378 19.8567C34.7451 18.1483 33.4476 18.1021 32.4746 16.0244C32.0112 15.1471 31.5478 14.2699 30.9454 13.4849Z" fill="#ffffff" id="svg_20" fill-opacity="1"/>
<path d="M35.1618 17.3633C35.9032 17.5018 36.5056 17.5018 36.83 16.7169C34.0497 15.3779 34.0497 12.6076 30.8525 11.1301C32.6133 9.83724 32.1499 8.5906 31.3158 7.39012C30.4818 8.9138 28.9526 9.14466 28.0259 8.63677C29.3233 8.17505 29.7867 6.55903 30.5744 6.09731C30.1111 5.58942 29.4623 5.54324 28.7209 6.05114C28.3503 4.98918 27.0065 5.35856 26.8211 5.35856C27.1918 5.68176 27.4235 6.14348 27.4235 6.6052C27.2845 7.66716 25.57 7.48247 25.57 7.48247C25.9407 6.78989 25.7554 6.32817 24.9676 5.95879C24.7359 6.51286 22.8824 7.29778 22.7434 8.40591C22.5581 10.1604 24.6433 11.2224 26.4968 12.2382C28.5356 13.3463 27.7942 14.5006 27.0528 14.5468C26.6358 15.7934 28.2112 16.0243 29.0916 15.5164C29.0916 15.7011 28.9526 16.6707 27.6089 16.763C27.7015 17.0862 27.9796 17.3633 28.3039 17.4094C27.8405 17.5941 27.3308 17.6865 26.8675 17.6403C26.9138 18.1944 27.5162 18.6099 28.2576 18.7023C28.1186 18.9793 27.8405 19.164 27.5625 19.2563C28.3503 20.0412 30.5281 19.5334 30.9451 19.0716C31.1305 18.8408 31.4085 19.164 31.1305 19.4872C30.8525 19.8104 29.7867 20.1798 28.9063 19.9027C28.8136 20.1798 28.9063 20.503 29.0916 20.6877C28.7209 20.7338 28.3503 20.78 28.0259 20.8723C28.1186 21.2417 28.5356 21.4726 28.6746 21.6111C28.4893 21.7958 28.3502 22.0266 28.3039 22.2575C28.6746 22.4422 29.7867 22.7192 30.3428 22.0728C30.5744 21.7958 30.8061 21.9805 30.5744 22.3037C29.7404 23.458 27.7015 23.458 27.0065 23.1348C27.0065 24.0582 27.3772 24.2429 27.8405 24.6123C26.3577 26.2745 27.3308 27.752 26.3114 29.2295C28.2576 29.2295 29.4623 28.1675 29.833 27.1979C29.8794 27.6134 30.1574 27.9367 30.5744 27.9828C30.5744 27.6135 30.6671 27.1979 30.8525 26.8747C31.2232 27.1979 31.9646 27.2441 32.8913 27.2902C31.8256 25.4895 34.8375 23.6427 33.6327 21.1955C33.4474 20.8262 33.9571 20.5953 34.0034 20.9647C34.2814 23.0886 35.5325 23.5503 36.552 22.9039C36.2276 22.5807 36.0886 22.5807 35.9032 22.2575C36.5983 22.4422 36.969 21.9343 37.1543 21.2879C35.3472 20.5953 36.3666 18.9331 35.1618 17.3633ZM35.3008 21.5649C35.3935 21.9343 35.5325 22.3037 35.7179 22.6269C34.3278 22.5345 34.9765 19.6257 33.5864 20.3183C33.2157 20.503 33.0767 20.9647 33.262 21.3341C34.1887 23.2271 32.1036 24.8893 32.1962 26.5053C31.6865 26.5053 31.1305 26.5053 30.8061 25.8127C30.5744 26.2283 30.3891 26.6438 30.2037 27.1056L29.7867 26.413C29.4623 27.7058 28.3039 28.6754 26.9601 28.7677C27.6552 27.6596 26.8211 26.1359 28.5356 24.5199C28.2112 24.2891 27.9332 24.0582 27.6552 23.7812C29.7404 24.012 31.9646 22.396 30.9451 21.5649C30.2964 21.057 30.0184 22.119 28.999 21.9343L29.3697 21.6111C29.2307 21.4726 29.0916 21.2879 28.9063 21.1494C29.2307 21.1032 29.5087 20.9647 29.7867 20.8262L29.5087 20.4106C31.9646 20.4106 32.0109 18.5176 31.0378 18.4714C30.5744 18.4252 29.9721 19.3025 28.4429 19.1178C28.6283 18.8869 28.7209 18.6099 28.8136 18.2867C28.4429 18.2867 28.0259 18.2405 27.6552 18.102C28.3966 18.0097 28.5819 17.7788 29.1843 17.2709L28.4893 16.9939C29.5087 16.486 29.4623 15.5626 29.5087 14.6391C28.9526 14.9623 28.3039 15.424 27.6552 15.1932C27.5162 15.147 27.3772 15.0547 27.3772 14.9162C28.3502 14.5468 28.9526 13.0693 26.6358 11.7765C25.153 10.9915 21.5387 9.237 23.9945 7.34395C24.3189 7.06692 24.6896 6.83606 25.014 6.55903C25.3847 6.83606 24.875 7.57481 24.7359 7.85184C24.7359 7.85184 25.57 7.94419 25.7554 7.94419C27.0065 7.94419 28.3502 7.20544 27.6552 5.7741C28.1649 5.86645 28.2112 6.37434 28.3966 6.78989C28.7209 6.55903 29.277 6.09731 29.694 6.18965C29.3233 7.29778 27.8869 8.31356 26.7284 8.54442C27.8869 9.19083 30.0184 9.65255 31.1768 8.31356C31.9646 9.83724 30.8525 10.4836 29.7867 11.2686C33.9107 13.1616 33.3083 15.2394 35.9959 16.9016C35.6252 17.0862 34.0961 16.763 33.9571 16.7169C34.3278 17.1786 34.6985 17.6403 34.9765 18.1482C35.1618 18.6561 35.3008 19.164 35.3935 19.718C35.4862 20.4568 35.9032 21.1032 36.552 21.4726C36.3203 22.0728 35.6252 21.6573 35.3008 21.5649ZM15.7002 26.1821L16.3025 25.6742L16.2099 25.4895C16.1635 25.351 16.1635 25.351 16.2562 25.3049L16.5806 25.074C16.6269 25.0278 16.7196 25.0278 16.8123 25.0278L17.739 25.2587H16.7659C16.5806 25.2587 16.4416 25.351 16.3952 25.5357L16.3025 25.6742L16.0245 26.1821C15.8855 26.413 15.9319 26.69 16.1172 26.8747L16.3025 27.1056L15.9318 27.8443H16.2562L16.4879 27.3364C16.7196 27.1517 16.8586 26.9209 16.9513 26.6438C16.8586 26.5515 16.7659 26.5053 16.8123 26.3668L16.9513 26.1359C16.9976 26.0436 16.9976 26.0436 17.0903 26.0436L18.0634 26.2745C18.2024 26.3668 18.3877 26.3206 18.4804 26.1821C18.6194 25.9974 18.6194 25.9974 18.9438 26.0436L19.4535 26.0898C20.0095 26.1821 20.5656 26.0436 21.0753 25.7666C21.168 25.9513 21.307 26.1359 21.446 26.3206C21.4923 26.3668 21.446 26.4592 21.3997 26.5977L20.8436 27.9367H21.724L22.2337 26.7362L22.3727 26.4592L22.0947 27.7981H22.9288L23.1605 26.3206C23.2068 25.9974 23.1605 25.9051 23.0215 25.7666C22.6508 25.4895 22.6971 24.8431 22.5581 24.4738C22.6044 24.4276 22.6971 24.4276 22.7898 24.4276C22.9751 24.4276 23.1141 24.8893 23.3458 25.2125C23.7629 25.8127 24.3652 26.4592 25.014 25.5357C24.9676 25.4434 24.875 25.351 24.7823 25.2587L24.5969 25.0278C24.5043 24.8893 23.9945 24.3352 23.7629 24.1044C23.3458 23.6888 22.6971 23.6427 22.2337 23.9197C21.5387 23.5503 20.8436 23.9197 20.6583 23.9197L19.4535 23.8735C19.3608 23.8735 19.3145 23.8273 19.2681 23.735L19.4998 23.6427C19.3145 22.8116 18.8048 22.0728 17.878 21.9805C17.878 21.9805 17.8317 21.7034 17.6927 21.6573L17.4146 22.0266C17.322 22.0266 17.2756 22.0728 17.183 22.0728L16.0245 21.6573L16.8586 22.5345C16.8586 22.5345 16.3952 23.1809 16.3025 23.2733C16.2099 23.3656 16.2099 23.5041 16.3025 23.5965L16.4879 23.8273C16.5806 23.9197 16.6732 23.9197 16.8123 23.8735L16.9976 23.7812C17.0903 23.6888 17.3683 23.8273 17.461 23.735L17.322 24.4276L16.5342 24.2891C16.3952 24.2429 16.3025 24.2891 16.1635 24.3814L15.5148 24.8893C15.2831 25.074 15.2368 25.351 15.3758 25.6281L15.7002 26.1821ZM22.0484 26.3206L21.5387 27.6134H21.2143L21.724 26.3668C21.7704 26.2283 21.6777 26.1359 21.5387 25.9513L22.0947 26.2283C22.0947 26.2745 22.0947 26.2745 22.0484 26.3206ZM16.9976 23.5503L16.8586 23.6427C16.7659 23.6888 16.7196 23.735 16.6269 23.5965L16.5342 23.5503C16.4879 23.5041 16.4879 23.4118 16.5342 23.3195L17.183 22.5807L16.5806 22.119L17.322 22.396L17.6 22.0728C17.6927 22.1652 17.6463 22.3498 17.6463 22.3498C18.3877 22.4884 18.8974 23.1348 18.8511 23.8735C18.9438 24.012 19.1291 24.1506 19.3145 24.1967L20.6119 24.2891C20.8436 24.2891 21.3533 23.8735 22.0484 24.2891C22.2337 24.1967 22.4191 24.1044 22.6044 24.0582C23.1605 24.0582 23.7165 24.3814 23.9945 24.8893C24.2262 25.2125 24.5969 25.6742 24.5969 25.6742C24.4579 25.8589 24.3189 25.9051 24.1799 25.8589C23.9945 25.7666 23.9019 25.5819 23.9019 25.3972C23.8092 25.1663 23.6238 24.9355 23.4385 24.797C23.5312 25.0278 23.6238 25.2587 23.6238 25.4895C23.1141 24.9816 23.0215 24.3814 22.6508 24.2891C22.4654 24.2429 22.2337 24.3352 22.141 24.5199C22.3264 24.9355 22.3264 25.3972 22.5117 25.7204C22.5581 25.8589 22.6508 25.9513 22.7434 26.0436C22.8824 26.1359 22.7898 26.3668 22.7898 26.5053L22.6044 27.7058H22.2801L22.5117 26.5053C22.6044 26.1359 21.585 26.1359 21.029 25.4434C20.5656 25.9513 19.3608 25.8127 18.8048 25.7666C18.6194 25.6742 18.3877 25.7666 18.2487 25.9513C18.2024 26.0436 18.0634 26.0436 18.017 25.9974L17.1366 25.7204C16.9513 25.6742 16.9049 25.7204 16.8123 25.8589L16.6269 26.2745C16.5806 26.3668 16.5806 26.4592 16.6732 26.5053L16.7659 26.5977C16.7196 26.7362 16.6269 26.8285 16.5342 26.9209L16.3025 26.69C16.2099 26.5515 16.2099 26.3668 16.2562 26.2283L16.5806 25.5819C16.6269 25.4895 16.7196 25.4434 16.8123 25.4434H18.017L17.6463 24.797C17.3683 24.3352 17.8317 23.5503 17.739 23.1809C17.6927 23.6888 17.0903 23.458 16.9976 23.5503ZM15.7002 25.0278L16.2562 24.6123C16.3489 24.5199 16.4416 24.4738 16.5342 24.5199L17.3683 24.6123C17.4146 24.7508 17.461 24.8893 17.5537 24.9816L16.6732 24.797C16.5806 24.7508 16.4879 24.797 16.3952 24.8893L15.9782 25.2125C15.8855 25.2587 15.8855 25.3972 15.9318 25.4895L15.9782 25.6281L15.7002 25.8589L15.6075 25.6742C15.5148 25.351 15.5148 25.1663 15.7002 25.0278ZM18.2024 9.56021C18.4804 9.74489 18.7584 9.88341 19.0828 10.0219V9.65255L17.878 9.19083C17.8317 9.19083 17.8317 9.32935 18.2024 9.56021ZM19.0828 9.09849V8.72911L17.6927 8.22122C17.8317 8.35974 18.017 8.49825 18.2024 8.63677C18.4804 8.86763 18.7584 9.00614 19.0828 9.09849ZM19.0828 8.31356V7.94419L17.5537 7.39012C17.5537 7.39012 17.8317 7.62098 18.2024 7.85184C18.4804 7.99036 18.7584 8.17505 19.0828 8.31356Z" fill="#ffffff" id="svg_21" fill-opacity="1"/>
<path d="M23.3459 13.3002H24.8751C24.7824 12.977 24.458 12.7923 24.1337 12.8385C23.763 12.8385 23.4849 13.0231 23.3459 13.3002ZM21.7241 7.34399L20.195 7.89806V8.26743C20.5194 8.12892 20.7974 7.9904 21.0754 7.80571C21.3998 7.57485 21.7241 7.39017 21.7241 7.34399ZM21.3998 9.19087L20.195 9.65259V10.022C20.5194 9.88345 20.7974 9.74494 21.0754 9.56025C21.3998 9.32939 21.3998 9.19087 21.3998 9.19087ZM21.5851 8.26743L20.195 8.77533V9.1447C20.5194 9.00618 20.7974 8.86767 21.0754 8.68298C21.2608 8.54446 21.3998 8.40595 21.5851 8.26743ZM15.1442 12.8385C14.8199 12.7923 14.4955 12.977 14.4028 13.3002H15.932C15.793 13.0231 15.4686 12.8385 15.1442 12.8385Z" fill="#ffffff" id="svg_22" fill-opacity="1"/>
<path d="M22.6971 6.37435C22.6971 5.49708 21.2143 4.71216 19.5925 4.71216C17.9707 4.71216 16.5343 5.49708 16.5343 6.37435L16.5806 6.60521L17.2293 10.299L14.1711 12.0997C13.754 12.3767 13.476 12.8384 13.3833 13.3463H13.9394C14.0321 12.6999 14.5881 12.2382 15.2368 12.2844C15.9319 12.3305 16.3489 12.7461 16.766 13.3463L16.8586 13.4848L16.9976 13.7157H12.5029C12.8736 14.3621 13.1053 15.1009 13.1517 15.8396V25.1663C13.1517 27.5673 15.0051 28.7216 16.9976 28.7216C18.5268 28.7216 18.7585 28.6292 19.5925 29.5065C20.4266 28.6754 20.6583 28.7216 22.1874 28.7216C24.1799 28.7216 26.0334 27.5673 26.0334 25.1663V15.8396C26.0798 15.1009 26.3115 14.3621 26.6821 13.7157H22.1874L22.3264 13.4848L22.4191 13.3463C22.8362 12.7461 23.2532 12.2844 23.9482 12.2844C24.597 12.2382 25.153 12.6999 25.2457 13.3463H25.8017C25.7091 12.8384 25.431 12.3767 25.014 12.0997L21.9557 10.299L22.6045 6.60521L22.6971 6.37435ZM17.1367 6.7899L19.4072 7.57482V11.1301L17.739 10.2528L17.1367 6.7899ZM17.6927 14.3621C18.0171 14.7777 18.5268 15.1009 19.0365 15.1932C19.0828 15.4241 19.2218 15.6549 19.4072 15.8396C19.2682 16.4398 19.6389 17.0863 20.2413 17.2248C20.2876 17.548 20.5193 17.825 20.8436 17.9173L20.3803 18.4714C20.2413 18.6561 20.0096 18.7484 19.7779 18.7023L17.6464 18.4714C17.739 18.2406 17.5074 17.9635 16.8123 18.102L17.6464 15.7473L17.2293 14.6391L16.2563 15.4702L16.1636 17.9173L15.7465 17.7327C15.1905 17.5018 15.0515 18.4714 15.5612 18.4714H15.7465C15.7002 18.5638 15.7465 18.6561 15.8392 18.7023C15.7465 18.7484 15.7465 18.8408 15.7929 18.9331L15.8392 18.9793C15.7465 19.0255 15.7002 19.164 15.7465 19.2563L15.7929 19.3025C15.6539 19.5334 15.7465 19.8104 15.9782 19.9489C16.0246 19.9489 16.0246 19.9951 16.0709 19.9951C16.3953 20.0874 16.5806 19.7642 16.6269 19.5334L19.9632 20.5492C20.3803 20.6877 20.8436 20.5953 21.168 20.3183L22.0484 19.5795C21.9094 19.9951 22.0948 20.4568 22.5118 20.6415C22.4655 20.8724 22.4655 21.057 22.4655 21.2879H13.8004V15.8396C13.8004 15.3317 13.6614 14.8238 13.476 14.3621H17.6927ZM21.2607 16.3937C21.0753 16.763 21.0753 17.1786 21.307 17.5018L21.168 17.6403C20.5656 17.548 20.2876 16.6245 20.2876 16.6245V16.8554C19.9169 16.7169 19.6852 16.3475 19.7316 15.9781C19.8706 16.0705 20.0559 16.1166 20.1949 16.1166L20.2413 15.8396C19.8706 15.7934 19.5462 15.5164 19.4535 15.1932H19.4072H19.6389C19.8706 15.1932 20.1486 15.147 20.3803 15.1009C20.5656 15.3779 20.89 15.5164 21.2143 15.5626C21.1217 15.8858 21.168 16.1628 21.2607 16.3937ZM22.2338 18.8408L22.0948 19.1178L21.7241 19.441C21.7704 18.9331 21.5387 18.4252 21.1217 18.102L21.4924 17.7327L21.585 17.825C21.4924 18.2867 21.7704 18.7484 22.2338 18.8408ZM20.5656 18.7023L20.8436 18.4252C21.2607 18.7484 21.446 19.2563 21.3997 19.7642L21.0753 20.0413C21.029 20.0874 20.9363 20.1336 20.89 20.1798C21.029 19.6719 20.89 19.1178 20.5656 18.7023ZM19.9169 18.9331C20.0096 18.9331 20.1486 18.9331 20.2413 18.887C20.5193 19.3025 20.5656 19.8566 20.3803 20.3645C20.2413 20.3645 20.1022 20.3645 19.9632 20.3183L19.8706 20.2721C20.0559 19.8566 20.0559 19.3487 19.9169 18.9331ZM19.2218 18.8408L19.6389 18.887C19.7316 19.3025 19.6389 19.7642 19.4535 20.1336L18.9902 19.9951C19.1755 19.6257 19.2682 19.2563 19.2218 18.8408ZM18.3878 18.7484L18.8511 18.7946C18.8975 19.164 18.8048 19.5795 18.6195 19.9027L18.1097 19.7642C18.3414 19.441 18.4341 19.1178 18.3878 18.7484ZM16.3953 18.6099C16.3026 18.6561 16.1636 18.6099 16.1172 18.5176C16.1172 18.4714 16.0709 18.4252 16.1172 18.3791C16.3489 18.2406 16.6733 18.2406 16.905 18.3791C17.044 18.4714 17.1367 18.6561 17.2757 18.7946C17.2293 19.0255 17.183 19.2102 17.1367 19.3948C16.905 19.3487 16.6733 19.164 16.7196 18.887C16.7196 18.7946 16.766 18.7023 16.8123 18.6561C16.7196 18.5638 16.5343 18.5638 16.3953 18.6099ZM16.0709 19.4872C16.1636 19.5334 16.2563 19.5334 16.3953 19.5795C16.3953 19.6719 16.3026 19.7642 16.2099 19.7181C16.0709 19.7181 16.0246 19.6257 16.0709 19.4872C16.0709 19.5334 16.0709 19.5334 16.0709 19.4872ZM15.6075 18.1944C15.5612 18.1482 15.5149 18.0559 15.5612 18.0097C15.5612 17.9635 15.6075 17.9635 15.6539 17.9635C15.7929 17.9635 15.9782 18.102 16.1636 18.1944C15.9782 18.2405 15.7929 18.2405 15.6075 18.1944ZM16.0709 19.1178C16.1636 19.2102 16.4416 19.164 16.4416 19.164V19.2563C16.3489 19.3948 15.9782 19.3487 16.0709 19.1178ZM16.4416 18.9331C16.2099 19.0255 16.0246 18.887 16.0709 18.7484C16.1636 18.8408 16.4416 18.7946 16.4416 18.7946V18.9331ZM16.766 16.486L16.3489 17.9635L16.4879 15.6087L17.0903 15.0547L17.4147 15.7934L16.6269 18.102L16.8586 16.5784C16.8586 16.4398 16.8123 16.3937 16.766 16.486ZM16.8123 18.2867C16.9976 18.2867 17.183 18.2867 17.4147 18.3329C17.5074 18.3791 17.461 18.5176 17.322 18.5176C17.1367 18.4714 16.9513 18.3791 16.8123 18.2867ZM17.5074 18.6561L18.0171 18.7023C18.0634 19.0255 17.9707 19.3948 17.7854 19.6719L17.322 19.5334C17.461 19.2563 17.5074 18.9793 17.5074 18.6561ZM25.431 25.1663C25.4774 26.1821 24.9213 27.1517 24.0409 27.6596L24.3653 27.0132H24.0409L23.6239 27.8443C23.1605 28.029 22.6971 28.0752 22.2338 28.0752C20.612 28.0752 20.1949 28.1214 19.6389 28.7216C19.0365 28.1214 18.6195 28.029 16.9976 28.029C16.5343 28.029 16.0709 27.9367 15.6075 27.7982L16.0246 26.9671H15.7002L15.3295 27.7058L15.1442 27.5673L15.4222 26.9671H15.1442L14.9125 27.3826C14.2174 26.8285 13.8004 25.9974 13.8467 25.1202V21.5649H25.4774L25.431 25.1663ZM25.7554 14.3621C25.5701 14.8238 25.431 15.3317 25.431 15.8396V21.2417H24.7823C24.5506 20.8724 24.3653 20.4568 24.2263 20.0413C24.1336 20.4568 24.1799 20.8724 24.4116 21.2417H23.5775C23.3922 20.8262 23.2532 20.4106 23.2068 19.9951C22.9752 20.2721 23.1142 21.0109 23.2532 21.2417H22.6971C22.6971 20.9647 22.6971 20.6877 22.7898 20.4106C22.5118 20.3645 22.1874 20.2259 22.1874 19.9027C22.2801 19.9951 22.4655 20.0413 22.6045 20.0413L22.8362 19.8566C22.0484 19.8566 22.0484 19.0255 22.6508 18.6561C22.0484 18.6561 21.585 18.3329 21.8167 17.6865C21.3997 17.4095 21.2607 16.8554 21.5387 16.4398C21.5387 16.4398 21.5387 16.3937 21.585 16.3937C21.3534 16.0705 21.307 15.6549 21.446 15.3317C21.1217 15.3317 20.8436 15.2394 20.612 15.0085H20.5656C20.9363 14.87 21.2607 14.6391 21.4924 14.3159L25.7554 14.3621ZM23.4385 11.7765C22.7898 11.8688 22.2801 12.6537 21.8167 13.3463L21.7704 13.4387H21.307V13.531C21.2607 14.0851 20.751 14.7777 19.6389 14.7777C19.2218 14.7777 18.8048 14.6391 18.4804 14.4083C18.2488 14.2236 18.1097 14.0389 18.0171 13.7619C17.9707 13.6695 17.9707 13.6234 17.9707 13.531V13.4387H17.5074L17.461 13.3463C16.9976 12.6537 16.4879 11.8688 15.8392 11.7765L17.5537 10.7607L19.6852 11.8688L21.7704 10.7145L23.4385 11.7765ZM21.4924 10.2528L19.8242 11.1301V7.57482L22.0948 6.7899L21.4924 10.2528ZM19.6389 7.20545L17.1367 6.23583C17.3683 5.72794 18.3414 5.31239 19.6389 5.31239C20.9363 5.31239 21.9094 5.72794 22.1411 6.23583L19.6389 7.20545Z" fill="#ffffff" id="svg_23" fill-opacity="1"/>
<path d="M25.1995 17.8711V17.5941C24.3654 17.5941 24.1801 16.5783 24.1801 16.5783C24.0411 17.1324 24.3191 17.6864 24.8751 17.825C24.9678 17.8711 25.0605 17.8711 25.1995 17.8711ZM24.1337 19.5333L24.0411 19.2563C23.346 19.441 22.9753 18.2867 22.9753 18.2867C22.8363 18.7946 23.1143 19.3486 23.624 19.4871C23.763 19.5795 23.9484 19.5795 24.1337 19.5333ZM24.5971 18.4714C23.763 18.6099 23.3923 17.6403 23.3923 17.6403C23.2533 18.1482 23.624 18.6561 24.1337 18.7946H24.2264C24.1337 19.2101 24.4118 19.5795 24.7825 19.6718C24.9678 19.718 25.1532 19.6718 25.2922 19.5795L25.1995 19.3486C24.9215 19.441 24.5971 19.3025 24.5044 19.0254C24.4581 18.8407 24.5044 18.6561 24.5971 18.4714ZM24.0874 15.6549V15.3778C22.9753 15.147 23.068 14.3621 23.068 14.3621C22.929 14.9161 23.207 15.4702 23.763 15.6087C23.8557 15.6549 23.9947 15.6549 24.0874 15.6549ZM16.9515 27.0132L16.5344 27.7981H16.8588L17.2295 27.0132H16.9515ZM17.5538 27.0132L17.1368 27.7981H17.4612L17.8782 27.0132H17.5538ZM20.0097 27.0132L19.5927 27.7981H19.917L20.2877 27.0132H20.0097ZM20.6121 27.0132L20.1951 27.7981H20.5194L20.9365 27.0132H20.6121ZM19.4073 27.0132L18.9903 27.7981H19.3147L19.6854 27.0132H19.4073ZM22.9753 27.7981H23.2533L23.6704 27.0132H23.346L22.9753 27.7981ZM18.1562 27.0132L17.7855 27.7981H18.0636L18.4806 27.0132H18.1562ZM18.7586 27.0132L18.3879 27.7981H18.6659L19.083 27.0132H18.7586ZM17.4148 22.5807C17.3685 22.5807 17.2758 22.6268 17.2758 22.673C17.2758 22.7192 17.3222 22.8115 17.3685 22.8115C17.4148 22.8115 17.5075 22.7654 17.5075 22.7192C17.5075 22.673 17.4612 22.6268 17.4148 22.5807ZM19.639 4.15805C20.6584 4.11188 21.6315 4.43508 22.4656 5.03532C22.6046 4.38891 22.8363 3.7425 23.207 3.18844L22.1876 3.28078L21.6315 2.17266L20.6121 2.68055L19.639 1.71094L18.6659 2.68055L17.6465 2.17266L17.1368 3.28078L16.071 3.18844C16.4417 3.7425 16.6734 4.38891 16.8124 5.03532C17.6002 4.43508 18.6196 4.11188 19.639 4.15805ZM17.2295 3.69633L17.6929 2.68055L18.5733 3.14227L19.5463 2.17266L20.5194 3.14227L21.3998 2.68055L21.8632 3.69633L22.4656 3.60399C22.3266 3.88102 22.1876 4.15805 22.0949 4.48126C20.5194 3.60399 18.5269 3.60399 16.9515 4.48126C16.8588 4.15805 16.7198 3.88102 16.5808 3.60399L17.2295 3.69633Z" fill="#ffffff" id="svg_24" fill-opacity="1"/>
<path d="M20.6586 2.17262C20.7976 2.17262 20.9366 2.08027 20.9366 1.94176C20.8903 1.75707 20.8439 1.57238 20.7513 1.3877C20.7513 1.3877 20.4269 1.75707 20.4269 1.89559C20.4269 2.0341 20.5196 2.17262 20.6586 2.17262ZM22.3267 2.77285C22.4657 2.81903 22.6048 2.77285 22.6974 2.68051C22.7438 2.49582 22.7438 2.31114 22.6974 2.12645C22.6974 2.12645 22.2804 2.31113 22.1877 2.44965C22.0951 2.54199 22.1414 2.68051 22.3267 2.77285ZM18.6198 2.17262C18.7588 2.17262 18.8514 2.0341 18.8514 1.89559C18.8514 1.75707 18.5271 1.3877 18.5271 1.3877C18.4344 1.57238 18.3417 1.75707 18.3417 1.94176C18.3417 2.08027 18.4344 2.17262 18.6198 2.17262ZM16.9516 2.77285C17.0906 2.72668 17.137 2.54199 17.0443 2.40348C16.9979 2.26496 16.5346 2.08027 16.5346 2.08027C16.4882 2.26496 16.5346 2.44965 16.5809 2.63434C16.6736 2.77285 16.8126 2.81903 16.9516 2.77285ZM36.784 11.8226C37.1083 11.684 37.3864 11.407 37.5717 11.0376C36.6913 10.9453 34.2818 9.92951 32.3356 10.7144C33.077 10.0219 33.7257 9.92951 33.7721 8.91373C34.0501 9.19076 34.5134 9.14459 34.7451 8.86756C34.7915 8.82138 34.8378 8.77521 34.8378 8.72904C34.6525 8.1288 34.1427 8.6367 34.0501 8.45201C33.9574 8.26732 34.6988 8.49818 34.8378 7.75943C34.2818 7.57474 34.0964 8.03646 34.0037 7.94412C33.9111 7.85177 34.3744 7.66708 34.0501 7.02068C33.4477 7.39005 33.7721 7.75943 33.633 7.8056C33.494 7.85177 33.5867 7.39005 32.938 7.39005C32.8916 8.08263 33.5404 8.1288 33.4477 8.22115C33.355 8.31349 33.1233 7.8056 32.6136 8.08263C32.5673 8.49818 32.8916 8.82138 33.3087 8.86756C33.4014 8.86756 33.494 8.86756 33.5867 8.82138C33.494 9.92951 32.5209 9.69865 31.7332 10.9453C33.3087 11.7764 34.0501 13.1615 35.0232 14.1312C35.3939 13.7618 35.6719 13.3462 35.9036 12.8845C36.4133 13.3924 37.201 13.3924 37.7107 12.8845C37.2937 12.6075 37.2937 12.3305 36.784 11.8226ZM35.2085 12.0072C35.4402 12.5613 35.3939 13.2077 35.0695 13.7156C34.6061 12.6998 33.9111 11.8226 33.0307 11.0838C32.8916 10.9915 33.1233 10.853 33.494 10.7606C34.6988 10.5297 36.1353 11.0376 36.8303 11.2223C36.5523 11.4532 36.2743 11.5455 35.9499 11.5917C36.3669 11.9149 36.7376 12.2843 37.062 12.746C36.5523 12.9307 36.2743 12.6537 35.2085 12.0072ZM19.3148 31.1686H18.6198L18.5271 31.4457H18.6198C18.6661 31.4457 18.6661 31.3995 18.6661 31.3533H19.1758C18.9905 31.7227 18.5734 32.0459 18.5734 32.2767C18.5734 32.4153 18.7124 32.4153 18.8051 32.4153C18.8978 32.4153 18.9905 32.3229 19.0368 32.1844C19.1295 31.815 19.2685 31.5842 19.4075 31.1686H19.3148ZM19.8245 31.5842V31.3533H20.4269L20.3806 31.1224C20.2416 31.1224 19.9635 31.1686 19.7782 31.1686L19.7318 31.6303C20.0099 31.6303 20.1952 31.7227 20.1952 32.0459C20.1952 32.1382 20.1025 32.3691 20.0099 32.3691H19.9172C19.8709 32.3229 19.9172 32.2768 19.9172 32.1844C19.9172 32.0921 19.8709 32.0459 19.7782 32.0459H19.7318C19.6392 32.0459 19.5928 32.0921 19.5928 32.1844C19.5928 32.3691 19.8245 32.4153 19.9635 32.4153C20.1952 32.4153 20.4732 32.2768 20.4732 31.9997C20.4732 31.7227 20.0562 31.6303 19.8245 31.5842ZM21.0756 31.1224C20.8439 31.1224 20.7049 31.261 20.7049 31.4918C20.7049 31.815 21.0756 31.9535 21.3537 31.815C21.4 32.0921 21.3537 32.2767 21.2146 32.2767C21.0756 32.2767 21.1683 32.2306 21.1683 32.1844C21.1683 32.0921 21.0756 32.0459 21.0293 32.0459H20.983C20.9366 32.0459 20.8903 32.1382 20.8903 32.1844C20.9366 32.3229 21.122 32.3229 21.1683 32.3229C21.4463 32.3229 21.678 32.0459 21.678 31.7227C21.7244 31.3995 21.4927 31.1224 21.1683 31.0763C21.122 31.1224 21.122 31.1224 21.0756 31.1224ZM21.261 31.815C21.0293 31.815 21.0293 31.4918 21.0293 31.3071C21.0293 31.261 21.0756 31.2148 21.122 31.2148C21.3073 31.2148 21.3537 31.6765 21.4 31.815C21.3537 31.7689 21.3073 31.815 21.261 31.815ZM18.1564 31.0763C18.0174 31.261 17.832 31.3995 17.6467 31.538L17.693 31.5842L17.8784 31.4918L17.693 32.1382C17.693 32.1844 17.6467 32.1844 17.6003 32.1844H17.5077V32.2767L18.11 32.3691V32.2767H18.0174C17.971 32.2767 17.971 32.2306 17.971 32.2306L18.2491 31.1686L18.1564 31.0763Z" fill="#ffffff" id="svg_25" fill-opacity="1"/>
<path d="M25.0604 30.2452V28.9062C23.7629 29.4603 22.4191 29.8297 21.029 29.922L20.9363 30.3837C21.0753 30.3837 21.2607 30.4299 21.4924 30.4299C20.2326 30.6139 18.9525 30.6139 17.6927 30.4299C17.9244 30.4299 18.1098 30.3837 18.2488 30.3837L18.1561 29.922C16.766 29.8297 15.4222 29.4603 14.1247 28.9062V30.2452L12.8273 30.7993C13.9857 31.3995 15.1905 31.8151 16.4416 32.1383L16.3026 32.6923C18.5268 33.2926 20.8437 33.2926 23.0678 32.6923L22.8825 32.1383C24.1336 31.8151 25.3384 31.3995 26.4505 30.7993L25.0604 30.2452ZM13.5224 30.8455L14.4491 30.4761V29.4141C15.2832 29.7373 16.1172 29.9682 16.9977 30.1067L16.4416 31.8612C15.4685 31.5842 14.4954 31.261 13.5224 30.8455ZM19.5925 32.8309C18.5731 32.8309 17.5537 32.6923 16.5806 32.4615L17.1367 30.6146C17.9244 30.7531 18.7585 30.8455 19.5925 30.7993C20.4266 30.7993 21.2144 30.7531 22.0484 30.6146L22.6045 32.4615C21.6314 32.6923 20.612 32.8309 19.5925 32.8309ZM22.7435 31.8151L22.1874 30.0605C23.0678 29.8759 23.9019 29.645 24.736 29.368V30.4299L25.6627 30.7993C24.736 31.261 23.7166 31.5842 22.7435 31.8151ZM3.32815 12.9769C3.55984 13.4386 3.83786 13.8542 4.20856 14.2236C5.18164 13.2539 5.92304 11.8226 7.49851 11.0377C6.75711 9.79104 5.73769 10.0219 5.64502 8.91377C6.06205 9.05229 6.43275 8.82143 6.57176 8.40588C6.6181 8.31354 6.6181 8.22119 6.6181 8.12885C6.10839 7.85182 5.92304 8.40588 5.78403 8.26737C5.64502 8.12885 6.38641 8.12885 6.29374 7.43627C5.64502 7.43627 5.73769 7.89799 5.59868 7.85182C5.45967 7.80565 5.78403 7.3901 5.18164 7.06689C4.85728 7.7133 5.32066 7.89799 5.22798 7.99033C5.13531 8.08268 4.94996 7.62096 4.39391 7.80565C4.53292 8.59057 5.32066 8.26737 5.18164 8.49823C5.04263 8.72909 4.57926 8.17502 4.39391 8.77526C4.57926 9.09846 4.99629 9.23698 5.36699 9.05229C5.41333 9.00612 5.45967 9.00612 5.50601 8.95995C5.55234 9.97573 6.20107 10.0681 6.94246 10.7607C4.99629 9.92956 2.63309 10.9453 1.70635 11.0377C1.84536 11.3609 2.12338 11.6379 2.44774 11.8226C1.8917 12.3305 1.89169 12.6075 1.521 12.9769C2.03071 13.4848 2.86478 13.4848 3.32815 12.9769ZM2.21606 12.8384C2.54042 12.4228 2.91112 12.0073 3.32815 11.6841C3.00379 11.6379 2.67943 11.4994 2.40141 11.3147C3.09647 11.13 4.53292 10.6221 5.73769 10.853C6.15473 10.8992 6.38641 11.0839 6.20106 11.1762C5.32066 11.8688 4.6256 12.746 4.16222 13.808C3.83786 13.3001 3.74519 12.6537 4.02321 12.0996C3.00379 12.6537 2.72577 12.9307 2.21606 12.8384ZM18.7585 12.2382V12.8384C18.8975 12.6999 19.1292 12.6075 19.3609 12.6537V13.4848C19.3609 13.7157 19.3145 13.9003 19.2219 14.085H20.0559C19.9632 13.9003 19.9169 13.7157 19.9169 13.4848V12.6537C20.1486 12.6075 20.3339 12.6999 20.5193 12.8384V12.2382H18.7585Z" fill="#ffffff" id="svg_26" fill-opacity="1"/>
<path d="M54.9019 24.7509C54.9019 25.7205 54.6702 26.4593 54.1605 27.0134C53.6508 27.5674 53.0021 27.8445 52.168 27.8445C51.2876 27.8445 50.5925 27.5674 50.1291 27.0595C49.6658 26.5055 49.4341 25.7667 49.4341 24.7971C49.4341 23.8275 49.6658 23.0887 50.1291 22.5347C50.5925 21.9806 51.2876 21.7498 52.168 21.7498C53.0021 21.7498 53.6971 22.0268 54.1605 22.5809C54.6702 23.1349 54.9019 23.7813 54.9019 24.7509ZM50.1291 24.7509C50.1291 25.5359 50.3145 26.1823 50.6389 26.5978C50.9632 27.0134 51.4729 27.1981 52.1216 27.1981C52.7704 27.1981 53.2801 27.0134 53.6044 26.5978C53.9288 26.1823 54.1142 25.582 54.1142 24.7509C54.1142 23.966 53.9288 23.3658 53.6044 22.9502C53.2801 22.5347 52.7704 22.35 52.1216 22.35C51.4729 22.35 50.9632 22.5809 50.6389 22.9502C50.3145 23.3658 50.1291 23.966 50.1291 24.7509ZM56.8481 27.7059H56.153V23.2734H59.9063V27.7059H59.2113V23.8275H56.8017L56.8481 27.7059ZM64.6327 27.7059H63.9377V23.8275H62.5939C62.5012 24.7971 62.4085 25.5359 62.2695 26.1361C62.1305 26.7363 61.9915 27.1057 61.7598 27.3827C61.5281 27.6598 61.2964 27.7983 60.9721 27.7983C60.8331 27.7983 60.694 27.7983 60.6014 27.7521V27.2442C60.6477 27.2442 60.7404 27.2904 60.7867 27.2904C61.1111 27.2904 61.3428 26.9672 61.5281 26.3208C61.7135 25.6744 61.8525 24.6586 61.9452 23.3196H64.54V27.7059H64.6327ZM68.8031 27.7059L68.6641 27.0595H68.6177C68.386 27.3366 68.1544 27.5213 67.969 27.6136C67.7373 27.7059 67.4593 27.7521 67.1349 27.7521C66.6716 27.7521 66.3472 27.6598 66.1155 27.4289C65.8838 27.1981 65.7448 26.8748 65.7448 26.4593C65.7448 25.582 66.4862 25.0741 67.9227 25.028L68.6641 24.9818V24.7048C68.6641 24.3354 68.5714 24.1045 68.4324 23.9198C68.2934 23.7352 68.0617 23.689 67.691 23.689C67.3203 23.689 66.9033 23.7813 66.4399 24.0122L66.2545 23.5043C66.4862 23.3658 66.7179 23.2734 66.9959 23.2273C67.2739 23.1811 67.5056 23.1349 67.7837 23.1349C68.2934 23.1349 68.7104 23.2734 68.9884 23.5043C69.2665 23.7352 69.3591 24.1045 69.3591 24.6586V27.7059H68.8031ZM67.3203 27.2442C67.7373 27.2442 68.0617 27.1519 68.2934 26.921C68.5251 26.6902 68.6641 26.367 68.6641 25.9514V25.5359L67.969 25.582C67.413 25.582 67.0423 25.6744 66.8106 25.8129C66.5789 25.9514 66.4399 26.1823 66.4399 26.5055C66.4399 26.7363 66.5326 26.921 66.6716 27.0595C66.8106 27.1981 67.0423 27.2442 67.3203 27.2442ZM73.7612 23.8275H72.3247V27.7059H71.6297V23.8275H70.1932V23.2734H73.7612V23.8275ZM77.3755 27.7059L77.2365 27.0595H77.1901C76.9584 27.3366 76.7268 27.5213 76.5414 27.6136C76.3097 27.7059 76.0317 27.7521 75.7073 27.7521C75.244 27.7521 74.9196 27.6598 74.6879 27.4289C74.4562 27.1981 74.3172 26.8748 74.3172 26.4593C74.3172 25.582 75.0586 25.0741 76.4951 25.028L77.2365 24.9818V24.7048C77.2365 24.3354 77.1438 24.1045 77.0048 23.9198C76.8658 23.7352 76.6341 23.689 76.2634 23.689C75.8927 23.689 75.4757 23.7813 75.0123 24.0122L74.8269 23.5043C75.0586 23.3658 75.2903 23.2734 75.5683 23.2273C75.8464 23.1811 76.078 23.1349 76.3561 23.1349C76.8658 23.1349 77.2828 23.2734 77.5608 23.5043C77.8389 23.7352 77.9315 24.1045 77.9315 24.6586V27.7059H77.3755ZM75.8464 27.2442C76.2634 27.2442 76.5877 27.1519 76.8194 26.921C77.0511 26.6902 77.1901 26.367 77.1901 25.9514V25.5359L76.4951 25.582C75.939 25.582 75.5683 25.6744 75.3366 25.8129C75.105 25.9514 74.9659 26.1823 74.9659 26.5055C74.9659 26.7363 75.0586 26.921 75.1976 27.0595C75.3366 27.1981 75.522 27.2442 75.8464 27.2442ZM85.0211 24.3816C85.0211 24.6586 84.9285 24.8895 84.7894 25.028C84.6041 25.1665 84.3724 25.2588 84.0944 25.3512V25.3973C84.4651 25.4435 84.7431 25.582 84.9285 25.7205C85.1138 25.8591 85.2065 26.1361 85.2065 26.4131C85.2065 26.8287 85.0675 27.1519 84.7431 27.3827C84.4188 27.6136 84.0017 27.7059 83.3993 27.7059H81.4532V23.2734H83.3993C84.5114 23.2734 85.0211 23.6428 85.0211 24.3816ZM84.3261 24.4739C84.3261 24.243 84.2334 24.1045 84.0944 24.0122C83.909 23.9198 83.6774 23.8737 83.353 23.8737H82.0555V25.1203H83.214C83.631 25.1203 83.909 25.0741 84.0944 24.9818C84.2797 24.8895 84.3261 24.7048 84.3261 24.4739ZM84.5114 26.367C84.5114 26.1361 84.4188 25.9514 84.2334 25.8591C84.0481 25.7667 83.7237 25.6744 83.3067 25.6744H82.1019V27.1519H83.353C84.0944 27.1519 84.5114 26.8748 84.5114 26.367ZM90.9523 23.2734H91.6937L89.7475 25.3973L91.8327 27.7059H91.045L89.0061 25.4435V27.7059H88.3111V23.2734H89.0061V25.4435L90.9523 23.2734ZM94.752 27.7983C94.4739 27.7983 94.1959 27.7521 93.9642 27.6598C93.7326 27.5674 93.5009 27.3827 93.3619 27.1519H93.3155C93.3619 27.4289 93.3619 27.6598 93.3619 27.8906V29.7375H92.6668V23.2734H93.2228L93.3155 23.8737H93.3619C93.5472 23.6428 93.7326 23.4581 93.9642 23.3658C94.1959 23.2734 94.4739 23.1811 94.752 23.1811C95.3544 23.1811 95.8177 23.3658 96.1421 23.7813C96.4665 24.1969 96.6055 24.7509 96.6055 25.4897C96.6055 26.2284 96.4201 26.7825 96.0958 27.1981C95.7714 27.6136 95.308 27.7983 94.752 27.7983ZM94.6593 23.7813C94.1959 23.7813 93.8716 23.9198 93.6862 24.1507C93.5009 24.3816 93.3619 24.7971 93.3619 25.3512V25.4897C93.3619 26.1361 93.4545 26.5516 93.6862 26.8287C93.9179 27.1057 94.2423 27.2442 94.7056 27.2442C95.0763 27.2442 95.4007 27.1057 95.6324 26.7825C95.8641 26.4593 95.9567 26.0438 95.9567 25.4897C95.9567 24.9356 95.8641 24.5201 95.6324 24.1969C95.3544 23.9198 94.9837 23.7813 94.6593 23.7813ZM99.6174 27.7983C98.9687 27.7983 98.459 27.6136 98.0419 27.1981C97.6249 26.7825 97.4859 26.2284 97.4859 25.5359C97.4859 24.7971 97.6712 24.243 97.9956 23.8275C98.3199 23.4119 98.8297 23.1811 99.432 23.1811C99.9881 23.1811 100.451 23.3658 100.776 23.7352C101.1 24.1045 101.286 24.5662 101.286 25.1665V25.582H98.2273C98.2273 26.0899 98.3663 26.5055 98.6443 26.7825C98.9223 27.0595 99.2467 27.1981 99.7101 27.1981C100.173 27.1981 100.683 27.1057 101.147 26.8748V27.4751C100.915 27.5674 100.683 27.6598 100.451 27.7059C100.22 27.7983 99.9881 27.7983 99.6174 27.7983ZM99.4784 23.7352C99.1077 23.7352 98.8297 23.8737 98.6443 24.1045C98.459 24.3354 98.3199 24.6586 98.2736 25.0741H100.59C100.59 24.6586 100.498 24.3354 100.312 24.1045C100.081 23.8737 99.8491 23.7352 99.4784 23.7352ZM106.336 29.2758H105.688V27.7521H102.583V29.2758H101.934V27.1519H102.305C102.676 26.644 102.954 26.0899 103.139 25.3973C103.324 24.7048 103.463 24.0122 103.463 23.2734H105.734V27.1519H106.383V29.2758H106.336ZM105.039 27.1519V23.8275H104.019C103.973 24.4277 103.88 25.028 103.649 25.6744C103.463 26.2746 103.185 26.7825 102.907 27.1981H105.039V27.1519ZM107.865 23.2734V26.0899L107.819 26.8287V27.0595L110.229 23.2734H111.063V27.7059H110.414V23.9198L108.004 27.7059H107.17V23.2734H107.865ZM115.465 23.8275H114.028V27.7059H113.333V23.8275H111.897V23.2734H115.465V23.8275Z" fill="#ffffff" id="svg_27" fill-opacity="1"/>
</g></g></svg>