<svg width="208" height="154" viewBox="0 0 208 154" fill="none" xmlns="http://www.w3.org/2000/svg">
<g clip-path="url(#clip0)">
<path opacity="0.1" d="M88.3725 10.3377C81.5482 7.56468 74.3366 5.24314 66.9745 5.53861C56.1424 5.96438 45.7675 12.472 40.6709 22.028C36.3527 30.1231 35.8203 39.613 33.9605 48.5964C31.6692 59.6664 27.2813 70.1858 22.5923 80.474C20.0734 85.9925 17.4168 91.6449 17.0037 97.703C16.429 106.112 20.4516 114.493 26.7581 120.093C33.0645 125.692 41.4456 128.637 49.8488 129.281C54.323 129.625 58.9973 129.307 62.9721 127.226C67.1764 125.024 70.2406 121.043 74.4615 118.874C78.3739 116.855 82.9491 116.58 87.3407 116.842C93.0928 117.186 98.7609 118.39 104.156 120.414C110.294 122.719 116.002 126.055 122.126 128.391C128.251 130.728 135.094 132.032 141.354 130.082C147.229 128.246 151.882 123.805 156.073 119.3C162.953 111.905 169.227 103.969 174.836 95.5704C178.617 89.9107 182.134 83.9389 183.807 77.3413C187.001 64.7297 182.604 50.4995 172.848 41.885C164.77 34.7497 153.921 31.6518 143.304 29.7726C133.623 28.0585 122.429 27.9521 113.518 23.4851C105.017 19.2183 97.2841 13.9604 88.3725 10.3377Z" fill="#56CCF2"/>
<path d="M159.947 22.0719C157.325 22.1766 157.193 28.943 157.356 29.2384C157.52 29.5339 156.761 32.5877 156.761 32.5877C156.761 32.5877 155.572 37.218 155.709 38.0787C155.847 38.9394 155.069 39.5028 155.069 39.5028C153.905 39.9616 152.445 41.4408 152.058 41.8464L151.96 41.951C151.96 41.951 150.833 42.6851 150.635 42.975C150.437 43.265 149.901 43.0337 149.901 43.0337C149.901 43.0337 148.377 42.8869 148.178 42.9457C148.043 42.986 147.83 42.7364 147.708 42.5786C147.652 42.5034 147.615 42.4465 147.615 42.4465L147.569 41.0811C147.512 41.0373 147.45 40.9992 147.385 40.9673C147.417 40.8131 147.455 40.6535 147.503 40.4901C148.188 40.1561 148.766 39.6374 149.172 38.9926C149.216 38.9229 149.256 38.8513 149.295 38.7797C149.396 38.8501 149.518 38.8844 149.642 38.877C149.696 38.8785 149.75 38.8735 149.803 38.8623C149.974 38.8161 150.134 38.7356 150.273 38.6256C150.652 38.3699 150.954 38.0159 151.147 37.6015C151.181 37.5224 151.209 37.4408 151.23 37.3574C151.202 37.4033 151.173 37.4492 151.143 37.4932C151.215 37.2997 151.244 37.0927 151.227 36.8869C151.21 36.6811 151.149 36.4815 151.046 36.3022C150.903 36.0709 150.679 35.8838 150.587 35.6268C150.433 35.1845 150.725 34.7276 150.905 34.2945C151.079 33.9004 151.136 33.4646 151.068 33.0392C151.032 32.826 150.953 32.6223 150.837 32.4404C150.72 32.2584 150.568 32.1019 150.389 31.9803C149.667 31.5123 148.689 31.7692 147.853 31.5435C147.555 31.4467 147.264 31.3296 146.981 31.193C146.552 31.0079 146.105 30.8689 145.647 30.7782C145.193 30.6883 144.644 30.6791 144.362 31.0333C144.283 31.1457 144.213 31.2642 144.152 31.3875C144.061 31.535 143.942 31.663 143.801 31.7641C143.66 31.8652 143.5 31.9374 143.332 31.9766C143.165 32.0082 142.996 32.026 142.827 32.0298C142.842 31.9609 142.842 31.8895 142.827 31.8206C142.614 31.1232 143.223 30.6057 144.016 30.2937C144.809 29.9817 147.826 27.6069 148.177 27.0435C148.527 26.4801 150.982 24.7128 150.982 24.7128C150.982 24.7128 154.654 23.6741 155.858 19.8899C157.063 16.1057 150.097 22.5326 149.396 22.7253C148.694 22.918 147.69 23.6429 147.69 23.6429L143.223 26.225C142.372 26.7054 141.565 27.2619 140.814 27.8877C139.733 28.8219 139.048 30.4093 139.048 30.4093C139.048 30.4093 138.621 31.1067 137.996 32.1161C137.652 32.6913 137.187 33.1853 136.634 33.564L136.654 33.5273C136.605 33.5879 135.068 35.5277 134.932 36.3756C134.796 37.2235 134.17 40.6792 134.17 40.6792C134.17 40.6792 133.619 43.3934 133.241 43.9275C133.241 43.9275 132.935 45.4856 132.753 45.6948C132.571 45.904 131.835 48.1118 131.96 48.3357C131.96 48.3357 131.258 49.8644 131.381 50.4425L130.116 53.4706C130.116 53.4706 129.43 54.9681 129.476 55.8435C129.498 56.2675 129.516 56.7611 129.529 57.1649C129.529 57.2291 129.529 57.2897 129.529 57.3484C129.529 57.4126 129.529 57.475 129.529 57.5319C129.461 57.6457 129.287 57.9357 129.105 58.2862C128.844 58.7964 128.567 59.4332 128.583 59.8259C128.613 60.516 128.615 62.2007 128.297 62.8192L128.203 62.7825C128.092 62.9669 128.029 63.1765 128.02 63.3918L128.042 63.4028C128.042 63.456 128.025 63.511 128.02 63.5698C127.943 64.2727 128.055 65.2508 127.878 65.4655C127.634 65.7628 127.755 72.3513 127.755 72.3513C127.755 72.3513 127.359 76.475 128.152 79.0883L128.091 81.1346C128.091 81.1346 128.06 83.0634 128.152 83.3368C128.244 83.6103 128.275 85.563 128.275 85.563L128.732 88.8278C128.732 88.8278 128.121 93.8728 128.64 95.1189C128.941 95.8064 129.127 96.5386 129.191 97.2863C129.456 97.4317 129.738 97.5409 130.032 97.6111V97.7946L129.913 100.863V101.032C129.913 101.032 129.898 101.113 129.887 101.247C129.887 101.271 129.887 101.296 129.887 101.322C129.886 101.329 129.886 101.337 129.887 101.344C129.887 101.364 129.887 101.386 129.887 101.408C129.886 101.425 129.886 101.441 129.887 101.458C129.888 101.472 129.888 101.487 129.887 101.502V101.538C129.887 101.614 129.887 101.694 129.887 101.779C129.887 101.812 129.887 101.847 129.887 101.882C129.887 101.917 129.887 101.902 129.887 101.911V101.957C129.887 101.977 129.887 101.997 129.887 102.017V102.047C129.887 102.078 129.896 102.107 129.902 102.139C129.901 102.146 129.901 102.153 129.902 102.161C129.902 102.195 129.914 102.229 129.922 102.262C129.922 102.295 129.936 102.328 129.946 102.361C129.947 102.364 129.947 102.368 129.946 102.372C129.946 102.388 129.955 102.407 129.96 102.423C129.959 102.431 129.959 102.439 129.96 102.447C129.96 102.467 129.973 102.487 129.979 102.509V102.524C129.997 102.575 130.015 102.627 130.037 102.678C130.037 102.684 130.037 102.689 130.037 102.695C130.037 102.713 130.054 102.733 130.063 102.752L130.074 102.777L130.098 102.827L130.113 102.854L130.138 102.9L130.155 102.928C130.155 102.942 130.171 102.957 130.181 102.972C130.19 102.986 130.194 102.99 130.199 103.001L130.227 103.043L130.247 103.071L130.276 103.113L130.298 103.141L130.331 103.181L130.353 103.207L130.392 103.251L130.412 103.273L130.474 103.333C130.48 103.34 130.487 103.347 130.495 103.352C130.509 103.367 130.524 103.381 130.541 103.394L130.57 103.418L130.61 103.451L130.645 103.476L130.686 103.506L130.724 103.532L130.765 103.557L130.807 103.581L130.849 103.607L130.893 103.629L130.939 103.651L130.985 103.673L131.031 103.693L131.08 103.713L131.13 103.732L131.181 103.75L131.236 103.766L131.323 103.792L131.394 103.81L131.451 103.821L131.51 103.834H131.572L131.633 103.844H131.697H131.761H131.828H131.895H131.963H132.253H132.338H132.408L132.507 103.834H132.567L132.734 103.816C132.734 103.816 134.815 104.126 134.883 103.304C134.883 103.262 134.883 103.218 134.892 103.172V103.067C134.891 103.054 134.891 103.041 134.892 103.029C134.892 102.988 134.892 102.944 134.892 102.9V102.88C134.892 102.834 134.892 102.788 134.892 102.741V102.641C134.892 102.561 134.892 102.478 134.892 102.396C134.892 102.364 134.892 102.335 134.892 102.304C134.892 102.219 134.892 102.137 134.892 102.054V102.041C134.892 102.021 134.892 102.005 134.892 101.984C134.879 101.577 134.859 101.199 134.846 100.988C134.846 100.876 134.835 100.804 134.835 100.804C134.835 100.804 134.126 99.7363 134.242 99.3362C134.357 98.9361 134.332 97.5781 134.332 97.5781C134.332 97.5781 134.056 96.9266 133.871 96.3503C133.856 96.3063 133.843 96.2622 133.831 96.22C133.984 96.0441 134.129 95.8603 134.264 95.6695C134.527 94.2547 134.346 92.7931 133.746 91.4852C133.711 91.4611 133.683 91.429 133.664 91.3916C133.644 91.3542 133.634 91.3126 133.634 91.2705C133.633 91.2632 133.633 91.2558 133.634 91.2484L133.988 86.9155L133.774 84.3939C133.774 84.3939 133.621 82.6707 133.957 81.9292L134.627 75.4014L135.578 71.6043C135.578 71.6043 135.883 71.4557 136.129 72.1696C136.375 72.8835 136.981 76.1153 136.981 76.1153L138.45 81.4576C138.45 81.4576 138.694 83.357 138.907 83.625C139.12 83.8929 139.122 85.0785 139.122 85.0785C139.122 85.0785 139.579 86.0291 139.518 86.4438C139.458 86.8586 139.518 87.9873 139.669 88.3727C139.819 88.7581 139.884 91.4925 139.884 91.4925C139.708 92.3868 139.729 93.3084 139.944 94.194C140.311 95.5593 140.097 97.2808 140.097 97.2808C140.135 97.3404 140.177 97.3979 140.221 97.4533C140.207 97.4937 140.19 97.534 140.176 97.5707C140.08 97.8185 140.005 97.9928 140.005 97.9928C140.005 97.9928 139.983 99.3509 140.097 99.751C140.21 100.151 139.502 101.219 139.502 101.219C139.502 101.219 139.502 101.285 139.491 101.403C139.478 101.614 139.458 101.99 139.445 102.399C139.445 102.418 139.445 102.436 139.445 102.456V102.471V102.717C139.445 102.748 139.445 102.779 139.445 102.81C139.445 102.893 139.445 102.975 139.445 103.056C139.445 103.071 139.445 103.087 139.445 103.102C139.445 103.117 139.445 103.126 139.445 103.137V103.153C139.445 103.201 139.445 103.249 139.445 103.295V103.315C139.445 103.359 139.445 103.403 139.445 103.445C139.444 103.457 139.444 103.469 139.445 103.48C139.445 103.515 139.445 103.552 139.445 103.587C139.445 103.621 139.445 103.676 139.454 103.719C139.524 104.541 141.604 104.231 141.604 104.231L141.771 104.251H141.83H141.931H141.999H142.085H142.371H142.439H142.507H142.573H142.638H142.7L142.762 104.24L142.823 104.231L142.882 104.218L142.94 104.207L143.012 104.189L143.098 104.163L143.152 104.146L143.203 104.128C143.22 104.123 143.237 104.117 143.253 104.11L143.302 104.089L143.35 104.069L143.396 104.049L143.442 104.025L143.484 104.003L143.528 103.979L143.568 103.954L143.611 103.928L143.647 103.902L143.688 103.873C143.7 103.865 143.712 103.857 143.723 103.847C143.737 103.838 143.75 103.827 143.763 103.816L143.794 103.79L143.84 103.75L143.86 103.73L143.923 103.669L143.941 103.647L143.981 103.605L144.002 103.577C144.014 103.565 144.026 103.551 144.037 103.537L144.057 103.509L144.088 103.467L144.106 103.44L144.136 103.398C144.141 103.387 144.147 103.378 144.154 103.368C144.154 103.354 144.171 103.339 144.18 103.324L144.196 103.297C144.196 103.28 144.213 103.265 144.22 103.251C144.226 103.242 144.231 103.233 144.235 103.223C144.235 103.207 144.251 103.19 144.259 103.174L144.272 103.148C144.272 103.13 144.288 103.111 144.297 103.091V103.075C144.317 103.023 144.338 102.972 144.354 102.92V102.906C144.354 102.886 144.367 102.865 144.374 102.845C144.374 102.837 144.374 102.828 144.374 102.819C144.374 102.803 144.374 102.785 144.389 102.768V102.759C144.39 102.755 144.39 102.751 144.389 102.748C144.389 102.715 144.407 102.682 144.415 102.651C144.415 102.618 144.429 102.585 144.435 102.552V102.528C144.435 102.496 144.446 102.467 144.45 102.438C144.453 102.408 144.45 102.418 144.45 102.407C144.45 102.396 144.45 102.366 144.45 102.346C144.45 102.326 144.45 102.315 144.45 102.3C144.45 102.285 144.45 102.282 144.45 102.271C144.45 102.26 144.45 102.203 144.45 102.168C144.45 102.084 144.45 102.003 144.45 101.928V101.847C144.449 101.83 144.449 101.814 144.45 101.797C144.45 101.775 144.45 101.755 144.45 101.733C144.449 101.726 144.449 101.718 144.45 101.711C144.45 101.685 144.45 101.66 144.45 101.638C144.439 101.504 144.426 101.423 144.426 101.423V101.256L144.31 98.2865V98.103C144.481 98.0075 144.655 97.8992 144.837 97.7726C144.837 97.7726 144.806 96.0806 145.294 95.3997C145.783 94.7188 145.05 92.935 145.05 92.935L144.745 86.554L144.866 83.6176C144.624 83.182 144.498 82.6917 144.499 82.1935C144.451 81.5569 144.285 80.9347 144.011 80.3583C144.011 80.3583 143.706 79.3489 144.073 79.0516C144.44 78.7543 143.677 72.2613 143.677 72.2613C143.677 72.2613 143.86 67.5173 143.511 64.7003V64.6544L143.609 64.6103C143.579 64.3846 143.548 64.1735 143.513 63.9772L143.41 64.0084C143.367 63.7595 143.306 63.5142 143.227 63.2743L142.739 61.0335C142.739 61.0335 142.728 60.916 142.715 60.7454C142.698 60.5435 142.68 60.2701 142.676 60.0296C142.675 59.9283 142.686 59.8272 142.709 59.7287L142.683 59.7066C142.686 59.6538 142.694 59.6014 142.709 59.5507L142.603 59.4607C142.603 59.4607 142.588 59.3598 142.577 59.2056C142.553 58.8643 142.54 58.2697 142.709 57.9338C142.953 57.4438 145.463 55.5884 145.463 55.5884L146.869 52.775C146.869 52.775 148.272 50.8004 149.339 50.415C150.405 50.0296 153.729 47.82 153.729 47.82C153.729 47.82 154.887 46.6326 154.979 46.3518L155.017 46.2931H155.039V46.2545L158.16 41.5803C159.409 40.5709 159.455 38.42 159.455 38.42L159.78 33.5053L159.673 30.5983L159.824 28.9467C159.824 28.9467 162.567 21.9692 159.947 22.0719ZM142.068 34.79C141.729 35.3836 141.551 36.0554 141.551 36.739C141.551 36.772 141.551 36.805 141.551 36.8381C141.551 36.8711 141.551 36.8913 141.551 36.917C141.551 37.5275 141.693 38.1295 141.967 38.6751C141.829 38.8304 141.725 39.0138 141.665 39.2128C141.51 39.0183 141.059 38.4237 141.033 38.0291C141.002 37.5556 140.545 37.229 140.545 37.229C140.545 37.229 140.46 36.3297 140.574 36.1756L140.59 36.1609C140.59 36.1609 140.603 36.1388 140.629 36.1021C140.759 35.9058 141.198 35.2433 141.652 34.489C141.727 34.5213 141.805 34.547 141.885 34.5661L142.164 34.6358L142.068 34.79Z" fill="url(#paint0_linear)"/>
<path d="M150.96 34.2946C150.987 34.2322 151.009 34.1662 151.031 34.1001C150.961 34.2462 150.9 34.3963 150.848 34.5497C150.886 34.4635 150.925 34.379 150.96 34.2946Z" fill="url(#paint1_linear)"/>
<path d="M142.881 38.6588C142.881 38.6588 142.307 41.397 141.248 41.7511C140.188 42.1053 142.533 45.2381 142.533 45.2381L147.392 44.972L147.481 43.9571C147.481 43.9571 146.563 41.9255 148.099 39.4535C149.636 36.9814 142.881 38.6588 142.881 38.6588Z" fill="#F6BAC2"/>
<path d="M135.261 103.308C135.195 104.125 133.184 103.816 133.184 103.816C129.85 104.279 130.401 101.012 130.401 101.012V100.845L130.517 97.7986L130.55 96.9489C130.55 96.9489 134.222 95.2715 134.128 95.6238C134.093 95.756 134.17 96.0735 134.277 96.4167C134.46 96.9874 134.723 97.6334 134.723 97.6334C134.723 97.6334 134.745 98.9804 134.635 99.3769C134.525 99.7733 135.21 100.834 135.21 100.834C135.21 100.834 135.21 100.9 135.221 101.018C135.275 101.78 135.288 102.544 135.261 103.308Z" fill="#B77983"/>
<path d="M141.689 104.191C141.689 104.191 139.678 104.501 139.612 103.682C139.582 102.917 139.593 102.15 139.647 101.386C139.647 101.276 139.656 101.203 139.656 101.203C139.656 101.203 140.341 100.142 140.231 99.7457C140.121 99.3493 140.143 98.0004 140.143 98.0004C140.143 98.0004 140.214 97.8298 140.308 97.5839C140.505 97.0682 140.8 96.2313 140.74 95.9927C140.651 95.6385 144.318 97.3159 144.318 97.3159L144.355 98.2666L144.467 101.212V101.379C144.467 101.379 145.025 104.655 141.689 104.191Z" fill="#B77983"/>
<path d="M155.472 20.5397C154.304 24.2927 150.761 25.3241 150.761 25.3241C150.761 25.3241 148.388 27.0822 148.051 27.6328C147.713 28.1833 144.797 30.5471 144.03 30.8572C143.262 31.1674 142.677 31.6812 142.882 32.3713C143.066 33.0118 141.058 36.1463 140.755 36.6124L140.718 36.6712L140.084 37.3337L137.935 38.422L136.183 37.8622L135.961 35.7591L136.89 34.1074C137.427 33.7289 137.876 33.2387 138.206 32.6704C138.81 31.6684 139.223 30.9783 139.223 30.9783C139.223 30.9783 139.886 29.4037 140.931 28.4751C141.654 27.854 142.432 27.3011 143.257 26.8234L147.573 24.2541C147.573 24.2541 148.545 23.5329 149.226 23.3365C149.907 23.1402 156.636 16.7866 155.472 20.5397Z" fill="#F6BAC2"/>
<path opacity="0.05" d="M137.935 37.0696L140.806 36.4952C140.775 36.5273 140.757 36.5697 140.755 36.6144L140.718 36.6732L140.084 37.3357L137.935 38.424L136.183 37.8642L135.961 35.7611L136.89 34.1094C136.011 35.9446 136.868 37.2476 136.868 37.2476L137.935 37.0696Z" fill="black"/>
<path opacity="0.05" d="M154.727 46.5501C154.719 46.5693 154.712 46.5889 154.707 46.6088C154.68 46.6744 154.644 46.7361 154.6 46.7923L153.442 47.3576L151.674 47.5411L150.756 45.3187L151.367 42.8833L151.705 42.4282L151.799 42.3254C151.834 42.7659 152.012 45.0636 152.001 45.7536C151.986 46.5189 152.551 46.5795 152.551 46.5795L154.727 46.5501Z" fill="black"/>
<path d="M154.638 46.719C154.63 46.7382 154.623 46.7578 154.617 46.7777C154.529 47.0567 153.411 48.2349 153.411 48.2349C153.411 48.2349 150.2 50.428 149.17 50.8042C148.14 51.1804 146.783 53.1441 146.783 53.1441L145.428 55.9391C145.428 55.9391 142.999 57.7743 142.764 58.2661C142.601 58.6002 142.614 59.1837 142.638 59.5288C142.638 59.6811 142.66 59.782 142.66 59.782L141.944 60.529L141.373 61.1236L140.569 61.9604L139.26 61.7769L135.18 61.1291L134.398 60.6886L130.056 58.2441C130.056 58.2441 130.056 58.0918 130.045 57.8587C130.045 57.756 130.045 57.6385 130.034 57.5082C130.021 57.1118 130.003 56.6181 129.983 56.1979C129.939 55.3298 130.601 53.8433 130.601 53.8433L131.822 50.839C131.705 50.2665 132.382 48.7487 132.382 48.7487C132.265 48.5285 132.971 46.3354 133.148 46.1299C133.324 45.9243 133.62 44.3773 133.62 44.3773C133.987 43.8487 134.517 41.1546 134.517 41.1546C134.517 41.1546 135.121 37.7393 135.252 36.8859C135.382 36.0325 136.867 34.1203 136.915 34.0615C135.856 36.0032 136.783 37.4163 136.783 37.4163L137.844 37.2328L140.717 36.673C140.585 36.7611 140.673 37.7319 140.673 37.7319C140.928 37.9254 141.096 38.2106 141.143 38.5266C141.171 38.9579 141.694 39.6277 141.791 39.747L141.806 39.7635C141.843 39.5587 141.924 39.3643 142.044 39.1938C142.163 39.0233 142.318 38.8808 142.498 38.7762L143.161 39.6608L143.383 40.7197C143.383 40.7197 143.323 40.8683 142.941 41.162C142.559 41.4556 143.102 42.2209 143.102 42.2209C143.286 42.531 143.339 43.678 143.339 43.678C143.826 43.2523 144.589 43.2523 144.589 43.2523C144.9 42.9402 145.154 42.5763 145.34 42.1768C145.356 42.1115 145.386 42.0504 145.428 41.9984C145.471 41.9463 145.525 41.9046 145.586 41.8763C145.647 41.8481 145.713 41.834 145.78 41.8352C145.848 41.8364 145.914 41.8528 145.974 41.8832C146.195 41.6907 146.437 41.5227 146.695 41.3822C147.05 41.1987 147.461 41.5657 147.461 41.5657L147.505 42.9219C147.505 42.9219 147.54 42.977 147.597 43.0522C147.712 43.2137 147.92 43.4615 148.05 43.4193C148.234 43.3605 149.713 43.5074 149.713 43.5074C149.713 43.5074 150.229 43.7276 150.42 43.4486C150.611 43.1697 151.705 42.4338 151.705 42.4338C151.705 42.4338 151.917 45.1664 151.917 45.9298C151.917 46.6933 152.467 46.7557 152.467 46.7557L154.638 46.719Z" fill="#D39999"/>
<path d="M142.589 45.1938C142.735 45.1938 142.853 45.0755 142.853 44.9296C142.853 44.7836 142.735 44.6653 142.589 44.6653C142.443 44.6653 142.324 44.7836 142.324 44.9296C142.324 45.0755 142.443 45.1938 142.589 45.1938Z" fill="#4B4442"/>
<path d="M140.659 49.0368C140.805 49.0368 140.923 48.9185 140.923 48.7726C140.923 48.6266 140.805 48.5083 140.659 48.5083C140.513 48.5083 140.395 48.6266 140.395 48.7726C140.395 48.9185 140.513 49.0368 140.659 49.0368Z" fill="#4B4442"/>
<path d="M136.86 57.2641C137.006 57.2641 137.124 57.1458 137.124 56.9999C137.124 56.8539 137.006 56.7356 136.86 56.7356C136.714 56.7356 136.596 56.8539 136.596 56.9999C136.596 57.1458 136.714 57.2641 136.86 57.2641Z" fill="#4B4442"/>
<path d="M138.657 53.1128C138.803 53.1128 138.921 52.9944 138.921 52.8485C138.921 52.7025 138.803 52.5842 138.657 52.5842C138.511 52.5842 138.393 52.7025 138.393 52.8485C138.393 52.9944 138.511 53.1128 138.657 53.1128Z" fill="#4B4442"/>
<path opacity="0.05" d="M134.293 96.4166C132.913 98.0573 131.422 98.0298 130.533 97.7986L130.566 96.9489C130.566 96.9489 134.238 95.2715 134.145 95.6238C134.11 95.756 134.179 96.0735 134.293 96.4166Z" fill="black"/>
<path opacity="0.05" d="M144.355 98.2739C142.011 99.6283 140.636 98.0408 140.316 97.5912C140.513 97.0755 140.808 96.2386 140.748 96.0001C140.66 95.6459 144.326 97.3232 144.326 97.3232L144.355 98.2739Z" fill="black"/>
<path d="M145.297 95.4182C144.827 96.0954 144.855 97.7728 144.855 97.7728C141.822 99.9512 140.232 97.3011 140.232 97.3011C140.232 97.3011 140.438 95.5944 140.085 94.24C139.876 93.3611 139.856 92.4478 140.026 91.5606C140.026 91.5606 139.968 88.8518 139.819 88.4701C139.67 88.0884 139.613 86.9689 139.672 86.556C139.731 86.143 139.29 85.2034 139.29 85.2034C139.29 85.2034 139.29 84.0252 139.083 83.7609C138.875 83.4967 138.642 81.6101 138.642 81.6101L137.23 76.3118C137.23 76.3118 136.641 73.1039 136.406 72.3973C136.171 71.6907 135.875 71.8376 135.875 71.8376L135.027 75.6346L134.379 82.1111C134.054 82.8452 134.195 84.5556 134.195 84.5556L134.401 87.057L134.059 91.355C134.059 91.3624 134.059 91.3698 134.059 91.3771C134.059 91.4184 134.069 91.4593 134.087 91.4963C134.106 91.5333 134.133 91.5654 134.166 91.59C134.745 92.8924 134.917 94.3393 134.66 95.7412C132.422 98.9804 129.712 97.3011 129.712 97.3011C129.653 96.5616 129.474 95.8364 129.183 95.1539C128.682 93.917 129.271 88.9142 129.271 88.9142L128.829 85.6751C128.829 85.6751 128.799 83.7316 128.711 83.4728C128.623 83.214 128.653 81.2944 128.653 81.2944L128.711 79.2628C127.946 76.6715 128.328 72.5808 128.328 72.5808C128.328 72.5808 128.21 66.0456 128.447 65.7502C128.618 65.5373 128.509 64.5683 128.583 63.8691C128.591 63.6568 128.65 63.4496 128.755 63.2653L128.785 63.2359C129.169 62.7643 129.169 60.8813 129.137 60.1436C129.123 59.7545 129.389 59.1232 129.642 58.6167C129.826 58.2606 129.993 57.967 130.055 57.8606L130.081 57.8184C130.081 57.8184 131.759 58.2313 136.206 60.351C137.002 60.7449 137.856 61.0095 138.736 61.1346C139.173 61.193 139.616 61.1998 140.056 61.1548C140.726 61.0903 141.374 60.8799 141.954 60.5381C142.261 60.3633 142.538 60.1409 142.775 59.8793C142.714 60.0628 142.751 60.6905 142.775 61.0649C142.786 61.2355 142.799 61.3511 142.799 61.3511L143.289 63.535C143.369 63.794 143.43 64.0584 143.472 64.326C143.507 64.5206 143.537 64.7316 143.564 64.9555C143.908 67.7487 143.724 72.456 143.724 72.456C143.724 72.456 144.458 78.9031 144.108 79.1968C143.757 79.4904 144.047 80.4924 144.047 80.4924C144.314 81.0669 144.474 81.685 144.519 82.3166C144.516 82.8099 144.638 83.2959 144.873 83.7297L144.754 86.6441L145.062 92.9664C145.062 92.9664 145.769 94.741 145.297 95.4182Z" fill="#8499F0"/>
<path opacity="0.05" d="M141.844 84.7611C141.844 84.7611 144.074 83.4765 144.561 84.0545C145.047 84.6326 141.844 84.7611 141.844 84.7611Z" fill="black"/>
<path opacity="0.05" d="M143.19 85.4678C143.19 85.4678 142.823 85.6513 143.633 85.8862C144.443 86.1211 143.19 85.4678 143.19 85.4678Z" fill="black"/>
<path opacity="0.05" d="M129.701 81.935C129.626 81.957 131.557 83.238 133.302 82.1772C133.294 82.1772 130.136 81.8028 129.701 81.935Z" fill="black"/>
<path opacity="0.05" d="M133.207 84.3848C133.207 84.3848 132.678 85.4235 131.595 85.5777C130.511 85.7318 133.207 84.3848 133.207 84.3848Z" fill="black"/>
<path opacity="0.05" d="M140.297 86.6384C140.297 86.6384 142.838 90.6759 142.351 91.6284C141.865 92.5809 140.297 86.6384 140.297 86.6384Z" fill="black"/>
<path opacity="0.05" d="M136.012 62.1514L135.748 70.0556C135.748 70.0556 137.316 69.9895 137.584 67.3854C137.852 64.7812 138.048 62.6597 138.048 62.6597L136.012 62.1514Z" fill="black"/>
<path d="M135.925 61.9751L135.66 69.8794C135.66 69.8794 137.228 69.8133 137.496 67.2073C137.764 64.6013 137.964 62.4834 137.964 62.4834L135.925 61.9751Z" fill="#8499F0"/>
<path opacity="0.05" d="M132.744 62.3293C132.744 62.3293 131.507 65.6455 128.676 64.0397C128.683 63.8274 128.743 63.6201 128.848 63.4359C129.623 63.7607 131.419 64.2361 132.153 62.0852L132.744 62.3293Z" fill="black"/>
<path opacity="0.05" d="M132.656 61.9752C132.656 61.9752 131.419 65.2914 128.588 63.6856C128.596 63.4733 128.655 63.2661 128.76 63.0818C129.535 63.4085 131.331 63.8819 132.065 61.7329L132.656 61.9752Z" fill="black"/>
<path d="M132.656 62.1512C132.656 62.1512 131.419 65.4674 128.588 63.8616C128.596 63.6494 128.655 63.4422 128.76 63.2578C129.535 63.5845 131.331 64.058 132.065 61.9089L132.656 62.1512Z" fill="#8499F0"/>
<path opacity="0.05" d="M143.488 65.1317C140.378 66.6109 139.238 63.124 139.238 63.124L139.973 63.146C140.101 65.3758 142.56 64.7757 143.402 64.5023C143.432 64.7041 143.461 64.9078 143.488 65.1317Z" fill="black"/>
<path opacity="0.05" d="M143.664 64.8675C140.556 66.3448 139.414 62.8579 139.414 62.8579L140.148 62.8799C140.277 65.1097 142.735 64.5114 143.578 64.238C143.607 64.4325 143.637 64.6436 143.664 64.8675Z" fill="black"/>
<path d="M143.576 64.9556C140.468 66.433 139.326 62.946 139.326 62.946L140.061 62.9681C140.189 65.1997 142.647 64.5996 143.49 64.3261C143.519 64.5207 143.549 64.7317 143.576 64.9556Z" fill="#8499F0"/>
<path opacity="0.1" d="M132.656 62.1512C132.656 62.1512 131.419 65.4674 128.588 63.8616C128.596 63.6494 128.655 63.4422 128.76 63.2578C129.535 63.5845 131.331 64.058 132.065 61.9089L132.656 62.1512Z" fill="white"/>
<path opacity="0.1" d="M143.576 64.9556C140.468 66.433 139.326 62.946 139.326 62.946L140.061 62.9681C140.189 65.1997 142.647 64.5996 143.49 64.3261C143.519 64.5207 143.549 64.7317 143.576 64.9556Z" fill="white"/>
<path opacity="0.05" d="M135.284 102.693C135.284 102.919 135.284 103.13 135.262 103.304C135.196 104.121 133.186 103.812 133.186 103.812C131.35 104.067 130.689 103.187 130.47 102.344C130.402 102.071 130.368 101.789 130.369 101.507C130.368 101.339 130.379 101.171 130.402 101.004V100.837C130.597 100.779 130.803 100.769 131.003 100.81C131.202 100.851 131.388 100.94 131.544 101.071C132.361 101.733 133.444 101.225 133.444 101.225C133.444 101.225 134.239 101.291 134.546 101.555C134.719 101.704 135.003 101.346 135.22 101.004C135.233 101.225 135.253 101.623 135.266 102.049C135.28 102.267 135.284 102.487 135.284 102.693Z" fill="black"/>
<path opacity="0.05" d="M132.06 102.645C132.06 102.645 131.509 103.185 130.47 102.352C130.402 102.078 130.368 101.797 130.369 101.515C130.9 101.919 131.884 102.645 132.06 102.645Z" fill="black"/>
<path opacity="0.05" d="M135.284 102.693C135.239 102.727 135.188 102.752 135.133 102.766C135.078 102.78 135.021 102.783 134.965 102.774C134.909 102.765 134.856 102.745 134.808 102.714C134.76 102.684 134.719 102.644 134.688 102.597C134.902 102.435 135.099 102.25 135.275 102.047C135.28 102.267 135.284 102.487 135.284 102.693Z" fill="black"/>
<path opacity="0.05" d="M139.592 103.071C139.592 103.299 139.592 103.51 139.612 103.682C139.679 104.501 141.689 104.191 141.689 104.191C143.525 104.447 144.186 103.567 144.404 102.722C144.512 102.284 144.536 101.829 144.472 101.383V101.216C144.277 101.158 144.071 101.149 143.871 101.19C143.672 101.23 143.485 101.319 143.328 101.449C142.511 102.111 141.43 101.603 141.43 101.603C141.43 101.603 140.635 101.671 140.328 101.935C140.156 102.084 139.871 101.726 139.656 101.384C139.644 101.605 139.622 102.003 139.609 102.429C139.594 102.643 139.59 102.864 139.592 103.071Z" fill="black"/>
<path opacity="0.05" d="M142.816 103.02C142.816 103.02 143.367 103.559 144.405 102.726C144.474 102.453 144.508 102.173 144.507 101.891C143.975 102.293 142.991 103.02 142.816 103.02Z" fill="black"/>
<path opacity="0.05" d="M139.592 103.071C139.637 103.106 139.688 103.131 139.743 103.144C139.798 103.158 139.855 103.161 139.91 103.152C139.966 103.143 140.019 103.123 140.067 103.092C140.115 103.062 140.155 103.022 140.187 102.976C139.973 102.813 139.776 102.628 139.6 102.425C139.594 102.643 139.59 102.864 139.592 103.071Z" fill="black"/>
<path opacity="0.05" d="M137.17 46.719C137.17 46.719 134.342 54.5205 135.431 55.1977C136.52 55.8749 137.17 46.719 137.17 46.719Z" fill="black"/>
<path opacity="0.05" d="M139.231 44.3113C139.231 44.3113 138.699 46.9026 138.965 47.1375C139.231 47.3724 139.231 44.3113 139.231 44.3113Z" fill="black"/>
<path opacity="0.05" d="M144.941 50.3472C144.941 50.3472 141.466 53.5845 141.701 53.8506C141.936 54.1167 144.941 50.3472 144.941 50.3472Z" fill="black"/>
<path opacity="0.05" d="M147.598 43.2212C146.282 43.6231 143.205 44.5627 143.17 44.5554L143.341 43.8543C143.827 43.4286 144.591 43.4286 144.591 43.4286C144.902 43.1165 145.156 42.7525 145.342 42.3531C145.357 42.2877 145.388 42.2267 145.43 42.1747C145.473 42.1226 145.526 42.0809 145.587 42.0526C145.648 42.0243 145.715 42.0103 145.782 42.0115C145.849 42.0127 145.915 42.0291 145.975 42.0595C146.198 41.8676 146.439 41.6997 146.697 41.5585C147.051 41.3749 147.462 41.742 147.462 41.742L147.506 43.0964C147.506 43.0964 147.541 43.1459 147.598 43.2212Z" fill="black"/>
<path d="M147.598 43.0486C146.282 43.4505 143.205 44.3901 143.17 44.3809L143.341 43.6817C143.827 43.2559 144.591 43.2559 144.591 43.2559C144.902 42.9439 145.156 42.5799 145.342 42.1805C145.357 42.1151 145.388 42.0541 145.43 42.0021C145.473 41.95 145.526 41.9083 145.587 41.88C145.648 41.8517 145.715 41.8377 145.782 41.8389C145.849 41.84 145.915 41.8565 145.975 41.8869C146.197 41.6943 146.439 41.5264 146.697 41.3859C147.051 41.2023 147.462 41.5694 147.462 41.5694L147.506 42.9256C147.506 42.9256 147.541 42.9697 147.598 43.0486Z" fill="#D39999"/>
<path opacity="0.05" d="M143.016 42.3146C143.199 42.6247 143.251 43.7717 143.251 43.7717L142.739 44.1791L141.766 41.3749L141.721 39.9178L141.703 39.8352L141.718 39.8517C141.755 39.647 141.835 39.4528 141.955 39.2826C142.075 39.1124 142.23 38.9703 142.41 38.8662L143.073 39.7489L143.295 40.8079C143.295 40.8079 143.234 40.9565 142.852 41.2501C142.471 41.5438 143.016 42.3146 143.016 42.3146Z" fill="black"/>
<path d="M143.106 42.2208C143.289 42.531 143.343 43.678 143.343 43.678L142.83 44.0909L141.857 41.2867L141.813 39.8295L141.793 39.7469L141.808 39.7635C141.845 39.5586 141.926 39.3642 142.045 39.1937C142.165 39.0232 142.32 38.8808 142.5 38.7761L143.163 39.6607L143.385 40.7196C143.385 40.7196 143.324 40.8683 142.942 41.1619C142.56 41.4555 143.106 42.2208 143.106 42.2208Z" fill="#D39999"/>
<path opacity="0.05" d="M149.596 37.4237C149.596 38.2094 149.362 38.9774 148.925 39.6306C148.488 40.2838 147.867 40.7927 147.141 41.0932C146.415 41.3936 145.616 41.472 144.845 41.3185C144.074 41.165 143.366 40.7864 142.81 40.2307C142.254 39.675 141.876 38.967 141.723 38.1963C141.57 37.4256 141.648 36.6268 141.949 35.9009C142.25 35.175 142.76 34.5546 143.413 34.1181C144.067 33.6816 144.835 33.4486 145.621 33.4486C146.145 33.4442 146.664 33.544 147.148 33.7423C147.632 33.9405 148.072 34.2332 148.442 34.6032C148.812 34.9732 149.105 35.4132 149.303 35.8974C149.501 36.3817 149.601 36.9005 149.596 37.4237Z" fill="black"/>
<path d="M149.596 37.2458C149.596 38.0321 149.363 38.8009 148.926 39.4549C148.49 40.1089 147.869 40.6186 147.142 40.9197C146.415 41.2208 145.615 41.2997 144.844 41.1464C144.072 40.993 143.364 40.6144 142.807 40.0584C142.251 39.5024 141.872 38.7939 141.719 38.0226C141.566 37.2514 141.644 36.452 141.946 35.7255C142.247 34.9991 142.757 34.3783 143.411 33.9417C144.065 33.505 144.834 33.2722 145.621 33.2725C146.144 33.2696 146.662 33.3704 147.146 33.569C147.629 33.7677 148.069 34.0602 148.438 34.4297C148.808 34.7993 149.101 35.2384 149.299 35.7218C149.498 36.2052 149.599 36.7232 149.596 37.2458Z" fill="#F6BAC2"/>
<path opacity="0.05" d="M149.597 37.2457C149.598 37.974 149.398 38.6886 149.018 39.3103C148.96 39.2057 148.925 39.0846 148.866 38.9782C148.783 38.8295 148.593 38.7047 148.451 38.7946C148.392 38.843 148.347 38.9064 148.321 38.9782C148.205 39.2222 148 39.4663 147.73 39.4608C147.612 39.4483 147.501 39.4005 147.412 39.3239C147.322 39.2473 147.257 39.1453 147.227 39.0314C147.17 38.802 147.16 38.5636 147.197 38.3303C147.238 37.8532 147.245 37.3026 146.891 36.9814C146.662 36.8142 146.4 36.6973 146.123 36.6383C145.853 36.5502 145.572 36.4107 145.462 36.1501C145.389 35.9666 145.407 35.772 145.341 35.5995C145.273 35.4613 145.172 35.3415 145.048 35.2502C144.924 35.1588 144.779 35.0986 144.627 35.0747C144.276 35.3643 143.831 35.5163 143.377 35.5023C142.96 35.4924 142.546 35.427 142.146 35.3077C142.575 34.5391 143.247 33.9343 144.056 33.5882C144.865 33.2421 145.767 33.1742 146.619 33.3953C147.471 33.6163 148.226 34.1137 148.765 34.8095C149.304 35.5053 149.596 36.3602 149.597 37.2402V37.2457Z" fill="black"/>
<path d="M145.342 35.4268C145.408 35.6103 145.39 35.8085 145.463 35.9774C145.571 36.238 145.854 36.3775 146.124 36.4655C146.401 36.5243 146.662 36.6406 146.892 36.8069C147.246 37.1299 147.239 37.6805 147.198 38.1576C147.161 38.3909 147.171 38.6293 147.228 38.8587C147.259 38.9723 147.323 39.074 147.413 39.1506C147.503 39.2272 147.613 39.2751 147.731 39.2881C148 39.2881 148.206 39.0495 148.322 38.8054C148.348 38.7337 148.393 38.6704 148.452 38.6219C148.593 38.5283 148.784 38.6531 148.867 38.8054C148.925 38.9644 149.005 39.1145 149.104 39.2514C149.169 39.3078 149.247 39.3473 149.332 39.3665C149.416 39.3857 149.503 39.384 149.587 39.3615C149.753 39.3161 149.907 39.2361 150.04 39.1266C150.408 38.8706 150.7 38.5199 150.885 38.1117C150.975 37.9078 151.017 37.6859 151.008 37.4632C150.998 37.2405 150.938 37.0229 150.831 36.8271C150.694 36.5958 150.475 36.4105 150.389 36.1554C150.238 35.7168 150.521 35.2653 150.696 34.8359C150.863 34.4432 150.917 34.0116 150.852 33.5898C150.818 33.3797 150.742 33.1786 150.63 32.998C150.517 32.8174 150.37 32.6611 150.196 32.5382C149.499 32.0739 148.555 32.329 147.747 32.1051C147.458 32.0102 147.176 31.8943 146.904 31.7582C146.492 31.5752 146.061 31.4373 145.619 31.3471C145.18 31.2591 144.65 31.248 144.373 31.5986C144.297 31.7109 144.229 31.8287 144.171 31.9509C144.084 32.0961 143.969 32.2226 143.833 32.3228C143.697 32.423 143.542 32.495 143.378 32.5345C143.141 32.5914 142.893 32.5767 142.643 32.6116C142.521 32.6201 142.403 32.656 142.297 32.7167C142.191 32.7774 142.101 32.8613 142.032 32.9621C141.911 33.1824 141.962 33.4503 141.991 33.6962C142.021 33.9421 142.006 34.2358 141.808 34.3881C141.714 34.4597 141.586 34.4945 141.529 34.5955C141.503 34.6547 141.497 34.7209 141.513 34.7836C141.528 34.8464 141.564 34.9022 141.615 34.9423C141.718 35.0204 141.838 35.0732 141.966 35.0965C142.422 35.239 142.896 35.3198 143.374 35.3369C143.857 35.3526 144.327 35.1794 144.685 34.8542C144.654 34.8854 144.452 34.8726 144.415 34.8707C144.771 34.9093 145.208 35.0671 145.342 35.4268Z" fill="#7E646B"/>
<g opacity="0.05">
<path opacity="0.05" d="M150.266 38.6807C150.132 38.79 149.978 38.8706 149.812 38.9174C149.729 38.939 149.642 38.9401 149.558 38.9206C149.474 38.9011 149.396 38.8616 149.331 38.8055C149.231 38.6688 149.15 38.5187 149.092 38.3595C149.01 38.2108 148.819 38.0861 148.677 38.176C148.619 38.2251 148.574 38.2883 148.547 38.3595C148.433 38.6036 148.226 38.8477 147.956 38.8422C147.839 38.8297 147.728 38.782 147.638 38.7053C147.549 38.6287 147.485 38.5266 147.455 38.4127C147.397 38.1835 147.387 37.9451 147.423 37.7117C147.466 37.2345 147.471 36.6858 147.119 36.3628C146.889 36.1956 146.627 36.0787 146.349 36.0196C146.081 35.9315 145.799 35.792 145.689 35.5314C145.615 35.3479 145.633 35.1534 145.567 34.9809C145.459 34.6891 145.152 34.5294 144.853 34.456C144.501 34.7437 144.058 34.896 143.603 34.8854C143.125 34.8669 142.651 34.7854 142.195 34.6432C142.068 34.6197 141.948 34.5676 141.844 34.4909C141.823 34.4711 141.804 34.4489 141.787 34.4248C141.706 34.4595 141.635 34.5145 141.581 34.5845C141.555 34.6437 141.55 34.7099 141.565 34.7726C141.581 34.8354 141.617 34.8913 141.668 34.9313C141.771 35.0094 141.891 35.0622 142.018 35.0855C142.475 35.228 142.949 35.3088 143.427 35.3259C143.881 35.338 144.324 35.1862 144.675 34.8983C144.974 34.9717 145.283 35.1295 145.391 35.4213C145.457 35.6048 145.439 35.803 145.512 35.9719C145.622 36.2325 145.903 36.372 146.173 36.4601C146.45 36.5188 146.712 36.6351 146.941 36.8014C147.295 37.1244 147.288 37.675 147.247 38.1521C147.21 38.3854 147.22 38.6238 147.277 38.8532C147.308 38.9668 147.372 39.0685 147.462 39.1451C147.552 39.2217 147.662 39.2696 147.78 39.2826C148.05 39.2826 148.255 39.044 148.371 38.8C148.397 38.7282 148.442 38.6649 148.501 38.6164C148.643 38.5228 148.833 38.6476 148.916 38.8C148.974 38.9593 149.054 39.1095 149.155 39.2459C149.22 39.3023 149.298 39.3418 149.382 39.361C149.465 39.3802 149.553 39.3785 149.636 39.356C149.802 39.3107 149.956 39.2306 150.089 39.1211C150.457 38.8651 150.749 38.5145 150.934 38.1062C150.966 38.0277 150.993 37.9467 151.013 37.864C150.825 38.1864 150.57 38.4648 150.266 38.6807Z" fill="black"/>
<path opacity="0.05" d="M150.633 35.08C150.671 34.9956 150.708 34.9112 150.743 34.8286C150.778 34.746 150.791 34.7001 150.811 34.634C150.743 34.7793 150.684 34.9282 150.633 35.08Z" fill="black"/>
<path opacity="0.05" d="M142.047 33.9257C142.231 33.7697 142.244 33.4908 142.215 33.2504C142.193 33.11 142.181 32.9684 142.18 32.8264C142.141 32.8646 142.107 32.9078 142.079 32.9549C141.958 33.1751 142.009 33.4431 142.038 33.689C142.048 33.7675 142.051 33.8467 142.047 33.9257Z" fill="black"/>
</g>
<path opacity="0.05" d="M142.77 61.2466C142.429 61.2704 141.95 61.2961 141.373 61.3163C140.973 61.3292 140.525 61.3383 140.046 61.3383C139.627 61.3383 139.185 61.3383 138.726 61.3181C137.274 61.2807 135.827 61.1316 134.398 60.8722C132.491 60.5051 130.727 59.872 129.625 58.8002C129.809 58.4442 129.976 58.1487 130.038 58.0441C130.038 57.9414 130.038 57.8221 130.027 57.6936C131.964 58.6112 138.002 61.1603 142.631 59.7123C142.631 59.8647 142.653 59.9656 142.653 59.9656L142.757 60.0537C142.704 60.2445 142.737 60.8722 142.77 61.2466Z" fill="black"/>
<path d="M142.77 61.0704C142.429 61.0943 141.95 61.12 141.373 61.1383C140.973 61.153 140.525 61.1604 140.046 61.1604C139.627 61.1604 139.185 61.1604 138.726 61.1402C137.274 61.1033 135.827 60.9549 134.398 60.6961C132.491 60.329 130.727 59.694 129.625 58.6223C129.809 58.2662 129.976 57.9726 130.038 57.8662C130.038 57.7634 130.038 57.6459 130.027 57.5156C131.964 58.4332 138.002 60.9842 142.631 59.5435C142.631 59.6959 142.653 59.7968 142.653 59.7968L142.757 59.8849C142.704 60.0684 142.737 60.6961 142.77 61.0704Z" fill="#4B4442"/>
<path d="M51.1373 141.392C50.9172 141.127 50.7536 140.82 50.6567 140.49C50.5597 140.159 50.5315 139.812 50.5737 139.471L58.6776 73.1881L59.3495 67.6825C59.4248 67.0701 59.7204 66.5059 60.1812 66.0953C60.642 65.6847 61.2365 65.4556 61.8537 65.4509L85.5907 65.2931C85.9287 65.291 86.2629 65.2215 86.5737 65.0886C86.8844 64.9557 87.1655 64.7622 87.4005 64.5193C87.6355 64.2764 87.8195 63.9891 87.9419 63.6741C88.0643 63.3592 88.1226 63.023 88.1133 62.6852L88.1041 62.4338C88.0925 62.0932 88.1496 61.7538 88.272 61.4357C88.3944 61.1177 88.5796 60.8275 88.8165 60.5824C89.0534 60.3374 89.3372 60.1425 89.6511 60.0094C89.9649 59.8763 90.3023 59.8077 90.6432 59.8076H115.586C116.259 59.8076 116.904 60.0743 117.38 60.5491C117.856 61.0239 118.124 61.668 118.126 62.3402C118.125 62.4543 118.118 62.5684 118.104 62.6816C118.056 63.0348 118.084 63.394 118.185 63.7358C118.285 64.0776 118.457 64.3944 118.689 64.6655C118.92 64.9366 119.206 65.156 119.528 65.3093C119.849 65.4627 120.2 65.5465 120.556 65.5555L144.512 66.1666C144.876 66.1756 145.234 66.2628 145.562 66.4225C145.889 66.5822 146.178 66.8104 146.41 67.0918C146.641 67.3732 146.809 67.7011 146.902 68.0532C146.995 68.4053 147.012 68.7734 146.95 69.1323L134.974 139.054L134.748 140.375C134.692 140.713 134.567 141.035 134.381 141.322L51.1373 141.392Z" fill="#B7B6CC"/>
<g opacity="0.5">
<path opacity="0.5" d="M123.224 45.2286L95.7949 84.9133L107.933 93.2962L135.362 53.6115L123.224 45.2286Z" fill="url(#paint2_linear)"/>
</g>
<path d="M134.968 53.7349L123.428 45.7651L96.3665 84.9184L107.907 92.8882L134.968 53.7349Z" fill="#F9FAFB"/>
<path d="M132.391 53.2702L124.26 47.6204L118.608 55.7482L126.739 61.398L132.391 53.2702Z" fill="#F7B643"/>
<path opacity="0.5" d="M126.049 63.0492L117.891 57.415L112.254 65.57L120.412 71.2042L126.049 63.0492Z" fill="#F7B643"/>
<path opacity="0.3" d="M119.242 72.8949L111.084 67.2607L105.448 75.4157L113.606 81.0499L119.242 72.8949Z" fill="#F7B643"/>
<g opacity="0.5">
<path opacity="0.5" d="M106.748 42.8656L93.2637 88.9915L107.425 93.1282L120.91 47.0024L106.748 42.8656Z" fill="url(#paint3_linear)"/>
</g>
<path d="M120.587 47.2459L107.123 43.313L93.8195 88.8187L107.283 92.7516L120.587 47.2459Z" fill="#F9FAFB"/>
<path d="M118.409 47.407L108.891 44.6267L106.109 54.1408L115.627 56.9211L118.409 47.407Z" fill="#F97878"/>
<path opacity="0.5" d="M115.051 58.8929L105.533 56.1125L102.752 65.6266L112.27 68.4069L115.051 58.8929Z" fill="#F97878"/>
<path opacity="0.3" d="M111.694 70.3772L102.176 67.5969L99.3944 77.111L108.912 79.8913L111.694 70.3772Z" fill="#F97878"/>
<g opacity="0.5">
<path opacity="0.5" d="M97.1446 43.6676L93.2891 91.5679L107.995 92.7506L111.851 44.8504L97.1446 43.6676Z" fill="url(#paint4_linear)"/>
</g>
<path d="M111.567 45.155L97.5859 44.0305L93.7823 91.2869L107.764 92.4113L111.567 45.155Z" fill="#F9FAFB"/>
<path d="M109.46 45.7549L99.5762 44.96L98.7809 54.84L108.665 55.6349L109.46 45.7549Z" fill="#73B53B"/>
<path opacity="0.5" d="M108.499 57.6802L98.6152 56.8853L97.82 66.7653L107.704 67.5602L108.499 57.6802Z" fill="#73B53B"/>
<path opacity="0.3" d="M107.54 69.6096L97.6562 68.8147L96.861 78.6947L106.745 79.4897L107.54 69.6096Z" fill="#73B53B"/>
<g opacity="0.5">
<path opacity="0.5" d="M105.537 44.9586L90.7988 45.6301L92.988 93.6353L107.726 92.9637L105.537 44.9586Z" fill="url(#paint5_linear)"/>
</g>
<path d="M105.309 45.2922L91.2969 45.9307L93.4566 93.2905L107.469 92.652L105.309 45.2922Z" fill="white"/>
<path d="M103.29 46.1487L93.3848 46.6001L93.8363 56.5018L103.742 56.0504L103.29 46.1487Z" fill="#56CCF2"/>
<path opacity="0.5" d="M104.234 57.6794L94.3184 58.175L94.8142 68.087L104.73 67.5914L104.234 57.6794Z" fill="#56CCF2"/>
<path opacity="0.3" d="M104.38 70.0569L94.4746 70.5083L94.9262 80.41L104.832 79.9586L104.38 70.0569Z" fill="#56CCF2"/>
<path d="M97.2473 108.408L84.7849 113.227L66.5705 120.265C65.882 118.981 64.8685 117.244 63.6146 115.173C59.3001 108.026 52.1619 96.9103 45.8059 87.1415C38.6457 76.1302 32.4824 66.8385 32.4824 66.8385L36.9438 65.5539L73.3873 54.9775L97.2473 108.408Z" fill="#E6ECF8"/>
<path opacity="0.1" d="M97.247 108.408L84.7846 113.227C77.8227 114.677 70.7184 115.33 63.6088 115.173C59.2943 108.026 52.1561 96.9103 45.8001 87.1415L36.9453 65.5465L73.387 54.9775L97.247 108.408Z" fill="black"/>
<path d="M106.517 105.409C106.517 105.409 87.1571 116.857 58.252 114.268L35.209 58.1101L46.2522 56.2125L84.4289 49.6589L106.093 104.317L106.517 105.409Z" fill="#56CCF2"/>
<path opacity="0.1" d="M106.087 104.325C101.529 104.549 96.2541 104.526 90.9482 103.893C85.2054 103.218 79.4295 101.827 74.4779 99.276C70.3379 97.1453 66.7982 94.8274 63.7119 92.0471C55.6833 84.8292 50.7153 74.5043 46.2539 56.22L84.4306 49.6665L106.087 104.325Z" fill="black"/>
<path d="M120.289 101.184C120.289 101.184 106.018 103.978 91.4922 102.258C85.7494 101.583 79.9735 100.192 75.0219 97.6406C70.8819 95.5099 67.344 93.1921 64.2559 90.4117C54.3198 81.4761 49.0726 67.7817 43.6621 40.1269C43.6621 40.1269 67.3862 45.8509 90.846 33.3127C90.8386 33.3219 98.746 82.6488 120.289 101.184Z" fill="#F9FAFB"/>
<path opacity="0.1" d="M91.4921 102.258C85.7493 101.583 79.9734 100.192 75.0219 97.6407C70.8818 95.51 67.3439 93.1922 64.2559 90.4118C72.7159 89.7254 73.9313 85.1025 73.9313 85.1025C80.2029 95.0512 91.4921 102.258 91.4921 102.258Z" fill="black"/>
<path opacity="0.3" d="M55.9336 50.2793C55.9336 50.2793 75.2257 49.1892 80.6124 45.0325L81.4294 47.6568C81.4294 47.6568 68.6824 53.2781 55.9336 53.346V50.2793Z" fill="#56CCF2"/>
<path opacity="0.3" d="M55.9336 63.2358C55.9336 63.2358 74.6125 62.2136 88.7255 55.3994L89.2028 56.4895C89.2028 56.4895 78.0035 63.0247 55.9336 64.7351V63.2358Z" fill="#56CCF2"/>
<path opacity="0.3" d="M57.4375 68.2846C57.4375 68.2846 76.1164 67.2624 90.2275 60.4482L90.7049 61.5384C90.7049 61.5384 79.5056 68.0717 57.4375 69.784V68.2846Z" fill="#56CCF2"/>
<path opacity="0.3" d="M58.9395 73.3405C58.9395 73.3405 77.6184 72.3183 91.7313 65.5042L92.2068 66.5943C92.2068 66.5943 81.0075 73.1295 58.9395 74.8399V73.3405Z" fill="#56CCF2"/>
<path opacity="0.3" d="M60.4434 78.3967C60.4434 78.3967 79.1223 77.3745 93.2334 70.5603L93.7107 71.6504C93.7107 71.6504 82.5114 78.1856 60.4434 79.896V78.3967Z" fill="#56CCF2"/>
<path opacity="0.3" d="M61.9453 83.4545C61.9453 83.4545 80.6242 82.4323 94.7372 75.6182L95.2127 76.7083C95.2127 76.7083 84.0134 83.2416 61.9453 84.9539V83.4545Z" fill="#56CCF2"/>
<path d="M193.282 146.232C193.282 146.232 185.52 145.764 186.434 151.201C186.434 151.201 186.251 152.161 187.125 152.598C187.125 152.598 187.137 152.194 187.92 152.332C188.198 152.379 188.482 152.392 188.764 152.372C189.145 152.347 189.507 152.197 189.794 151.946C189.794 151.946 191.977 151.045 192.825 147.481C192.825 147.481 193.453 146.703 193.427 146.503L192.118 147.054C192.118 147.054 192.566 147.999 192.214 148.782C192.214 148.782 192.172 147.089 191.92 147.131C191.869 147.131 191.239 147.457 191.239 147.457C191.239 147.457 192.008 149.109 191.423 150.298C191.423 150.298 191.643 148.27 190.993 147.577L190.075 148.114C190.075 148.114 190.975 149.814 190.365 151.201C190.365 151.201 190.521 149.074 189.88 148.245L189.045 148.896C189.045 148.896 189.891 150.572 189.375 151.722C189.375 151.722 189.307 149.245 188.863 149.058C188.863 149.058 188.129 149.702 188.022 149.975C188.022 149.975 188.601 151.19 188.241 151.833C188.241 151.833 188.021 150.181 187.841 150.181C187.841 150.181 187.106 151.282 187.036 152.016C187.036 152.016 187.068 150.9 187.664 150.069C187.244 150.149 186.856 150.35 186.548 150.647C186.548 150.647 186.662 149.873 187.844 149.807C187.844 149.807 188.446 148.977 188.606 148.926C188.606 148.926 187.431 148.828 186.719 149.144C186.719 149.144 187.347 148.41 188.823 148.746L189.647 148.074C189.647 148.074 188.099 147.861 187.444 148.096C187.444 148.096 188.199 147.45 189.869 147.913L190.767 147.377C190.767 147.377 189.449 147.092 188.663 147.193C188.663 147.193 189.491 146.745 191.031 147.23L191.672 146.942C191.672 146.942 190.706 146.758 190.424 146.722C190.141 146.685 190.124 146.615 190.124 146.615C190.737 146.512 191.366 146.582 191.94 146.817C191.94 146.817 193.304 146.318 193.282 146.232Z" fill="#56CCF2"/>
<path opacity="0.1" d="M187.937 154C190.97 154 193.43 153.584 193.43 153.071C193.43 152.559 190.97 152.143 187.937 152.143C184.903 152.143 182.443 152.559 182.443 153.071C182.443 153.584 184.903 154 187.937 154Z" fill="#56CCF2"/>
<path opacity="0.1" d="M149.4 151.3C159.743 151.3 168.127 150.541 168.127 149.605C168.127 148.668 159.743 147.909 149.4 147.909C139.058 147.909 130.674 148.668 130.674 149.605C130.674 150.541 139.058 151.3 149.4 151.3Z" fill="#56CCF2"/>
<path d="M196.898 128.281C196.898 128.281 192.523 128.017 193.043 131.084C193.016 131.239 193.039 131.399 193.109 131.54C193.178 131.682 193.291 131.797 193.43 131.871C193.43 131.871 193.439 131.643 193.88 131.721C194.037 131.746 194.197 131.754 194.356 131.743C194.57 131.729 194.774 131.645 194.936 131.504C194.936 131.504 196.166 130.996 196.645 128.986C196.645 128.986 196.999 128.547 196.985 128.436L196.25 128.749C196.25 128.749 196.502 129.283 196.303 129.726C196.303 129.726 196.28 128.77 196.138 128.792C196.109 128.792 195.755 128.975 195.755 128.975C195.755 128.975 196.188 129.893 195.861 130.577C195.861 130.577 195.986 129.434 195.619 129.041L195.099 129.346C195.099 129.346 195.606 130.304 195.263 131.086C195.263 131.086 195.351 129.885 194.989 129.419L194.519 129.786C194.519 129.786 194.994 130.731 194.703 131.379C194.703 131.379 194.664 129.983 194.414 129.878C194.236 130.029 194.076 130.201 193.939 130.39C193.939 130.39 194.266 131.076 194.064 131.438C194.064 131.438 193.939 130.507 193.838 130.504C193.838 130.504 193.427 131.119 193.384 131.541C193.404 131.149 193.526 130.769 193.739 130.44C193.501 130.484 193.282 130.598 193.109 130.766C193.109 130.766 193.173 130.329 193.843 130.293C193.843 130.293 194.183 129.825 194.273 129.795C194.273 129.795 193.61 129.74 193.208 129.918C193.208 129.918 193.562 129.507 194.394 129.694L194.86 129.315C194.86 129.315 193.987 129.195 193.618 129.327C193.618 129.327 194.043 128.96 194.985 129.228L195.492 128.926C195.102 128.84 194.703 128.806 194.304 128.825C194.304 128.825 194.772 128.571 195.639 128.845L196.006 128.683C196.006 128.683 195.455 128.575 195.301 128.558C195.147 128.542 195.132 128.498 195.132 128.498C195.478 128.44 195.832 128.48 196.157 128.612C196.157 128.612 196.913 128.329 196.898 128.281Z" fill="#56CCF2"/>
<path opacity="0.1" d="M193.886 132.66C195.597 132.66 196.984 132.426 196.984 132.137C196.984 131.848 195.597 131.614 193.886 131.614C192.176 131.614 190.789 131.848 190.789 132.137C190.789 132.426 192.176 132.66 193.886 132.66Z" fill="#56CCF2"/>
<path d="M171.07 130.942C171.07 130.942 165.786 130.623 166.411 134.325C166.378 134.512 166.406 134.705 166.49 134.876C166.574 135.047 166.71 135.187 166.879 135.275C166.879 135.275 166.879 135 167.43 135.092C167.619 135.124 167.812 135.133 168.004 135.119C168.263 135.102 168.51 135 168.706 134.829C168.706 134.829 170.191 134.216 170.769 131.79C170.769 131.79 171.197 131.262 171.179 131.124L170.277 131.506C170.277 131.506 170.582 132.148 170.341 132.682C170.341 132.682 170.312 131.53 170.141 131.555C170.106 131.555 169.679 131.779 169.679 131.779C169.679 131.779 170.202 132.899 169.807 133.714C169.807 133.714 169.958 132.334 169.515 131.86L168.887 132.227C168.887 132.227 169.499 133.385 169.084 134.328C169.084 134.328 169.19 132.88 168.755 132.31L168.186 132.754C168.186 132.754 168.762 133.893 168.41 134.677C168.41 134.677 168.366 132.991 168.063 132.864C168.063 132.864 167.565 133.303 167.49 133.482C167.49 133.482 167.883 134.31 167.639 134.747C167.639 134.747 167.488 133.624 167.365 133.618C167.365 133.618 166.871 134.363 166.815 134.872C166.839 134.4 166.987 133.944 167.242 133.547C166.956 133.601 166.693 133.738 166.484 133.941C166.484 133.941 166.561 133.414 167.365 133.369C167.365 133.369 167.775 132.803 167.885 132.77C167.885 132.77 167.084 132.702 166.6 132.917C166.6 132.917 167.026 132.422 168.03 132.647L168.592 132.189C168.592 132.189 167.54 132.045 167.092 132.203C167.092 132.203 167.606 131.765 168.744 132.086L169.355 131.719C169.355 131.719 168.458 131.526 167.922 131.596C167.922 131.596 168.487 131.291 169.534 131.621L169.971 131.425C169.971 131.425 169.313 131.297 169.12 131.276C168.928 131.256 168.919 131.203 168.919 131.203C169.335 131.132 169.763 131.18 170.154 131.339C170.154 131.339 171.087 130.999 171.07 130.942Z" fill="#56CCF2"/>
<path opacity="0.1" d="M167.431 136.23C169.497 136.23 171.171 135.947 171.171 135.598C171.171 135.25 169.497 134.967 167.431 134.967C165.366 134.967 163.691 135.25 163.691 135.598C163.691 135.947 165.366 136.23 167.431 136.23Z" fill="#56CCF2"/>
<path opacity="0.1" d="M10.0342 151.232C13.068 151.232 15.5273 150.817 15.5273 150.304C15.5273 149.791 13.068 149.375 10.0342 149.375C7.00039 149.375 4.54102 149.791 4.54102 150.304C4.54102 150.817 7.00039 151.232 10.0342 151.232Z" fill="#56CCF2"/>
<path d="M6.3457 145.989C6.3457 145.989 9.47783 145.894 10.4233 145.222C11.3689 144.551 15.2427 143.754 15.4777 144.824C15.7127 145.894 20.1869 150.186 16.649 150.216C13.1112 150.245 8.4295 149.665 7.48583 149.091C6.54215 148.516 6.3457 145.989 6.3457 145.989Z" fill="#A8A8A8"/>
<path opacity="0.2" d="M16.7112 149.84C13.1734 149.869 8.49169 149.289 7.54801 148.715C6.83199 148.278 6.54559 146.709 6.44645 145.986H6.3418C6.3418 145.986 6.54008 148.513 7.48192 149.087C8.42376 149.662 13.1201 150.243 16.6488 150.225C17.6696 150.216 18.0221 149.858 18.0037 149.307C17.8605 149.63 17.4713 149.834 16.7112 149.84Z" fill="black"/>
<path d="M154.674 -1.79497e-05L144.986 29.7869L198.312 47.1169L208 17.33L154.674 -1.79497e-05Z" fill="url(#paint6_linear)"/>
<path d="M154.976 0.325644L145.422 29.7024L198.011 46.793L207.566 17.4162L154.976 0.325644Z" fill="#F6F7F9"/>
<g opacity="0.2">
<path opacity="0.2" d="M160.634 22.34C163.814 22.34 166.392 19.7633 166.392 16.5848C166.392 13.4063 163.814 10.8296 160.634 10.8296C157.455 10.8296 154.877 13.4063 154.877 16.5848C154.877 19.7633 157.455 22.34 160.634 22.34Z" fill="#56CCF2"/>
</g>
<g opacity="0.2">
<path opacity="0.2" d="M174.898 14.0496L174.41 15.5488L198.266 23.3014L198.753 21.8022L174.898 14.0496Z" fill="#56CCF2"/>
</g>
<g opacity="0.2">
<path opacity="0.2" d="M173.654 17.8719L173.166 19.3711L185.318 23.3203L185.806 21.8211L173.654 17.8719Z" fill="#56CCF2"/>
</g>
<g opacity="0.2">
<path opacity="0.2" d="M172.409 21.6966L171.922 23.1958L191.577 29.5832L192.064 28.084L172.409 21.6966Z" fill="#56CCF2"/>
</g>
<g opacity="0.2">
<path opacity="0.2" d="M171.165 25.5198L170.678 27.019L194.533 34.7716L195.021 33.2724L171.165 25.5198Z" fill="#56CCF2"/>
</g>
<g opacity="0.5">
<path opacity="0.5" d="M186.625 36.6477L185.682 39.5466L192.283 41.692L193.226 38.7931L186.625 36.6477Z" fill="#56CCF2"/>
</g>
<path d="M171.655 88.6334C171.653 88.572 171.647 88.5107 171.637 88.4499C171.637 88.3857 171.617 88.3214 171.606 88.2664C171.582 88.1416 171.556 88.0186 171.527 87.8994C171.512 87.8425 171.498 87.7837 171.481 87.7287C171.307 87.0777 170.994 86.4722 170.563 85.954C170.539 85.9247 170.514 85.8971 170.49 85.8696C170.466 85.8421 170.39 85.7632 170.341 85.7136C170.291 85.6641 170.245 85.62 170.198 85.5778C170.15 85.5356 170.106 85.4971 170.062 85.4604C169.974 85.3888 169.891 85.3282 169.82 85.2768C169.748 85.2254 169.715 85.2071 169.671 85.1814C169.566 85.1186 169.448 85.0804 169.326 85.0695L168.564 84.9942L167.523 84.8914L163.801 83.4471L163.654 83.4985C163.545 83.1981 163.453 82.8917 163.379 82.5809C163.492 82.5322 163.592 82.4588 163.673 82.3662C163.761 82.298 163.83 82.2091 163.875 82.1074C163.968 81.8909 163.788 81.4302 163.825 81.166C163.884 80.742 164.104 80.3328 164.284 79.9492C164.666 79.1252 164.945 78.2314 164.899 77.3267C164.853 76.4219 164.44 75.5043 163.676 74.9996C163.282 74.7372 162.817 74.5977 162.406 74.3591C162.087 74.1756 161.806 73.9297 161.501 73.7205C160.751 73.221 159.885 72.9246 158.986 72.8602C158.088 72.7959 157.188 72.9658 156.375 73.3535C155.602 73.7333 154.943 74.3023 154.214 74.7592C153.485 75.2162 152.626 75.5667 151.772 75.4309C151.76 75.4655 151.752 75.5012 151.746 75.5374L151.675 75.5282C151.528 75.9283 151.888 76.3247 152.226 76.5981C152.855 77.1175 153.57 77.635 154.39 77.6534C154.708 77.6534 155.044 77.5928 155.332 77.7231C155.398 77.752 155.459 77.789 155.516 77.8332C155.333 78.565 155.356 79.333 155.583 80.0524C155.81 80.7718 156.231 81.4144 156.801 81.9092L154.901 81.2265C154.901 81.2265 154.822 81.2669 154.699 81.344L152.062 79.5895C152.062 79.5895 146.777 77.6735 145.308 80.6576C143.839 83.6417 151.673 82.1019 151.673 82.1019L153.349 83.0195C153.293 83.3659 153.358 83.7211 153.533 84.0252L158.103 86.8478C157.185 87.1322 155.663 87.5819 155.393 87.5819C155.002 87.5819 153.924 87.9673 153.239 89.507C152.554 91.0467 150.105 98.5583 147.952 99.8099C145.798 101.061 140.119 109.439 140.119 109.439L140.145 109.505C140.044 109.533 139.945 109.56 139.848 109.593C138.655 110.007 137.623 110.785 136.897 111.818C136.801 111.951 136.742 112.108 136.725 112.272C136.708 112.435 136.734 112.601 136.801 112.751C136.868 112.902 136.973 113.032 137.106 113.13C137.238 113.227 137.395 113.288 137.558 113.306C139.8 113.59 141.025 112.557 141.614 111.777C141.652 111.728 141.687 111.678 141.72 111.629C141.895 111.704 142.09 111.713 142.271 111.654L145.012 109.439C145.012 109.439 142.868 111.55 144.125 113.477L144.03 113.611C141.91 116.636 140.355 120.019 139.44 123.598C139.44 123.598 138.265 124.464 138.168 127.931C138.07 131.398 136.894 136.982 136.894 136.982C136.894 136.982 136.112 143.627 136.6 145.648C136.6 145.648 136.657 145.729 136.761 145.852C136.725 145.896 136.684 145.943 136.64 145.991C136.213 146.454 135.441 147.092 134.544 146.909C133.174 146.619 133.174 149.027 135.131 149.219C136.392 149.342 138.871 149.906 140.477 150.291C140.652 150.335 140.835 150.337 141.011 150.295C141.187 150.254 141.35 150.171 141.487 150.053C141.624 149.935 141.73 149.786 141.797 149.619C141.864 149.452 141.89 149.27 141.873 149.091C141.777 148.228 141.603 147.184 141.285 146.441C141.265 146.395 141.245 146.349 141.225 146.307C141.282 146.252 141.34 146.197 141.397 146.138C141.397 146.138 141.397 141.9 142.084 140.746C142.084 140.746 143.944 131.983 143.845 129.768C143.769 128.035 148.671 121.287 150.805 118.437L150.786 118.329C151.337 117.595 151.679 117.154 151.679 117.154L153.329 127.652C153.329 127.652 154.113 129.962 155.092 131.214C155.092 131.214 159.301 139.206 159.792 141.71C160.159 143.609 160.926 144.73 161.275 145.163L161.148 145.285C160.702 145.694 160.047 146.103 159.301 145.947C157.932 145.657 157.932 148.065 159.889 148.258C161.15 148.382 163.629 148.946 165.233 149.331C165.409 149.375 165.592 149.377 165.768 149.335C165.944 149.294 166.107 149.21 166.244 149.093C166.381 148.975 166.488 148.826 166.555 148.658C166.622 148.49 166.648 148.309 166.63 148.129C166.518 147.127 166.3 145.881 165.878 145.145C165.844 145.082 165.806 145.021 165.766 144.962C165.915 144.902 166.048 144.808 166.155 144.688C166.155 144.688 163.609 138.621 163.609 136.98C163.609 136.98 162.533 130.722 158.91 128.412C158.91 128.412 159.252 120.583 160.284 116.226C160.309 116.119 160.335 116.013 160.361 115.91C161.322 115.76 162.276 115.562 163.217 115.316L163.315 112.427L163.805 114.737L169.287 111.368C169.287 111.368 169.239 110.761 169.148 109.83C169.1 109.364 169.043 108.817 168.975 108.224C168.92 107.751 168.857 107.248 168.791 106.734C168.773 106.606 168.757 106.475 168.738 106.347C168.667 105.828 168.588 105.303 168.503 104.789C168.47 104.595 168.437 104.405 168.404 104.216C168.358 103.965 168.312 103.719 168.264 103.482C168.241 103.363 168.215 103.244 168.191 103.128C168.167 103.012 168.14 102.897 168.114 102.785C168.088 102.673 168.063 102.565 168.037 102.456C168.022 102.403 168.009 102.35 167.996 102.298C167.969 102.194 167.941 102.091 167.914 101.992C167.799 101.58 167.732 101.156 167.716 100.729C167.716 100.56 167.716 100.39 167.716 100.221C167.716 100.052 167.741 99.8833 167.765 99.7144C167.776 99.6319 167.791 99.5474 167.807 99.4649C167.87 99.1292 167.962 98.7999 168.085 98.4812C168.145 98.3215 168.215 98.1637 168.29 98.0077C168.474 97.6406 168.657 97.2498 168.852 96.8332C168.951 96.6258 169.05 96.4129 169.149 96.1963C169.249 95.9798 169.35 95.7596 169.451 95.5357C170.403 93.4123 171.343 91.0467 171.595 89.4923C171.621 89.329 171.641 89.1748 171.65 89.0298C171.661 88.898 171.663 88.7655 171.655 88.6334Z" fill="url(#paint7_linear)"/>
<path d="M155.304 82.8727L152.074 80.6906C152.074 80.6906 146.946 78.7912 145.522 81.7348C144.097 84.6785 151.694 83.159 151.694 83.159L154.924 84.9612L155.304 82.8727Z" fill="#AE6E79"/>
<path d="M136.969 75.005L120.266 100.978L160.714 126.97L177.418 100.997L136.969 75.005Z" fill="#F9FAFB"/>
<path d="M130.946 91.7927L126.26 99.166L127.995 100.268L132.682 92.895L130.946 91.7927Z" fill="#B7B6CC"/>
<path d="M142.099 84.4664L131.807 100.66L133.398 101.67L143.691 85.4771L142.099 84.4664Z" fill="#B7B6CC"/>
<path d="M145.5 86.6236L135.207 102.817L136.798 103.828L147.091 87.6343L145.5 86.6236Z" fill="#B7B6CC"/>
<path d="M148.898 88.784L138.605 104.977L140.197 105.988L150.49 89.7947L148.898 88.784Z" fill="#B7B6CC"/>
<path d="M152.487 91.9923L142.123 108.108L143.707 109.126L154.071 93.01L152.487 91.9923Z" fill="#B7B6CC"/>
<path d="M155.697 93.1011L145.404 109.294L146.996 110.305L157.288 94.1118L155.697 93.1011Z" fill="white"/>
<path d="M159.095 95.2584L148.803 111.452L150.394 112.462L160.687 96.2691L159.095 95.2584Z" fill="white"/>
<path d="M165.741 98.0597L163.076 102.253L167.271 104.917L169.936 100.724L165.741 98.0597Z" fill="#B7B6CC"/>
<path d="M164.854 149.425C163.296 149.045 160.893 148.491 159.67 148.368C157.77 148.184 157.77 145.798 159.101 146.088C159.82 146.244 160.459 145.839 160.891 145.437C161.022 145.311 161.144 145.177 161.258 145.035C161.415 144.844 161.631 144.712 161.873 144.659C162.585 144.505 164.076 144.27 164.977 144.76C165.188 144.891 165.359 145.077 165.47 145.299C165.879 146.033 166.092 147.254 166.204 148.236C166.223 148.411 166.199 148.588 166.135 148.752C166.072 148.916 165.969 149.063 165.837 149.179C165.705 149.296 165.547 149.379 165.376 149.422C165.205 149.464 165.026 149.465 164.854 149.425Z" fill="#BEBED0"/>
<path d="M140.828 150.374C139.271 149.994 136.867 149.44 135.645 149.317C133.745 149.133 133.745 146.747 135.074 147.039C135.944 147.223 136.693 146.597 137.106 146.142C137.158 146.087 137.203 146.033 137.242 145.984C137.4 145.797 137.616 145.668 137.855 145.617C138.568 145.461 140.058 145.226 140.962 145.718C141.23 145.861 141.443 146.177 141.613 146.586C141.92 147.32 142.089 148.348 142.183 149.197C142.199 149.372 142.174 149.548 142.109 149.711C142.044 149.874 141.941 150.02 141.808 150.135C141.676 150.25 141.518 150.332 141.347 150.373C141.176 150.415 140.998 150.415 140.828 150.374Z" fill="#BEBED0"/>
<path opacity="0.1" d="M141.615 146.578C139.347 148.915 137.403 146.534 137.107 146.142C137.159 146.087 137.205 146.033 137.243 145.984C137.401 145.797 137.617 145.668 137.856 145.617C138.569 145.461 140.06 145.226 140.963 145.718C141.231 145.854 141.453 146.169 141.615 146.578Z" fill="black"/>
<path opacity="0.1" d="M165.481 145.299C164.498 145.969 161.192 145.804 161.192 145.804C161.083 145.689 160.983 145.567 160.893 145.437C161.024 145.311 161.146 145.177 161.26 145.035C161.417 144.844 161.633 144.712 161.875 144.659C162.587 144.505 164.078 144.27 164.979 144.76C165.194 144.889 165.367 145.076 165.481 145.299Z" fill="black"/>
<path d="M165.654 144.855C164.988 145.71 161.191 145.52 161.191 145.52C161.191 145.52 160.051 144.38 159.576 141.913C159.1 139.447 155.017 131.566 155.017 131.566C154.068 130.331 153.308 128.054 153.308 128.054L151.694 117.707C151.694 117.707 143.908 127.958 144.003 130.142C144.099 132.326 142.292 140.97 142.292 140.97C141.627 142.11 141.627 146.292 141.627 146.292C139.16 148.861 137.071 145.817 137.071 145.817C136.595 143.824 137.355 137.274 137.355 137.274C137.355 137.274 138.495 131.768 138.589 128.351C138.682 124.934 139.824 124.081 139.824 124.081C140.711 120.558 142.222 117.223 144.284 114.233C144.857 113.412 145.237 112.974 145.237 112.974L160.62 114.778C160.325 115.43 160.104 116.114 159.959 116.815C158.959 121.109 158.626 128.826 158.626 128.826C162.14 131.104 163.185 137.268 163.185 137.268C163.185 138.874 165.654 144.855 165.654 144.855Z" fill="#5C5C8E"/>
<g opacity="0.05">
<path opacity="0.05" d="M150.846 118.971L150.648 117.707C150.648 117.707 142.861 127.958 142.957 130.142C143.052 132.326 141.247 140.97 141.247 140.97C140.581 142.11 140.581 146.292 140.581 146.292C140.183 146.741 139.669 147.07 139.096 147.245C139.843 147.441 140.748 147.296 141.721 146.292C141.721 146.292 141.721 142.115 142.386 140.97C142.386 140.97 144.19 132.332 144.095 130.142C144.022 128.434 148.775 121.779 150.846 118.971Z" fill="black"/>
<path opacity="0.05" d="M163.278 137.261C163.278 137.261 162.233 131.091 158.721 128.819C158.721 128.819 159.053 121.102 160.052 116.808C160.197 116.106 160.419 115.423 160.715 114.771L145.331 112.97C145.331 112.97 145.295 113.011 145.229 113.091L159.575 114.774C159.28 115.427 159.058 116.11 158.914 116.811C157.913 121.106 157.581 128.823 157.581 128.823C161.095 131.1 162.139 137.265 162.139 137.265C162.139 138.878 164.609 144.859 164.609 144.859C164.216 145.362 162.736 145.503 161.585 145.534C162.503 145.558 165.196 145.567 165.747 144.859C165.747 144.855 163.278 138.874 163.278 137.261Z" fill="black"/>
</g>
<path d="M142.388 111.632C142.273 111.913 142.121 112.177 141.938 112.418C141.367 113.187 140.179 114.203 138.005 113.924C137.845 113.904 137.693 113.842 137.564 113.745C137.434 113.649 137.333 113.52 137.268 113.372C137.203 113.224 137.178 113.062 137.194 112.902C137.211 112.741 137.269 112.588 137.363 112.456C138.06 111.439 139.062 110.668 140.225 110.254C140.618 110.124 141.026 110.042 141.438 110.008L142.388 111.632Z" fill="#AE6E79"/>
<path d="M162.442 85.0841L154.827 82.3C154.827 82.3 152.642 83.4397 153.497 85.0529L160.913 89.7051L162.442 85.0841Z" fill="#42383C"/>
<path opacity="0.1" d="M162.471 85.1153L154.854 82.3313C154.854 82.3313 152.669 83.4691 153.525 85.0841L160.931 89.7346L162.471 85.1153Z" fill="black"/>
<path d="M162.709 80.4962C162.709 80.4962 162.614 84.9576 164.609 86.4771C166.605 87.9967 158.815 88.8501 158.815 88.8501C158.815 88.8501 160.051 84.2932 158.815 81.9203C157.58 79.5474 162.709 80.4962 162.709 80.4962Z" fill="#AE6E79"/>
<path opacity="0.1" d="M160.619 114.765C160.324 115.417 160.103 116.101 159.958 116.802C150.779 118.204 144.381 114.385 144.381 114.385C144.346 114.33 144.313 114.275 144.283 114.22C144.856 113.4 145.236 112.961 145.236 112.961L160.619 114.765Z" fill="black"/>
<path opacity="0.1" d="M142.387 111.632C142.272 111.913 142.121 112.177 141.938 112.418C141.058 112.271 140.355 110.583 140.225 110.263C140.618 110.133 141.025 110.051 141.438 110.017L142.387 111.632Z" fill="black"/>
<path d="M163.469 84.4839L160.05 85.7171L158.626 87.6166C158.626 87.6166 155.688 88.5654 155.303 88.5654C154.917 88.5654 153.878 88.9453 153.213 90.463C152.549 91.9807 150.175 99.3895 148.085 100.621C145.996 101.852 140.488 110.113 140.488 110.113C140.488 110.113 141.437 112.682 142.578 112.297L145.236 110.113C145.236 110.113 143.147 112.201 144.38 114.101C144.38 114.101 152.169 118.751 162.9 115.903L162.993 113.056L163.469 115.334L168.793 112.012C168.793 112.012 168.318 105.884 167.46 102.766C167.105 101.455 167.235 100.06 167.827 98.8371C169.206 95.965 171.334 91.1677 171.075 89.4188C170.769 87.3578 169.606 86.4622 169.158 86.1925C169.057 86.1306 168.943 86.0923 168.824 86.0805L167.086 85.908L163.469 84.4839Z" fill="#42383C"/>
<path opacity="0.05" d="M157.629 94.0234C157.629 94.0234 155.729 102.851 153.64 104.275C151.55 105.699 145.949 110.256 145.758 111.016" fill="black"/>
<path d="M156.774 93.739C156.774 93.739 154.875 102.566 152.786 103.99C150.697 105.415 145.093 109.971 144.904 110.729" fill="#42383C"/>
<path opacity="0.1" d="M158.578 87.5689C158.578 87.5689 165.131 85.385 167.023 85.9539L158.578 87.5689Z" fill="black"/>
<g opacity="0.05">
<path opacity="0.05" d="M167.819 98.839C169.198 95.9669 171.326 91.1696 171.067 89.4207C170.76 87.3597 169.598 86.4642 169.15 86.1944C169.048 86.1325 168.934 86.0942 168.816 86.0824L168.081 86.009C168.159 86.0268 168.234 86.0572 168.302 86.099C168.746 86.3706 169.912 87.2643 170.217 89.3271C170.475 91.0742 168.348 95.8733 166.971 98.7454C166.379 99.9675 166.248 101.362 166.603 102.673C167.463 105.793 167.938 111.919 167.938 111.919L163.359 114.78L163.475 115.33L168.799 112.008C168.799 112.008 168.324 105.881 167.466 102.763C167.108 101.455 167.233 100.062 167.819 98.839Z" fill="black"/>
<path opacity="0.05" d="M166.224 85.8126L167.046 85.8951L163.47 84.4839L163.148 84.5995L166.224 85.8126Z" fill="black"/>
</g>
<path opacity="0.05" d="M156.773 102.946C156.773 102.946 159.711 101.333 160.667 101.713C161.624 102.093 165.131 101.617 165.131 101.617" fill="black"/>
<path opacity="0.05" d="M162.382 81.6833C162.274 80.7308 162.715 80.8758 162.715 80.8758C162.715 80.8758 157.587 79.927 158.821 82.2999C159.132 82.9538 159.309 83.6633 159.342 84.3866H159.392C160.816 84.3884 161.648 82.7954 162.382 81.6833Z" fill="black"/>
<path d="M159.386 84.0087C161.641 84.0087 163.469 82.1814 163.469 79.9272C163.469 77.6731 161.641 75.8457 159.386 75.8457C157.131 75.8457 155.303 77.6731 155.303 79.9272C155.303 82.1814 157.131 84.0087 159.386 84.0087Z" fill="#AE6E79"/>
<path opacity="0.1" d="M163.852 81.1348C164.219 80.3218 164.493 79.4409 164.449 78.549C164.405 77.6571 164.005 76.7524 163.263 76.2532C162.881 75.9962 162.429 75.8586 162.031 75.6237C161.721 75.4402 161.447 75.1998 161.151 74.9942C160.428 74.5015 159.588 74.2081 158.715 74.1436C157.842 74.0792 156.968 74.246 156.18 74.6272C155.431 74.9942 154.792 75.565 154.085 76.0146C153.378 76.4642 152.545 76.8092 151.717 76.6771C151.573 77.0717 151.924 77.4607 152.245 77.7324C152.857 78.2444 153.549 78.7546 154.346 78.7711C154.654 78.7711 154.979 78.7124 155.264 78.8408C155.452 78.9449 155.612 79.0936 155.73 79.2739C156.113 79.7836 156.438 80.3345 156.699 80.9164C156.779 81.1666 156.93 81.3884 157.133 81.5551C157.5 81.79 157.975 81.5936 158.418 81.5771C159.093 81.5496 159.703 81.9754 160.202 82.4305C160.702 82.8856 161.179 83.4068 161.811 83.6472C162.282 83.8308 163.226 83.8198 163.463 83.2563C163.553 83.0435 163.378 82.5883 163.415 82.3277C163.504 81.9114 163.651 81.5098 163.852 81.1348Z" fill="black"/>
<path d="M163.934 81.0374C164.302 80.2244 164.577 79.3435 164.531 78.4535C164.485 77.5634 164.089 76.6549 163.347 76.1576C162.963 75.8988 162.512 75.7612 162.115 75.5263C161.805 75.3428 161.531 75.1042 161.236 74.8968C160.512 74.4041 159.672 74.1107 158.799 74.0462C157.926 73.9818 157.052 74.1486 156.264 74.5298C155.515 74.8968 154.876 75.4657 154.169 75.9154C153.462 76.365 152.629 76.7118 151.801 76.5779C151.657 76.9743 152.006 77.3633 152.329 77.6331C152.941 78.1451 153.633 78.6553 154.43 78.6737C154.738 78.6737 155.063 78.6131 155.348 78.7434C155.537 78.8464 155.697 78.9953 155.814 79.1765C156.197 79.6852 156.522 80.2356 156.782 80.8172C156.862 81.0675 157.013 81.2893 157.217 81.4559C157.584 81.6908 158.059 81.4944 158.502 81.4779C159.178 81.4522 159.787 81.878 160.285 82.3331C160.782 82.7882 161.261 83.3076 161.895 83.548C162.367 83.7315 163.31 83.7205 163.547 83.1571C163.639 82.9442 163.464 82.4891 163.501 82.2285C163.589 81.813 163.734 81.412 163.934 81.0374Z" fill="#42383C"/>
<path opacity="0.1" d="M134.377 141.311C134.035 141.592 133.605 141.744 133.162 141.741L51.1373 141.392C50.9172 141.127 50.7536 140.82 50.6567 140.49C50.5597 140.159 50.5315 139.812 50.5737 139.471L58.6776 73.1884L63.7595 73.1333C64.1844 73.129 64.5988 73.2658 64.9377 73.5222C65.2766 73.7786 65.5208 74.1401 65.6321 74.5501L66.5813 78.0517C66.6937 78.466 66.9418 78.8307 67.2859 79.0876C67.63 79.3444 68.0503 79.4785 68.4797 79.4685L88.7614 78.9821C89.2627 78.9701 89.7395 78.7626 90.0897 78.4039C90.44 78.0452 90.636 77.5638 90.6359 77.0625V74.7428C90.6359 74.2375 90.8352 73.7525 91.1906 73.3931C91.546 73.0338 92.0288 72.829 92.5343 72.8232L120.639 72.5203C121.089 72.5162 121.525 72.6698 121.873 72.9546C122.221 73.2393 122.458 73.637 122.543 74.0784L134.972 139.045L135.053 139.463C135.119 139.804 135.091 140.156 134.972 140.481C134.853 140.807 134.647 141.094 134.377 141.311Z" fill="black"/>
<path d="M119.72 73.4398L91.6152 73.7426C91.1097 73.7479 90.6267 73.9523 90.2709 74.3113C89.9152 74.6703 89.7154 75.1551 89.715 75.6604V77.9819C89.7147 78.4826 89.5187 78.9633 89.1688 79.3216C88.819 79.6798 88.343 79.8873 87.8423 79.8997L67.5624 80.3861C67.1327 80.3969 66.7118 80.2631 66.3672 80.0061C66.0227 79.7492 65.7744 79.3841 65.6622 78.9693L64.7094 75.4695C64.5983 75.0591 64.3538 74.6972 64.0145 74.4407C63.6752 74.1842 63.2602 74.0478 62.8349 74.0528L35.7455 74.3446C35.4679 74.3473 35.1943 74.4102 34.9434 74.5289C34.6925 74.6476 34.4704 74.8193 34.2924 75.0321C34.1143 75.245 33.9846 75.4939 33.9122 75.7618C33.8398 76.0296 33.8263 76.31 33.8728 76.5835L44.771 140.699C44.8467 141.144 45.0773 141.549 45.4222 141.841C45.7671 142.134 46.2042 142.295 46.6565 142.297L132.237 142.664C132.521 142.665 132.801 142.603 133.057 142.483C133.314 142.364 133.541 142.188 133.721 141.971C133.902 141.753 134.033 141.498 134.103 141.223C134.174 140.949 134.183 140.663 134.13 140.385L121.624 74.9979C121.539 74.5563 121.303 74.1584 120.955 73.8736C120.607 73.5888 120.17 73.4353 119.72 73.4398Z" fill="#E6E8EE"/>
<path d="M159.302 29.5341L159.156 31.1674L159.262 34.056L158.952 38.9285C158.952 38.9285 158.908 41.0629 157.702 42.0631L154.623 46.7887L154.604 46.7979L153.446 47.3632L151.678 47.5467L150.76 45.3242L151.367 42.8834L151.705 42.4283L151.799 42.3255C152.166 41.9218 153.583 40.4554 154.709 39.9985C154.709 39.9985 155.46 39.4479 155.328 38.5853C155.195 37.7228 156.341 33.1384 156.341 33.1384C156.341 33.1384 157.075 30.1067 156.916 29.8112C156.756 29.5157 156.886 22.8043 159.42 22.7016C161.954 22.5988 159.302 29.5341 159.302 29.5341Z" fill="#F6BAC2"/>
<path opacity="0.1" d="M27.8022 129.036C29.4459 129.036 30.7783 128.853 30.7783 128.627C30.7783 128.401 29.4459 128.217 27.8022 128.217C26.1586 128.217 24.8262 128.401 24.8262 128.627C24.8262 128.853 26.1586 129.036 27.8022 129.036Z" fill="#56CCF2"/>
<path opacity="0.1" d="M16.4019 130.19C18.0455 130.19 19.3779 130.007 19.3779 129.781C19.3779 129.555 18.0455 129.372 16.4019 129.372C14.7582 129.372 13.4258 129.555 13.4258 129.781C13.4258 130.007 14.7582 130.19 16.4019 130.19Z" fill="#56CCF2"/>
<path opacity="0.1" d="M2.97607 128.626C4.61971 128.626 5.95214 128.443 5.95214 128.217C5.95214 127.991 4.61971 127.808 2.97607 127.808C1.33243 127.808 0 127.991 0 128.217C0 128.443 1.33243 128.626 2.97607 128.626Z" fill="#56CCF2"/>
<path opacity="0.1" d="M20.9646 133.361C22.1327 133.361 23.0796 133.231 23.0796 133.071C23.0796 132.911 22.1327 132.781 20.9646 132.781C19.7965 132.781 18.8496 132.911 18.8496 133.071C18.8496 133.231 19.7965 133.361 20.9646 133.361Z" fill="#56CCF2"/>
<path opacity="0.1" d="M9.13454 133.071C10.3026 133.071 11.2496 132.941 11.2496 132.781C11.2496 132.621 10.3026 132.491 9.13454 132.491C7.96645 132.491 7.01953 132.621 7.01953 132.781C7.01953 132.941 7.96645 133.071 9.13454 133.071Z" fill="#56CCF2"/>
<path d="M16.3382 129.691C16.3382 129.691 20.5113 116.015 15.6846 110.537C12.0732 106.439 7.97358 106.929 6.13763 107.435C5.66291 107.562 5.22137 107.79 4.84353 108.104C4.46569 108.418 4.16054 108.811 3.94918 109.254C3.3066 110.638 3.42226 112.884 7.95338 115.507C15.5377 119.896 16.0095 125.918 16.0095 125.918L16.3382 129.691Z" fill="#56CCF2"/>
<path d="M6.79297 109.375C6.79297 109.375 19.0938 113.229 16.3399 129.691" stroke="#565987" stroke-miterlimit="10"/>
<path d="M13.9797 110.753C13.9797 110.753 12.2851 111.895 12.8249 113.611" stroke="#565987" stroke-miterlimit="10"/>
<path d="M8.02734 111.77C8.02734 111.77 9.06282 110.717 10.3241 111.298" stroke="#565987" stroke-miterlimit="10"/>
<path d="M12.8906 117.066C12.8906 117.066 14.71 116.149 15.18 117.299" stroke="#565987" stroke-miterlimit="10"/>
<path d="M17.3898 118.988C17.3898 118.988 16.0239 118.88 16 119.538" stroke="#565987" stroke-miterlimit="10"/>
<path d="M16.5063 129.799C16.5063 129.799 11.6172 119.86 10.2751 120.072C9.63805 120.177 9.3443 120.807 9.21028 121.434C9.04549 122.249 9.13854 123.094 9.47649 123.853C10.1705 125.45 12.034 128.469 16.5063 129.799Z" fill="#56CCF2"/>
<path d="M10.3125 121.963C10.3125 121.963 15.4421 129.399 16.4336 129.726" stroke="#565987" stroke-miterlimit="10"/>
<path d="M9.8418 123.125H11.0388" stroke="#565987" stroke-miterlimit="10"/>
<path d="M11.2754 125.844L13.1536 125.925" stroke="#565987" stroke-miterlimit="10"/>
<path d="M12.4186 123.668L12.2148 124.646" stroke="#565987" stroke-miterlimit="10"/>
<path d="M14.4137 126.643L14.377 127.531" stroke="#565987" stroke-miterlimit="10"/>
<path d="M16.3613 129.799C16.3613 129.799 21.2486 119.86 22.5907 120.072C23.2296 120.177 23.5234 120.807 23.6555 121.434C23.8203 122.249 23.7273 123.094 23.3893 123.853C22.6953 125.45 20.83 128.469 16.3613 129.799Z" fill="#56CCF2"/>
<path d="M22.5565 121.963C22.5565 121.963 17.4158 129.399 16.4336 129.726" stroke="#565987" stroke-miterlimit="10"/>
<path d="M23.0291 123.125H21.832" stroke="#565987" stroke-miterlimit="10"/>
<path d="M21.595 125.844L19.7168 125.925" stroke="#565987" stroke-miterlimit="10"/>
<path d="M20.4512 123.668L20.655 124.646" stroke="#565987" stroke-miterlimit="10"/>
<path d="M18.4551 126.643L18.4918 127.531" stroke="#565987" stroke-miterlimit="10"/>
<path d="M7.96802 132.121C7.835 132.012 7.73829 131.865 7.69079 131.7C7.6681 131.618 7.67514 131.529 7.7107 131.451C7.74625 131.373 7.80807 131.31 7.8854 131.273C8.069 131.205 8.25259 131.328 8.39947 131.456C8.54634 131.585 8.71341 131.72 8.89701 131.689C8.79957 131.601 8.7267 131.489 8.68551 131.364C8.64432 131.239 8.63622 131.106 8.66201 130.977C8.66953 130.924 8.69179 130.874 8.72627 130.832C8.82541 130.726 9.00533 130.772 9.12467 130.856C9.49186 131.12 9.60752 131.632 9.60936 132.095C9.62774 131.925 9.62774 131.754 9.60936 131.585C9.6045 131.499 9.62071 131.414 9.65656 131.336C9.69241 131.258 9.74681 131.191 9.81498 131.139C9.90436 131.09 10.0051 131.066 10.1069 131.069C10.1913 131.057 10.2772 131.063 10.3591 131.086C10.4411 131.11 10.5172 131.15 10.5824 131.205C10.6449 131.29 10.677 131.393 10.6737 131.499C10.6704 131.604 10.6318 131.706 10.564 131.787C10.4234 131.944 10.257 132.077 10.072 132.179C9.93159 132.264 9.81179 132.378 9.72135 132.515C9.71025 132.533 9.70161 132.553 9.69565 132.574H8.62712C8.38793 132.453 8.16621 132.301 7.96802 132.121Z" fill="#56CCF2"/>
<path d="M26.5932 128.116C26.4599 128.009 26.3631 127.863 26.316 127.698C26.2932 127.615 26.2999 127.527 26.3352 127.449C26.3704 127.371 26.4318 127.308 26.5088 127.27C26.6924 127.202 26.876 127.325 27.0228 127.454C27.1697 127.582 27.335 127.722 27.5241 127.694C27.4266 127.606 27.3536 127.495 27.3121 127.37C27.2706 127.246 27.262 127.113 27.2872 126.984C27.2954 126.93 27.3183 126.88 27.3533 126.839C27.4525 126.732 27.6324 126.778 27.7517 126.861C28.1281 127.127 28.2346 127.639 28.2364 128.102C28.2548 127.931 28.2548 127.76 28.2364 127.59C28.2282 127.505 28.2406 127.42 28.2726 127.341C28.3046 127.263 28.3552 127.193 28.42 127.138C28.5098 127.091 28.6104 127.067 28.7119 127.07C28.7961 127.058 28.8819 127.064 28.9638 127.087C29.0456 127.11 29.1218 127.15 29.1874 127.204C29.2501 127.29 29.2822 127.394 29.2785 127.499C29.2749 127.605 29.2357 127.707 29.1672 127.788C29.0276 127.946 28.8618 128.079 28.677 128.18C28.5366 128.264 28.4167 128.378 28.3264 128.515C28.3156 128.534 28.307 128.554 28.3007 128.575H27.256C27.015 128.453 26.792 128.299 26.5932 128.116Z" fill="#56CCF2"/>
<path d="M20.3859 132.121C20.253 132.012 20.1558 131.865 20.1068 131.7C20.0841 131.618 20.0912 131.529 20.1267 131.451C20.1623 131.373 20.2241 131.31 20.3014 131.273C20.485 131.205 20.6686 131.328 20.8155 131.456C20.9624 131.585 21.1258 131.724 21.3167 131.699C21.2194 131.61 21.1465 131.498 21.105 131.374C21.0635 131.249 21.0548 131.116 21.0799 130.986C21.088 130.933 21.1109 130.883 21.146 130.841C21.2451 130.735 21.425 130.781 21.5444 130.865C21.9207 131.13 22.0254 131.642 22.029 132.104C22.0474 131.935 22.0474 131.764 22.029 131.594C22.0219 131.509 22.0358 131.423 22.0694 131.344C22.103 131.266 22.1553 131.196 22.2218 131.142C22.3111 131.093 22.4119 131.069 22.5137 131.073C22.5981 131.061 22.684 131.067 22.7659 131.09C22.8479 131.113 22.9239 131.154 22.9892 131.209C23.0518 131.294 23.0838 131.397 23.0801 131.503C23.0765 131.608 23.0373 131.71 22.969 131.79C22.8291 131.948 22.6633 132.081 22.4789 132.183C22.3384 132.268 22.2186 132.382 22.1282 132.519C22.1171 132.537 22.1084 132.557 22.1025 132.578H21.0376C20.801 132.455 20.5818 132.301 20.3859 132.121Z" fill="#56CCF2"/>
<path d="M2.78094 124.027C2.78094 124.027 2.38254 124.549 2.96454 125.336C3.54653 126.123 4.02755 126.788 3.83294 127.278C3.83294 127.278 2.95352 125.809 2.2375 125.796C1.52148 125.784 1.99332 124.899 2.78094 124.027Z" fill="#56CCF2"/>
<path opacity="0.1" d="M2.78156 124.027C2.74718 124.078 2.71999 124.133 2.70078 124.191C2.00312 125.011 1.63043 125.776 2.30238 125.796C2.9266 125.815 3.67751 126.931 3.85559 127.213C3.84996 127.235 3.84322 127.256 3.8354 127.278C3.8354 127.278 2.95598 125.809 2.23996 125.796C1.52394 125.784 1.99394 124.899 2.78156 124.027Z" fill="black"/>
<path d="M2.04102 124.692C2.04102 124.875 2.06121 125.024 2.08691 125.024C2.11262 125.024 2.13281 124.875 2.13281 124.692C2.13281 124.508 2.10711 124.594 2.08141 124.594C2.0557 124.594 2.04102 124.508 2.04102 124.692Z" fill="#FFD037"/>
<path d="M1.7861 124.912C1.94766 125 2.08719 125.051 2.10004 125.029C2.11289 125.007 1.99172 124.919 1.83016 124.831C1.66859 124.743 1.73285 124.807 1.72 124.831C1.70715 124.855 1.62453 124.824 1.7861 124.912Z" fill="#FFD037"/>
<path d="M4.88706 124.027C4.88706 124.027 5.2873 124.549 4.70347 125.336C4.11964 126.123 3.64046 126.788 3.83507 127.278C3.83507 127.278 4.71448 125.809 5.4305 125.796C6.14652 125.784 5.67468 124.899 4.88706 124.027Z" fill="#56CCF2"/>
<path opacity="0.1" d="M4.88653 124.027C4.92115 124.078 4.94893 124.133 4.96915 124.191C5.66681 125.011 6.03951 125.776 5.36755 125.796C4.74333 125.815 3.99242 126.931 3.8125 127.213C3.8179 127.235 3.82527 127.257 3.83453 127.278C3.83453 127.278 4.71395 125.809 5.42997 125.796C6.14599 125.784 5.67415 124.899 4.88653 124.027Z" fill="black"/>
<path d="M5.62891 124.692C5.62891 124.875 5.60871 125.024 5.58301 125.024C5.5573 125.024 5.53711 124.875 5.53711 124.692C5.53711 124.508 5.56281 124.594 5.58852 124.594C5.61422 124.594 5.62891 124.508 5.62891 124.692Z" fill="#FFD037"/>
<path d="M5.88496 124.912C5.7234 125 5.58203 125.051 5.57102 125.029C5.56 125.007 5.67934 124.919 5.8409 124.831C6.00246 124.743 5.93821 124.807 5.94922 124.831C5.96024 124.855 6.04469 124.824 5.88496 124.912Z" fill="#FFD037"/>
<path d="M5.50213 127.21C5.50213 127.21 4.38771 127.175 4.05173 126.936C3.71575 126.697 2.33695 126.411 2.2525 126.795C2.16805 127.178 0.578117 128.703 1.83574 128.713C3.09336 128.722 4.7604 128.516 5.09638 128.312C5.43236 128.109 5.50213 127.21 5.50213 127.21Z" fill="#A8A8A8"/>
<path opacity="0.2" d="M1.81477 128.579C3.07423 128.59 4.73943 128.384 5.07541 128.179C5.33061 128.024 5.43158 127.467 5.46647 127.208H5.50319C5.50319 127.208 5.43342 128.107 5.09744 128.309C4.76146 128.511 3.09626 128.72 1.8368 128.709C1.46961 128.709 1.34844 128.577 1.35578 128.386C1.40535 128.505 1.55406 128.569 1.81477 128.579Z" fill="black"/>
<path opacity="0.1" d="M6.23092 27.2236C8.42413 27.2236 10.2021 25.4463 10.2021 23.254C10.2021 21.0617 8.42413 19.2844 6.23092 19.2844C4.03771 19.2844 2.25977 21.0617 2.25977 23.254C2.25977 25.4463 4.03771 27.2236 6.23092 27.2236Z" fill="#56CCF2"/>
<path opacity="0.1" d="M197.186 58.9452C199.379 58.9452 201.157 57.168 201.157 54.9757C201.157 52.7833 199.379 51.0061 197.186 51.0061C194.993 51.0061 193.215 52.7833 193.215 54.9757C193.215 57.168 194.993 58.9452 197.186 58.9452Z" fill="#56CCF2"/>
<path opacity="0.1" d="M125.801 14.6176C127.994 14.6176 129.772 12.8404 129.772 10.648C129.772 8.4557 127.994 6.67847 125.801 6.67847C123.608 6.67847 121.83 8.4557 121.83 10.648C121.83 12.8404 123.608 14.6176 125.801 14.6176Z" fill="#56CCF2"/>
<path opacity="0.1" d="M14.1729 51.8063C17.8485 51.8063 20.8282 48.8278 20.8282 45.1536C20.8282 41.4795 17.8485 38.501 14.1729 38.501C10.4973 38.501 7.51758 41.4795 7.51758 45.1536C7.51758 48.8278 10.4973 51.8063 14.1729 51.8063Z" fill="#56CCF2"/>
<path d="M78.9826 108.028L78.7476 107.793C78.7224 107.77 78.7024 107.741 78.6887 107.71C78.675 107.678 78.668 107.644 78.668 107.61C78.668 107.575 78.675 107.541 78.6887 107.51C78.7024 107.478 78.7224 107.45 78.7476 107.426L80.8093 105.363C80.8329 105.338 80.8613 105.318 80.8929 105.304C80.9245 105.291 80.9585 105.284 80.9929 105.284C81.0274 105.284 81.0614 105.291 81.093 105.304C81.1246 105.318 81.153 105.338 81.1765 105.363L83.2383 107.424C83.2629 107.448 83.2826 107.476 83.2959 107.508C83.3093 107.54 83.3162 107.573 83.3162 107.608C83.3162 107.642 83.3093 107.676 83.2959 107.707C83.2826 107.739 83.2629 107.767 83.2383 107.791L83.0033 108.026C82.9795 108.051 82.951 108.07 82.9194 108.084C82.8879 108.097 82.854 108.104 82.8197 108.104C82.7854 108.104 82.7515 108.097 82.72 108.084C82.6884 108.07 82.6599 108.051 82.6361 108.026L81.417 106.741V109.79C81.4173 109.823 81.4109 109.856 81.3983 109.887C81.3857 109.918 81.367 109.946 81.3435 109.97C81.3199 109.994 81.2919 110.013 81.2611 110.025C81.2302 110.038 81.1971 110.045 81.1637 110.045H80.824C80.7563 110.045 80.6914 110.018 80.6436 109.97C80.5957 109.922 80.5688 109.857 80.5688 109.79V106.745L79.3498 108.03C79.3258 108.054 79.2972 108.074 79.2656 108.087C79.234 108.1 79.2 108.107 79.1658 108.107C79.1315 108.107 79.0976 108.1 79.0661 108.086C79.0347 108.072 79.0062 108.053 78.9826 108.028Z" fill="#F6F7F9"/>
<path d="M80.9888 103.49C81.8164 103.49 82.6253 103.735 83.3134 104.194C84.0015 104.654 84.5378 105.307 84.8545 106.071C85.1711 106.836 85.254 107.677 85.0926 108.488C84.9311 109.299 84.5326 110.044 83.9474 110.629C83.3623 111.214 82.6167 111.613 81.8051 111.774C80.9935 111.935 80.1522 111.853 79.3876 111.536C78.6231 111.219 77.9696 110.683 77.5098 109.996C77.0501 109.308 76.8047 108.499 76.8047 107.672C76.8057 106.563 77.2468 105.5 78.0313 104.716C78.8157 103.931 79.8794 103.49 80.9888 103.49ZM80.9888 102.939C80.0523 102.939 79.1369 103.217 78.3582 103.737C77.5796 104.257 76.9727 104.996 76.6143 105.861C76.256 106.726 76.1622 107.677 76.3449 108.595C76.5276 109.513 76.9785 110.357 77.6407 111.019C78.3029 111.681 79.1466 112.131 80.0651 112.314C80.9836 112.497 81.9356 112.403 82.8008 112.045C83.666 111.686 84.4055 111.08 84.9258 110.301C85.446 109.523 85.7237 108.608 85.7237 107.672C85.7237 106.417 85.2249 105.213 84.3369 104.325C83.4489 103.438 82.2446 102.939 80.9888 102.939Z" fill="#F6F7F9"/>
</g>
<defs>
<linearGradient id="paint0_linear" x1="144.378" y1="104.278" x2="144.378" y2="18.6988" gradientUnits="userSpaceOnUse">
<stop stop-color="#808080" stop-opacity="0.25"/>
<stop offset="0.54" stop-color="#808080" stop-opacity="0.12"/>
<stop offset="1" stop-color="#808080" stop-opacity="0.1"/>
</linearGradient>
<linearGradient id="paint1_linear" x1="307.945" y1="132.429" x2="307.945" y2="131.327" gradientUnits="userSpaceOnUse">
<stop stop-color="#808080" stop-opacity="0.25"/>
<stop offset="0.54" stop-color="#808080" stop-opacity="0.12"/>
<stop offset="1" stop-color="#808080" stop-opacity="0.1"/>
</linearGradient>
<linearGradient id="paint2_linear" x1="13526.5" y1="21090.6" x2="15729.5" y2="17900.7" gradientUnits="userSpaceOnUse">
<stop stop-color="#808080" stop-opacity="0.25"/>
<stop offset="0.54" stop-color="#808080" stop-opacity="0.12"/>
<stop offset="1" stop-color="#808080" stop-opacity="0.1"/>
</linearGradient>
<linearGradient id="paint3_linear" x1="19105" y1="16724" x2="20187.9" y2="13017.1" gradientUnits="userSpaceOnUse">
<stop stop-color="#808080" stop-opacity="0.25"/>
<stop offset="0.54" stop-color="#808080" stop-opacity="0.12"/>
<stop offset="1" stop-color="#808080" stop-opacity="0.1"/>
</linearGradient>
<linearGradient id="paint4_linear" x1="21142.5" y1="12359.1" x2="21452.1" y2="8509.84" gradientUnits="userSpaceOnUse">
<stop stop-color="#808080" stop-opacity="0.25"/>
<stop offset="0.54" stop-color="#808080" stop-opacity="0.12"/>
<stop offset="1" stop-color="#808080" stop-opacity="0.1"/>
</linearGradient>
<linearGradient id="paint5_linear" x1="8340.46" y1="34572.5" x2="7767.69" y2="22002.3" gradientUnits="userSpaceOnUse">
<stop stop-color="#808080" stop-opacity="0.25"/>
<stop offset="0.54" stop-color="#808080" stop-opacity="0.12"/>
<stop offset="1" stop-color="#808080" stop-opacity="0.1"/>
</linearGradient>
<linearGradient id="paint6_linear" x1="25818.2" y1="22797" x2="28775" y2="13698.8" gradientUnits="userSpaceOnUse">
<stop stop-color="#808080" stop-opacity="0.25"/>
<stop offset="0.54" stop-color="#808080" stop-opacity="0.12"/>
<stop offset="1" stop-color="#808080" stop-opacity="0.1"/>
</linearGradient>
<linearGradient id="paint7_linear" x1="33064.4" y1="65893" x2="33064.4" y2="33188.6" gradientUnits="userSpaceOnUse">
<stop stop-color="#808080" stop-opacity="0.25"/>
<stop offset="0.54" stop-color="#808080" stop-opacity="0.12"/>
<stop offset="1" stop-color="#808080" stop-opacity="0.1"/>
</linearGradient>
<clipPath id="clip0">
<rect width="208" height="154" fill="white"/>
</clipPath>
</defs>
</svg>
