<svg width="243" height="152" viewBox="0 0 243 152" fill="none" xmlns="http://www.w3.org/2000/svg">
<g filter="url(#filter0_d)">
<rect x="16" y="12" width="211" height="120" rx="12" fill="#56CCF2"/>
</g>
<path d="M124.338 87.3834H193.786V93.609H124.338V87.3834Z" fill="white"/>
<path d="M124.338 50.391H193.786V56.6166H124.338V50.391ZM152.135 63.4737L144.96 80.5714H140.267L136.747 66.9023C136.522 66.0451 136.341 65.7744 135.709 65.4135C134.311 64.7369 132.867 64.2406 131.332 63.9699L131.423 63.4737H138.958C139.996 63.4737 140.854 64.2406 140.989 65.2331L142.839 75.1128L147.442 63.4737H152.135V63.4737ZM170.501 74.9775C170.501 70.4662 164.274 70.1955 164.319 68.2105C164.319 67.579 164.906 66.9474 166.214 66.7669C167.703 66.6316 169.238 66.9023 170.591 67.5338L171.358 63.9248C170.05 63.4286 168.606 63.1579 167.207 63.1579C162.83 63.1579 159.761 65.5038 159.716 68.797C159.671 71.2782 161.927 72.6316 163.597 73.4436C165.267 74.2557 165.898 74.8421 165.898 75.5639C165.898 76.6917 164.499 77.2331 163.236 77.2331C161.657 77.2782 160.077 76.9173 158.678 76.1504L157.866 79.8947C159.445 80.5263 161.115 80.8421 162.785 80.797C167.433 80.8421 170.456 78.5414 170.501 74.9775V74.9775ZM182.053 80.5714H186.16L182.595 63.4737H178.804C177.992 63.4737 177.225 63.9699 176.909 64.7369L170.23 80.5714H174.878L175.781 78H181.467L182.053 80.5714V80.5714ZM177.089 74.5263L179.436 68.1203L180.79 74.5263H177.089V74.5263ZM158.453 63.4737L154.797 80.5714H150.375L154.03 63.4737H158.453Z" fill="white"/>
<path d="M67.1635 91.9849V89.2782C67.2538 88.421 66.622 87.6541 65.7195 87.5639H65.4939C64.9073 87.5188 64.3206 87.8346 63.9596 88.3308C63.6438 87.8346 63.1023 87.5188 62.5156 87.5639C62.0192 87.5639 61.5229 87.7894 61.207 88.1955V87.6541H60.3496V91.9849H61.207V89.5037C61.1619 88.9624 61.5229 88.4661 62.1095 88.3759H62.29C62.9218 88.3759 63.2828 88.7819 63.2828 89.5037V91.9849H64.1401V89.5037C64.095 88.9624 64.456 88.4661 65.0426 88.3759H65.2231C65.8549 88.3759 66.2159 88.7819 66.2159 89.5037V91.9849H67.1635ZM81.2426 87.6992H79.6632V86.3909H78.8059V87.6992H77.9034V88.4661H78.8059V90.4962C78.8059 91.4887 79.1669 92.0752 80.2499 92.0752C80.656 92.0752 81.0621 91.9398 81.4231 91.7594L81.1524 90.9925C80.9268 91.1278 80.6109 91.218 80.3401 91.218C79.9791 91.2631 79.7084 90.9925 79.6632 90.6315V88.421H81.2426V87.6992ZM89.2749 87.5639C88.7786 87.5639 88.3724 87.7894 88.1017 88.1955V87.6541H87.2443V91.9849H88.1017V89.5488C88.1017 88.827 88.4627 88.3759 89.0493 88.3759C89.2298 88.3759 89.4554 88.421 89.6359 88.4661L89.9067 87.6541C89.6811 87.609 89.5006 87.5639 89.2749 87.5639V87.5639ZM77.1362 88.015C76.5947 87.6992 76.0081 87.5188 75.3763 87.5639C74.2933 87.5639 73.6165 88.0601 73.6165 88.9173C73.6165 89.6391 74.1128 90.0451 75.0605 90.1804L75.5117 90.2255C76.0081 90.3158 76.324 90.4962 76.324 90.7218C76.324 91.0376 75.963 91.2631 75.2861 91.2631C74.7897 91.2631 74.2482 91.1278 73.8421 90.812L73.3908 91.4887C73.9323 91.8496 74.5641 92.03 75.241 92.03C76.5045 92.03 77.1814 91.4436 77.1814 90.6315C77.1814 89.8195 76.6399 89.5037 75.6922 89.3684L75.241 89.3233C74.8348 89.2782 74.4738 89.1428 74.4738 88.8721C74.4738 88.6015 74.8348 88.3308 75.3312 88.3308C75.7825 88.3308 76.2788 88.4661 76.685 88.6917L77.1362 88.015V88.015ZM90.2677 89.8195C90.1774 90.9924 91.08 91.9849 92.2532 92.0752H92.524C93.0655 92.1203 93.607 91.9398 94.0582 91.5789L93.607 90.9022C93.2911 91.1729 92.885 91.3082 92.4788 91.3082C91.6666 91.2631 91.08 90.5413 91.1702 89.7293C91.2153 89.0075 91.802 88.4661 92.4788 88.421C92.885 88.421 93.2911 88.5564 93.607 88.827L94.0582 88.1503C93.607 87.7894 93.0655 87.609 92.524 87.6541C91.3958 87.5188 90.4031 88.3308 90.2677 89.4135V89.8195V89.8195ZM84.1758 87.5639C82.9123 87.5639 82.0549 88.4661 82.0549 89.8195C81.9646 90.9924 82.8671 91.9849 84.0404 92.0752H84.266C84.8978 92.0752 85.5295 91.8947 86.0259 91.4887L85.5747 90.8571C85.2137 91.1278 84.7624 91.3082 84.3112 91.3082C83.6343 91.3534 83.0928 90.8571 83.0025 90.1804H86.2064V89.8195C86.2064 88.4661 85.3942 87.5639 84.1758 87.5639ZM84.1758 88.3759C84.7624 88.3308 85.2588 88.827 85.3039 89.4135V89.4586H82.9574C83.0025 88.827 83.544 88.3308 84.1758 88.3759V88.3759ZM72.4883 89.8195V87.6541H71.6309V88.1955C71.3151 87.7894 70.7736 87.5188 70.2321 87.5639C68.9685 87.5639 67.9758 88.5564 67.9758 89.8195C67.9758 91.0827 68.9685 92.0752 70.2321 92.0752C70.7736 92.1203 71.3151 91.8496 71.6309 91.4436V91.9849H72.4883V89.8195ZM68.9685 89.8195C69.0137 89.0526 69.6454 88.5112 70.4126 88.5564C71.1797 88.6015 71.7212 89.2331 71.6761 90C71.6309 90.7218 71.0443 91.2631 70.3223 91.2631C69.6003 91.2631 68.9685 90.7218 68.9685 89.9549V89.8195ZM102.316 87.5639C101.82 87.5639 101.414 87.7894 101.143 88.1955V87.6541H100.286V91.9849H101.143V89.5488C101.143 88.827 101.504 88.3759 102.091 88.3759C102.271 88.3759 102.497 88.421 102.677 88.4661L102.948 87.6541C102.722 87.609 102.542 87.5639 102.316 87.5639V87.5639ZM109.265 91.3534C109.311 91.3534 109.401 91.3534 109.446 91.3985C109.491 91.3985 109.536 91.4436 109.581 91.4887C109.626 91.5338 109.672 91.5789 109.672 91.624C109.672 91.6691 109.717 91.7143 109.717 91.8045C109.717 91.8496 109.717 91.9398 109.672 91.9849C109.626 92.03 109.626 92.0752 109.581 92.1203C109.536 92.1654 109.491 92.2105 109.446 92.2105C109.401 92.2105 109.356 92.2556 109.265 92.2556C109.22 92.2556 109.13 92.2556 109.085 92.2105C109.04 92.1654 108.995 92.1654 108.95 92.1203C108.904 92.0752 108.859 92.03 108.859 91.9849C108.859 91.9398 108.814 91.8947 108.814 91.8045C108.814 91.7594 108.814 91.6691 108.859 91.624C108.904 91.5789 108.904 91.5338 108.95 91.4887C108.995 91.4436 109.04 91.3985 109.085 91.3985C109.13 91.3985 109.22 91.3534 109.265 91.3534ZM109.265 92.1203C109.311 92.1203 109.356 92.1203 109.401 92.0752C109.446 92.0752 109.491 92.03 109.491 91.9849L109.581 91.8947C109.581 91.8496 109.626 91.8045 109.626 91.7594C109.626 91.7143 109.626 91.6691 109.581 91.624C109.581 91.5789 109.536 91.5338 109.491 91.5338L109.401 91.4436C109.356 91.4436 109.311 91.3985 109.265 91.3985C109.22 91.3985 109.175 91.3985 109.13 91.4436C109.085 91.4436 109.04 91.4887 109.04 91.5338L108.95 91.624C108.95 91.6691 108.904 91.7143 108.904 91.7594C108.904 91.8045 108.904 91.8496 108.95 91.8947C108.95 91.9398 108.995 91.9849 109.04 91.9849L109.13 92.0752C109.175 92.1203 109.22 92.1203 109.265 92.1203ZM109.311 91.624C109.356 91.624 109.401 91.624 109.446 91.6691C109.491 91.7143 109.491 91.7143 109.491 91.7594C109.491 91.8045 109.491 91.8045 109.446 91.8496C109.401 91.8947 109.401 91.8947 109.356 91.8947L109.491 92.03H109.356L109.22 91.8947H109.175V92.03H109.085V91.624H109.311V91.624ZM109.22 91.6691V91.7594H109.356V91.6691H109.22ZM98.9769 89.8195V87.6541H98.1195V88.1955C97.8036 87.7894 97.2621 87.5188 96.7206 87.5639C95.4571 87.5639 94.4644 88.5564 94.4644 89.8195C94.4644 91.0827 95.4571 92.0752 96.7206 92.0752C97.2621 92.1203 97.8036 91.8496 98.1195 91.4436V91.9849H98.9769V89.8195ZM95.5022 89.8195C95.5474 89.0526 96.1791 88.5112 96.9462 88.5564C97.7134 88.6015 98.2549 89.2331 98.2098 90C98.1646 90.7218 97.578 91.2631 96.856 91.2631C95.9986 91.3082 95.5022 90.6315 95.5022 89.8195ZM107.731 89.8195V85.9398H106.874V88.1955C106.558 87.7894 106.016 87.5188 105.475 87.5639C104.211 87.5639 103.219 88.5564 103.219 89.8195C103.219 91.0827 104.211 92.0752 105.475 92.0752C106.016 92.1203 106.558 91.8496 106.874 91.4436V91.9849H107.731V89.8195ZM104.211 89.8195C104.257 89.0526 104.888 88.5112 105.655 88.5564C106.423 88.6015 106.964 89.2331 106.919 90C106.874 90.7218 106.287 91.2631 105.565 91.2631C104.843 91.2631 104.211 90.7218 104.211 89.9549V89.8195Z" fill="white"/>
<path d="M76.1436 54.812H91.802V80.3458H76.1436V54.812Z" fill="white"/>
<path d="M77.7678 67.5789C77.7678 62.6165 80.0241 57.8797 83.95 54.812C76.9104 49.2631 66.667 50.4812 61.1166 57.5188C55.5662 64.5564 56.7845 74.797 63.8241 80.3458C66.7121 82.6015 70.2319 83.8195 73.887 83.8195C77.5422 83.8195 81.062 82.6015 83.9049 80.3458C80.0241 77.2782 77.7678 72.5413 77.7678 67.5789V67.5789Z" fill="white"/>
<path d="M108.679 77.6391V77.0978H108.904V77.0075H108.363V77.0978H108.588V77.6391H108.679ZM109.762 77.6391V77.0075H109.581L109.401 77.4587L109.22 77.0075H109.04V77.6391H109.175V77.1429L109.356 77.5489H109.491L109.671 77.1429V77.6391H109.762ZM110.258 67.579C110.258 76.5564 102.948 83.8196 94.0129 83.8196C90.4029 83.8196 86.8831 82.6015 83.9951 80.3459C91.0347 74.7519 92.2531 64.5113 86.6575 57.4737C85.8904 56.4812 84.9879 55.579 83.9951 54.812C91.0798 49.2632 101.278 50.5263 106.783 57.5639C109.04 60.4511 110.258 63.9699 110.258 67.579V67.579Z" fill="white"/>
<defs>
<filter id="filter0_d" x="0" y="0" width="243" height="152" filterUnits="userSpaceOnUse" color-interpolation-filters="sRGB">
<feFlood flood-opacity="0" result="BackgroundImageFix"/>
<feColorMatrix in="SourceAlpha" type="matrix" values="0 0 0 0 0 0 0 0 0 0 0 0 0 0 0 0 0 0 127 0"/>
<feOffset dy="4"/>
<feGaussianBlur stdDeviation="8"/>
<feColorMatrix type="matrix" values="0 0 0 0 0 0 0 0 0 0 0 0 0 0 0 0 0 0 0.1 0"/>
<feBlend mode="normal" in2="BackgroundImageFix" result="effect1_dropShadow"/>
<feBlend mode="normal" in="SourceGraphic" in2="effect1_dropShadow" result="shape"/>
</filter>
</defs>
</svg>
