<svg width="211" height="120" viewBox="0 0 211 120" fill="none" xmlns="http://www.w3.org/2000/svg">
<rect width="211" height="120" rx="12" fill="white"/>
<path d="M108.338 75.3835H177.786V81.609H108.338V75.3835Z" fill="#F7B600"/>
<path d="M108.338 38.391H177.786V44.6166H108.338V38.391ZM136.135 51.4737L128.96 68.5714H124.267L120.747 54.9023C120.522 54.0451 120.341 53.7744 119.709 53.4135C118.311 52.7369 116.867 52.2406 115.332 51.9699L115.423 51.4737H122.958C123.996 51.4737 124.854 52.2406 124.989 53.2331L126.839 63.1128L131.442 51.4737H136.135ZM154.501 62.9775C154.501 58.4662 148.274 58.1955 148.319 56.2105C148.319 55.579 148.906 54.9474 150.214 54.7669C151.703 54.6316 153.238 54.9023 154.591 55.5338L155.358 51.9248C154.05 51.4286 152.606 51.1579 151.207 51.1579C146.83 51.1579 143.761 53.5038 143.716 56.797C143.671 59.2782 145.927 60.6316 147.597 61.4436C149.267 62.2557 149.898 62.8421 149.898 63.5639C149.898 64.6917 148.499 65.2331 147.236 65.2331C145.657 65.2782 144.077 64.9173 142.678 64.1504L141.866 67.8947C143.445 68.5263 145.115 68.8421 146.785 68.797C151.433 68.8421 154.456 66.5414 154.501 62.9775ZM166.053 68.5714H170.16L166.595 51.4737H162.804C161.992 51.4737 161.225 51.9699 160.909 52.7369L154.23 68.5714H158.878L159.781 66H165.467L166.053 68.5714ZM161.089 62.5263L163.436 56.1203L164.79 62.5263H161.089ZM142.453 51.4737L138.797 68.5714H134.375L138.03 51.4737H142.453Z" fill="#1A1F71"/>
<path d="M51.1635 79.985V77.2782C51.2538 76.4211 50.622 75.6541 49.7195 75.5639H49.4939C48.9073 75.5188 48.3206 75.8346 47.9596 76.3308C47.6438 75.8346 47.1023 75.5188 46.5156 75.5639C46.0192 75.5639 45.5229 75.7895 45.207 76.1955V75.6541H44.3496V79.985H45.207V77.5038C45.1619 76.9624 45.5229 76.4662 46.1095 76.3759H46.29C46.9218 76.3759 47.2828 76.782 47.2828 77.5038V79.985H48.1401V77.5038C48.095 76.9624 48.456 76.4662 49.0426 76.3759H49.2231C49.8549 76.3759 50.2159 76.782 50.2159 77.5038V79.985H51.1635ZM65.2426 75.6992H63.6632V74.391H62.8059V75.6992H61.9034V76.4662H62.8059V78.4962C62.8059 79.4887 63.1669 80.0752 64.2499 80.0752C64.656 80.0752 65.0621 79.9398 65.4231 79.7594L65.1524 78.9925C64.9268 79.1278 64.6109 79.218 64.3401 79.218C63.9791 79.2632 63.7084 78.9925 63.6632 78.6316V76.4211H65.2426V75.6992ZM73.2749 75.5639C72.7786 75.5639 72.3724 75.7895 72.1017 76.1955V75.6541H71.2443V79.985H72.1017V77.5489C72.1017 76.8271 72.4627 76.3759 73.0493 76.3759C73.2298 76.3759 73.4554 76.4211 73.6359 76.4662L73.9067 75.6541C73.6811 75.609 73.5006 75.5639 73.2749 75.5639ZM61.1362 76.015C60.5947 75.6992 60.0081 75.5188 59.3763 75.5639C58.2933 75.5639 57.6165 76.0601 57.6165 76.9173C57.6165 77.6391 58.1128 78.0451 59.0605 78.1805L59.5117 78.2256C60.0081 78.3158 60.324 78.4962 60.324 78.7218C60.324 79.0376 59.963 79.2632 59.2861 79.2632C58.7897 79.2632 58.2482 79.1278 57.8421 78.812L57.3908 79.4887C57.9323 79.8496 58.5641 80.0301 59.241 80.0301C60.5045 80.0301 61.1814 79.4436 61.1814 78.6316C61.1814 77.8195 60.6399 77.5038 59.6922 77.3684L59.241 77.3233C58.8348 77.2782 58.4738 77.1429 58.4738 76.8722C58.4738 76.6015 58.8348 76.3308 59.3312 76.3308C59.7825 76.3308 60.2788 76.4662 60.685 76.6917L61.1362 76.015ZM74.2677 77.8195C74.1775 78.9925 75.08 79.985 76.2532 80.0752H76.524C77.0655 80.1203 77.607 79.9398 78.0582 79.5789L77.607 78.9023C77.2911 79.1729 76.885 79.3083 76.4788 79.3083C75.6666 79.2632 75.08 78.5414 75.1702 77.7293C75.2153 77.0075 75.802 76.4662 76.4788 76.4211C76.885 76.4211 77.2911 76.5564 77.607 76.8271L78.0582 76.1504C77.607 75.7895 77.0655 75.609 76.524 75.6541C75.3958 75.5188 74.4031 76.3308 74.2677 77.4135V77.8195ZM68.1758 75.5639C66.9123 75.5639 66.0549 76.4662 66.0549 77.8195C65.9646 78.9925 66.8671 79.985 68.0404 80.0752H68.266C68.8978 80.0752 69.5295 79.8947 70.0259 79.4887L69.5747 78.8571C69.2137 79.1278 68.7624 79.3083 68.3112 79.3083C67.6343 79.3534 67.0928 78.8571 67.0025 78.1805H70.2064V77.8195C70.2064 76.4662 69.3942 75.5639 68.1758 75.5639ZM68.1758 76.3759C68.7624 76.3308 69.2588 76.8271 69.3039 77.4135V77.4586H66.9574C67.0025 76.8271 67.544 76.3308 68.1758 76.3759ZM56.4883 77.8195V75.6541H55.6309V76.1955C55.3151 75.7895 54.7736 75.5188 54.2321 75.5639C52.9685 75.5639 51.9758 76.5564 51.9758 77.8195C51.9758 79.0827 52.9685 80.0752 54.2321 80.0752C54.7736 80.1203 55.3151 79.8496 55.6309 79.4436V79.985H56.4883V77.8195ZM52.9685 77.8195C53.0137 77.0526 53.6454 76.5113 54.4126 76.5564C55.1797 76.6015 55.7212 77.2331 55.6761 78C55.6309 78.7218 55.0443 79.2632 54.3223 79.2632C53.6003 79.2632 52.9685 78.7218 52.9685 77.9549V77.8195ZM86.3162 75.5639C85.8198 75.5639 85.4137 75.7895 85.1429 76.1955V75.6541H84.2855V79.985H85.1429V77.5489C85.1429 76.8271 85.5039 76.3759 86.0905 76.3759C86.271 76.3759 86.4967 76.4211 86.6772 76.4662L86.9479 75.6541C86.7223 75.609 86.5418 75.5639 86.3162 75.5639ZM93.2655 79.3534C93.3106 79.3534 93.4008 79.3534 93.446 79.3985C93.4911 79.3985 93.5362 79.4436 93.5813 79.4887C93.6265 79.5338 93.6716 79.5789 93.6716 79.6241C93.6716 79.6692 93.7167 79.7143 93.7167 79.8045C93.7167 79.8496 93.7167 79.9398 93.6716 79.985C93.6265 80.0301 93.6265 80.0752 93.5813 80.1203C93.5362 80.1654 93.4911 80.2105 93.446 80.2105C93.4008 80.2105 93.3557 80.2556 93.2655 80.2556C93.2203 80.2556 93.1301 80.2556 93.085 80.2105C93.0398 80.1654 92.9947 80.1654 92.9496 80.1203C92.9045 80.0752 92.8593 80.0301 92.8593 79.985C92.8593 79.9398 92.8142 79.8947 92.8142 79.8045C92.8142 79.7594 92.8142 79.6692 92.8593 79.6241C92.9045 79.5789 92.9045 79.5338 92.9496 79.4887C92.9947 79.4436 93.0398 79.3985 93.085 79.3985C93.1301 79.3985 93.2203 79.3534 93.2655 79.3534ZM93.2655 80.1203C93.3106 80.1203 93.3557 80.1203 93.4008 80.0752C93.446 80.0752 93.4911 80.0301 93.4911 79.985L93.5813 79.8947C93.5813 79.8496 93.6265 79.8045 93.6265 79.7594C93.6265 79.7143 93.6265 79.6692 93.5813 79.6241C93.5813 79.5789 93.5362 79.5338 93.4911 79.5338L93.4008 79.4436C93.3557 79.4436 93.3106 79.3985 93.2655 79.3985C93.2203 79.3985 93.1752 79.3985 93.1301 79.4436C93.085 79.4436 93.0398 79.4887 93.0398 79.5338L92.9496 79.6241C92.9496 79.6692 92.9045 79.7143 92.9045 79.7594C92.9045 79.8045 92.9045 79.8496 92.9496 79.8947C92.9496 79.9399 92.9947 79.985 93.0398 79.985L93.1301 80.0752C93.1752 80.1203 93.2203 80.1203 93.2655 80.1203ZM93.3106 79.6241C93.3557 79.6241 93.4008 79.6241 93.446 79.6692C93.4911 79.7143 93.4911 79.7143 93.4911 79.7594C93.4911 79.8045 93.4911 79.8045 93.446 79.8496C93.4008 79.8947 93.4008 79.8947 93.3557 79.8947L93.4911 80.0301H93.3557L93.2203 79.8947H93.1752V80.0301H93.085V79.6241H93.3106ZM93.2203 79.6692V79.7594H93.3557V79.6692H93.2203ZM82.9769 77.8195V75.6541H82.1195V76.1955C81.8036 75.7895 81.2621 75.5188 80.7206 75.5639C79.4571 75.5639 78.4644 76.5564 78.4644 77.8195C78.4644 79.0827 79.4571 80.0752 80.7206 80.0752C81.2621 80.1203 81.8036 79.8496 82.1195 79.4436V79.985H82.9769V77.8195ZM79.5022 77.8195C79.5474 77.0526 80.1791 76.5113 80.9463 76.5564C81.7134 76.6015 82.2549 77.2331 82.2098 78C82.1646 78.7218 81.578 79.2632 80.856 79.2632C79.9986 79.3083 79.5022 78.6316 79.5022 77.8195ZM91.7312 77.8195V73.9398H90.8738V76.1955C90.5579 75.7895 90.0164 75.5188 89.4749 75.5639C88.2114 75.5639 87.2187 76.5564 87.2187 77.8195C87.2187 79.0827 88.2114 80.0752 89.4749 80.0752C90.0164 80.1203 90.5579 79.8496 90.8738 79.4436V79.985H91.7312V77.8195ZM88.2114 77.8195C88.2565 77.0526 88.8883 76.5113 89.6554 76.5564C90.4226 76.6015 90.9641 77.2331 90.9189 78C90.8738 78.7218 90.2872 79.2632 89.5652 79.2632C88.8432 79.2632 88.2114 78.7218 88.2114 77.9549V77.8195Z" fill="black"/>
<path d="M60.1436 42.812H75.802V68.3458H60.1436V42.812Z" fill="#FF5F00"/>
<path d="M61.7678 55.579C61.7678 50.6166 64.0241 45.8797 67.95 42.812C60.9104 37.2632 50.667 38.4812 45.1166 45.5188C39.5662 52.5564 40.7845 62.797 47.8241 68.3459C50.7121 70.6015 54.2319 71.8196 57.887 71.8196C61.5422 71.8196 65.062 70.6015 67.9049 68.3459C64.0241 65.2782 61.7678 60.5414 61.7678 55.579Z" fill="#EB001B"/>
<path d="M92.6787 65.6391V65.0978H92.9043V65.0075H92.3628V65.0978H92.5884V65.6391H92.6787ZM93.7617 65.6391V65.0075H93.5812L93.4007 65.4587L93.2202 65.0075H93.0397V65.6391H93.1751V65.1429L93.3556 65.5489H93.4909L93.6714 65.1429V65.6391H93.7617ZM94.2581 55.579C94.2581 64.5564 86.9478 71.8196 78.0129 71.8196C74.4029 71.8196 70.8831 70.6015 67.9951 68.3459C75.0347 62.7519 76.2531 52.5113 70.6575 45.4737C69.8904 44.4812 68.9879 43.579 67.9951 42.812C75.0798 37.2632 85.2781 38.5263 90.7834 45.5639C93.0397 48.4511 94.2581 51.9699 94.2581 55.579Z" fill="#F79E1B"/>
</svg>
