<svg xmlns="http://www.w3.org/2000/svg" width="101" height="32" fill="none"><rect id="backgroundrect" width="100%" height="100%" x="0" y="0" fill="none" stroke="none"/>






<g class="currentLayer" style=""><title>Layer 1</title><path d="M52.2252 26.2556H98.5238V30.406H52.2252V26.2556Z" fill="#ffffff" id="svg_1" class="" fill-opacity="1"/><path d="M52.2252 1.59399H98.5238V5.74437H52.2252V1.59399ZM70.7567 10.3158L65.9734 21.7143H62.8447L60.4982 12.6015C60.3478 12.0301 60.2274 11.8496 59.8063 11.609C58.8737 11.1579 57.911 10.8271 56.8882 10.6466L56.9483 10.3158H61.9723C62.6642 10.3158 63.2358 10.8271 63.3261 11.4887L64.5595 18.0752L67.628 10.3158H70.7567ZM83.0007 17.985C83.0007 14.9775 78.8492 14.797 78.8793 13.4737C78.8793 13.0526 79.2703 12.6316 80.1428 12.5113C81.1355 12.4211 82.1584 12.6015 83.0609 13.0226L83.5723 10.6166C82.6999 10.2857 81.7372 10.1053 80.8046 10.1053C77.8865 10.1053 75.8408 11.6692 75.8107 13.8647C75.7806 15.5188 77.2848 16.4211 78.3979 16.9624C79.511 17.5038 79.9322 17.8947 79.9322 18.3759C79.9322 19.1278 78.9996 19.4887 78.1572 19.4887C77.1043 19.5188 76.0514 19.2782 75.1188 18.7669L74.5773 21.2632C75.6302 21.6842 76.7433 21.8947 77.8564 21.8647C80.955 21.8947 82.9706 20.3609 83.0007 17.985ZM90.7021 21.7143H93.4397L91.0631 10.3158H88.5361C87.9946 10.3158 87.4832 10.6466 87.2726 11.1579L82.8202 21.7143H85.9188L86.5205 20H90.311L90.7021 21.7143ZM87.3929 17.6842L88.9572 13.4135L89.8598 17.6842H87.3929ZM74.9684 10.3158L72.5316 21.7143H69.5834L72.0202 10.3158H74.9684Z" fill="#ffffff" id="svg_2" class="" fill-opacity="1"/><path d="M14.1093 29.3233V27.5188C14.1694 26.9473 13.7483 26.4361 13.1466 26.3759H12.9962C12.6051 26.3458 12.214 26.5564 11.9733 26.8872C11.7627 26.5564 11.4017 26.3458 11.0107 26.3759C10.6797 26.3759 10.3488 26.5263 10.1382 26.797V26.4361H9.56665V29.3233H10.1382V27.6692C10.1082 27.3082 10.3488 26.9774 10.7399 26.9173H10.8602C11.2814 26.9173 11.5221 27.1879 11.5221 27.6692V29.3233H12.0937V27.6692C12.0636 27.3082 12.3043 26.9774 12.6953 26.9173H12.8157C13.2368 26.9173 13.4775 27.1879 13.4775 27.6692V29.3233H14.1093ZM23.4953 26.4661H22.4424V25.594H21.8708V26.4661H21.2692V26.9774H21.8708V28.3308C21.8708 28.9925 22.1115 29.3834 22.8335 29.3834C23.1042 29.3834 23.375 29.2932 23.6157 29.1729L23.4352 28.6616C23.2848 28.7519 23.0742 28.812 22.8937 28.812C22.653 28.8421 22.4725 28.6616 22.4424 28.421V26.9473H23.4953V26.4661ZM28.8502 26.3759C28.5193 26.3759 28.2485 26.5263 28.068 26.797V26.4361H27.4964V29.3233H28.068V27.6992C28.068 27.218 28.3087 26.9173 28.6998 26.9173C28.8201 26.9173 28.9705 26.9473 29.0909 26.9774L29.2714 26.4361C29.121 26.406 29.0006 26.3759 28.8502 26.3759ZM20.7577 26.6767C20.3967 26.4661 20.0056 26.3458 19.5845 26.3759C18.8625 26.3759 18.4112 26.7067 18.4112 27.2782C18.4112 27.7594 18.7421 28.0301 19.3739 28.1203L19.6747 28.1504C20.0056 28.2105 20.2162 28.3308 20.2162 28.4812C20.2162 28.6917 19.9756 28.8421 19.5243 28.8421C19.1934 28.8421 18.8324 28.7519 18.5616 28.5413L18.2608 28.9925C18.6218 29.2331 19.043 29.3534 19.4942 29.3534C20.3366 29.3534 20.7878 28.9624 20.7878 28.421C20.7878 27.8797 20.4268 27.6692 19.7951 27.5789L19.4942 27.5489C19.2235 27.5188 18.9828 27.4285 18.9828 27.2481C18.9828 27.0676 19.2235 26.8872 19.5544 26.8872C19.8552 26.8872 20.1861 26.9774 20.4569 27.1278L20.7577 26.6767ZM29.512 27.8797C29.4519 28.6616 30.0535 29.3233 30.8357 29.3834H31.0162C31.3772 29.4135 31.7382 29.2932 32.0391 29.0526L31.7382 28.6015C31.5276 28.7819 31.2569 28.8722 30.9861 28.8722C30.4446 28.8421 30.0536 28.3609 30.1137 27.8195C30.1438 27.3383 30.5349 26.9774 30.9861 26.9473C31.2569 26.9473 31.5276 27.0376 31.7382 27.218L32.0391 26.7669C31.7382 26.5263 31.3772 26.406 31.0162 26.4361C30.2641 26.3458 29.6023 26.8872 29.512 27.609V27.8797ZM25.4508 26.3759C24.6084 26.3759 24.0368 26.9774 24.0368 27.8797C23.9767 28.6616 24.5783 29.3233 25.3605 29.3834H25.5109C25.9321 29.3834 26.3533 29.2631 26.6842 28.9925L26.3834 28.5714C26.1427 28.7519 25.8419 28.8722 25.541 28.8722C25.0898 28.9022 24.7288 28.5714 24.6686 28.1203H26.8045V27.8797C26.8045 26.9774 26.263 26.3759 25.4508 26.3759ZM25.4508 26.9173C25.8419 26.8872 26.1728 27.218 26.2029 27.609V27.6391H24.6385C24.6686 27.218 25.0296 26.8872 25.4508 26.9173ZM17.6591 27.8797V26.4361H17.0875V26.797C16.877 26.5263 16.516 26.3458 16.1549 26.3759C15.3126 26.3759 14.6508 27.0376 14.6508 27.8797C14.6508 28.7218 15.3126 29.3834 16.1549 29.3834C16.516 29.4135 16.877 29.2331 17.0875 28.9624V29.3233H17.6591V27.8797ZM15.3126 27.8797C15.3427 27.3684 15.7639 27.0075 16.2753 27.0376C16.7867 27.0676 17.1477 27.4887 17.1176 28C17.0875 28.4812 16.6965 28.8421 16.2151 28.8421C15.7338 28.8421 15.3126 28.4812 15.3126 27.9699V27.8797ZM37.5444 26.3759C37.2134 26.3759 36.9427 26.5263 36.7622 26.797V26.4361H36.1906V29.3233H36.7622V27.6992C36.7622 27.218 37.0028 26.9173 37.3939 26.9173C37.5143 26.9173 37.6647 26.9473 37.785 26.9774L37.9655 26.4361C37.8151 26.406 37.6948 26.3759 37.5444 26.3759ZM42.1772 28.9022C42.2073 28.9022 42.2675 28.9022 42.2976 28.9323C42.3276 28.9323 42.3577 28.9624 42.3878 28.9925C42.4179 29.0225 42.448 29.0526 42.448 29.0827C42.448 29.1128 42.4781 29.1428 42.4781 29.203C42.4781 29.2331 42.4781 29.2932 42.448 29.3233C42.4179 29.3534 42.4179 29.3834 42.3878 29.4135C42.3577 29.4436 42.3276 29.4737 42.2976 29.4737C42.2675 29.4737 42.2374 29.5037 42.1772 29.5037C42.1471 29.5037 42.087 29.5037 42.0569 29.4737C42.0268 29.4436 41.9967 29.4436 41.9666 29.4135C41.9366 29.3834 41.9065 29.3534 41.9065 29.3233C41.9065 29.2932 41.8764 29.2631 41.8764 29.203C41.8764 29.1729 41.8764 29.1128 41.9065 29.0827C41.9366 29.0526 41.9366 29.0225 41.9666 28.9925C41.9967 28.9624 42.0268 28.9323 42.0569 28.9323C42.087 28.9323 42.1471 28.9022 42.1772 28.9022ZM42.1772 29.4135C42.2073 29.4135 42.2374 29.4135 42.2675 29.3834C42.2976 29.3834 42.3276 29.3534 42.3276 29.3233L42.3878 29.2631C42.3878 29.2331 42.4179 29.203 42.4179 29.1729C42.4179 29.1428 42.4179 29.1128 42.3878 29.0827C42.3878 29.0526 42.3577 29.0225 42.3276 29.0225L42.2675 28.9624C42.2374 28.9624 42.2073 28.9323 42.1772 28.9323C42.1471 28.9323 42.1171 28.9323 42.087 28.9624C42.0569 28.9624 42.0268 28.9925 42.0268 29.0225L41.9666 29.0827C41.9666 29.1128 41.9366 29.1428 41.9366 29.1729C41.9366 29.203 41.9366 29.2331 41.9666 29.2631C41.9666 29.2932 41.9967 29.3233 42.0268 29.3233L42.087 29.3834C42.1171 29.4135 42.1471 29.4135 42.1772 29.4135ZM42.2073 29.0827C42.2374 29.0827 42.2675 29.0827 42.2976 29.1128C42.3276 29.1428 42.3276 29.1428 42.3276 29.1729C42.3276 29.203 42.3276 29.203 42.2976 29.2331C42.2675 29.2631 42.2675 29.2631 42.2374 29.2631L42.3276 29.3534H42.2374L42.1471 29.2631H42.1171V29.3534H42.0569V29.0827H42.2073ZM42.1471 29.1128V29.1729H42.2374V29.1128H42.1471ZM35.3182 27.8797V26.4361H34.7466V26.797C34.536 26.5263 34.175 26.3458 33.814 26.3759C32.9717 26.3759 32.3098 27.0376 32.3098 27.8797C32.3098 28.7218 32.9717 29.3834 33.814 29.3834C34.175 29.4135 34.536 29.2331 34.7466 28.9624V29.3233H35.3182V27.8797ZM33.0017 27.8797C33.0318 27.3684 33.453 27.0075 33.9644 27.0376C34.4758 27.0676 34.8368 27.4887 34.8067 28C34.7767 28.4812 34.3856 28.8421 33.9042 28.8421C33.3327 28.8722 33.0017 28.421 33.0017 27.8797ZM41.1544 27.8797V25.2932H40.5828V26.797C40.3722 26.5263 40.0112 26.3458 39.6502 26.3759C38.8079 26.3759 38.146 27.0376 38.146 27.8797C38.146 28.7218 38.8079 29.3834 39.6502 29.3834C40.0112 29.4135 40.3722 29.2331 40.5828 28.9624V29.3233H41.1544V27.8797ZM38.8079 27.8797C38.8379 27.3684 39.2591 27.0075 39.7705 27.0376C40.282 27.0676 40.643 27.4887 40.6129 28C40.5828 28.4812 40.1917 28.8421 39.7104 28.8421C39.229 28.8421 38.8079 28.4812 38.8079 27.9699V27.8797Z" fill="#ffffff" id="svg_3" class="" fill-opacity="1"/><path d="M20.0958 4.54126H30.5348V21.5638H20.0958V4.54126Z" fill="#ffffff" id="svg_4" class="" fill-opacity="1"/><path d="M21.1787 13.0525C21.1787 9.74427 22.6829 6.58637 25.3002 4.54126C20.6072 0.842011 13.7782 1.65404 10.0779 6.34577C6.37764 11.0375 7.18989 17.8646 11.8829 21.5638C13.8083 23.0676 16.1548 23.8796 18.5916 23.8796C21.0283 23.8796 23.3748 23.0676 25.2701 21.5638C22.6829 19.5187 21.1787 16.3608 21.1787 13.0525Z" fill="#ffffff" id="svg_5" class="" fill-opacity="1"/><path d="M42.839 13.0527C42.839 19.0377 37.9654 23.8798 32.0089 23.8798C29.6022 23.8798 27.2557 23.0678 25.3303 21.564C30.0234 17.8347 30.8356 11.0076 27.1053 6.31588C26.5938 5.65423 25.9922 5.05272 25.3303 4.54145C30.0534 0.842199 36.8523 1.6843 40.5225 6.37603C42.0267 8.30085 42.839 10.6467 42.839 13.0527Z" fill="#ffffff" id="svg_6" class="" fill-opacity="1"/></g></svg>