<svg width="131" height="32" viewBox="0 0 131 32" fill="none" xmlns="http://www.w3.org/2000/svg">
<g clip-path="url(#clip0)">
<path d="M115.213 0.608305C117.558 0.608305 119.79 1.14636 121.792 2.10922C122.106 2.25107 122.422 2.42094 122.735 2.5911L121.362 3.80921L119.304 1.68471L115.758 4.80023L113.669 2.56234L107.148 8.36902L111.323 12.9293L109.693 14.3453L113.812 18.9055L112.182 20.3208L118.074 26.8072L121.562 23.6348L124.595 27.0346C123.994 27.4879 123.336 27.942 122.622 28.3379C120.367 29.6021 117.826 30.2648 115.242 30.2624C106.976 30.2624 100.256 23.6075 100.256 15.4226C100.227 7.29292 106.948 0.608154 115.213 0.608154V0.608305ZM112.467 14.5156L116.043 11.343L119.247 14.8833L115.671 18.0556L112.467 14.5156ZM115.013 20.6338L118.56 17.4332L121.792 20.9733L118.216 24.146L115.013 20.6338ZM109.923 8.48286L113.498 5.31027L116.701 8.8506L113.125 12.023L109.923 8.48271V8.48286ZM116.472 6.78272L119.132 4.40358L121.535 7.03782L118.875 9.44512L116.472 6.78272ZM121.22 17.6876L123.879 15.3083L126.282 17.9701L123.622 20.3509L121.22 17.6876ZM123.565 23.0414L126.225 20.6617L128.626 23.2959L125.967 25.7029L123.565 23.0416V23.0414ZM124.652 10.8048L126.425 9.21849L128.026 10.9753L126.253 12.5609L124.652 10.8048ZM122.364 5.56477L124.137 3.95061L125.739 5.73478L123.965 7.32093L122.364 5.56477H122.364ZM126.911 16.0453L128.684 14.4591L130.314 16.2153L128.513 17.801L126.911 16.0451L126.911 16.0453ZM118.932 12.108L121.592 9.72868L123.994 12.3625L121.335 14.7422L118.932 12.108Z" fill="#036CB5"/>
<mask id="mask0" mask-type="alpha" maskUnits="userSpaceOnUse" x="1" y="6" width="16" height="15">
<path d="M1.18921 6.76953V20.4603H16.8217V6.76953H1.18921Z" fill="white"/>
</mask>
<g mask="url(#mask0)">
<path d="M9.0344 10.8235H8.89956L6.36667 20.4603H4.29677L1.18921 6.76953H3.33713L5.4855 16.9851H5.61959L8.11264 6.76953H9.82027L12.4865 16.9851H12.6207L14.5774 6.76953H16.8217L13.7134 20.4603H11.6418L9.0344 10.8235Z" fill="#036CB5"/>
</g>
<path d="M19.5473 14.6319H23.9388C23.8435 12.605 22.8647 11.7948 21.8293 11.7948C20.6594 11.7948 19.7573 12.7021 19.5473 14.6319ZM25.4729 18.2632V19.7309C24.6101 20.2329 23.4599 20.6194 22.078 20.6194C18.8566 20.6194 17.5332 18.6112 17.5332 15.5606C17.5332 12.6242 19.0098 10.5 21.8869 10.5C24.2838 10.5 25.7616 12.0653 25.7616 15.2119V15.9266H19.5089C19.5089 18.243 20.4481 19.2667 22.4245 19.2667C23.4599 19.2667 24.4189 18.8993 25.4729 18.2632ZM30.2229 19.0711C30.8368 19.3412 31.5086 19.3813 31.9889 19.3813C33.4079 19.3813 34.4809 18.4918 34.4809 15.3643C34.4809 12.912 33.5986 12.1202 32.3142 12.1202C31.5463 12.1202 30.9903 12.3333 30.2228 12.7572V19.0711H30.2229ZM30.243 11.3289C30.817 11.0209 31.7951 10.6139 32.8313 10.6139C35.2098 10.6139 36.4951 12.2746 36.4951 15.3643C36.4951 18.9754 34.7686 20.7328 31.9889 20.7328C30.9715 20.7328 29.3989 20.4044 28.2474 19.7852V6.30811L30.243 5.82593V11.3287V11.3289ZM45.1279 17.5552H45.2239L49.3277 6.76108H51.7072V20.4527H49.6358V10.5267H49.4629L45.5495 20.4527H44.3232L40.4089 10.7587H40.2369V20.4527H38.5105V6.76108H40.832L45.1279 17.5552ZM60.1707 15.56C60.1707 12.9533 59.1163 11.8532 57.8122 11.8532C56.5468 11.8532 55.4524 12.9534 55.4524 15.56C55.4524 18.2058 56.451 19.2667 57.8122 19.2667C59.1733 19.2667 60.1707 18.2056 60.1707 15.56ZM53.4394 15.56C53.4394 12.1795 55.2811 10.5002 57.8122 10.5002C60.3447 10.5002 62.1856 12.1795 62.1856 15.56C62.1856 18.8613 60.4403 20.6194 57.8122 20.6194C55.1846 20.6194 53.4394 18.8613 53.4394 15.56ZM63.7026 11.9302C64.5656 11.4079 66.3885 10.5002 68.5937 10.5002C70.8951 10.5002 71.7567 11.4079 71.7567 13.3963V20.3875H69.7635V13.841C69.7635 12.3158 69.0167 12.0455 68.0372 12.0455C67.271 12.0455 66.2915 12.3937 65.6975 12.7412V20.3875H63.7027V11.9302H63.7026ZM75.9789 14.6319H80.3708C80.2764 12.605 79.2971 11.7948 78.2614 11.7948C77.0911 11.7948 76.1907 12.7021 75.9789 14.6319ZM81.9048 18.2632V19.7309C81.0423 20.2329 79.8914 20.6194 78.5101 20.6194C75.2897 20.6194 73.9655 18.6112 73.9655 15.5606C73.9655 12.6242 75.4415 10.5 78.3188 10.5C80.7173 10.5 82.1948 12.0653 82.1948 15.2119V15.9266H75.9412C75.9412 18.243 76.8811 19.2667 78.8568 19.2667C79.8914 19.2667 80.8518 18.8993 81.9048 18.2632ZM90.1614 10.5002H92.2142L88.7423 20.1538C87.782 22.8188 86.6133 24.2091 84.4079 24.2091V22.6269C85.713 22.6269 86.5174 21.5836 86.9787 20.1538L83.2959 10.5002H85.4061L87.8609 17.606H87.9761L90.1614 10.5002Z" fill="#036CB5"/>
<path d="M21.9066 29.3596V28.5258C22.6179 28.8876 23.2947 29.0692 23.9359 29.0692C24.4702 29.0692 24.8793 28.9711 25.1652 28.773C25.4511 28.5763 25.5944 28.3102 25.5944 27.9739C25.5944 27.6377 25.4767 27.3854 25.2415 27.2177C25.007 27.0502 24.5682 26.8427 23.9266 26.597C23.783 26.5435 23.64 26.4887 23.4974 26.4325C23.4343 26.4072 23.3104 26.355 23.1259 26.2777C22.9419 26.2006 22.8212 26.142 22.7642 26.1035C22.7068 26.0636 22.6103 26.0051 22.4735 25.9288C22.337 25.8505 22.245 25.7814 22.1969 25.721C22.1498 25.6591 22.0843 25.5806 22.0016 25.4871C21.9192 25.3938 21.8635 25.3013 21.8348 25.2069C21.8028 25.0999 21.7758 24.9914 21.7539 24.8819C21.7278 24.751 21.7151 24.6178 21.7159 24.4844C21.7159 23.9352 21.9177 23.4935 22.3209 23.1571C22.7246 22.8219 23.2817 22.6538 23.9933 22.6538C24.6221 22.6538 25.2484 22.7698 25.8702 23.0026V23.8838C25.267 23.5862 24.6635 23.4388 24.0599 23.4388C23.6344 23.4388 23.3166 23.5278 23.1069 23.7085C22.8972 23.8892 22.7924 24.1284 22.7924 24.4261C22.7924 24.7428 22.8974 24.983 23.1071 25.1481C23.3166 25.3138 23.6918 25.4963 24.2318 25.6961C25.1589 26.0386 25.7975 26.3486 26.1467 26.6268C26.4963 26.9039 26.6708 27.3184 26.6708 27.8669C26.6708 28.4424 26.4311 28.9129 25.9514 29.2779C25.4717 29.6429 24.813 29.8254 23.9741 29.8254C23.206 29.8254 22.5165 29.6696 21.9066 29.3596ZM31.6021 29.6787H30.697L30.6301 29.1167C30.0834 29.5694 29.5373 29.7959 28.991 29.7959C28.5339 29.7959 28.1796 29.6718 27.9289 29.4224C27.6775 29.1737 27.5522 28.8595 27.5522 28.4773C27.5522 28.2768 27.5887 28.0852 27.6619 27.9009C27.735 27.7166 27.8558 27.538 28.0239 27.3635C28.1922 27.1888 28.4463 27.0487 28.786 26.9415C29.1257 26.8343 29.5341 26.7814 30.0108 26.7814H30.6017V26.5197C30.6017 26.0869 30.5223 25.7924 30.3635 25.6332C30.2041 25.4748 29.9376 25.3957 29.5629 25.3957C29.1056 25.3957 28.5432 25.5855 27.8764 25.9675V25.1924C28.5626 24.8759 29.2356 24.7164 29.8963 24.7164C30.5375 24.7164 30.9828 24.8497 31.23 25.115C31.4781 25.3793 31.6021 25.7806 31.6021 26.3155V29.6787ZM30.6113 27.4595H30.1058C29.0639 27.4595 28.5432 27.7732 28.5432 28.4001C28.5432 28.6206 28.6128 28.7787 28.7528 28.8794C28.8927 28.9799 29.0674 29.0296 29.2774 29.0296C29.5435 29.0296 29.8011 28.9648 30.0488 28.8353C30.2966 28.7068 30.4842 28.5582 30.6112 28.3902V27.4595H30.6113ZM33.1504 31.6177V25.4254C33.43 25.2115 33.7599 25.0396 34.1414 24.9107C34.5228 24.7824 34.897 24.7164 35.2658 24.7164C36.5868 24.7164 37.2478 25.5276 37.2478 27.1499C37.2478 27.9899 37.0764 28.6329 36.7331 29.0779C36.3901 29.5242 35.8982 29.7461 35.2561 29.7461C34.8113 29.7461 34.4398 29.6331 34.1414 29.4083V31.6177H33.1504ZM34.132 25.7538V28.6913C34.259 28.8136 34.4191 28.9046 34.613 28.9665C34.8069 29.0277 34.9769 29.0583 35.1229 29.0583C35.4721 29.0583 35.7472 28.9219 35.9472 28.6472C36.1473 28.3721 36.247 27.8732 36.247 27.1501C36.247 26.5622 36.1443 26.1312 35.9378 25.8613C35.7314 25.5891 35.4628 25.454 35.1322 25.454C34.7579 25.454 34.4245 25.5535 34.1318 25.7537L34.132 25.7538ZM39.5205 24.7663V29.6787H38.5296V25.008L39.5205 24.7663ZM38.377 23.3408C38.377 23.1664 38.4419 23.0134 38.572 22.8801C38.7028 22.7479 38.8535 22.6814 39.0244 22.6814C39.1964 22.6814 39.3473 22.7479 39.4778 22.8801C39.608 23.0134 39.6731 23.1663 39.6731 23.3409C39.6731 23.5156 39.608 23.6692 39.4777 23.8022C39.3473 23.9332 39.1966 23.9998 39.0244 23.9998C38.8537 23.9998 38.7028 23.9334 38.572 23.8022C38.4419 23.6692 38.377 23.5152 38.377 23.3408ZM43.2319 29.1166C43.6896 29.1166 44.1939 28.9485 44.747 28.6133V29.3497C44.2389 29.6474 43.6767 29.7959 43.0604 29.7959C42.2855 29.7959 41.7155 29.5729 41.3502 29.1268C40.9849 28.6806 40.8021 28.0577 40.8021 27.2564C40.8021 26.4935 40.9897 25.8791 41.364 25.4154C41.7392 24.9503 42.2724 24.7164 42.9649 24.7164C43.5752 24.7164 44.0478 24.9173 44.3853 25.3183C44.7219 25.7195 44.8896 26.3065 44.8896 27.0817V27.4409H41.7837C41.7837 28.0161 41.9013 28.4397 42.1361 28.7094C42.3712 28.982 42.7364 29.1166 43.2319 29.1166ZM42.9362 25.367C42.6381 25.367 42.3868 25.4865 42.1836 25.7246C41.9806 25.964 41.8533 26.32 41.8025 26.7903H43.9845C43.959 26.3129 43.8481 25.9568 43.651 25.7211C43.4544 25.4847 43.2161 25.3668 42.9362 25.3668V25.367ZM46.1522 29.6787V25.4344C46.9335 24.956 47.7434 24.7164 48.5824 24.7164C49.1477 24.7164 49.5507 24.8336 49.7922 25.0664C50.0336 25.2992 50.1544 25.6672 50.1544 26.1706V29.6787H49.1635V26.3937C49.1635 26.0386 49.0903 25.7991 48.9443 25.6772C48.7981 25.5537 48.5855 25.4927 48.3058 25.4927C47.9249 25.4927 47.5372 25.6094 47.1435 25.8418V29.6787H46.1522ZM52.646 24.9503H54.1517L53.9133 25.6094H52.6461V28.1673C52.6461 28.8136 52.9193 29.1365 53.4654 29.1365C53.6751 29.1365 53.8878 29.0916 54.1045 29.0009V29.6206C53.8057 29.7373 53.4497 29.7959 53.037 29.7959C52.5604 29.7959 52.2111 29.6583 51.9886 29.3828C51.7665 29.1095 51.6551 28.7489 51.6551 28.3019V24.3101L52.6461 23.5825V24.9503H52.646ZM56.0913 24.7663V29.6787H55.1001V25.008L56.0913 24.7663ZM54.9478 23.3408C54.9478 23.1664 55.0131 23.0134 55.1425 22.8801C55.2727 22.7479 55.4236 22.6814 55.5956 22.6814C55.7669 22.6814 55.9181 22.7479 56.0479 22.8801C56.1783 23.0134 56.2434 23.1663 56.2434 23.3409C56.2434 23.5156 56.1783 23.6692 56.0479 23.8022C55.9181 23.9332 55.7668 23.9998 55.5954 23.9998C55.4236 23.9998 55.2727 23.9334 55.1425 23.8022C55.0129 23.6692 54.9478 23.5152 54.9478 23.3408ZM62.8374 25.1049V25.8793C62.3609 25.5565 61.8779 25.3957 61.3892 25.3957C61.1415 25.3957 60.9382 25.4439 60.7789 25.5412C60.6204 25.6376 60.5409 25.7931 60.5409 26.0053C60.5409 26.2066 60.6281 26.3661 60.8028 26.4855C60.9776 26.6054 61.2522 26.7265 61.6274 26.8484C61.8371 26.9197 61.9941 26.9749 62.0987 27.0135C62.2039 27.0532 62.3416 27.1178 62.5134 27.2077C62.6848 27.2985 62.8138 27.3881 62.8993 27.4794C62.985 27.5701 63.0628 27.6889 63.1329 27.838C63.2028 27.9866 63.2372 28.1509 63.2372 28.3319C63.2372 28.7781 63.061 29.1332 62.709 29.398C62.3563 29.6631 61.8843 29.7959 61.294 29.7959C60.6331 29.7959 60.0832 29.6537 59.645 29.3687V28.6133C60.2041 28.9487 60.7154 29.1167 61.1798 29.1167C61.8779 29.1167 62.2275 28.8848 62.2275 28.4191C62.2275 28.329 62.2068 28.2444 62.1656 28.1673C62.1242 28.0897 62.0767 28.0268 62.0228 27.9782C61.9687 27.9298 61.881 27.8751 61.7603 27.8128C61.6395 27.7526 61.5383 27.7075 61.4555 27.678C61.3731 27.6493 61.2429 27.6023 61.0652 27.538C60.8044 27.4409 60.5981 27.3573 60.4455 27.2857C60.2844 27.209 60.1312 27.1166 59.9882 27.0097C59.8355 26.8966 59.7241 26.7615 59.6548 26.607C59.585 26.4524 59.55 26.2678 59.55 26.0548C59.55 25.7833 59.6133 25.5514 59.7405 25.3581C59.8673 25.1629 60.0328 25.0241 60.2358 24.9403C60.439 24.856 60.625 24.7976 60.7932 24.7663C60.9581 24.7333 61.1259 24.7166 61.294 24.7164C61.834 24.7164 62.3484 24.8459 62.8374 25.1049ZM68.1019 29.6787H67.1969L67.1297 29.1167C66.583 29.5694 66.0372 29.7959 65.4913 29.7959C65.0338 29.7959 64.6795 29.6718 64.4286 29.4224C64.1775 29.1737 64.0522 28.8595 64.0522 28.4773C64.0522 28.2768 64.0886 28.0852 64.162 27.9009C64.2349 27.7166 64.3556 27.538 64.524 27.3635C64.6928 27.1888 64.9464 27.0487 65.2861 26.9415C65.6261 26.8343 66.0345 26.7814 66.5103 26.7814H67.1016V26.5197C67.1016 26.0869 67.022 25.7924 66.8638 25.6332C66.704 25.4748 66.4374 25.3957 66.0632 25.3957C65.6055 25.3957 65.0432 25.5855 64.3763 25.9675V25.1924C65.0626 24.8759 65.7355 24.7164 66.3962 24.7164C67.0381 24.7164 67.4823 24.8497 67.7301 25.115C67.9777 25.3793 68.1019 25.7806 68.1019 26.3155V29.6787ZM67.1117 27.4595H66.6062C65.5642 27.4595 65.0432 27.7732 65.0432 28.4001C65.0432 28.6206 65.1131 28.7787 65.2527 28.8794C65.3928 28.9799 65.5669 29.0296 65.777 29.0296C66.0435 29.0296 66.3001 28.9648 66.5489 28.8353C66.7965 28.7068 66.9842 28.5582 67.1117 28.3902V27.4595ZM70.5942 24.9503H72.0995L71.8608 25.6094H70.5942V28.1673C70.5942 28.8136 70.867 29.1365 71.4127 29.1365C71.6227 29.1365 71.8348 29.0916 72.0517 29.0009V29.6206C71.753 29.7373 71.3978 29.7959 70.9837 29.7959C70.5079 29.7959 70.1587 29.6583 69.9364 29.3828C69.7139 29.1095 69.6022 28.7489 69.6022 28.3019V24.3101L70.5942 23.5825V24.9503Z" fill="#B6B6B6"/>
</g>
<defs>
<clipPath id="clip0">
<rect width="129.882" height="32" fill="white" transform="translate(0.755127)"/>
</clipPath>
</defs>
</svg>
