<svg width="123" height="24" viewBox="0 0 123 24" fill="none" xmlns="http://www.w3.org/2000/svg">
<path d="M8.83693 2.19473H7.70728C7.2859 2.19473 6.87343 2.2723 6.4671 2.42762C6.06353 2.58584 5.70494 2.8336 5.39425 3.1738C5.08032 3.514 4.8295 3.96475 4.63807 4.52588C4.44389 5.08701 4.34825 5.78245 4.34825 6.60911C4.34825 7.40006 4.43499 8.06269 4.60829 8.59699C4.78468 9.13129 5.02368 9.5641 5.32547 9.89234C5.62726 10.2237 5.98585 10.4595 6.39833 10.5967C6.81371 10.734 7.24998 10.8027 7.70728 10.8027H8.83677L8.83693 2.19473ZM7.0736 12.5639L3.71457 20.1H1.26416L4.95491 12.0415C4.09129 11.6027 3.39191 10.955 2.86001 10.1015C2.32811 9.25073 2.06225 8.08968 2.06225 6.6243C2.06225 5.59449 2.21452 4.69315 2.51631 3.91416C2.8181 3.13517 3.23349 2.48742 3.75648 1.97412C4.27948 1.46083 4.88921 1.0757 5.58843 0.819052C6.28473 0.562405 7.01987 0.434082 7.79077 0.434082H10.9588V20.1002H8.83693V12.5639H7.0736Z" fill="#FF0000"/>
<path d="M56.9235 20.294C55.4354 20.294 54.2699 19.703 53.4271 18.5179C52.5815 17.3361 52.1601 15.5542 52.1601 13.1695C52.1601 12.086 52.2646 11.107 52.4768 10.2265C52.686 9.346 52.9998 8.59982 53.4121 7.98503C53.8247 7.37024 54.3386 6.8925 54.9542 6.55246C55.5699 6.21517 56.2811 6.04499 57.0879 6.04499C57.7125 6.04499 58.2176 6.11368 58.603 6.25089C58.9886 6.38826 59.3382 6.55828 59.6521 6.76127L59.3472 8.79683C59.0543 8.53129 58.7077 8.30147 58.3161 8.10139C57.9268 7.90598 57.4968 7.80478 57.0611 7.80596C56.29 7.80596 55.6565 8.23877 55.1605 9.10422C54.6644 9.97291 54.4163 11.2891 54.4163 13.059C54.4163 14.8109 54.6255 16.1601 55.0379 17.1092C55.4503 18.0584 56.0987 18.5331 56.9803 18.5331C57.5124 18.5331 57.9695 18.4434 58.3551 18.2643C58.7406 18.0852 59.0632 17.8793 59.3204 17.6524L59.8163 19.2492C59.4441 19.5629 59.0258 19.8176 58.5762 20.0044C58.119 20.1984 57.5661 20.2939 56.9235 20.2939V20.294ZM45.8814 13.1963V20.0999H43.7327V6.23893H45.8814V12.647L49.2135 6.23893H51.389L47.9463 12.7576L51.885 20.0998H49.5422L45.8814 13.1963ZM37.699 7.80596C37.0387 7.80596 36.5725 8.17606 36.2944 8.91917C36.0195 9.66244 35.8462 10.6564 35.7716 11.9039H39.3248C39.3248 11.3159 39.298 10.7727 39.2412 10.2683C39.1873 9.76394 39.1007 9.32822 38.9811 8.96103C38.8615 8.59384 38.6942 8.31036 38.485 8.10737C38.273 7.90745 38.0128 7.80596 37.699 7.80596ZM41.5571 19.1656C41.1148 19.5149 40.6098 19.7895 40.042 19.9925C39.4713 20.1924 38.8377 20.2939 38.1414 20.2939C36.7098 20.2939 35.5803 19.7387 34.7525 18.6284C33.9277 17.5212 33.5152 15.8915 33.5152 13.7455C33.5152 12.6292 33.59 11.6025 33.7482 10.6653C33.9037 9.73113 34.1518 8.91917 34.4926 8.23279C34.8302 7.54333 35.2666 7.00903 35.7985 6.62406C36.3304 6.23893 36.9668 6.04499 37.699 6.04499C38.2699 6.04499 38.7929 6.15844 39.2709 6.38826C39.7462 6.61808 40.1525 6.98818 40.4813 7.50147C40.8131 8.01493 41.07 8.68046 41.2522 9.49824C41.4346 10.3131 41.5273 11.307 41.5273 12.483V13.6649H35.7446C35.7446 15.2408 35.9598 16.4346 36.3932 17.2406C36.8236 18.0464 37.4689 18.4495 38.3326 18.4495C38.9394 18.4495 39.4773 18.3449 39.9435 18.1329C40.4126 17.9241 40.7862 17.718 41.0611 17.5152L41.5571 19.1656ZM28.9968 7.99699H26.6002V8.24475C26.6002 8.9759 26.5883 9.7759 26.5614 10.6444C26.5305 11.5286 26.4707 12.4115 26.3821 13.2917C26.2909 14.1792 26.1623 15.0626 25.9967 15.9393C25.8292 16.8107 25.5991 17.6107 25.3062 18.3419H28.9969L28.9968 7.99699ZM32.2182 22.8249H30.2908V20.0999H24.3439V22.8248H22.4163V18.3419H23.2679C23.5818 17.6077 23.8298 16.7959 24.0121 15.9063C24.1981 14.9963 24.3407 14.078 24.4393 13.1545C24.538 12.2113 24.6039 11.2474 24.6308 10.2683C24.6605 9.28636 24.6725 8.33719 24.6725 7.42099V6.23893H31.1185V18.3419H32.2182V22.8249ZM21.1761 6.23893V20.0999H19.0543V13.8858H15.8597V20.0999H13.7109V6.23893H15.8597V12.1248H19.0543V6.23893H21.1761ZM72.9536 1.53525H68.6832C68.6471 4.0542 68.5904 6.26576 68.5186 8.17008C68.444 10.0742 68.3544 11.7428 68.2437 13.1784C68.1152 14.6677 67.9359 15.8974 67.7058 16.8616C67.4757 17.8286 67.1768 18.542 66.8093 19.0014H72.9536V1.53525ZM74.4119 20.0999H65.9844L65.7933 23.3741H64.7173V19.0016H65.2971C65.7724 18.5956 66.1399 17.8793 66.3968 16.8526C66.654 15.8228 66.857 14.6021 67.0037 13.1873C67.1499 11.7188 67.2516 9.91311 67.3055 7.77606C67.3621 5.6361 67.4069 3.18858 67.4428 0.433838H74.3282V19.0016H75.6789V23.3741H74.606L74.4119 20.0999ZM81.106 7.06285C80.3708 7.06285 79.7402 7.51343 79.2172 8.41784C78.6942 9.31917 78.4044 10.6384 78.3505 12.3726H83.3891C83.4996 10.5281 83.3204 9.18487 82.8541 8.33719C82.3848 7.4866 81.8023 7.06285 81.106 7.06285ZM78.3237 13.3903C78.3596 15.3066 78.6255 16.766 79.1216 17.7688C79.6177 18.7747 80.3708 19.2762 81.3809 19.2762C81.838 19.2762 82.2414 19.2015 82.5913 19.0523C82.9408 18.903 83.2337 18.7239 83.4727 18.518C83.7478 18.315 83.9868 18.0613 84.1899 17.7628L84.6024 18.8075C84.384 19.1176 84.1142 19.3882 83.8046 19.6075C83.5295 19.8074 83.1889 19.9865 82.7855 20.1416C82.3819 20.2968 81.9039 20.3776 81.3509 20.3776C79.8836 20.3776 78.7989 19.7447 78.1026 18.4792C77.4063 17.2138 77.0566 15.4438 77.0566 13.1695C77.0566 12.0322 77.1553 11.0205 77.3584 10.1311C77.5617 9.24159 77.8395 8.48345 78.1982 7.85962C78.5568 7.23901 78.9842 6.76434 79.4802 6.44499C79.9763 6.12256 80.5173 5.96143 81.106 5.96143C81.7095 5.96143 82.2534 6.11965 82.7287 6.43012C83.2068 6.74333 83.6012 7.20911 83.915 7.83295C84.2258 8.45662 84.447 9.23254 84.5755 10.158C84.704 11.0832 84.7131 12.1605 84.6024 13.3903H78.3237ZM93.0836 13.4709H88.3468V20.0999H87.0529V6.23893H88.3468V12.3726H93.0836V6.23893H94.3806V20.0999H93.0836V13.4709ZM98.7317 12.3994V19.0822H99.5565C100.531 19.0822 101.32 18.8225 101.926 18.3C102.53 17.7778 102.835 16.9213 102.835 15.7273C102.835 14.5544 102.56 13.7067 102.007 13.1844C101.457 12.6591 100.686 12.3994 99.6939 12.3994H98.7317ZM97.4347 6.23602H98.7317V11.3816H99.7506C101.072 11.3816 102.126 11.7399 102.915 12.4531C103.707 13.1695 104.102 14.2499 104.102 15.7004C104.102 17.166 103.686 18.2674 102.862 19.0016C102.034 19.7327 100.97 20.0999 99.667 20.0999H97.4347V6.23602ZM107.598 7.33727V20.0999H106.331V6.23602H112.197V7.33727H107.598ZM120.652 10.4474C120.652 10.0802 120.661 9.74309 120.679 9.44151C120.7 9.1401 120.727 8.84159 120.762 8.54907H120.679C120.591 8.85405 120.481 9.1523 120.35 9.44151C120.215 9.74101 120.077 10.0395 119.937 10.3369L115.419 20.1001H114.319V6.23602H115.53V15.8646C115.53 16.2318 115.521 16.572 115.503 16.8823C115.485 17.1959 115.458 17.5062 115.419 17.8165H115.503C115.595 17.5042 115.705 17.1973 115.831 16.8974C115.963 16.5868 116.101 16.2793 116.247 15.975L120.762 6.23602H121.892V20.0999H120.652V10.4474Z" fill="black"/>
</svg>
